<svg width="220" height="220" viewBox="0 0 220 220" fill="none" xmlns="http://www.w3.org/2000/svg">
<path d="M48.5447 161.232C51.3314 161.232 53.766 161.863 55.8487 163.124C57.9607 164.385 59.5887 166.219 60.7327 168.624C61.906 171 62.4927 173.845 62.4927 177.16C62.4927 180.387 61.8914 183.247 60.6887 185.74C59.5154 188.233 57.858 190.169 55.7167 191.548C53.6047 192.927 51.1994 193.616 48.5007 193.616C45.714 193.616 43.2647 192.985 41.1527 191.724C39.07 190.463 37.442 188.644 36.2687 186.268C35.1247 183.863 34.5527 181.003 34.5527 177.688C34.5527 174.461 35.1394 171.601 36.3127 169.108C37.5154 166.615 39.1727 164.679 41.2847 163.3C43.426 161.921 45.846 161.232 48.5447 161.232ZM48.3687 162.024C46.4914 162.024 44.834 162.684 43.3967 164.004C41.9887 165.295 40.8887 167.113 40.0967 169.46C39.334 171.807 38.9527 174.491 38.9527 177.512C38.9527 180.563 39.378 183.247 40.2287 185.564C41.1087 187.881 42.282 189.671 43.7487 190.932C45.2154 192.193 46.858 192.824 48.6767 192.824C50.554 192.824 52.1967 192.179 53.6047 190.888C55.042 189.568 56.142 187.735 56.9047 185.388C57.6967 183.041 58.0927 180.357 58.0927 177.336C58.0927 174.285 57.6527 171.601 56.7727 169.284C55.922 166.967 54.7634 165.177 53.2967 163.916C51.83 162.655 50.1874 162.024 48.3687 162.024ZM80.146 169.724C81.7007 169.724 83.094 170.149 84.326 171C85.5873 171.851 86.57 173.097 87.274 174.74C87.978 176.383 88.33 178.348 88.33 180.636C88.33 182.895 87.9633 185.007 87.23 186.972C86.526 188.937 85.4113 190.536 83.886 191.768C82.39 193 80.5127 193.616 78.254 193.616C77.1393 193.616 76.1273 193.396 75.218 192.956C74.3087 192.516 73.6047 191.944 73.106 191.24V196.872C73.106 198.075 73.458 198.896 74.162 199.336C74.866 199.805 75.922 200.04 77.33 200.04V200.964L76.318 200.92C73.59 200.832 71.8153 200.788 70.994 200.788C70.29 200.788 68.706 200.847 66.242 200.964V200.04C67.3273 200.04 68.0753 199.835 68.486 199.424C68.926 199.043 69.146 198.339 69.146 197.312V175.136C69.146 173.787 68.8967 172.804 68.398 172.188C67.8993 171.572 67.034 171.264 65.802 171.264V170.34C66.7113 170.428 67.6207 170.472 68.53 170.472C70.378 170.472 71.9033 170.267 73.106 169.856V174.52C73.7513 172.995 74.69 171.821 75.922 171C77.154 170.149 78.562 169.724 80.146 169.724ZM77.77 192.604C81.9647 192.604 84.062 188.82 84.062 181.252C84.062 174.447 82.3607 171.044 78.958 171.044C77.638 171.044 76.45 171.528 75.394 172.496C74.338 173.435 73.5753 174.799 73.106 176.588V189.788C73.5167 190.639 74.118 191.328 74.91 191.856C75.702 192.355 76.6553 192.604 77.77 192.604ZM97.5724 193.308C95.7244 193.308 94.3457 192.853 93.4364 191.944C92.5564 191.005 92.1164 189.715 92.1164 188.072C92.1164 186.752 92.4684 185.667 93.1724 184.816C93.9057 183.965 94.7564 183.291 95.7244 182.792C96.7217 182.293 98.0271 181.765 99.6404 181.208C101.283 180.651 102.5 180.137 103.292 179.668C104.084 179.199 104.48 178.568 104.48 177.776V175.048C104.48 173.347 104.114 172.188 103.38 171.572C102.676 170.927 101.679 170.604 100.388 170.604C98.3351 170.604 96.8831 171.132 96.0324 172.188C96.6191 172.335 97.1031 172.643 97.4844 173.112C97.8951 173.581 98.1004 174.168 98.1004 174.872C98.1004 175.605 97.8657 176.192 97.3964 176.632C96.9271 177.043 96.3257 177.248 95.5924 177.248C94.7711 177.248 94.1551 176.999 93.7444 176.5C93.3337 175.972 93.1284 175.341 93.1284 174.608C93.1284 173.904 93.2897 173.317 93.6124 172.848C93.9644 172.379 94.4777 171.909 95.1524 171.44C95.8564 170.941 96.7511 170.531 97.8364 170.208C98.9217 169.885 100.11 169.724 101.4 169.724C103.688 169.724 105.419 170.267 106.592 171.352C107.326 172.027 107.81 172.848 108.044 173.816C108.308 174.755 108.44 176.001 108.44 177.556V189.788C108.44 190.521 108.543 191.049 108.748 191.372C108.954 191.695 109.306 191.856 109.804 191.856C110.156 191.856 110.479 191.783 110.772 191.636C111.095 191.46 111.432 191.225 111.784 190.932L112.268 191.68C111.506 192.267 110.846 192.692 110.288 192.956C109.76 193.191 109.086 193.308 108.264 193.308C106.856 193.308 105.874 192.956 105.316 192.252C104.759 191.548 104.48 190.595 104.48 189.392C103.6 190.859 102.588 191.885 101.444 192.472C100.3 193.029 99.0097 193.308 97.5724 193.308ZM99.5084 191.548C101.444 191.548 103.102 190.433 104.48 188.204V179.58C104.216 179.991 103.85 180.328 103.38 180.592C102.911 180.856 102.192 181.208 101.224 181.648C100.11 182.117 99.2004 182.572 98.4964 183.012C97.8217 183.423 97.2351 183.995 96.7364 184.728C96.2377 185.461 95.9884 186.4 95.9884 187.544C95.9884 188.864 96.3111 189.861 96.9564 190.536C97.6017 191.211 98.4524 191.548 99.5084 191.548ZM133.566 197.312C133.566 198.339 133.772 199.043 134.182 199.424C134.622 199.835 135.385 200.04 136.47 200.04V200.964C134.006 200.847 132.422 200.788 131.718 200.788C130.897 200.788 129.122 200.832 126.394 200.92L125.382 200.964V200.04C126.79 200.04 127.846 199.805 128.55 199.336C129.254 198.896 129.606 198.075 129.606 196.872V189.304C129.02 190.683 128.184 191.753 127.098 192.516C126.042 193.249 124.825 193.616 123.446 193.616C121.716 193.616 120.161 193.176 118.782 192.296C117.433 191.416 116.362 190.081 115.57 188.292C114.778 186.503 114.382 184.303 114.382 181.692C114.382 179.111 114.793 176.925 115.614 175.136C116.436 173.317 117.55 171.968 118.958 171.088C120.396 170.179 122.009 169.724 123.798 169.724C125.294 169.724 126.541 169.988 127.538 170.516C128.536 171.015 129.357 171.821 130.002 172.936L133.126 169.636L133.874 169.944C133.669 170.677 133.566 171.528 133.566 172.496V197.312ZM124.722 192.296C125.808 192.296 126.79 191.856 127.67 190.976C128.58 190.096 129.225 188.849 129.606 187.236V173.64C129.049 172.672 128.301 171.953 127.362 171.484C126.424 170.985 125.353 170.736 124.15 170.736C122.39 170.736 121.026 171.645 120.058 173.464C119.12 175.283 118.65 178.025 118.65 181.692C118.65 185.212 119.164 187.867 120.19 189.656C121.246 191.416 122.757 192.296 124.722 192.296ZM158.359 188.248C158.359 189.597 158.609 190.58 159.107 191.196C159.606 191.812 160.471 192.12 161.703 192.12V193.044C160.794 192.956 159.885 192.912 158.975 192.912C157.127 192.912 155.602 193.117 154.399 193.528V188.336C153.695 190.155 152.698 191.489 151.407 192.34C150.117 193.191 148.709 193.616 147.183 193.616C145.189 193.616 143.663 193.059 142.607 191.944C142.079 191.357 141.698 190.609 141.463 189.7C141.258 188.791 141.155 187.617 141.155 186.18V175.136C141.155 173.787 140.906 172.804 140.407 172.188C139.909 171.572 139.043 171.264 137.811 171.264V170.34C138.721 170.428 139.63 170.472 140.539 170.472C142.387 170.472 143.913 170.267 145.115 169.856V187.148C145.115 188.263 145.174 189.172 145.291 189.876C145.438 190.551 145.746 191.108 146.215 191.548C146.714 191.988 147.462 192.208 148.459 192.208C149.574 192.208 150.586 191.856 151.495 191.152C152.405 190.448 153.109 189.495 153.607 188.292C154.135 187.06 154.399 185.711 154.399 184.244V175.136C154.399 173.787 154.15 172.804 153.651 172.188C153.153 171.572 152.287 171.264 151.055 171.264V170.34C151.965 170.428 152.874 170.472 153.783 170.472C155.631 170.472 157.157 170.267 158.359 169.856V188.248ZM174.73 169.724C177.722 169.724 180.127 170.721 181.946 172.716C183.794 174.681 184.718 177.673 184.718 181.692C184.718 185.711 183.794 188.703 181.946 190.668C180.127 192.633 177.722 193.616 174.73 193.616C171.738 193.616 169.318 192.633 167.47 190.668C165.651 188.703 164.742 185.711 164.742 181.692C164.742 177.673 165.651 174.681 167.47 172.716C169.318 170.721 171.738 169.724 174.73 169.724ZM174.73 170.604C172.97 170.604 171.576 171.513 170.55 173.332C169.523 175.121 169.01 177.908 169.01 181.692C169.01 185.476 169.523 188.263 170.55 190.052C171.576 191.841 172.97 192.736 174.73 192.736C176.49 192.736 177.883 191.841 178.91 190.052C179.936 188.263 180.45 185.476 180.45 181.692C180.45 177.908 179.936 175.121 178.91 173.332C177.883 171.513 176.49 170.604 174.73 170.604Z" fill="black"/>
<path fill-rule="evenodd" clip-rule="evenodd" d="M53.7068 142.663H146.062V50.474H53.7068V142.663ZM147.265 145.069H52.5038C51.8398 145.069 51.3008 144.53 51.3008 143.866V49.271C51.3008 48.606 51.8398 48.067 52.5038 48.067H147.265C147.929 48.067 148.468 48.606 148.468 49.271V143.866C148.468 144.53 147.929 145.069 147.265 145.069Z" fill="black"/>
<path fill-rule="evenodd" clip-rule="evenodd" d="M173.883 116.802H79.1219C78.4579 116.802 77.9189 116.265 77.9189 115.599V83.101C77.9189 82.437 78.4579 81.897 79.1219 81.897H103.269C103.933 81.897 104.472 82.437 104.472 83.101C104.472 83.765 103.933 84.304 103.269 84.304H80.3249V114.396H172.68V22.208H80.3249V49.271C80.3249 49.937 79.7869 50.474 79.1219 50.474C78.4579 50.474 77.9189 49.937 77.9189 49.271V21.005C77.9189 20.339 78.4579 19.802 79.1219 19.802H173.883C174.547 19.802 175.086 20.339 175.086 21.005V115.599C175.086 116.265 174.547 116.802 173.883 116.802Z" fill="black"/>
<path fill-rule="evenodd" clip-rule="evenodd" d="M114.692 80.64C113.333 80.64 112.226 81.743 112.226 83.101C112.226 84.456 113.333 85.56 114.692 85.56C116.053 85.56 117.16 84.456 117.16 83.101C117.16 81.743 116.053 80.64 114.692 80.64ZM114.692 87.966C112.006 87.966 109.82 85.784 109.82 83.101C109.82 80.417 112.006 78.233 114.692 78.233C117.38 78.233 119.566 80.417 119.566 83.101C119.566 85.784 117.38 87.966 114.692 87.966Z" fill="black"/>
</svg>
