<?xml version="1.0" encoding="UTF-8"?>
<svg width="220px" height="220px" viewBox="0 0 220 220" version="1.1" xmlns="http://www.w3.org/2000/svg" xmlns:xlink="http://www.w3.org/1999/xlink">
    <!-- Generator: Sketch 54.1 (76490) - https://sketchapp.com -->
    <title>berliand</title>
    <desc>Created with Sketch.</desc>
    <g id="Page-1" stroke="none" stroke-width="1" fill="none" fill-rule="evenodd">
        <g id="color-copy" transform="translate(-895.000000, -290.000000)" fill="#000000">
            <g id="nama" transform="translate(119.000000, 174.000000)" font-family="BigCaslon-Medium, Big Caslon" font-size="30" font-weight="400">
                <text id="Berliand">
                    <tspan x="832" y="322">Berliand</tspan>
                </text>
            </g>
            <path d="M1004.42,438.821 C1004.11,438.821 1003.81,438.69 1003.59,438.462 L929.482,359.946 C929.136,359.577 929.071,359.026 929.323,358.587 L948.499,325.245 C948.704,324.89 949.082,324.671 949.492,324.671 L959.572,324.671 C960.204,324.671 960.718,325.183 960.718,325.815 C960.718,326.45 960.204,326.962 959.572,326.962 L950.156,326.962 L931.735,358.991 L1004.42,436.001 L1076.49,359.026 L1056,326.962 L979.344,326.962 C978.711,326.962 978.198,326.45 978.198,325.815 C978.198,325.183 978.711,324.671 979.344,324.671 L1056.63,324.671 C1057.02,324.671 1057.39,324.87 1057.6,325.198 L1078.91,358.542 C1079.19,358.983 1079.13,359.56 1078.78,359.942 L1005.26,438.458 C1005.04,438.688 1004.74,438.819 1004.43,438.821 L1004.42,438.821" id="Fill-140"></path>
            <path d="M930.315,360.306 C929.791,360.306 929.318,359.942 929.198,359.409 C929.059,358.792 929.448,358.179 930.064,358.04 L1018.76,338.114 C1019.39,337.974 1020,338.364 1020.13,338.981 C1020.27,339.599 1019.88,340.212 1019.27,340.351 L930.567,360.276 L930.315,360.306" id="Fill-141"></path>
            <path d="M1077.94,360.306 C1077.82,360.306 1077.69,360.286 1077.57,360.245 L978.977,326.901 C978.377,326.7 978.055,326.048 978.258,325.448 C978.461,324.849 979.111,324.528 979.711,324.729 L1078.31,358.073 C1078.91,358.276 1079.23,358.927 1079.03,359.526 C1078.86,360.003 1078.42,360.306 1077.94,360.306" id="Fill-142"></path>
            <path d="M969.396,323.472 C968.1,323.472 967.045,324.524 967.045,325.815 C967.045,327.108 968.1,328.161 969.396,328.161 C970.691,328.161 971.745,327.108 971.745,325.815 C971.745,324.524 970.691,323.472 969.396,323.472 Z M969.396,330.452 C966.836,330.452 964.753,328.372 964.753,325.815 C964.753,323.259 966.836,321.181 969.396,321.181 C971.955,321.181 974.038,323.259 974.038,325.815 C974.038,328.372 971.955,330.452 969.396,330.452 L969.396,330.452 Z" id="Fill-143"></path>
        </g>
    </g>
</svg>