<svg width="1693" height="2165" viewBox="0 0 1693 2165" fill="none" xmlns="http://www.w3.org/2000/svg">
<g clip-path="url(#clip0)">
<rect width="1920" height="8988" transform="translate(-227 -2074)" fill="white"/>
<g clip-path="url(#clip1)">
<path d="M321.949 1366.41C263.621 1117.25 28.7197 1233.85 11.1152 797.632C18.5457 497.695 125.494 351.48 367.51 190.813C575.544 52.7059 845.6 11.8108 1107.28 10.8429C1369.34 9.50001 1623.02 48.8393 1860.75 151.446C2097.71 254.048 2317.96 420.669 2421.97 640.258C2525.98 859.847 2513 1132.4 2478.17 1393.53C2443.34 1653.91 2386.29 1903.24 2226.15 2036.69C2066.39 2170.51 2098.36 1990.58 1886.5 1963.89C1639.11 2354.03 1347.9 2047.34 993.36 1973.77C771.44 1927.72 733.303 2320.13 369.358 2110.46C53.8974 1857.7 379.898 1615.93 321.949 1366.41Z" fill="#2CC5F4" fill-opacity="0.08"/>
</g>
<path d="M1459.5 653C1459.5 664.254 1450.17 673.5 1438.5 673.5C1426.83 673.5 1417.5 664.254 1417.5 653C1417.5 641.746 1426.83 632.5 1438.5 632.5C1450.17 632.5 1459.5 641.746 1459.5 653Z" stroke="#00843E" stroke-opacity="0.08" stroke-width="7"/>
<path d="M1668.5 1399C1668.5 1461.64 1617.05 1512.5 1553.5 1512.5C1489.95 1512.5 1438.5 1461.64 1438.5 1399C1438.5 1336.36 1489.95 1285.5 1553.5 1285.5C1617.05 1285.5 1668.5 1336.36 1668.5 1399Z" stroke="#00843E" stroke-opacity="0.08" stroke-width="7"/>
<path d="M398.5 1894.52C398.5 1908.09 388.741 1918.41 377.5 1918.41C366.259 1918.41 356.5 1908.09 356.5 1894.52C356.5 1880.94 366.259 1870.62 377.5 1870.62C388.741 1870.62 398.5 1880.94 398.5 1894.52Z" stroke="#00843E" stroke-opacity="0.08" stroke-width="7"/>
<path d="M1022.11 888.88L1049.31 800.469L1104.2 871.011L1022.11 888.88Z" stroke="#00843E" stroke-opacity="0.07" stroke-width="8"/>
<path d="M1150.75 361.879L1131.38 349.372L1150.75 336.866L1150.75 361.879Z" stroke="#00843E" stroke-opacity="0.07" stroke-width="8"/>
<path d="M1302.47 1276.73L1254.88 1263.23L1289.13 1223.89L1302.47 1276.73Z" stroke="#00843E" stroke-opacity="0.07" stroke-width="8"/>
<path d="M936 1931.99C940.356 1946.86 946.491 1954.12 955.367 1954.91C964.978 1955.77 967.307 1931.13 976.918 1931.99C985.793 1932.79 987.409 1954.12 996.285 1954.91C1005.9 1955.77 1008.22 1931.13 1017.84 1931.99C1026.71 1932.79 1028.33 1954.12 1037.2 1954.91C1046.81 1955.77 1049.14 1931.13 1058.75 1931.99C1067.63 1932.79 1069.24 1954.12 1078.12 1954.91C1087.73 1955.77 1094.95 1948.09 1099.67 1931.99" stroke="#00843E" stroke-opacity="0.08" stroke-width="7"/>
<path d="M322.537 372.016C316.215 385.97 315.961 395.956 321.736 403.533C327.988 411.74 345.217 396.158 351.47 404.364C357.244 411.942 344.895 428.304 350.669 435.882C356.921 444.088 374.151 428.507 380.403 436.713C386.177 444.291 373.828 460.653 379.602 468.231C385.855 476.437 403.084 460.856 409.337 469.062C415.111 476.64 402.761 493.002 408.535 500.58C414.788 508.786 424.754 509.064 438.27 501.411" stroke="#00843E" stroke-opacity="0.08" stroke-width="7"/>
<path d="M320 1725.15C324.356 1740.02 330.491 1747.28 339.367 1748.07C348.978 1748.93 351.307 1724.29 360.918 1725.15C369.793 1725.95 371.409 1747.28 380.285 1748.07C389.896 1748.93 392.224 1724.29 401.836 1725.15C410.711 1725.95 412.327 1747.28 421.202 1748.07C430.814 1748.93 433.142 1724.29 442.753 1725.15C451.629 1725.95 453.245 1747.28 462.12 1748.07C471.731 1748.93 478.954 1741.25 483.671 1725.15" stroke="#00843E" stroke-opacity="0.08" stroke-width="7"/>
<path d="M1583.02 2057.33C1597.01 2057.21 1605.06 2052.88 1608.44 2043.67C1612.09 2033.7 1591.81 2023.72 1595.46 2013.75C1598.84 2004.54 1617.51 2009.3 1620.88 2000.09C1624.54 1990.12 1604.26 1980.14 1607.91 1970.17C1611.29 1960.96 1629.95 1965.72 1633.33 1956.51C1636.99 1946.54 1616.7 1936.56 1620.36 1926.59C1623.73 1917.38 1642.4 1922.14 1645.78 1912.93C1649.43 1902.96 1645.08 1892.93 1632.8 1883.01" stroke="#00843E" stroke-opacity="0.08" stroke-width="7"/>
</g>
<defs>
<clipPath id="clip0">
<rect width="1920" height="8988" fill="white" transform="translate(-227 -2074)"/>
</clipPath>
<clipPath id="clip1">
<rect width="2955.54" height="3194.73" fill="white" transform="translate(1265.01 -1090) rotate(45)"/>
</clipPath>
</defs>
</svg>
