<svg width="1879" height="1288" viewBox="0 0 1879 1288" fill="none" xmlns="http://www.w3.org/2000/svg">
<g clip-path="url(#clip0)">
<rect width="1920" height="8988" transform="translate(0 -6474)" fill="white"/>
<path d="M440.479 93.3793C648.274 85.3825 810.499 33.2094 1027.8 10.0981C1245.46 -13.4081 1518.2 -7.85228 1686.05 130.608C1853.9 269.068 1917.88 540.634 1843.88 790.711C1770.25 1040.39 1558.98 1268.89 1324.08 1280.37C1089.54 1291.45 831.706 1085.82 657.423 1051.56C483.498 1016.9 393.809 1153.51 293.195 1201.12C192.58 1248.72 81.3977 1206.92 -18.3368 1120.13C-118.071 1033.33 -206.687 901.244 -247.177 712.091C-287.31 522.543 -280.334 275.732 -149.984 170.218C-19.993 65.0998 233.042 100.981 440.479 93.3793Z" fill="#EFFBFF"/>
<path d="M1719.5 883.963C1719.5 895.75 1710.06 905.238 1698.5 905.238C1686.94 905.238 1677.5 895.75 1677.5 883.963C1677.5 872.177 1686.94 862.689 1698.5 862.689C1710.06 862.689 1719.5 872.177 1719.5 883.963Z" stroke="#FFDC26" stroke-opacity="0.29" stroke-width="7"/>
<path d="M1541.5 265.617C1541.5 293.32 1519.3 315.711 1492 315.711C1464.7 315.711 1442.5 293.32 1442.5 265.617C1442.5 237.915 1464.7 215.524 1492 215.524C1519.3 215.524 1541.5 237.915 1541.5 265.617Z" stroke="#FFDC26" stroke-opacity="0.29" stroke-width="7"/>
<path d="M1202.37 567.926L1229.35 488.591L1283.8 551.892L1202.37 567.926Z" stroke="#FFDC26" stroke-opacity="0.29" stroke-width="8"/>
<path d="M945.99 1111.16L896.476 1002.59L1014.22 1013.51L945.99 1111.16Z" stroke="#FFDC26" stroke-opacity="0.29" stroke-width="8"/>
<path d="M277.016 325.49C290.278 329.998 299.152 328.951 305.027 322.186C311.39 314.86 295.117 299.65 301.479 292.324C307.354 285.558 323.615 295.784 329.491 289.019C335.853 281.693 319.58 266.483 325.942 259.157C331.818 252.392 348.079 262.617 353.954 255.852C360.316 248.526 344.043 233.316 350.406 225.99C356.281 219.225 372.542 229.451 378.417 222.685C384.779 215.36 383.59 205.351 374.869 192.823" stroke="#FFDC26" stroke-opacity="0.29" stroke-width="7"/>
<path d="M-51 1017.97C-46.6355 1031.69 -40.4877 1038.39 -31.5943 1039.12C-21.9638 1039.91 -19.6305 1017.17 -10 1017.97C-1.10664 1018.7 0.512343 1038.39 9.4057 1039.12C19.0362 1039.91 21.3695 1017.17 31 1017.97C39.8934 1018.7 41.5123 1038.39 50.4057 1039.12C60.0362 1039.91 62.3695 1017.17 72 1017.97C80.8934 1018.7 82.5123 1038.39 91.4057 1039.12C101.036 1039.91 108.274 1032.82 113 1017.97" stroke="#FFDC26" stroke-opacity="0.29" stroke-width="7"/>
</g>
<defs>
<clipPath id="clip0">
<rect width="1920" height="8988" fill="white" transform="translate(0 -6474)"/>
</clipPath>
</defs>
</svg>
