<svg width="1920" height="838" viewBox="0 0 1920 838" fill="none" xmlns="http://www.w3.org/2000/svg">
<path fill-rule="evenodd" clip-rule="evenodd" d="M-492.101 238.357C-380.447 176.182 -276.3 103.98 -154.301 51.5452C336.314 -159.308 600.83 369.027 1011.01 447.039C1155.58 474.536 1277.57 392.275 1416.35 390.423C1514.91 389.109 1600.89 456.723 1679.83 447.684C1750.55 439.588 1806.21 373.037 1883.83 381.31C1993.53 393.009 2074.62 536.483 2052.18 613.11C2020.78 720.312 1652.66 731.47 1533.06 749.964C1220.27 798.337 888.098 856.172 564.945 832.297C412.645 821.048 266.886 786.39 120.165 757.836C44.3537 743.081 -45.7321 744.535 -117.757 722.131C-307.405 663.142 -449.216 528.899 -516.312 393.889C-523.034 380.367 -584.579 173.707 -498.995 206.898C-483.861 212.767 -492.101 238.357 -492.101 238.357Z" fill="white"/>
</svg>
