<?xml version="1.0"?>
<svg xmlns="http://www.w3.org/2000/svg" xmlns:xlink="http://www.w3.org/1999/xlink" version="1.1" id="Capa_1" x="0px" y="0px" viewBox="0 0 511.999 511.999" style="enable-background:new 0 0 511.999 511.999;" xml:space="preserve" width="512px" height="512px" class=""><g><g>
	<g>
		<path d="M317.901,269.303h-38.825c-3.356-24.928-23.136-44.707-48.063-48.063v-38.824c0-4.154-3.367-7.52-7.52-7.52    c-4.153,0-7.52,3.366-7.52,7.52v38.823c-4.66,0.623-9.194,1.827-13.564,3.609L154.9,197.984c-2.942-1.662-6.631-1.16-9.019,1.228    c-2.389,2.389-2.892,6.079-1.228,9.019l26.865,47.507c-1.782,4.371-2.986,8.905-3.609,13.565h-38.824    c-4.153,0-7.52,3.366-7.52,7.52s3.367,7.52,7.52,7.52h38.825c3.356,24.928,23.135,44.706,48.062,48.063v38.825    c0,4.154,3.367,7.52,7.52,7.52s7.52-3.366,7.52-7.52v-38.823c4.66-0.623,9.195-1.827,13.566-3.609l47.507,26.865    c2.947,1.665,6.634,1.156,9.019-1.228c2.389-2.389,2.892-6.079,1.228-9.019l-26.865-47.508c1.782-4.371,2.986-8.905,3.609-13.565    H317.9c4.153,0,7.52-3.366,7.52-7.52S322.054,269.303,317.901,269.303z M223.494,235.762c22.642,0,41.061,18.42,41.061,41.061    c0,0.576-0.012,1.149-0.035,1.722l-14.414-25.489c-0.61-1.076-1.625-2.155-2.845-2.845l-25.489-14.414    C222.344,235.774,222.917,235.762,223.494,235.762z M171.081,224.411l60.166,34.023l-26.143,26.143L171.081,224.411z     M182.467,275.102l14.414,25.489c0.692,1.223,1.775,2.24,2.844,2.845l25.489,14.414    C201.31,318.833,181.497,299.211,182.467,275.102z M275.905,329.237l-60.166-34.024l26.143-26.143    C245.935,276.236,270.466,319.617,275.905,329.237z" data-original="#000000" class="active-path" data-old_color="#000000" fill="#FFFFFF"/>
	</g>
</g><g>
	<g>
		<path d="M409.565,37.795c-42.179,0-76.532,34.338-76.532,76.531c0,43.683,36.803,78.953,81.007,76.389    c40.975-2.501,72.056-36.435,72.056-76.389C486.096,72.127,451.764,37.795,409.565,37.795z M348.259,109.788    c7.973,5.982,15.554,12.559,22.633,19.637c13.854,13.853,25.585,29.379,34.98,46.271    C372.136,173.686,345.72,144.448,348.259,109.788z M422.276,174.487c-10.569-20.486-24.255-39.204-40.749-55.699    c-9.228-9.228-19.258-17.659-29.872-25.121c8.507-23.773,31.25-40.832,57.91-40.832c33.906,0,61.492,27.585,61.492,61.491    C471.055,143.875,450.102,168.615,422.276,174.487z" data-original="#000000" class="active-path" data-old_color="#000000" fill="#FFFFFF"/>
	</g>
</g><g>
	<g>
		<path d="M505.72,124.694c-4.1-0.676-7.972,2.08-8.658,6.175c-4.216,25.183-18.479,46.591-40.157,60.277    c-2.389,1.507-4.48,3.35-6.215,5.475c-17.439,21.371-22.199,27.205-33.473,41.02c-1.488,1.474-5.527,5.375-7.629,5.542    c-2.006,0.139-5.85-3.734-7.191-5.012c-0.899-1.003-8.14-9.931-34.34-42.038c-1.505-1.844-3.28-3.407-5.274-4.646    c-46.453-28.896-55.697-91.734-20.903-132.782c16.91-19.949,41.583-31.391,67.692-31.391c42.191,0,78.752,29.774,87.001,71.172    c0.812,4.074,4.77,6.717,8.845,5.906c4.074-0.812,6.718-4.772,5.906-8.845c-4.79-24.04-17.507-44.935-36.778-60.429    c-17.366-14.069-40.247-22.845-64.972-22.845c-41.316,0-77.756,24.33-94.382,60.636c-28.789-12.986-59.593-19.579-91.698-19.579    c-59.698,0-115.821,23.247-158.033,65.458C23.247,161.001,0,217.126,0,276.823c0,59.698,23.247,115.822,65.459,158.032    c37.913,37.914,88.112,60.946,141.349,64.851c0.188,0.014,0.374,0.021,0.559,0.021c3.903,0,7.202-3.015,7.492-6.97    c0.304-4.142-2.807-7.747-6.95-8.05c-49.64-3.642-96.452-25.122-131.815-60.486C36.723,384.85,15.04,332.503,15.04,276.823    s21.683-108.027,61.054-147.398s91.718-61.054,147.398-61.054c30.283,0,59.321,6.267,86.412,18.639    c-2.386,8.134-3.744,16.462-4.063,24.914c-25.478-12.758-53.688-19.45-82.349-19.45c-101.651,0-184.35,82.7-184.35,184.35    s82.699,184.35,184.35,184.35c101.652,0,184.351-82.7,184.351-184.35c0-6.263-0.322-12.545-0.961-18.793    c1.141,0.178,2.596,0.25,3.894,0.147c7.297-0.58,14.48-6.599,18.933-12.057c1.485,10.128,2.235,20.404,2.235,30.702    c0,55.68-21.683,108.027-61.054,147.397c-35.157,35.158-79.794,55.993-129.086,60.252c-4.138,0.357-7.202,4.001-6.845,8.139    c0.357,4.138,3.999,7.186,8.14,6.845c52.111-4.503,101.271-27.445,138.426-64.601c42.213-42.212,65.46-98.335,65.46-158.033    c0-15.521-1.61-30.99-4.75-46.052l20.106-24.64c0.705-0.863,1.574-1.624,2.588-2.264c25.353-16.006,42.031-41.048,46.965-70.514    C512.581,129.257,509.816,125.381,505.72,124.694z M385.751,284.342h6.877c-3.84,87.388-74.229,157.776-161.615,161.615v-6.876    c0-4.154-3.367-7.52-7.52-7.52c-4.153,0-7.52,3.366-7.52,7.52v6.876c-87.387-3.839-157.775-74.228-161.614-161.614h6.876    c4.153,0,7.52-3.366,7.52-7.52s-3.367-7.52-7.52-7.52h-6.876c3.839-87.387,74.228-157.775,161.614-161.615v6.876    c0,4.154,3.367,7.52,7.52,7.52c4.153,0,7.52-3.366,7.52-7.52v-6.864c26.574,1.183,52.507,8.62,75.634,21.714    c0.143,1.113,0.3,2.226,0.479,3.338c0.613,8.662,10.12,48.121,47.714,71.505c0.585,0.363,1.111,0.83,1.564,1.386    c25.557,31.32,31.248,38.335,33.738,41.32c1.318,7.373,2.155,14.852,2.489,22.339h-6.88c-4.153,0-7.52,3.366-7.52,7.52    S381.598,284.342,385.751,284.342z" data-original="#000000" class="active-path" data-old_color="#000000" fill="#FFFFFF"/>
	</g>
</g></g> </svg>
