<?xml version="1.0" encoding="UTF-8" standalone="no"?>
<!DOCTYPE svg PUBLIC "-//W3C//DTD SVG 1.1//EN" "http://www.w3.org/Graphics/SVG/1.1/DTD/svg11.dtd">
<svg width="100%" height="100%" viewBox="0 0 750 500" version="1.1" xmlns="http://www.w3.org/2000/svg" xmlns:xlink="http://www.w3.org/1999/xlink" xml:space="preserve" xmlns:serif="http://www.serif.com/" style="fill-rule:evenodd;clip-rule:evenodd;stroke-miterlimit:10;">
    <g id="OBJECTS">
        <g transform="matrix(1,0,0,1,125.977,158.678)">
            <path d="M0,0L499.369,0" style="fill:none;fill-rule:nonzero;stroke:rgb(222,216,213);stroke-width:1.97px;"/>
        </g>
        <g transform="matrix(1,0,0,1,618.824,125.943)">
            <path d="M0,308.965L-486.326,308.965C-489.928,308.965 -492.848,306.045 -492.848,302.444L-492.848,6.521C-492.848,2.92 -489.928,0 -486.326,0L0,0C3.602,0 6.521,2.92 6.521,6.521L6.521,302.444C6.521,306.045 3.602,308.965 0,308.965Z" style="fill:none;fill-rule:nonzero;stroke:rgb(222,216,213);stroke-width:1.97px;"/>
        </g>
        <g transform="matrix(0,-1,-1,0,154.319,138.076)">
            <path d="M-4.568,-4.568C-7.09,-4.568 -9.136,-2.523 -9.136,0C-9.136,2.523 -7.09,4.568 -4.568,4.568C-2.045,4.568 0,2.523 0,0C0,-2.523 -2.045,-4.568 -4.568,-4.568" style="fill:rgb(255,177,165);fill-rule:nonzero;"/>
        </g>
        <g transform="matrix(0,-1,-1,0,172.072,138.076)">
            <path d="M-4.568,-4.568C-7.09,-4.568 -9.136,-2.523 -9.136,0C-9.136,2.523 -7.09,4.568 -4.568,4.568C-2.045,4.568 0,2.523 0,0C0,-2.523 -2.045,-4.568 -4.568,-4.568" style="fill:rgb(234,210,84);fill-rule:nonzero;"/>
        </g>
        <g transform="matrix(0,-1,-1,0,189.824,138.076)">
            <path d="M-4.568,-4.568C-7.09,-4.568 -9.136,-2.523 -9.136,0C-9.136,2.523 -7.09,4.568 -4.568,4.568C-2.045,4.568 0,2.523 0,0C0,-2.523 -2.045,-4.568 -4.568,-4.568" style="fill:rgb(0,133,123);fill-rule:nonzero;"/>
        </g>
        <g transform="matrix(1,0,0,1,690.218,148.414)">
            <path d="M0,120.523L-117.361,120.523C-120.67,120.523 -123.353,117.84 -123.353,114.532L-123.353,5.99C-123.353,2.682 -120.67,0 -117.361,0L0,0C3.309,0 5.991,2.682 5.991,5.99L5.991,114.532C5.991,117.84 3.309,120.523 0,120.523Z" style="fill:rgb(237,237,237);fill-rule:nonzero;stroke:rgb(222,216,213);stroke-width:1.97px;"/>
        </g>
        <g transform="matrix(1,0,0,1,601.23,175.55)">
            <path d="M0,62.034L60.998,62.034C64.324,62.034 67.021,59.338 67.021,56.013L67.021,6.021C67.021,2.696 64.324,0 60.998,0L0,0C-3.325,0 -6.021,2.696 -6.021,6.021L-6.021,56.013C-6.021,59.338 -3.325,62.034 0,62.034" style="fill:rgb(201,139,210);fill-rule:nonzero;"/>
        </g>
        <g transform="matrix(1,0,0,1,648.391,194.276)">
            <path d="M0,22.605L-28.551,22.605L-33.707,22.605L-33.707,0L0,0L0,22.605Z" style="fill:none;fill-rule:nonzero;stroke:white;stroke-width:1.65px;stroke-linecap:round;stroke-linejoin:round;"/>
        </g>
        <g transform="matrix(1,0,0,1,614.684,207.558)">
            <path d="M0,-13.282L16.854,0L33.707,-13.282" style="fill:none;fill-rule:nonzero;stroke:white;stroke-width:1.65px;stroke-linecap:round;stroke-linejoin:round;"/>
        </g>
        <g transform="matrix(1,0,0,1,173.749,250.814)">
            <path d="M0,109.011L-111.926,109.011C-115.082,109.011 -117.639,106.452 -117.639,103.297L-117.639,5.713C-117.639,2.558 -115.082,0 -111.926,0L0,0C3.155,0 5.713,2.558 5.713,5.713L5.713,103.297C5.713,106.452 3.155,109.011 0,109.011Z" style="fill:rgb(239,249,242);fill-rule:nonzero;stroke:rgb(222,216,213);stroke-width:1.97px;"/>
        </g>
        <g transform="matrix(1,0,0,1,146.52,269.484)">
            <path d="M0,69.339L-58.049,69.339C-61.716,69.339 -64.688,66.366 -64.688,62.699L-64.688,6.639C-64.688,2.972 -61.716,0 -58.049,0L0,0C3.667,0 6.64,2.972 6.64,6.639L6.64,62.699C6.64,66.366 3.667,69.339 0,69.339" style="fill:rgb(246,146,140);fill-rule:nonzero;"/>
        </g>
        <g transform="matrix(1,0,0,1,136.086,305.98)">
            <path d="M0,-2.358L-8.669,-2.358C-8.716,-4.964 -9.055,-7.571 -9.7,-10.176L-2.339,-10.176C-1.009,-7.844 -0.182,-5.189 0,-2.358M-2.339,7.819L-9.933,7.819C-9.246,5.212 -8.832,2.607 -8.705,0L0,0C-0.181,2.831 -1.009,5.487 -2.339,7.819M-13.114,16.307C-12.125,14.264 -11.295,12.221 -10.629,10.177L-3.941,10.177C-6.261,13.078 -9.45,15.252 -13.114,16.307M-18.155,17.015C-18.963,17.015 -19.758,16.962 -20.538,16.86C-21.65,14.632 -22.597,12.405 -23.358,10.177L-12.951,10.177C-13.713,12.405 -14.66,14.632 -15.771,16.86C-16.551,16.962 -17.347,17.015 -18.155,17.015M-32.368,10.177L-25.681,10.177C-25.014,12.22 -24.184,14.264 -23.195,16.307C-26.859,15.252 -30.048,13.078 -32.368,10.177M-33.971,7.819C-35.301,5.487 -36.128,2.831 -36.31,0L-27.604,0C-27.478,2.606 -27.063,5.212 -26.376,7.819L-33.971,7.819ZM-33.971,-10.176L-26.609,-10.176C-27.255,-7.571 -27.593,-4.964 -27.641,-2.358L-36.31,-2.358C-36.128,-5.189 -35.3,-7.844 -33.971,-10.176M-23.442,-18.591C-24.467,-16.573 -25.297,-14.553 -25.941,-12.535L-32.368,-12.535C-30.101,-15.37 -27.002,-17.511 -23.442,-18.591M-18.155,-19.373C-17.185,-19.373 -16.234,-19.296 -15.306,-19.151C-14.07,-16.945 -13.102,-14.74 -12.381,-12.535L-23.928,-12.535C-23.208,-14.74 -22.239,-16.945 -21.004,-19.151C-20.076,-19.296 -19.124,-19.373 -18.155,-19.373M-10.829,0C-11.006,2.606 -11.479,5.212 -12.214,7.819L-24.095,7.819C-24.831,5.213 -25.303,2.607 -25.481,0L-10.829,0ZM-25.56,-2.358C-25.557,-4.964 -25.25,-7.571 -24.604,-10.176L-11.705,-10.176C-11.06,-7.571 -10.752,-4.964 -10.75,-2.358L-25.56,-2.358ZM-3.941,-12.535L-10.368,-12.535C-11.013,-14.553 -11.843,-16.573 -12.867,-18.591C-9.307,-17.511 -6.208,-15.37 -3.941,-12.535M-32.415,-15.439C-40.247,-7.607 -40.247,5.249 -32.415,13.081C-24.583,20.913 -11.727,20.913 -3.895,13.081C3.937,5.249 3.937,-7.607 -3.895,-15.439C-11.727,-23.271 -24.583,-23.271 -32.415,-15.439" style="fill:white;fill-rule:nonzero;"/>
        </g>
        <g transform="matrix(1,0,0,1,167.079,89.8461)">
            <path d="M0,7.586L-101.398,7.586C-103.493,7.586 -105.191,5.888 -105.191,3.793C-105.191,1.698 -103.493,0 -101.398,0L0,0C2.095,0 3.793,1.698 3.793,3.793C3.793,5.888 2.095,7.586 0,7.586" style="fill:rgb(201,139,210);fill-rule:nonzero;"/>
        </g>
        <g transform="matrix(1,0,0,1,694.35,337.53)">
            <path d="M0,7.586L-49.215,7.586C-51.31,7.586 -53.008,5.888 -53.008,3.793C-53.008,1.698 -51.31,0 -49.215,0L0,0C2.095,0 3.793,1.698 3.793,3.793C3.793,5.888 2.095,7.586 0,7.586" style="fill:rgb(86,223,237);fill-rule:nonzero;"/>
        </g>
        <g transform="matrix(1,0,0,1,659.881,377.626)">
            <path d="M0,11.367L-6.014,11.367C-7.594,11.367 -8.875,10.086 -8.875,8.506L-8.875,2.86C-8.875,1.28 -7.594,0 -6.014,0L0,0C1.58,0 2.861,1.28 2.861,2.86L2.861,8.506C2.861,10.086 1.58,11.367 0,11.367" style="fill:rgb(201,139,210);fill-rule:nonzero;"/>
        </g>
        <g transform="matrix(1,0,0,1,89.8335,403.903)">
            <path d="M0,11.367L-6.014,11.367C-7.594,11.367 -8.875,10.087 -8.875,8.507L-8.875,2.861C-8.875,1.281 -7.594,0 -6.014,0L0,0C1.58,0 2.861,1.281 2.861,2.861L2.861,8.507C2.861,10.087 1.58,11.367 0,11.367" style="fill:rgb(255,177,165);fill-rule:nonzero;"/>
        </g>
        <g transform="matrix(1,0,0,1,550.108,63.0552)">
            <path d="M0,30.459L-100.083,30.459C-101.747,30.459 -103.096,29.11 -103.096,27.447L-103.096,3.011C-103.096,1.348 -101.747,0 -100.083,0L0,0C1.664,0 3.012,1.348 3.012,3.011L3.012,27.447C3.012,29.11 1.664,30.459 0,30.459" style="fill:rgb(104,120,184);fill-rule:nonzero;"/>
        </g>
        <g transform="matrix(1,0,0,1,461.466,73.9077)">
            <path d="M0,0L71.178,0" style="fill:none;fill-rule:nonzero;stroke:white;stroke-width:1.18px;"/>
        </g>
        <g transform="matrix(1,0,0,1,461.466,81.2134)">
            <path d="M0,0L28.992,0" style="fill:none;fill-rule:nonzero;stroke:white;stroke-width:1.18px;"/>
        </g>
        <g transform="matrix(1,0,0,1,458.57,101.939)">
            <path d="M0,-11.871L0,0L14.93,-11.871L0,-11.871Z" style="fill:rgb(104,120,184);fill-rule:nonzero;"/>
        </g>
        <g transform="matrix(1,0,0,1,304.215,35.3042)">
            <path d="M0,60.022L-48.448,60.022C-53.154,60.022 -56.968,56.207 -56.968,51.501L-56.968,6.459C-56.968,2.892 -54.076,0 -50.509,0L0,0C3.567,0 6.459,2.892 6.459,6.459L6.459,53.562C6.459,57.13 3.567,60.022 0,60.022" style="fill:rgb(51,140,143);fill-rule:nonzero;"/>
        </g>
        <g transform="matrix(1,0,0,1,292.279,53.6944)">
            <path d="M0,19.413C-0.258,19.671 -0.516,19.929 -0.774,20.187C-1.226,20.574 -1.612,21.025 -2.064,21.476C-2.709,22.121 -3.418,22.444 -4.386,22.444L-4.708,22.444C-6.643,22.315 -8.449,21.541 -9.739,20.896C-13.415,19.09 -16.64,16.575 -19.348,13.351C-21.541,10.706 -23.024,8.191 -24.057,5.547C-24.701,3.999 -24.959,2.773 -24.83,1.548C-24.766,0.839 -24.508,0.194 -23.927,-0.322L-21.734,-2.515C-21.541,-2.709 -21.219,-2.966 -20.832,-2.966C-20.445,-2.966 -20.187,-2.773 -19.929,-2.515C-19.542,-2.128 -19.155,-1.741 -18.768,-1.354C-18.574,-1.161 -18.381,-0.903 -18.123,-0.71L-16.317,1.097C-16.124,1.29 -15.866,1.677 -15.866,1.999C-15.866,2.387 -16.124,2.709 -16.317,2.902C-16.511,3.096 -16.704,3.289 -16.897,3.483C-17.478,4.063 -17.994,4.579 -18.51,5.095L-18.574,5.16C-19.219,5.805 -19.09,6.385 -18.961,6.772L-18.961,6.836C-18.51,7.997 -17.8,9.029 -16.833,10.319C-15.027,12.577 -13.092,14.318 -10.964,15.672C-10.706,15.866 -10.384,15.995 -10.125,16.123C-9.868,16.253 -9.674,16.317 -9.48,16.446L-9.416,16.511C-8.771,16.833 -8.126,16.704 -7.61,16.188L-5.353,13.931C-5.16,13.737 -4.837,13.479 -4.45,13.479C-4.127,13.479 -3.805,13.737 -3.612,13.931L0,17.542C0.581,18.123 0.581,18.768 0,19.413M1.483,16.059L-2.128,12.448C-2.773,11.738 -3.612,11.351 -4.45,11.351C-5.289,11.351 -6.127,11.738 -6.772,12.383L-8.836,14.447L-9.223,14.253C-9.48,14.124 -9.674,14.06 -9.868,13.931C-11.803,12.705 -13.544,11.093 -15.221,9.029C-15.995,8.062 -16.575,7.159 -16.897,6.385C-16.381,5.934 -15.93,5.417 -15.479,4.966C-15.285,4.773 -15.092,4.579 -14.898,4.386C-14.189,3.676 -13.802,2.838 -13.802,1.999C-13.802,1.161 -14.189,0.323 -14.898,-0.387L-16.704,-2.192C-16.897,-2.386 -17.091,-2.58 -17.285,-2.837C-17.671,-3.225 -18.123,-3.676 -18.51,-4.063C-19.155,-4.708 -19.993,-5.095 -20.832,-5.095C-21.67,-5.095 -22.444,-4.773 -23.153,-4.063L-25.411,-1.806C-26.249,-0.967 -26.765,0.129 -26.894,1.354C-27.023,3.289 -26.507,5.095 -26.056,6.256C-25.024,9.223 -23.412,11.867 -21.025,14.705C-18.123,18.123 -14.705,20.832 -10.706,22.767C-9.223,23.476 -7.159,24.314 -4.901,24.508L-4.45,24.508C-2.902,24.508 -1.612,23.928 -0.581,22.831L-0.516,22.767C-0.193,22.38 0.193,21.993 0.645,21.606C0.903,21.348 1.226,21.025 1.483,20.767C2.838,19.349 2.838,17.413 1.483,16.059" style="fill:white;fill-rule:nonzero;"/>
        </g>
        <g>
            <clipPath id="_clip1">
                <rect x="171.975" y="101.416" width="459.274" height="332.684" clip-rule="nonzero"/>
            </clipPath>
            <g clip-path="url(#_clip1)">
                <g transform="matrix(1,0,0,1,514.963,482.107)">
                    <path d="M0,-159.525L-36.502,-164.385L-36.217,-160.76L-67.426,-156.605C-67.426,-156.605 -87.542,-106.135 -69.813,4.86L-44.426,4.86L-35.289,-107.689L-32.044,-107.689L-23.194,4.86L2.192,4.86C19.922,-106.135 0,-159.525 0,-159.525" style="fill:rgb(142,113,108);fill-rule:nonzero;"/>
                </g>
                <g transform="matrix(1,0,0,1,468.067,374.418)">
                    <path d="M0,0L26.486,0" style="fill:none;fill-rule:nonzero;stroke:rgb(40,40,40);stroke-width:1.23px;stroke-linecap:round;stroke-linejoin:round;"/>
                </g>
                <g transform="matrix(1,0,0,1,536.279,338.736)">
                    <path d="M0,-69.395C-3.123,-74.379 -20.665,-74.204 -21.591,-74.312C-26.333,-74.868 -18.55,-37.131 -8.685,-4.145C-6.793,2.179 0.165,5.473 6.242,2.896C6.308,2.869 6.373,2.84 6.439,2.813C11.247,0.776 13.982,-4.328 13.015,-9.458C8.323,-34.349 3.611,-63.631 0,-69.395" style="fill:rgb(255,177,165);fill-rule:nonzero;"/>
                </g>
                <g transform="matrix(-0.932279,0.361739,0.361739,0.932279,516.969,288.353)">
                    <path d="M-23.842,3.494L0.181,3.494L-1.705,-7.172L-25.418,-4.176L-23.842,3.494Z" style="fill:rgb(243,151,142);fill-rule:nonzero;"/>
                </g>
                <g transform="matrix(1,0,0,1,544.69,309.06)">
                    <path d="M0,-4.815C0,-4.815 -10.61,9.434 -10.104,8.779C-9.599,8.123 -1.784,-14.249 -1.784,-14.249L0,-4.815Z" style="fill:rgb(243,151,142);fill-rule:nonzero;"/>
                </g>
                <g transform="matrix(1,0,0,1,559.86,344.26)">
                    <path d="M0,-59.167L-30.412,-19.764C-34.405,-14.591 -33.13,-7.11 -27.648,-3.552C-22.176,0 -14.837,-1.867 -11.729,-7.603L13.586,-54.308L0,-59.167Z" style="fill:rgb(255,177,165);fill-rule:nonzero;"/>
                </g>
                <g transform="matrix(0.951576,0.307414,0.307414,-0.951576,564.249,293.447)">
                    <path d="M3.856,-0.608C-3.072,-0.607 -8.688,5.008 -8.689,11.937C-8.689,18.866 -3.072,24.482 3.856,24.482C10.785,24.482 16.401,18.866 16.401,11.937C16.402,5.008 10.785,-0.608 3.856,-0.608" style="fill:rgb(255,177,165);fill-rule:nonzero;"/>
                </g>
                <g transform="matrix(1,0,0,1,580.735,270.856)">
                    <path d="M0,4.876C0,4.876 3.433,1.312 -2.658,-1.186C-8.748,-3.685 -16.278,-3.111 -21.085,8.561L0,4.876Z" style="fill:rgb(255,177,165);fill-rule:nonzero;"/>
                </g>
                <g transform="matrix(1,0,0,1,587.044,290.283)">
                    <path d="M0,-39.452L12.734,-33.931C13.442,-33.624 13.7,-32.784 13.31,-32.056L-3.441,-0.764C-3.832,-0.036 -4.723,0.307 -5.431,-0.001L-18.165,-5.521C-18.874,-5.829 -19.131,-6.669 -18.741,-7.397L-1.989,-38.688C-1.599,-39.417 -0.708,-39.759 0,-39.452" style="fill:rgb(55,47,95);fill-rule:nonzero;"/>
                </g>
                <g transform="matrix(1,0,0,1,585.828,289.728)">
                    <path d="M0,-39.451L12.733,-33.93C13.442,-33.623 13.7,-32.783 13.31,-32.055L-3.442,-0.764C-3.832,-0.035 -4.723,0.307 -5.432,0L-18.165,-5.521C-18.874,-5.828 -19.132,-6.668 -18.741,-7.397L-1.989,-38.687C-1.6,-39.416 -0.709,-39.758 0,-39.451" style="fill:rgb(38,27,67);fill-rule:nonzero;"/>
                </g>
                <g transform="matrix(0.91747,0.397805,0.397805,-0.91747,590.327,255.204)">
                    <path d="M-6.139,-0.762L6.055,-0.762L3.675,-29.591L-8.519,-29.591L-6.139,-0.762Z" style="fill:rgb(230,230,230);fill-rule:nonzero;"/>
                </g>
                <g transform="matrix(1,0,0,1,595.58,274.112)">
                    <path d="M0,-15.8L-24.841,4.851L-11.188,-20.651L0,-15.8Z" style="fill:white;fill-rule:nonzero;"/>
                </g>
                <g transform="matrix(1,0,0,1,574.422,283.435)">
                    <path d="M0,-14.804C0,-14.804 2.835,-14.251 5.394,-12.801C6.521,-12.162 7.099,-10.862 6.786,-9.604C6.501,-8.457 5.54,-7.605 4.368,-7.456L-2.252,-6.621C-2.252,-6.621 -5.706,-0.668 -10.219,0L-6.079,-10.452L0,-14.804Z" style="fill:rgb(255,177,165);fill-rule:nonzero;"/>
                </g>
                <g transform="matrix(1,0,0,1,489.877,325.498)">
                    <path d="M0,-105.777C-0.73,-105.781 46.946,-99.18 54.813,-44.822L30.073,-41.032L25.086,0.004L-43.931,0.004L-57.633,-75.815C-57.633,-75.815 -42.342,-97.729 -13.951,-105.777L0,-105.777Z" style="fill:rgb(86,223,237);fill-rule:nonzero;"/>
                </g>
                <g transform="matrix(0.0900968,-0.995933,-0.995933,-0.0900968,532.745,274.738)">
                    <path d="M-10.841,11.867L12.988,11.867" style="fill:none;fill-rule:nonzero;stroke:rgb(40,40,40);stroke-width:1.23px;stroke-linecap:round;stroke-linejoin:round;"/>
                </g>
                <g transform="matrix(1,0,0,1,494.408,214.529)">
                    <path d="M0,5.969L0,-12.912L-22.126,-12.912L-22.126,6.191C-23.258,6.529 -25.144,7.211 -28.07,8.601L-10.813,18.881L6.829,8.601C6.829,8.601 4.028,6.972 0,5.969" style="fill:rgb(255,177,165);fill-rule:nonzero;"/>
                </g>
                <g transform="matrix(1,0,0,1,472.077,208.655)">
                    <path d="M0,-4.732C0,-4.732 3.974,5.819 14.581,4.909C24.331,4.072 22.779,-10.551 22.779,-10.551L0,-4.732Z" style="fill:rgb(40,40,40);fill-rule:nonzero;"/>
                </g>
                <g transform="matrix(1,0,0,1,462.428,177.552)">
                    <path d="M0,12.339C-3.469,15.485 -11.224,3.553 -7.872,0.203C-4.521,-3.146 -1.965,2.109 -1.965,2.109L-0.469,5.671L0.659,10.494L0.928,11.757L0,12.339Z" style="fill:rgb(243,151,142);fill-rule:nonzero;"/>
                </g>
                <g transform="matrix(0.883736,0.467986,0.467986,-0.883736,456.801,180.906)">
                    <path d="M-0.05,-1.244C-0.05,-1.244 1.717,1.028 5.559,-1.244" style="fill:none;fill-rule:nonzero;stroke:rgb(40,40,40);stroke-width:0.99px;stroke-linecap:round;stroke-linejoin:round;"/>
                </g>
                <g transform="matrix(1,0,0,1,503.44,177.908)">
                    <path d="M0,11.621C3.189,15.048 11.926,3.815 8.87,0.194C5.814,-3.427 2.823,1.594 2.823,1.594L1.031,5.016L-0.502,9.727L-0.876,10.963L0,11.621Z" style="fill:rgb(243,151,142);fill-rule:nonzero;"/>
                </g>
                <g transform="matrix(-0.920193,0.391465,0.391465,0.920193,505.54,183.953)">
                    <path d="M-5.112,0.245C-5.112,0.245 -3.344,-2.027 0.498,0.245" style="fill:none;fill-rule:nonzero;stroke:rgb(40,40,40);stroke-width:0.99px;stroke-linecap:round;stroke-linejoin:round;"/>
                </g>
                <g transform="matrix(0,1,1,0,481.613,137.85)">
                    <path d="M28.524,-25.269C44.318,-25.269 51.808,-13.227 51.808,1.627C51.808,16.482 44.318,28.524 28.524,28.524C12.73,28.524 1.985,16.482 1.985,1.627C1.985,-13.227 12.73,-25.269 28.524,-25.269" style="fill:rgb(40,40,40);fill-rule:nonzero;"/>
                </g>
                <g transform="matrix(1,0,0,1,460,184.281)">
                    <path d="M0,-16.809C0,-7.113 1.37,1.254 2.737,7.192C4.076,13.006 7.844,17.069 13.168,20.34L14.138,20.936C19.771,24.396 27.05,24.477 32.77,21.142C38.538,17.779 42.577,13.345 43.82,7.106C46.081,-4.241 46.328,-16.809 46.328,-16.809C46.328,-16.809 48.479,-41.286 23.495,-40.81C-1.49,-40.334 0,-16.809 0,-16.809" style="fill:rgb(255,177,165);fill-rule:nonzero;"/>
                </g>
                <g transform="matrix(0,1,1,0,485.869,182.2)">
                    <path d="M-0.76,-4.221L2.627,-4.221C2.827,-4.221 3.021,-4.183 3.196,-4.112C3.888,-3.834 4.221,-3.035 4.029,-2.313L3.617,-0.76" style="fill:none;fill-rule:nonzero;stroke:rgb(40,40,40);stroke-width:1.23px;stroke-linecap:round;stroke-linejoin:round;"/>
                </g>
                <g transform="matrix(1,0,0,1,477.676,168.67)">
                    <path d="M0,-0.363L-12.417,2.547C-12.417,2.547 -11.853,-0.613 -6.773,-1.761C-1.693,-2.91 0,-0.363 0,-0.363" style="fill:rgb(40,40,40);fill-rule:nonzero;"/>
                </g>
                <g transform="matrix(1,0,0,1,488.696,168.67)">
                    <path d="M0,-0.363L11.989,2.547C11.989,2.547 11.444,-0.613 6.539,-1.761C1.635,-2.91 0,-0.363 0,-0.363" style="fill:rgb(40,40,40);fill-rule:nonzero;"/>
                </g>
                <g transform="matrix(0,-1,-1,0,472.958,175.334)">
                    <path d="M-2.093,-2.093C-3.246,-2.093 -4.182,-1.156 -4.182,0.001C-4.182,1.157 -3.246,2.093 -2.093,2.093C-0.94,2.093 -0.005,1.157 -0.005,0.001C-0.005,-1.156 -0.94,-2.093 -2.093,-2.093" style="fill:rgb(40,40,40);fill-rule:nonzero;"/>
                </g>
                <g transform="matrix(0,-1,-1,0,492.81,175.334)">
                    <path d="M-2.094,-2.094C-3.247,-2.094 -4.182,-1.157 -4.182,0C-4.182,1.157 -3.247,2.094 -2.094,2.094C-0.941,2.094 -0.006,1.157 -0.006,0C-0.006,-1.157 -0.941,-2.094 -2.094,-2.094" style="fill:rgb(40,40,40);fill-rule:nonzero;"/>
                </g>
                <g transform="matrix(1,0,0,1,475.052,198.878)">
                    <path d="M0,-8.707L16.148,-8.707C16.148,-8.707 8.991,0 0,-8.707" style="fill:white;fill-rule:nonzero;"/>
                </g>
                <g transform="matrix(0,-1,-1,0,472.076,169.334)">
                    <circle cx="-8.905" cy="0" r="8.905" style="fill:none;stroke:rgb(201,139,210);stroke-width:1.34px;"/>
                </g>
                <g transform="matrix(0,-1,-1,0,493.952,169.334)">
                    <circle cx="-8.905" cy="0" r="8.905" style="fill:none;stroke:rgb(201,139,210);stroke-width:1.34px;"/>
                </g>
                <g transform="matrix(1,0,0,1,480.981,176.27)">
                    <path d="M0,1.969C0,1.969 2.109,0 4.066,1.969" style="fill:none;fill-rule:nonzero;stroke:rgb(201,139,210);stroke-width:1.34px;"/>
                </g>
                <g transform="matrix(-0.99968,-0.0253038,-0.0253038,0.99968,460.368,178.133)">
                    <path d="M-2.805,0.036L0,0.036" style="fill:none;fill-rule:nonzero;stroke:rgb(201,139,210);stroke-width:1.34px;"/>
                </g>
                <g transform="matrix(0.999684,-0.0251515,-0.0251515,-0.999684,502.859,178.275)">
                    <path d="M0,0.036L2.822,0.035" style="fill:none;fill-rule:nonzero;stroke:rgb(201,139,210);stroke-width:1.34px;"/>
                </g>
                <g transform="matrix(1,0,0,1,506.007,148.402)">
                    <path d="M0,27.185C0,27.185 -9.989,13.681 -7.685,0C-7.685,0 -0.271,3.731 1.66,13.361C3.592,22.992 0,27.185 0,27.185" style="fill:rgb(40,40,40);fill-rule:nonzero;"/>
                </g>
                <g transform="matrix(1,0,0,1,459.983,147.483)">
                    <path d="M0,29.019C0,29.019 11.604,13.681 9.3,0C9.3,0 1.251,4.65 -0.68,14.28C-2.61,23.911 0,29.019 0,29.019" style="fill:rgb(40,40,40);fill-rule:nonzero;"/>
                </g>
                <g transform="matrix(1,0,0,1,505.169,154.325)">
                    <path d="M0,-0.535C0,-0.535 -12.826,13.507 -47.92,11.103C-47.92,11.103 -42.546,-9.502 -25.539,-11.697C-25.539,-11.697 -5.901,-14.042 0,-0.535" style="fill:rgb(40,40,40);fill-rule:nonzero;"/>
                </g>
                <g transform="matrix(0,-1,-1,0,504.268,120.619)">
                    <path d="M-16.755,-16.757C-26.009,-16.757 -33.512,-9.255 -33.512,-0.001C-33.512,9.253 -26.009,16.755 -16.755,16.755C-7.501,16.755 0,9.253 0,-0.001C0,-9.255 -7.501,-16.757 -16.755,-16.757" style="fill:rgb(40,40,40);fill-rule:nonzero;"/>
                </g>
                <g transform="matrix(1,0,0,1,299.725,476.229)">
                    <path d="M0,-153.685L-31.208,-157.841L-30.923,-161.465L-67.425,-156.605C-67.425,-156.605 -87.347,-103.216 -69.617,7.78L-44.23,7.78L-35.381,-104.769L-32.136,-104.769L-23,7.78L2.387,7.78C20.117,-103.216 0,-153.685 0,-153.685" style="fill:rgb(40,40,40);fill-rule:nonzero;"/>
                </g>
                <g transform="matrix(1,0,0,1,297.235,193.27)">
                    <path d="M0,-22.57C-4.224,-27.539 -7.606,-33.336 -10.48,-41.471C-13.566,-50.203 -23.669,-46.654 -23.669,-46.654C-23.669,-46.654 -32.088,-57.485 -44.757,-53.712C-57.426,-49.94 -61.828,-40.924 -62.086,-30.206C-62.345,-19.488 -70.775,-17.812 -77.267,-5.412C-88.728,16.477 -69.432,34.915 -34.308,29.8L-34.261,29.459C-30.802,30.51 -26.563,30.968 -21.388,30.661C20.808,28.156 16.736,-2.881 0,-22.57" style="fill:rgb(40,40,40);fill-rule:nonzero;"/>
                </g>
                <g transform="matrix(1,0,0,1,283.421,174.594)">
                    <path d="M0,12.339C3.468,15.485 11.223,3.553 7.872,0.203C4.521,-3.146 1.965,2.109 1.965,2.109L0.469,5.671L-0.66,10.494L-0.929,11.757L0,12.339Z" style="fill:rgb(243,151,142);fill-rule:nonzero;"/>
                </g>
                <g transform="matrix(-0.883775,0.467912,0.467912,0.883775,285.341,181.543)">
                    <path d="M-5.008,-0.2C-5.008,-0.2 -3.24,-2.472 0.602,-0.2" style="fill:none;fill-rule:nonzero;stroke:rgb(40,40,40);stroke-width:0.99px;stroke-linecap:round;stroke-linejoin:round;"/>
                </g>
                <g transform="matrix(1,0,0,1,242.408,174.952)">
                    <path d="M0,11.619C-3.19,15.047 -11.926,3.814 -8.87,0.193C-5.814,-3.428 -2.823,1.592 -2.823,1.592L-1.031,5.014L0.501,9.725L0.875,10.961L0,11.619Z" style="fill:rgb(243,151,142);fill-rule:nonzero;"/>
                </g>
                <g transform="matrix(0.920193,0.391465,0.391465,-0.920193,235.87,178.24)">
                    <path d="M0.05,-1.042C0.05,-1.042 1.818,1.23 5.66,-1.042" style="fill:none;fill-rule:nonzero;stroke:rgb(40,40,40);stroke-width:0.99px;stroke-linecap:round;stroke-linejoin:round;"/>
                </g>
                <g transform="matrix(0,-1,-1,0,264.235,134.892)">
                    <path d="M-28.524,-25.269C-44.318,-25.269 -51.808,-13.227 -51.808,1.627C-51.808,16.481 -44.318,28.524 -28.524,28.524C-12.73,28.524 -1.985,16.481 -1.985,1.627C-1.985,-13.227 -12.73,-25.269 -28.524,-25.269" style="fill:rgb(40,40,40);fill-rule:nonzero;"/>
                </g>
                <g transform="matrix(-1,0,0,1,525.006,-74.031)">
                    <rect x="251.44" y="272.69" width="22.126" height="28.651" style="fill:rgb(255,177,165);"/>
                </g>
                <g transform="matrix(1,0,0,1,248.211,211.596)">
                    <path d="M0,-14.724C0,-14.724 6.159,-2.432 13.736,-0.513C15.76,0 17.922,-0.176 19.874,-0.868C22.726,-1.879 26.342,-6.131 26.957,-10.835L27.242,-13.523C27.242,-13.523 13.759,-6.182 0,-14.724" style="fill:rgb(40,40,40);fill-rule:nonzero;"/>
                </g>
                <g transform="matrix(1,0,0,1,285.848,181.322)">
                    <path d="M0,-16.808C0,-7.112 -1.37,1.255 -2.737,7.193C-4.076,13.007 -7.844,17.07 -13.168,20.34L-14.138,20.936C-19.771,24.397 -27.049,24.477 -32.77,21.143C-38.538,17.779 -42.577,13.345 -43.82,7.107C-46.081,-4.241 -46.328,-16.808 -46.328,-16.808C-46.328,-16.808 -48.479,-41.285 -23.494,-40.809C1.49,-40.334 0,-16.808 0,-16.808" style="fill:rgb(255,177,165);fill-rule:nonzero;"/>
                </g>
                <g transform="matrix(0,1,1,0,264.469,179.877)">
                    <path d="M-0.069,-3.531L1.943,-3.531C2.143,-3.531 2.335,-3.492 2.511,-3.422C3.201,-3.144 3.531,-2.345 3.34,-1.622L2.93,-0.069" style="fill:none;fill-rule:nonzero;stroke:rgb(40,40,40);stroke-width:1.23px;stroke-linecap:round;stroke-linejoin:round;"/>
                </g>
                <g transform="matrix(1,0,0,1,266.144,166.933)">
                    <path d="M0,-0.393L13.292,2.753C13.292,2.753 12.688,-0.663 7.25,-1.905C1.812,-3.146 0,-0.393 0,-0.393" style="fill:rgb(40,40,40);fill-rule:nonzero;"/>
                </g>
                <g transform="matrix(1,0,0,1,259.165,166.933)">
                    <path d="M0,-0.393L-13.463,2.753C-13.463,2.753 -12.852,-0.663 -7.344,-1.905C-1.836,-3.146 0,-0.393 0,-0.393" style="fill:rgb(40,40,40);fill-rule:nonzero;"/>
                </g>
                <g transform="matrix(0,-1,-1,0,252.248,172.697)">
                    <path d="M-2.094,-2.094C-3.244,-2.094 -4.176,-1.157 -4.176,0C-4.176,1.157 -3.244,2.094 -2.094,2.094C-0.944,2.094 -0.012,1.157 -0.012,0C-0.012,-1.157 -0.944,-2.094 -2.094,-2.094" style="fill:rgb(40,40,40);fill-rule:nonzero;"/>
                </g>
                <g transform="matrix(0,-1,-1,0,272.1,172.697)">
                    <path d="M-2.094,-2.094C-3.244,-2.094 -4.176,-1.157 -4.176,0C-4.176,1.156 -3.244,2.094 -2.094,2.094C-0.944,2.094 -0.012,1.156 -0.012,0C-0.012,-1.157 -0.944,-2.094 -2.094,-2.094" style="fill:rgb(40,40,40);fill-rule:nonzero;"/>
                </g>
                <g transform="matrix(1,0,0,1,252.959,191.749)">
                    <path d="M0,-5.05L18.379,-5.05C18.379,-5.05 17.082,0 8.748,0C2.401,0 0,-5.05 0,-5.05" style="fill:white;fill-rule:nonzero;"/>
                </g>
                <g transform="matrix(1,0,0,1,239.841,145.443)">
                    <path d="M0,27.186C0,27.186 9.989,13.681 7.685,0C7.685,0 0.271,3.731 -1.66,13.362C-3.591,22.992 0,27.186 0,27.186" style="fill:rgb(40,40,40);fill-rule:nonzero;"/>
                </g>
                <g transform="matrix(1,0,0,1,285.865,144.525)">
                    <path d="M0,27.654C0,27.654 -11.604,13.681 -9.3,0C-9.3,0 -1.251,4.649 0.679,14.279C2.61,23.91 0,27.654 0,27.654" style="fill:rgb(40,40,40);fill-rule:nonzero;"/>
                </g>
                <g transform="matrix(1,0,0,1,240.679,152.732)">
                    <path d="M0,-1.9C0,-1.9 11.462,13.506 46.555,11.103C46.555,11.103 42.546,-10.867 25.539,-13.062C25.539,-13.062 5.902,-15.406 0,-1.9" style="fill:rgb(40,40,40);fill-rule:nonzero;"/>
                </g>
                <g transform="matrix(0.999886,0.0151238,0.0151238,-0.999886,207.718,390.157)">
                    <path d="M0.973,-0.141C0.475,-0.952 28.222,129.591 19.43,127.491C18.627,127.3 3.198,125.631 0.973,120.927C-5.48,107.292 -8.643,0.701 -8.643,0.701L0.973,-0.141Z" style="fill:rgb(255,177,165);fill-rule:nonzero;"/>
                </g>
                <g transform="matrix(1,0,0,1,199.087,411.439)">
                    <path d="M0,-22.114C0,-22.114 -4.79,0.112 13.318,2.541C14.511,2.701 15.664,1.996 16.057,0.859L16.109,0.708C16.542,-0.548 15.913,-1.894 14.7,-2.436C11.748,-3.757 7.168,-7.092 9.44,-14.666C9.44,-14.666 12.058,-14.987 13.502,-10.104C13.874,-8.848 15.284,-8.218 16.454,-8.806C17.252,-9.209 17.702,-10.068 17.589,-10.955C17.155,-14.375 15.435,-22.606 8.834,-24.815L0,-22.114Z" style="fill:rgb(255,177,165);fill-rule:nonzero;"/>
                </g>
                <g transform="matrix(0.402724,0.915321,0.915321,-0.402724,214.355,291.367)">
                    <path d="M4.683,-12.083C4.683,-12.083 33.651,-6.122 33.26,-5.851C32.871,-5.581 4.683,13.264 4.683,13.264L-11.922,-2.13L4.683,-12.083Z" style="fill:rgb(243,151,142);fill-rule:nonzero;"/>
                </g>
                <g transform="matrix(1,0,0,1,252.757,322.201)">
                    <path d="M0,-99.608C0.73,-99.612 -42.318,-98.841 -50.186,-44.484L-25.446,-40.693L-20.458,0.343L48.559,0.343L62.26,-75.477C62.26,-75.477 52.52,-91.903 24.128,-99.951L0,-99.608Z" style="fill:rgb(0,133,123);fill-rule:nonzero;"/>
                </g>
                <g transform="matrix(0.00682011,0.999977,0.999977,-0.00682011,260.959,196.609)">
                    <path d="M32.355,-29.464C32.355,-29.464 40.472,-23.437 40.642,1.49C40.811,26.185 32.355,32.558 32.355,32.558C32.355,32.558 24.122,18.056 21.376,1.181C21.376,1.181 23.96,-13.922 32.355,-29.464" style="fill:rgb(255,177,165);fill-rule:nonzero;"/>
                </g>
                <g transform="matrix(0.00055348,1,1,-0.00055348,399.506,426.635)">
                    <path d="M-25.313,-83.077L83.092,-83.077L83.121,-29.45L-25.281,-25.268L-25.313,-83.077Z" style="fill:rgb(0,86,131);fill-rule:nonzero;"/>
                </g>
                <g transform="matrix(-0.000544255,1,1,0.000544255,458.138,484.504)">
                    <path d="M-83.123,-25.328L25.282,-25.328L25.311,-78.956L-83.091,-83.136L-83.123,-25.328Z" style="fill:rgb(0,86,131);fill-rule:nonzero;"/>
                </g>
                <g transform="matrix(-1,0,0,1,751.682,340.395)">
                    <rect x="348.116" y="60.972" width="55.45" height="37.661" style="fill:rgb(0,86,131);"/>
                </g>
                <g transform="matrix(-0.973318,-0.229459,-0.229459,0.973318,419.312,433.681)">
                    <path d="M-17.035,-134.414C-28.7,-99.423 -31.428,-72.567 -47.882,-7L-17.035,1.65L16.638,-120.403L-17.035,-134.414Z" style="fill:rgb(255,177,165);fill-rule:nonzero;"/>
                </g>
                <g transform="matrix(0.491242,0.871023,0.871023,-0.491242,435.07,316.161)">
                    <path d="M16.597,-9.793C16.597,-9.793 24.754,8.363 23.624,24.559L16.597,28.113L4.291,-2.865L16.597,-9.793Z" style="fill:rgb(243,151,142);fill-rule:nonzero;"/>
                </g>
                <g transform="matrix(-0.992567,0.121699,0.121699,0.992567,483.623,326.364)">
                    <path d="M67.452,-113.226C67.452,-113.226 6.886,-89.848 5.29,-9.14C5.29,-9.14 37.5,0.37 67.452,-9.092L57.303,-34.776L67.452,-113.226Z" style="fill:rgb(201,139,210);fill-rule:nonzero;"/>
                </g>
                <g transform="matrix(0.646216,0.763155,0.763155,-0.646216,256.286,261.759)">
                    <path d="M-31.627,-27.536L40.915,-27.536L62.476,-64.59C62.476,-64.59 1.647,-59.769 -37.92,-47.245L-31.627,-27.536Z" style="fill:rgb(255,177,165);fill-rule:nonzero;"/>
                </g>
                <g transform="matrix(0.533668,-0.845694,-0.845694,-0.533668,218.494,237.491)">
                    <path d="M-17.981,-8.84C-17.981,-8.84 -34.63,0.118 -34.02,5.454C-32.953,14.779 -17.981,31.378 -17.981,31.378C-17.981,31.378 8.262,11.538 7.724,11.542C7.185,11.544 -17.981,-8.84 -17.981,-8.84" style="fill:rgb(255,177,165);fill-rule:nonzero;"/>
                </g>
                <g transform="matrix(1,0,0,1,216.374,227.231)">
                    <path d="M0,30.184C-0.292,28.527 6.104,10.649 8.296,3.945C8.825,2.328 7.71,0.555 5.955,0.219C4.812,0 3.003,0.141 2.147,1.78L-5.574,14.976L0,30.184Z" style="fill:rgb(255,177,165);fill-rule:nonzero;"/>
                </g>
                <g transform="matrix(1,0,0,1,215.81,208.751)">
                    <path d="M0,29.337L-5.301,2.964C-5.615,1.209 -7.379,0 -9.138,0.332C-10.661,0.62 -11.665,1.977 -11.485,3.503L-9.175,23.141L0,29.337Z" style="fill:rgb(255,177,165);fill-rule:nonzero;"/>
                </g>
                <g transform="matrix(1,0,0,1,205.269,211.258)">
                    <path d="M0,17.103L-7.199,-1.73C-7.794,-3.379 -9.65,-4.293 -11.289,-3.744C-12.709,-3.268 -13.507,-1.836 -13.17,-0.366L-7.829,21.396L0,17.103Z" style="fill:rgb(255,177,165);fill-rule:nonzero;"/>
                </g>
                <g transform="matrix(1,0,0,1,197.532,214.253)">
                    <path d="M0,19.661L-9.108,1.156C-9.944,-0.561 -12.023,-1.359 -13.731,-0.616C-15.334,0.081 -16.044,1.898 -15.358,3.55L-8.097,21.02L0,19.661Z" style="fill:rgb(255,177,165);fill-rule:nonzero;"/>
                </g>
                <g transform="matrix(1,0,0,1,182.363,220.629)">
                    <path d="M0,15.323L-7.147,3.987C-7.739,2.653 -7.192,1.157 -5.897,0.566C-4.658,0 -3.128,0.446 -2.326,1.605L7.072,14.644L0,15.323Z" style="fill:rgb(255,177,165);fill-rule:nonzero;"/>
                </g>
                <g transform="matrix(-0.668206,0.743976,0.743976,0.668206,208.981,250.562)">
                    <path d="M-14.354,-5.649C-14.354,-5.649 -8.02,-14.387 3.357,-5.649" style="fill:none;fill-rule:nonzero;stroke:rgb(40,40,40);stroke-width:1.53px;stroke-linecap:round;stroke-linejoin:round;"/>
                </g>
                <g transform="matrix(1,0,0,1,237.859,283.596)">
                    <path d="M0,48.685C0,48.685 8.817,79.199 26.387,75.142C43.956,71.085 71.339,33.56 71.339,33.56L65.21,-30.514L15.897,30.179L0,48.685Z" style="fill:rgb(255,177,165);fill-rule:nonzero;"/>
                </g>
                <g transform="matrix(-0.484462,0.874812,0.874812,0.484462,311.298,298.486)">
                    <path d="M17.35,-38.684C17.35,-38.684 31.252,-11.954 32.119,4.761L17.35,7.208L10.455,-37.603L17.35,-38.684Z" style="fill:rgb(243,151,142);fill-rule:nonzero;"/>
                </g>
                <g transform="matrix(-0.948872,-0.315662,-0.315662,0.948872,252.769,308.447)">
                    <path d="M-56.901,-111.296C-56.901,-111.296 -13.998,-85.412 -7.214,-23.286C-7.214,-23.286 -29.633,-5.753 -56.901,-3.716L-66.397,-28.684L-56.901,-111.296Z" style="fill:rgb(201,139,210);fill-rule:nonzero;"/>
                </g>
                <g transform="matrix(1,0,0,1,341.893,402.507)">
                    <path d="M0,-181.88C-19.094,-172.086 -31.098,-159.097 -31.098,-159.097L-27.331,6.962L92.997,6.962L92.607,-158.241C92.607,-158.241 77.439,-173.083 61,-180.319C47.039,-186.465 13.574,-188.842 0,-181.88" style="fill:rgb(201,139,210);fill-rule:nonzero;"/>
                </g>
                <g transform="matrix(1,0,0,1,398.83,268.071)">
                    <path d="M0,33.473C-9.243,33.473 -16.736,25.98 -16.736,16.737L-16.736,0L16.736,0L16.736,16.737C16.736,25.98 9.243,33.473 0,33.473Z" style="fill:none;fill-rule:nonzero;stroke:rgb(40,40,40);stroke-width:1.4px;stroke-linecap:round;stroke-linejoin:round;"/>
                </g>
                <g transform="matrix(0.0287421,-0.999587,-0.999587,-0.0287421,462.601,300.566)">
                    <path d="M-26.392,27.162L27.954,27.162" style="fill:none;fill-rule:nonzero;stroke:rgb(40,40,40);stroke-width:1.4px;stroke-linecap:round;stroke-linejoin:round;"/>
                </g>
                <g transform="matrix(-0.0551306,-0.998479,-0.998479,0.0551306,334.781,290.972)">
                    <path d="M-24.88,23.545L22.28,23.545" style="fill:none;fill-rule:nonzero;stroke:rgb(40,40,40);stroke-width:1.4px;stroke-linecap:round;stroke-linejoin:round;"/>
                </g>
                <g transform="matrix(1,0,0,1,343.303,112.927)">
                    <path d="M0,47.047L-5.016,22.232C-5.298,20.211 -6.082,17.091 -5.122,14.161C-3.533,9.312 2.306,0 12.286,4.263L14.443,14.088C14.443,14.088 4.079,16.18 -0.078,29.738L0,47.047Z" style="fill:rgb(40,40,40);fill-rule:nonzero;"/>
                </g>
                <g transform="matrix(1,0,0,1,354.853,145.036)">
                    <path d="M0,-22.724C-0.182,-19.463 -3.06,-5.197 -13.177,0C-13.177,0 -22.04,-19.005 0,-22.724" style="fill:rgb(40,40,40);fill-rule:nonzero;"/>
                </g>
                <g transform="matrix(1,0,0,1,390.347,197.432)">
                    <path d="M0,18.626L0,-23.51L-38.844,-23.51L-38.844,18.626L-50.407,23.897C-50.407,23.897 -47.695,41.361 -19.015,41.749C9.666,42.136 12.547,24.757 12.547,24.757L0,18.626Z" style="fill:rgb(255,177,165);fill-rule:nonzero;"/>
                </g>
                <g transform="matrix(1,0,0,1,355.588,141.168)">
                    <path d="M0,-23.978C0,-23.978 7.129,-42.784 29.112,-32.787C42.417,-26.735 46.144,-18.622 47.729,-12.873C48.256,-10.963 48.466,-7.955 48.323,-6.168L43.005,18.806L22.246,-15.747L2.157,-14.153L0,-23.978Z" style="fill:rgb(40,40,40);fill-rule:nonzero;"/>
                </g>
                <g transform="matrix(-0.981445,0.191742,0.191742,0.981445,410.679,169.993)">
                    <path d="M9.94,-12.15C9.94,-12.15 6.571,-15.736 1.662,-12.69C-3.246,-9.643 1.667,2.762 9.94,2.849C9.94,2.849 12.912,2.914 14.766,0.526C14.766,0.526 10.952,-8.601 9.94,-12.15" style="fill:rgb(243,151,142);fill-rule:nonzero;"/>
                </g>
                <g transform="matrix(-0.832265,0.554377,0.554377,0.832265,399.466,167.967)">
                    <path d="M-8.097,-1.193C-8.097,-1.193 -5.169,-4.958 1.198,-1.193" style="fill:none;fill-rule:nonzero;stroke:rgb(40,40,40);stroke-width:1.4px;stroke-linecap:round;stroke-linejoin:round;"/>
                </g>
                <g transform="matrix(-0.981445,-0.191742,-0.191742,0.981445,331.218,169.993)">
                    <path d="M-9.939,-12.15C-9.939,-12.15 -6.57,-15.736 -1.662,-12.69C3.246,-9.643 -1.667,2.762 -9.939,2.849C-9.939,2.849 -12.911,2.914 -14.765,0.526C-14.765,0.526 -10.952,-8.601 -9.939,-12.15" style="fill:rgb(243,151,142);fill-rule:nonzero;"/>
                </g>
                <g transform="matrix(0.832265,0.554377,0.554377,-0.832265,338.013,160.646)">
                    <path d="M-0.361,-2.45C-0.361,-2.45 2.567,1.315 8.934,-2.45" style="fill:none;fill-rule:nonzero;stroke:rgb(40,40,40);stroke-width:1.4px;stroke-linecap:round;stroke-linejoin:round;"/>
                </g>
                <g transform="matrix(1,0,0,1,399.135,168.467)">
                    <path d="M0,-20.941C0.003,-13.033 -0.773,3.511 -5.635,13.33C-10.199,22.55 -17.749,27.512 -27.646,27.808C-37.544,28.103 -44.917,24.288 -50.826,12.323C-56.735,0.357 -56.453,-20.794 -56.453,-20.794C-56.453,-20.794 -56.453,-49.044 -28.533,-49.044C0.873,-49.044 0,-20.941 0,-20.941" style="fill:rgb(255,177,165);fill-rule:nonzero;"/>
                </g>
                <g transform="matrix(-0.0108675,0.999941,0.999941,0.0108675,381.571,177.816)">
                    <path d="M9.195,-29.679C9.195,-29.679 25.664,-26.247 27.404,-11.862C29.406,4.691 9.195,8.876 9.195,8.876C9.195,8.876 18.427,1.67 18.567,-9.882C18.724,-22.765 9.195,-29.679 9.195,-29.679" style="fill:rgb(40,40,40);fill-rule:nonzero;"/>
                </g>
                <g transform="matrix(0,1,1,0,375.715,161.223)">
                    <path d="M-1.968,-6.799L4.57,-6.799C4.85,-6.799 5.119,-6.744 5.366,-6.646C6.335,-6.259 6.799,-5.143 6.531,-4.135L5.954,-1.968" style="fill:none;fill-rule:nonzero;stroke:rgb(40,40,40);stroke-width:1.4px;stroke-linecap:round;stroke-linejoin:round;"/>
                </g>
                <g transform="matrix(0,-1,-1,0,358.13,153.59)">
                    <path d="M-2.542,-2.542C-3.946,-2.542 -5.084,-1.404 -5.084,0C-5.084,1.403 -3.946,2.542 -2.542,2.542C-1.139,2.542 0,1.403 0,0C0,-1.404 -1.139,-2.542 -2.542,-2.542" style="fill:rgb(40,40,40);fill-rule:nonzero;"/>
                </g>
                <g transform="matrix(0,-1,-1,0,381.96,153.59)">
                    <path d="M-2.542,-2.542C-3.946,-2.542 -5.084,-1.403 -5.084,0C-5.084,1.403 -3.946,2.542 -2.542,2.542C-1.139,2.542 0,1.403 0,0C0,-1.403 -1.139,-2.542 -2.542,-2.542" style="fill:rgb(40,40,40);fill-rule:nonzero;"/>
                </g>
                <g transform="matrix(1,0,0,1,375.454,144.04)">
                    <path d="M0,-0.553L17.089,3.862C17.089,3.862 16.312,-0.932 9.321,-2.674C2.33,-4.415 0,-0.553 0,-0.553" style="fill:rgb(40,40,40);fill-rule:nonzero;"/>
                </g>
                <g transform="matrix(1,0,0,1,364.835,144.04)">
                    <path d="M0,-0.553L-17.089,3.862C-17.089,3.862 -16.312,-0.932 -9.321,-2.674C-2.33,-4.415 0,-0.553 0,-0.553" style="fill:rgb(40,40,40);fill-rule:nonzero;"/>
                </g>
                <g transform="matrix(1,0,0,1,361.436,174.311)">
                    <path d="M0,-1.932C0,-1.932 2.521,0 9.15,0C15.179,0 18.944,-1.932 18.944,-1.932" style="fill:none;fill-rule:nonzero;stroke:rgb(40,40,40);stroke-width:1.4px;stroke-linecap:round;stroke-linejoin:round;"/>
                </g>
                <g transform="matrix(0,-1,-1,0,357.446,146.074)">
                    <ellipse cx="-10.801" cy="0" rx="10.8" ry="10.801" style="fill:none;stroke:white;stroke-width:1.95px;"/>
                </g>
                <g transform="matrix(0,-1,-1,0,383.978,146.074)">
                    <ellipse cx="-10.801" cy="0" rx="10.8" ry="10.801" style="fill:none;stroke:white;stroke-width:1.95px;"/>
                </g>
                <g transform="matrix(1,0,0,1,368.246,154.488)">
                    <path d="M0,2.387C0,2.387 2.558,0 4.932,2.387" style="fill:none;fill-rule:nonzero;stroke:white;stroke-width:1.95px;"/>
                </g>
                <g transform="matrix(-0.999677,-0.0253991,-0.0253991,0.999677,343.026,156.737)">
                    <path d="M-3.622,0.046L0.001,0.046" style="fill:none;fill-rule:nonzero;stroke:white;stroke-width:1.95px;"/>
                </g>
                <g transform="matrix(0.999871,-0.0160751,-0.0160751,-0.999871,394.779,156.907)">
                    <path d="M0,0.033L4.043,0.033" style="fill:none;fill-rule:nonzero;stroke:white;stroke-width:1.95px;"/>
                </g>
                <g transform="matrix(1,0,0,1,351.794,142.178)">
                    <path d="M0,-19.221C0,-19.221 5.187,-4.486 28.591,-4.938C44.494,-5.245 48.294,6.263 48.294,6.263C48.294,6.263 45.526,-19.464 44.799,-19.221C44.071,-18.978 20.6,-25.484 20.6,-25.484L0,-19.221Z" style="fill:rgb(40,40,40);fill-rule:nonzero;"/>
                </g>
            </g>
        </g>
    </g>
</svg>
