<?xml version="1.0" encoding="UTF-8"?>
<svg width="298px" height="221px" viewBox="0 0 298 221" version="1.1" xmlns="http://www.w3.org/2000/svg" xmlns:xlink="http://www.w3.org/1999/xlink">
    <!-- Generator: Sketch 54.1 (76490) - https://sketchapp.com -->
    <title>dua</title>
    <desc>Created with Sketch.</desc>
    <g id="Page-1" stroke="none" stroke-width="1" fill="none" fill-rule="evenodd">
        <g id="838" transform="translate(-962.000000, -335.000000)">
            <path d="M1149.32,551.082 C1094.23,551.082 1049.58,506.428 1049.58,451.347 C1049.58,396.264 1094.23,351.612 1149.32,351.612 C1204.4,351.612 1249.05,396.264 1249.05,451.347 C1249.05,506.428 1204.4,551.082 1149.32,551.082 Z M1149.32,346.501 C1091.41,346.501 1044.47,393.442 1044.47,451.347 C1044.47,509.25 1091.41,556.192 1149.32,556.192 C1207.22,556.192 1254.16,509.25 1254.16,451.347 C1254.16,393.442 1207.22,346.501 1149.32,346.501 L1149.32,346.501 Z" id="Fill-6" fill="#E0547B"></path>
            <polyline id="Fill-348" fill="#0A0D0E" points="1106.22 459.78 1106.22 466.57 1091.89 448.476 1077.55 466.574 1063.22 448.476 1048.88 466.574 1034.54 448.476 1020.21 466.574 1005.87 448.476 991.538 466.574 977.203 448.476 962.868 466.574 962.868 459.782 977.198 441.689 991.533 459.79 1005.87 441.689 1020.2 459.79 1034.54 441.689 1048.87 459.79 1063.21 441.689 1077.54 459.79 1091.88 441.689 1106.21 459.79 1106.22 459.78"></polyline>
        </g>
    </g>
</svg>