<?xml version="1.0"?>
<svg xmlns="http://www.w3.org/2000/svg" xmlns:xlink="http://www.w3.org/1999/xlink" version="1.1" id="Capa_1" x="0px" y="0px" viewBox="0 0 512 512" style="enable-background:new 0 0 512 512;" xml:space="preserve" width="512px" height="512px"><g><g>
	<g>
		<path d="M367.42,317.86H264.06v-27.878c4.371,0.749,8.749,1.119,13.096,1.119c20.108,0,39.512-7.893,54.12-22.501    c18.781-18.782,26.461-45.486,20.541-71.432c-0.983-4.307-4.402-7.725-8.71-8.709c-25.942-5.92-52.649,1.759-71.43,20.542    c-2.789,2.788-5.326,5.755-7.617,8.865v-40.814c39.514-3.558,72.196-33.046,79.252-72.729c0.726-4.078-1.993-7.972-6.071-8.698    c-4.075-0.729-7.974,1.993-8.697,6.071c-6.255,35.182-36.763,60.718-72.541,60.718c-40.642,0-73.706-33.065-73.706-73.707    s33.065-73.707,73.706-73.707c33.47,0,62.782,22.582,71.281,54.915c1.054,4.006,5.151,6.399,9.162,5.347    c4.006-1.053,6.399-5.154,5.347-9.161C331.561,27.183,296.282,0,256.001,0c-48.913,0-88.707,39.794-88.707,88.708    c0,46.578,36.084,84.885,81.765,88.438v41.484c-2.433-3.388-5.158-6.61-8.174-9.627c-18.781-18.781-45.484-26.461-71.431-20.542    c-4.307,0.982-7.726,4.4-8.711,8.71c-5.919,25.946,1.761,52.649,20.542,71.43c14.609,14.61,34.01,22.501,54.12,22.501    c4.53,0,9.098-0.408,13.653-1.222v27.981H144.581c-7.582,0-13.751,6.168-13.751,13.751v24.865c0,7.582,6.168,13.751,13.751,13.751    h12.701v110.368c0,17.316,14.088,31.404,31.404,31.404h50.37c4.143,0,7.5-3.358,7.5-7.5s-3.357-7.5-7.5-7.5h-50.37    c-9.045,0-16.403-7.358-16.403-16.403V370.228h167.434v110.368c0,9.045-7.357,16.403-16.402,16.403h-49.256    c-4.143,0-7.5,3.358-7.5,7.5c0,4.142,3.357,7.5,7.5,7.5h49.256c17.315,0,31.403-14.088,31.403-31.404V370.228h12.701    c7.582,0,13.751-6.168,13.751-13.751v-24.866C381.171,324.03,375.003,317.86,367.42,317.86z M282.285,219.61    c14.597-14.598,35.142-20.862,55.356-16.972c3.886,20.207-2.374,40.758-16.973,55.356c-14.597,14.597-35.146,20.857-55.356,16.972    C261.425,254.758,267.686,234.207,282.285,219.61z M247.248,274.966c-20.205,3.886-40.758-2.373-55.356-16.972    c-14.6-14.599-20.86-35.149-16.973-55.356c20.209-3.884,40.759,2.375,55.356,16.972    C244.875,234.209,251.136,254.759,247.248,274.966z M366.17,355.227c-16.028,0-214.291,0-220.337,0v-22.365H366.17V355.227z" data-original="#000000" class="active-path" data-old_color="#000000" fill="#FFFFFF"/>
	</g>
</g><g>
	<g>
		<path d="M256.001,25.94c-34.61,0-62.769,28.158-62.769,62.768c0,34.61,28.158,62.768,62.769,62.768s62.769-28.158,62.769-62.768    C318.77,54.097,290.612,25.94,256.001,25.94z M256.001,136.475c-26.34,0-47.768-21.428-47.768-47.767    c0-26.339,21.428-47.767,47.768-47.767s47.768,21.428,47.768,47.767C303.769,115.047,282.341,136.475,256.001,136.475z" data-original="#000000" class="active-path" data-old_color="#000000" fill="#FFFFFF"/>
	</g>
</g><g>
	<g>
		<path d="M260.025,82.73V66.461c3.426,0.276,5.177,1.069,8.967,2.958c1.985,0.997,4.246,0.484,5.685-1.948    c1.196-2.039,2.019-5.31-0.463-7.375c-3.524-2.927-9.719-3.849-14.189-3.849v-2.427c0-1.373-1.696-2.333-3.143-2.333    c-1.568,0-3.143,0.953-3.143,2.311v2.588c-10.664,1.405-17.933,7.136-17.933,18.025c0,11.334,8.388,14.935,17.933,18.58v18.395    c-9.595-1.158-12.048-9.379-16.454-6.284c-2.041,1.432-3.143,4.171-3.143,5.839c0,5.455,8.965,11.399,19.597,11.399v2.613    c0,1.334,1.516,2.333,3.143,2.333c1.436,0,3.143-0.947,3.143-2.311v-2.865c9.34-1.444,17.47-7.35,17.47-19.596    C277.495,91.332,270.507,86.541,260.025,82.73z M254.479,80.696c-5.615-2.243-7.395-4.049-7.395-7.487    c0-4.03,3.413-5.842,7.395-6.47V80.696z M264.278,108.798c-1.295,1.233-2.958,2.065-4.992,2.496V95.209    c1.972,0.864,3.62,1.927,4.945,3.189c1.324,1.264,1.987,3.036,1.987,5.314C266.218,105.87,265.572,107.565,264.278,108.798z" data-original="#000000" class="active-path" data-old_color="#000000" fill="#FFFFFF"/>
	</g>
</g></g> </svg>
