<?xml version="1.0" encoding="UTF-8" standalone="no"?>
<!DOCTYPE svg PUBLIC "-//W3C//DTD SVG 1.1//EN" "http://www.w3.org/Graphics/SVG/1.1/DTD/svg11.dtd">
<svg width="100%" height="100%" viewBox="0 0 968 549" version="1.1" xmlns="http://www.w3.org/2000/svg" xmlns:xlink="http://www.w3.org/1999/xlink" xml:space="preserve" xmlns:serif="http://www.serif.com/" style="fill-rule:evenodd;clip-rule:evenodd;stroke-miterlimit:10;">
    <g transform="matrix(1,0,0,1,-621.559,-3.7829)">
        <g id="Page-2" serif:id="Page 2" transform="matrix(-1.28947,0,0,1.09671,1588.66,3.7829)">
            <rect x="0" y="0" width="750" height="500" style="fill:none;"/>
            <clipPath id="_clip1">
                <rect x="0" y="0" width="750" height="500"/>
            </clipPath>
            <g clip-path="url(#_clip1)">
                <g id="BACKGROUND-2" serif:id="BACKGROUND 2" transform="matrix(0.775515,0,0,0.911819,348.837,0)">
                    <g transform="matrix(-5.18136,606.219,606.219,5.18136,301.69,-60.6229)">
                        <path d="M0.109,-1.247L0.935,-1.238C0.935,-1.238 0.98,-0.894 0.991,-0.721C1.004,-0.519 0.975,-0.169 0.95,-0.025C0.94,0.037 0.912,0.135 0.905,0.151C0.898,0.164 0.892,0.178 0.884,0.191C0.839,0.267 0.762,0.336 0.672,0.347C0.582,0.359 0.49,0.322 0.427,0.259C0.39,0.222 0.362,0.178 0.333,0.135C0.32,0.115 0.305,0.098 0.29,0.079C0.277,0.064 0.268,0.045 0.248,0.038C0.223,0.029 0.201,0.043 0.182,0.058C0.165,0.073 0.148,0.091 0.125,0.093C0.116,0.094 0.107,0.092 0.099,0.088L0.109,-1.247Z" style="fill:url(#_Linear2);fill-rule:nonzero;"/>
                    </g>
                    <g transform="matrix(54.6506,249.831,249.831,-54.6506,373.381,-26.9913)">
                        <path d="M0.224,0.09C0.221,-0.005 0.256,-0.101 0.319,-0.172C0.335,-0.19 0.354,-0.208 0.378,-0.211C0.394,-0.213 0.411,-0.209 0.425,-0.203C0.509,-0.168 0.541,-0.078 0.517,0.007C0.505,0.053 0.478,0.094 0.447,0.13C0.422,0.158 0.394,0.184 0.359,0.197C0.324,0.209 0.281,0.205 0.255,0.179C0.241,0.165 0.233,0.147 0.229,0.128C0.226,0.115 0.225,0.102 0.224,0.09Z" style="fill:url(#_Linear3);fill-rule:nonzero;"/>
                    </g>
                    <g transform="matrix(18.2169,80.6747,80.6747,-18.2169,455.191,407.162)">
                        <path d="M0.595,-0.087C0.612,-0.177 0.642,-0.276 0.722,-0.321C0.802,-0.366 0.911,-0.337 0.972,-0.268C1.033,-0.199 1.052,-0.1 1.038,-0.009C1.018,0.129 0.918,0.376 0.742,0.362C0.649,0.355 0.605,0.29 0.586,0.209C0.564,0.111 0.58,-0.012 0.595,-0.087Z" style="fill:url(#_Linear4);fill-rule:nonzero;"/>
                    </g>
                    <g transform="matrix(30.3614,88.4819,88.4819,-30.3614,476.021,355.344)">
                        <path d="M0.755,-0.132C0.788,-0.146 0.832,-0.142 0.855,-0.114C0.87,-0.094 0.873,-0.066 0.867,-0.041C0.861,-0.017 0.847,0.006 0.833,0.027C0.813,0.058 0.791,0.088 0.762,0.111C0.733,0.134 0.696,0.149 0.66,0.144C0.627,0.14 0.61,0.127 0.604,0.108C0.579,0.038 0.705,-0.111 0.755,-0.132Z" style="fill:url(#_Linear5);fill-rule:nonzero;"/>
                    </g>
                    <g transform="matrix(1,0,0,1,141.933,250.976)">
                        <path d="M0,45.989C0.883,44.953 0.766,43.42 0.542,42.076C-0.292,37.067 -1.924,32.193 -4.272,27.692C-6.095,24.202 -8.428,20.447 -7.49,16.623C-6.131,11.082 1.417,9.391 6.695,11.554C7.778,11.999 8.886,12.565 10.05,12.447C12.09,12.24 13.3,10.111 14.053,8.205C18.287,-2.505 17.92,-14.158 17.514,-25.459C17.185,-34.607 14.643,-49.128 20.746,-56.902C23.541,-60.461 28.905,-62.286 32.781,-59.952C36.563,-57.675 37.54,-52.639 37.477,-48.225C37.348,-39.227 34.489,-30.362 35.04,-21.38C35.104,-20.317 35.231,-19.215 35.795,-18.311C37.402,-15.731 41.21,-16.232 44.196,-16.795C47.183,-17.357 51.269,-16.96 51.89,-13.985C52.233,-12.338 51.228,-10.735 50.208,-9.397C49.188,-8.058 48.051,-6.614 48.082,-4.932C48.186,0.667 59.969,-6.953 62.347,-7.905C66.908,-9.731 73.627,-10.473 75.335,-5.866C76.061,-3.907 75.432,-1.713 74.579,0.195C68.719,13.328 53.043,20.733 49.209,34.593C56.906,34.124 64.604,33.654 72.302,33.184C74.785,33.033 77.699,33.067 79.202,35.051C83.957,41.323 71.667,45.052 68.521,47.42C66.306,49.087 64.09,50.754 61.875,52.42C57.981,55.349 54.03,58.337 51.136,62.256C50.19,63.537 49.341,64.985 49.27,66.577C48.978,73.13 66.364,68.55 69.645,68.348C75.129,68.013 79.533,70.226 74.368,75.333C69.405,80.237 62.273,82.181 57.469,87.232C56.334,88.426 55.321,89.998 55.634,91.614C56.693,97.094 62.451,92.406 65.525,94.45C67.03,95.451 67.684,97.683 66.692,99.195C66.213,99.927 65.446,100.412 64.701,100.871C57.977,105.012 54.296,106.727 46.124,107.468C37.202,108.275 28.117,108.201 19.377,106.042C8.984,103.475 -0.666,97.971 -8.168,90.335C-9.4,89.08 -10.615,87.699 -11.068,85.999C-11.521,84.299 -10.97,82.208 -9.396,81.421C-7.605,80.524 -5.188,81.551 -3.568,80.374C-3.29,80.172 -12.701,68.756 -13.521,67.718C-15.572,65.123 -17.638,62.33 -18.11,59.055C-19.072,52.389 -12.183,46.25 -5.474,46.833C-3.553,47 -1.251,47.456 0,45.989" style="fill:rgb(55,112,96);fill-rule:nonzero;"/>
                    </g>
                    <g opacity="0.13">
                        <g transform="matrix(1,0,0,1,94.4727,353.159)">
                            <path d="M0,12.306C-2.364,12.294 -21.505,12.441 -18.334,8.762C-17.563,7.868 -16.17,7.571 -14.889,7.35C7.08,3.551 30.172,4.199 52.494,3.89C73.615,3.598 94.739,3.51 115.861,3.369C136.414,3.232 157.342,1.916 177.852,2.783C229.612,4.969 281.437,-0.135 333.17,3.014C334.56,3.098 336.028,3.212 337.153,3.908C343.08,7.57 331.707,9.777 329.295,9.933C309.971,11.178 290.8,9.66 271.543,10.244C251.796,10.846 232.035,11.126 212.274,11.085C186.912,11.034 161.664,11.739 136.282,11.592C109.942,11.441 83.603,11.302 57.262,11.282C55.154,11.281 53.047,11.28 50.939,11.28C37.037,11.814 23.127,12.23 9.193,12.304C6.129,12.321 3.064,12.322 0,12.306" style="fill:rgb(53,58,77);fill-rule:nonzero;"/>
                        </g>
                    </g>
                    <g transform="matrix(1,0,0,1,260.833,315.338)">
                        <path d="M0,-6.565C0.637,-7.201 1.803,-7.421 2.577,-6.897C3.263,-6.433 3.883,-5.936 4.499,-5.385C4.769,-5.144 5.042,-4.909 5.32,-4.678C5.4,-4.612 6.093,-4.068 5.868,-4.239C7.08,-3.32 7.61,-1.799 6.587,-0.474C5.647,0.742 3.874,0.856 2.763,-0.214C1.597,-1.339 0.396,-2.528 -0.332,-3.989C-0.758,-4.841 -0.698,-5.866 0,-6.565" style="fill:rgb(39,137,186);fill-rule:nonzero;"/>
                    </g>
                    <g transform="matrix(1,0,0,1,268.476,307.69)">
                        <path d="M0,-4.635C0.036,-3.572 0.582,-2.496 1.062,-1.56C2.342,0.934 4.286,3.023 5.515,5.55C5.923,6.387 6.252,7.308 6.141,8.233C6.029,9.157 5.363,10.07 4.439,10.192C3.591,10.304 2.808,9.761 2.144,9.221C-0.231,7.292 -2.551,5.289 -4.753,3.164C-7.07,0.927 -11.604,-1.747 -10.04,-5.659C-9.631,-6.682 -8.889,-7.531 -8.161,-8.357C-6.676,-10.042 -5.188,-11.726 -3.705,-13.412C-2.362,-14.939 -2.244,-14.934 -0.876,-13.651C-0.556,-13.351 3.206,-9.77 2.942,-9.522C1.741,-8.414 -0.059,-6.385 0,-4.635" style="fill:rgb(235,153,40);fill-rule:nonzero;"/>
                    </g>
                    <g transform="matrix(1,0,0,1,269.33,256.777)">
                        <path d="M0,45.941C-1.699,44.383 -5.27,40.741 -6.969,39.183C-3.751,33.862 12.733,12.275 17.997,6.71C21.157,3.368 25.109,0.25 29.707,0.128C34.572,0 40.577,4.261 40.271,9.638C40.019,14.047 34.347,16.672 31.28,19.091C20.49,27.605 10.056,36.573 0,45.941" style="fill:rgb(39,137,186);fill-rule:nonzero;"/>
                    </g>
                    <g transform="matrix(-0.407163,0.913356,0.913356,0.407163,399.229,348.222)">
                        <path d="M-65.889,-42.767L27.759,-42.767" style="fill:none;fill-rule:nonzero;stroke:rgb(53,58,77);stroke-width:1px;"/>
                    </g>
                    <g transform="matrix(0.357938,0.933745,0.933745,-0.357938,402.757,282.097)">
                        <path d="M-30.064,-43.722L63.584,-43.722" style="fill:none;fill-rule:nonzero;stroke:rgb(53,58,77);stroke-width:1px;"/>
                    </g>
                    <g transform="matrix(0.91336,0.407154,0.407154,-0.91336,336.631,278.571)">
                        <path d="M-4.057,-19.065L89.591,-19.065" style="fill:none;fill-rule:nonzero;stroke:rgb(53,58,77);stroke-width:1px;"/>
                    </g>
                    <g transform="matrix(0.933745,-0.357938,-0.357938,-0.933745,333.105,344.695)">
                        <path d="M-3.102,16.76L90.545,16.76" style="fill:none;fill-rule:nonzero;stroke:rgb(53,58,77);stroke-width:1px;"/>
                    </g>
                    <g transform="matrix(-0.407163,0.913356,0.913356,0.407163,263.587,348.222)">
                        <path d="M-65.889,-42.767L27.759,-42.767" style="fill:none;fill-rule:nonzero;stroke:rgb(53,58,77);stroke-width:1px;"/>
                    </g>
                    <g transform="matrix(0.357938,0.933745,0.933745,-0.357938,267.114,282.097)">
                        <path d="M-30.064,-43.722L63.584,-43.722" style="fill:none;fill-rule:nonzero;stroke:rgb(53,58,77);stroke-width:1px;"/>
                    </g>
                    <g transform="matrix(0.91336,0.407154,0.407154,-0.91336,200.989,278.571)">
                        <path d="M-4.057,-19.065L89.591,-19.065" style="fill:none;fill-rule:nonzero;stroke:rgb(53,58,77);stroke-width:1px;"/>
                    </g>
                    <g transform="matrix(0.933745,-0.357938,-0.357938,-0.933745,197.462,344.695)">
                        <path d="M-3.102,16.76L90.545,16.76" style="fill:none;fill-rule:nonzero;stroke:rgb(53,58,77);stroke-width:1px;"/>
                    </g>
                    <g transform="matrix(1,0,0,1,366.025,259.824)">
                        <path d="M0,55.153L-26.523,4.122L-101.31,11.912L-131.702,54.197L-135.407,52.389L-103.886,7.79L-24.02,0L3.657,53.253L0,55.153Z" style="fill:rgb(199,86,86);fill-rule:nonzero;"/>
                    </g>
                    <g transform="matrix(1,0,0,1,233.898,358.662)">
                        <path d="M0,-89.268C-24.611,-89.268 -44.634,-69.246 -44.634,-44.635C-44.634,-20.023 -24.611,0 0,0C24.611,0 44.634,-20.023 44.634,-44.635C44.634,-69.246 24.611,-89.268 0,-89.268M0,4.122C-26.885,4.122 -48.756,-17.75 -48.756,-44.635C-48.756,-71.52 -26.885,-93.39 0,-93.39C26.885,-93.39 48.756,-71.52 48.756,-44.635C48.756,-17.75 26.885,4.122 0,4.122" style="fill:rgb(53,58,77);fill-rule:nonzero;"/>
                    </g>
                    <g transform="matrix(1,0,0,1,367.853,358.662)">
                        <path d="M0,-89.268C-24.61,-89.268 -44.634,-69.246 -44.634,-44.635C-44.634,-20.023 -24.61,0 0,0C24.611,0 44.635,-20.023 44.635,-44.635C44.635,-69.246 24.611,-89.268 0,-89.268M0,4.122C-26.884,4.122 -48.756,-17.75 -48.756,-44.635C-48.756,-71.52 -26.884,-93.39 0,-93.39C26.885,-93.39 48.757,-71.52 48.757,-44.635C48.757,-17.75 26.885,4.122 0,4.122" style="fill:rgb(53,58,77);fill-rule:nonzero;"/>
                    </g>
                    <g transform="matrix(-0.571678,-0.820478,-0.820478,0.571678,283.26,256.578)">
                        <path d="M-46.52,20.168L10.108,20.168L11.409,23.671L-46.457,23.773C-46.461,22.571 -46.489,21.369 -46.52,20.168" style="fill:rgb(199,86,86);fill-rule:nonzero;"/>
                    </g>
                    <g transform="matrix(0.99014,-0.140081,-0.140081,-0.99014,231.205,316.286)">
                        <path d="M-0.006,4.148L58.403,4.148L58.927,0.061L0.593,0.071L-0.006,4.148Z" style="fill:rgb(199,86,86);fill-rule:nonzero;"/>
                    </g>
                    <g transform="matrix(0,1,1,0,232.471,307.28)">
                        <path d="M5.837,-5.837C9.061,-5.837 11.674,-3.224 11.674,0C11.674,3.224 9.061,5.837 5.837,5.837C2.613,5.837 0,3.224 0,0C0,-3.224 2.613,-5.837 5.837,-5.837" style="fill:rgb(235,153,40);fill-rule:nonzero;"/>
                    </g>
                    <g transform="matrix(1,0,0,1,300.145,332.564)">
                        <path d="M0,-1.624C0.115,-2.517 0.904,-3.402 1.837,-3.46C2.664,-3.512 3.459,-3.497 4.283,-3.436C4.644,-3.41 5.004,-3.391 5.364,-3.379C5.469,-3.375 6.349,-3.366 6.067,-3.364C7.589,-3.377 8.937,-2.497 8.935,-0.821C8.934,0.715 7.599,1.888 6.064,1.719C4.454,1.54 2.777,1.331 1.31,0.619C0.452,0.203 -0.127,-0.645 0,-1.624" style="fill:rgb(39,137,186);fill-rule:nonzero;"/>
                    </g>
                    <g transform="matrix(1,0,0,1,272.019,235.638)">
                        <path d="M0,-52.75C0.65,-58.757 9.332,-59.036 9.566,-52.75C10.043,-39.938 12.161,-29.695 24.06,-22.947C33.511,-17.586 43.085,-13.674 51.798,-7.051C55.047,-4.581 57.612,2.813 52.906,5.216C50.81,6.286 48.946,5.034 47.818,3.282C46.815,1.724 45.289,-0.163 44.67,-2.084C39.325,-3.18 34.121,-5.557 29.039,-7.32C22.868,-9.46 16.889,-12.303 11.669,-16.267C-0.512,-25.517 -1.547,-38.475 0,-52.75" style="fill:rgb(224,182,175);fill-rule:nonzero;"/>
                    </g>
                    <g transform="matrix(0,1,1,0,367.855,307.28)">
                        <path d="M5.837,-5.837C9.061,-5.837 11.674,-3.224 11.674,0C11.674,3.224 9.061,5.837 5.837,5.837C2.613,5.837 0,3.224 0,0C0,-3.224 2.613,-5.837 5.837,-5.837" style="fill:rgb(235,153,40);fill-rule:nonzero;"/>
                    </g>
                    <g transform="matrix(1,0,0,1,301.595,325.549)">
                        <path d="M0,-2.59C0.678,-1.77 1.767,-1.252 2.718,-0.804C5.255,0.391 8.07,0.858 10.585,2.108C11.419,2.523 12.242,3.052 12.72,3.851C13.196,4.651 13.225,5.781 12.568,6.442C11.965,7.049 11.013,7.097 10.157,7.075C4.905,6.94 -0.07,6.314 -5.205,5.31C-5.75,5.203 -6.313,5.089 -6.764,4.764C-7.71,4.08 -7.837,2.744 -7.878,1.576C-8.006,-2.045 -7.956,-5.725 -8.287,-9.332C-5.978,-9.687 -2.931,-8.834 -0.654,-8.257C-0.929,-6.647 -1.115,-3.941 0,-2.59" style="fill:rgb(235,153,40);fill-rule:nonzero;"/>
                    </g>
                    <g transform="matrix(-0.461093,-0.887352,-0.887352,0.461093,346.328,242.04)">
                        <rect x="-19.814" y="12.033" width="29.625" height="4.121" style="fill:rgb(199,86,86);"/>
                    </g>
                    <g transform="matrix(1,0,0,1,271.507,255.258)">
                        <path d="M0,7.225L-19.163,7.225C-20.983,7.225 -22.459,5.749 -22.459,3.929L-22.459,3.295C-22.459,1.475 -20.983,0 -19.163,0L0,0C1.819,0 3.295,1.475 3.295,3.295L3.295,3.929C3.295,5.749 1.819,7.225 0,7.225" style="fill:rgb(53,58,77);fill-rule:nonzero;"/>
                    </g>
                    <g transform="matrix(-0.733456,0.679736,0.679736,0.733456,316.683,316.498)">
                        <path d="M-53.88,-26.075L9.746,-26.075L11.58,-22.383L-54.695,-22.524L-53.88,-26.075Z" style="fill:rgb(199,86,86);fill-rule:nonzero;"/>
                    </g>
                    <g transform="matrix(0,-1,-1,0,291.81,301.303)">
                        <path d="M-5.978,-5.979C-9.279,-5.979 -11.957,-3.303 -11.957,-0.001C-11.957,3.3 -9.279,5.978 -5.978,5.978C-2.677,5.978 0.001,3.3 0.001,-0.001C0.001,-3.303 -2.677,-5.979 -5.978,-5.979" style="fill:rgb(53,58,77);fill-rule:nonzero;"/>
                    </g>
                    <g transform="matrix(1,0,0,1,312.437,286.538)">
                        <path d="M0,-29.148C-3.204,-32.44 -6.437,-35.704 -9.771,-38.864C-16.427,-45.17 -23.515,-51.089 -31.394,-55.817C-36.215,-58.71 -45.202,-64.528 -51.104,-63.14C-57.136,-61.721 -61.762,-54.297 -62.226,-47.743C-62.34,-46.127 -62.2,-44.564 -61.768,-43.157C-61.096,-40.976 -59.831,-39.021 -58.4,-37.242C-52.604,-30.035 -44.177,-25.538 -35.989,-21.235C-31.973,-19.125 -27.946,-17.014 -23.759,-15.259C-21.764,-14.423 -19.681,-13.726 -17.573,-13.09L-20.557,35.38L-9.996,35.38L4.919,-17.307C5.918,-21.805 2.921,-26.147 0,-29.148" style="fill:rgb(70,164,212);fill-rule:nonzero;"/>
                    </g>
                    <g>
                        <clipPath id="_clip6">
                            <path d="M261.334,223.398C255.302,224.816 250.676,232.24 250.212,238.795C250.097,240.41 250.237,241.974 250.67,243.381C251.342,245.562 252.607,247.517 254.037,249.295C259.833,256.503 268.26,261 276.448,265.303C280.465,267.413 284.491,269.523 288.679,271.279C290.674,272.115 292.757,272.811 294.864,273.447L291.881,321.918L302.441,321.918L317.356,269.23C318.355,264.733 315.358,260.39 312.438,257.39C309.234,254.098 306.001,250.833 302.666,247.674C296.011,241.367 288.922,235.449 281.044,230.72C276.724,228.128 269.057,223.188 263.265,223.187C262.593,223.187 261.947,223.253 261.334,223.398Z" clip-rule="nonzero"/>
                        </clipPath>
                        <g clip-path="url(#_clip6)">
                            <g opacity="0.63">
                                <g transform="matrix(1,0,0,1,259.062,265.097)">
                                    <path d="M0,-19.154C1.245,-17.011 2.914,-15.147 4.635,-13.363C10.843,-6.934 17.913,-1.34 25.598,3.221C28.205,4.769 30.967,6.27 32.773,8.706C32.937,8.927 33.099,9.18 33.068,9.453C33.039,9.717 32.836,9.925 32.632,10.094C30.311,12.015 26.855,11.43 23.999,10.469C16.224,7.852 9.249,3.253 2.937,-1.987C-1.875,-5.983 -6.49,-10.573 -8.729,-16.414C-9.943,-19.583 -11.72,-29.645 -6.768,-30.717C-4.679,-31.169 -3.402,-29.757 -2.916,-27.944C-2.094,-24.881 -1.626,-21.955 0,-19.154" style="fill:rgb(39,137,186);fill-rule:nonzero;"/>
                                </g>
                            </g>
                        </g>
                    </g>
                    <g transform="matrix(1,0,0,1,266.21,173.782)">
                        <path d="M0,62.422C-3.105,63.306 -6.212,64.189 -9.322,65.054C-12.042,65.811 -15.146,67.119 -17.93,67.258C-16.995,52.278 -15.669,37.173 -11.279,22.747C-9.232,16.017 -6.396,9.283 -1.342,4.391C8.19,-4.836 17.195,6.676 18.903,16.144C21.374,29.846 17.142,43.772 16.372,57.683C10.948,59.358 5.433,60.876 0,62.422" style="fill:rgb(235,153,40);fill-rule:nonzero;"/>
                    </g>
                    <g transform="matrix(1,0,0,1,256.249,168.694)">
                        <clipPath id="_clip7">
                            <path d="M8.619,9.479C3.565,14.371 0.729,21.104 -1.319,27.835C-5.708,42.26 -7.035,57.366 -7.969,72.346C-5.186,72.207 -2.081,70.899 0.639,70.142C3.749,69.276 6.855,68.393 9.961,67.51C15.393,65.964 20.91,64.446 26.333,62.77C27.103,48.86 31.335,34.934 28.865,21.232C27.6,14.22 22.333,6.086 15.813,6.087C13.53,6.087 11.092,7.085 8.619,9.479Z" clip-rule="nonzero"/>
                        </clipPath>
                        <g clip-path="url(#_clip7)">
                            <path d="M0,77.824C0.021,78.291 0.023,78.816 -0.302,79.152C-0.639,79.5 -1.187,79.502 -1.67,79.479C-4.281,79.361 -6.987,79.217 -9.306,78.009C-11.86,76.678 -13.65,74.167 -14.634,71.459C-15.617,68.752 -15.872,65.838 -15.984,62.96C-16.603,47.159 -13.113,31.215 -5.95,17.117C-3.726,12.739 -1.104,8.474 2.523,5.163C5.02,2.884 14.303,-1.678 12.285,5.499C10.703,11.132 7.551,16.495 5.845,22.178C2.363,33.769 0.601,45.828 0.003,57.899C-0.326,64.535 -0.301,71.187 0,77.824" style="fill:rgb(217,140,35);fill-rule:nonzero;"/>
                        </g>
                    </g>
                    <g transform="matrix(-0.482879,0.875687,0.875687,0.482879,329.671,235.154)">
                        <path d="M6.748,-9.884C3.756,-6.662 2.613,-2.775 2.2,1.543C1.927,4.387 6.805,4.432 6.748,1.429C6.685,-1.857 8.15,-4.795 10.067,-7.42C11.465,-9.334 8.319,-11.576 6.748,-9.884" style="fill:rgb(53,58,77);fill-rule:nonzero;"/>
                    </g>
                    <g transform="matrix(1,0,0,1,268.775,237.68)">
                        <path d="M0,-52.75C0.65,-58.757 9.333,-59.036 9.566,-52.75C10.043,-39.938 12.162,-29.695 24.06,-22.947C33.511,-17.586 43.086,-13.674 51.799,-7.051C55.047,-4.582 57.613,2.813 52.907,5.215C50.811,6.286 48.947,5.034 47.819,3.281C46.816,1.723 45.289,-0.164 44.67,-2.085C39.326,-3.181 34.122,-5.557 29.039,-7.32C22.869,-9.46 16.889,-12.304 11.67,-16.267C-0.511,-25.517 -1.547,-38.475 0,-52.75" style="fill:rgb(240,201,185);fill-rule:nonzero;"/>
                    </g>
                    <g transform="matrix(1,0,0,1,267.02,186.6)">
                        <path d="M0,10.556C5.382,4.09 13.948,8.668 16.504,15.264C16.017,11.125 15.31,7.012 14.37,2.952C13.475,-0.917 11.396,-6.947 6.979,-8.096C1.704,-9.468 -1.521,-4.308 -2.458,-0.007C-3.889,6.564 -3.941,13.42 -2.678,20.024C-3.028,16.67 -2.251,13.26 0,10.556" style="fill:rgb(235,153,40);fill-rule:nonzero;"/>
                    </g>
                    <g transform="matrix(1,0,0,1,270.769,160.971)">
                        <path d="M0,8.968C0.883,4.94 1.891,0.939 3.021,-3.027C4.352,-7.691 7.601,-15.171 13.928,-13.725C16.958,-13.033 19.162,-9.783 19.838,-6.924C20.416,-4.478 20.619,-1.956 20.622,0.557C20.625,2.747 20.416,5.099 19.023,6.789C18.084,7.929 16.724,8.617 15.5,9.445C11.777,11.965 9.972,18.218 9.315,22.451C9.26,22.812 9.192,23.195 8.946,23.463C8.325,24.139 7.216,23.6 6.488,23.041C3.435,20.697 -1.7,17.339 -0.828,12.936C-0.565,11.611 -0.289,10.288 0,8.968" style="fill:rgb(240,201,185);fill-rule:nonzero;"/>
                    </g>
                    <g transform="matrix(1,0,0,1,279.014,210.135)">
                        <path d="M0,-53.842C-1.619,-52.65 -2.792,-50.887 -3.233,-48.103C-3.923,-43.754 -3.305,-39.169 -4.811,-35.031C-5.333,-33.596 -6.476,-32.048 -7.989,-32.241C-8.638,-32.324 -9.198,-32.723 -9.822,-32.916C-14.788,-34.454 -18.987,-25.747 -20.52,-22.451C-23.15,-16.792 -25.127,-10.829 -26.397,-4.718C-27.103,-1.325 -27.602,2.152 -28.975,5.334C-30.148,8.055 -32.448,11.484 -35.551,12.174C-38.465,12.822 -41.879,13.033 -44.87,13.154C-57.679,13.669 -70.558,12.418 -83.027,9.446C-86.464,8.628 -89.914,7.66 -92.966,5.881C-96.018,4.102 -98.669,1.414 -99.755,-1.947C-100.911,-5.53 -100.153,-9.567 -98.211,-12.792C-96.269,-16.017 -93.238,-18.485 -89.912,-20.251C-87.622,-21.467 -84.945,-22.36 -83.27,-24.381C-81.66,-26.324 -80.911,-28.839 -79.666,-31.001C-77.428,-34.891 -73.577,-37.672 -69.399,-39.312C-64.636,-41.182 -59.468,-41.543 -54.469,-42.239C-50.498,-42.792 -46.327,-44.005 -44.521,-47.967C-44.053,-48.996 -43.785,-50.107 -43.315,-51.135C-42.186,-53.609 -39.925,-55.445 -37.416,-56.494C-31.587,-58.93 -24.218,-56.87 -18.798,-60.116C-16.832,-61.293 -15.574,-63.24 -13.799,-64.577C-11.955,-65.966 -9.345,-66.702 -7.087,-66.959C-2.227,-67.511 2.683,-65.789 7.542,-66.356C8.91,-66.516 10.277,-66.857 11.647,-66.714C13.018,-66.572 14.446,-65.795 14.828,-64.471C14.991,-63.905 14.947,-63.297 14.831,-62.717C13.385,-55.486 4.683,-57.289 0,-53.842" style="fill:rgb(199,86,86);fill-rule:nonzero;"/>
                    </g>
                    <g transform="matrix(1,0,0,1,275.762,165.097)">
                        <path d="M0,-4.654C0.734,-4.734 1.477,-4.405 1.987,-3.886C2.222,-3.648 2.37,-3.335 2.438,-3.009C2.502,-2.703 2.378,-2.387 2.425,-2.103C2.492,-1.69 2.445,-1.26 2.229,-0.891C1.775,-0.114 0.955,0.08 0.123,-0.034C-0.684,-0.144 -1.398,-0.873 -1.617,-1.644C-1.778,-2.211 -1.691,-3.153 -1.439,-3.682C-1.191,-4.201 -0.656,-4.555 -0.088,-4.643C-0.059,-4.647 -0.029,-4.651 0,-4.654" style="fill:rgb(240,201,185);fill-rule:nonzero;"/>
                    </g>
                    <g transform="matrix(1,0,0,1,285.879,164.505)">
                        <path d="M0,-1.065C0.34,0.007 1.525,0.739 2.637,0.562C3.747,0.385 4.646,-0.679 4.637,-1.804L0,-1.065Z" style="fill:white;fill-rule:nonzero;"/>
                    </g>
                    <g transform="matrix(1,0,0,1,267.815,185.322)">
                        <path d="M0,10.548C-0.075,7.856 0.496,5.206 1.434,2.747C1.993,1.276 2.675,-0.661 3.85,-2.069C3.585,-2.075 3.308,-2.058 3.016,-1.998C2.11,-1.81 1.375,-1.296 0.754,-0.723C-1.059,0.951 -2.094,3.198 -2.627,5.533C-3.151,7.832 -3.217,10.234 -3.273,12.623C-2.222,11.857 -1.137,11.149 0,10.548" style="fill:rgb(217,140,35);fill-rule:nonzero;"/>
                    </g>
                    <g transform="matrix(0,1,1,0,367.854,309.096)">
                        <path d="M4.021,-4.022C6.243,-4.022 8.043,-2.221 8.043,0C8.043,2.221 6.243,4.021 4.021,4.021C1.8,4.021 0,2.221 0,0C0,-2.221 1.8,-4.022 4.021,-4.022" style="fill:rgb(53,58,77);fill-rule:nonzero;"/>
                    </g>
                    <g transform="matrix(0,1,1,0,232.471,309.096)">
                        <path d="M4.021,-4.022C6.243,-4.022 8.043,-2.221 8.043,0C8.043,2.221 6.243,4.021 4.021,4.021C1.8,4.021 0,2.221 0,0C0,-2.221 1.8,-4.022 4.021,-4.022" style="fill:rgb(53,58,77);fill-rule:nonzero;"/>
                    </g>
                    <g transform="matrix(1,0,0,1,205.18,224.114)">
                        <clipPath id="_clip8">
                            <path d="M66.747,-80.938C64.489,-80.681 61.879,-79.945 60.035,-78.557C58.259,-77.219 57.002,-75.272 55.036,-74.095C49.616,-70.849 42.247,-72.909 36.418,-70.473C33.909,-69.424 31.648,-67.587 30.518,-65.114C30.049,-64.086 29.781,-62.975 29.312,-61.946C27.507,-57.983 23.335,-56.771 19.365,-56.218C14.366,-55.522 9.198,-55.161 4.435,-53.291C0.257,-51.651 -3.594,-48.87 -5.833,-44.98C-7.077,-42.817 -7.826,-40.304 -9.437,-38.36C-11.111,-36.339 -13.789,-35.446 -16.078,-34.23C-19.405,-32.464 -22.435,-29.996 -24.377,-26.771C-26.319,-23.546 -27.077,-19.509 -25.922,-15.926C-24.835,-12.565 -22.184,-9.877 -19.132,-8.098C-16.08,-6.319 -12.63,-5.351 -9.193,-4.533C3.276,-1.561 16.155,-0.31 28.964,-0.825C31.955,-0.946 35.368,-1.157 38.283,-1.804C41.386,-2.495 43.685,-5.924 44.859,-8.644C46.232,-11.828 46.731,-15.304 47.437,-18.697C48.706,-24.808 50.684,-30.771 53.314,-36.43C54.846,-39.726 59.046,-48.433 64.012,-46.895C64.635,-46.703 65.196,-46.303 65.844,-46.22C67.358,-46.027 68.501,-47.576 69.023,-49.01C70.529,-53.148 69.91,-57.732 70.601,-62.082C71.042,-64.866 72.214,-66.629 73.833,-67.821C78.516,-71.267 87.218,-69.465 88.665,-76.696C88.781,-77.276 88.825,-77.883 88.662,-78.45C88.28,-79.774 86.851,-80.551 85.481,-80.693C84.111,-80.835 82.743,-80.495 81.375,-80.335C78.937,-80.05 76.487,-80.342 74.037,-80.633C72.292,-80.84 70.548,-81.048 68.808,-81.048C68.12,-81.048 67.433,-81.016 66.747,-80.938Z" clip-rule="nonzero"/>
                        </clipPath>
                        <g clip-path="url(#_clip8)">
                            <path d="M0,-48.782C-0.255,-48.367 -0.491,-47.942 -0.71,-47.507C-2.146,-44.648 -2.794,-41.393 -4.613,-38.762C-6.899,-35.457 -10.686,-33.602 -14.108,-31.497C-17.532,-29.392 -20.969,-26.538 -21.663,-22.58C-22.801,-16.088 -17.719,-11.127 -12.14,-9.377C-0.117,-5.608 14.678,-5.054 27.297,-4.288C36.811,-3.711 43.63,-5.369 43.363,-4.858C41.249,-0.803 38.757,1.061 34.908,3.196C30.344,5.727 24.608,6.536 19.542,7.435C10.779,8.99 1.792,9.279 -7.049,8.259C-12.652,7.614 -18.275,6.421 -23.272,3.805C-28.27,1.189 -32.618,-2.982 -34.576,-8.271C-36.512,-13.496 -35.969,-19.41 -33.981,-24.615C-31.994,-29.82 -28.656,-34.402 -25.019,-38.621C-17.584,-47.245 -7.232,-57.77 4.801,-58.044C5.56,-58.061 6.437,-57.987 6.876,-57.367C7.677,-56.233 6.249,-54.891 5.098,-54.115C3.044,-52.728 1.295,-50.894 0,-48.782" style="fill:rgb(186,74,74);fill-rule:nonzero;"/>
                        </g>
                    </g>
                    <g transform="matrix(1,0,0,1,207.067,203.649)">
                        <path d="M0,-4.491C-0.384,-3.744 -0.61,-3.53 -1.456,-3.557C-2.104,-3.578 -2.708,-3.548 -3.316,-3.304C-4.475,-2.841 -5.272,-1.869 -5.608,-0.683C-5.993,0.676 -3.879,1.257 -3.494,-0.101C-3.048,-1.678 -1.701,-1.207 -0.469,-1.392C0.705,-1.568 1.376,-2.377 1.894,-3.385C2.537,-4.637 0.646,-5.748 0,-4.491" style="fill:rgb(186,74,74);fill-rule:nonzero;"/>
                    </g>
                    <g transform="matrix(1,0,0,1,227.443,205.313)">
                        <path d="M0,-9.98C-0.363,-6.887 -2.646,-6.273 -4.829,-4.699C-6.254,-3.67 -6.987,-2.172 -7.496,-0.53C-7.915,0.82 -5.8,1.398 -5.382,0.053C-4.917,-1.446 -4.247,-2.511 -2.887,-3.333C-1.979,-3.881 -1.041,-4.257 -0.239,-4.976C1.233,-6.296 1.965,-8.045 2.192,-9.98C2.356,-11.378 0.163,-11.367 0,-9.98" style="fill:rgb(186,74,74);fill-rule:nonzero;"/>
                    </g>
                    <g transform="matrix(1,0,0,1,229.097,193.849)">
                        <path d="M0,-9.191C-0.511,-7.918 -2.05,-7.847 -3.153,-7.357C-4.118,-6.929 -4.987,-6.358 -5.783,-5.666C-7.321,-4.331 -8.365,-2.577 -8.946,-0.638C-9.353,0.716 -7.237,1.295 -6.832,-0.055C-6.12,-2.432 -4.476,-4.409 -2.172,-5.395C-0.208,-6.235 1.246,-6.445 2.114,-8.608C2.64,-9.918 0.52,-10.486 0,-9.191" style="fill:rgb(186,74,74);fill-rule:nonzero;"/>
                    </g>
                    <g transform="matrix(1,0,0,1,239.929,187.912)">
                        <path d="M0,-8.335C-0.708,-7.18 -0.811,-5.924 -1.117,-4.635C-1.523,-2.932 -2.972,-2.313 -4.351,-1.445C-5.542,-0.695 -4.443,1.203 -3.244,0.448C-1.88,-0.411 -0.254,-1.177 0.517,-2.671C1.258,-4.11 1.044,-5.842 1.894,-7.228C2.632,-8.435 0.736,-9.538 0,-8.335" style="fill:rgb(186,74,74);fill-rule:nonzero;"/>
                    </g>
                    <g transform="matrix(1,0,0,1,239.964,200.083)">
                        <path d="M0,-7.896C-1.002,-7.118 -2.02,-6.282 -2.604,-5.128C-3.097,-4.156 -2.959,-2.279 -3.973,-1.72C-5.209,-1.039 -4.104,0.855 -2.866,0.173C-1.721,-0.458 -1.304,-1.557 -1.04,-2.776C-0.678,-4.452 0.229,-5.321 1.551,-6.346C2.664,-7.209 1.103,-8.751 0,-7.896" style="fill:rgb(186,74,74);fill-rule:nonzero;"/>
                    </g>
                    <g transform="matrix(-0.835439,-0.549583,-0.549583,0.835439,222.582,212.775)">
                        <path d="M-1.362,-5.066C-1.443,-3.215 -0.877,-1.449 0.287,-0.005C1.169,1.089 -0.472,2.545 -1.362,1.441C-2.884,-0.447 -3.658,-2.755 -3.552,-5.181C-3.491,-6.594 -1.301,-6.475 -1.362,-5.066" style="fill:rgb(186,74,74);fill-rule:nonzero;"/>
                    </g>
                    <g transform="matrix(1,0,0,1,209.403,214.252)">
                        <path d="M0,-5.119C-1.211,-3.883 -2.521,-3.707 -4.075,-3.154C-5.326,-2.707 -6.208,-1.758 -6.244,-0.401C-6.281,1.01 -4.088,1.009 -4.052,-0.401C-4.028,-1.276 -1.707,-1.489 -1.031,-1.777C-0.048,-2.197 0.803,-2.806 1.55,-3.569C2.538,-4.577 0.989,-6.129 0,-5.119" style="fill:rgb(186,74,74);fill-rule:nonzero;"/>
                    </g>
                    <g transform="matrix(1,0,0,1,241.511,174.793)">
                        <path d="M0,-8.227C-0.644,-6.78 -2.88,-6.261 -4.031,-5.217C-5.371,-4.001 -6.269,-2.401 -6.722,-0.661C-7.078,0.706 -4.964,1.288 -4.607,-0.078C-4.115,-1.968 -2.992,-3.53 -1.286,-4.511C-0.047,-5.223 1.274,-5.729 1.894,-7.12C2.462,-8.398 0.573,-9.515 0,-8.227" style="fill:rgb(186,74,74);fill-rule:nonzero;"/>
                    </g>
                    <g transform="matrix(1,0,0,1,257.315,172.561)">
                        <path d="M0,-10.825C-2.053,-9.736 -3.716,-8.15 -4.84,-6.109C-5.509,-4.894 -6.008,-3.811 -7.238,-3.058C-8.173,-2.485 -8.901,-2.383 -9.246,-1.268C-9.664,0.083 -7.548,0.661 -7.132,-0.685C-7.056,-0.933 -5.399,-1.637 -5.024,-1.972C-4.349,-2.573 -3.857,-3.292 -3.429,-4.083C-2.292,-6.178 -1.049,-7.788 1.106,-8.931C2.353,-9.593 1.246,-11.486 0,-10.825" style="fill:rgb(186,74,74);fill-rule:nonzero;"/>
                    </g>
                    <g transform="matrix(1,0,0,1,258.756,180.38)">
                        <path d="M0,-7.389C-0.738,-6.193 -2.048,-5.549 -3.108,-4.68C-4.262,-3.734 -5.005,-2.504 -5.649,-1.177C-6.263,0.088 -4.373,1.2 -3.756,-0.07C-3.041,-1.543 -2.253,-2.644 -0.916,-3.603C0.164,-4.377 1.185,-5.133 1.893,-6.282C2.636,-7.487 0.739,-8.589 0,-7.389" style="fill:rgb(186,74,74);fill-rule:nonzero;"/>
                    </g>
                    <g transform="matrix(1,0,0,1,267.853,165.026)">
                        <path d="M0,-10.46C-1.124,-9.408 -1.737,-8.1 -2.148,-6.633C-2.47,-5.484 -2.761,-1.915 -4.123,-1.533C-5.479,-1.152 -4.902,0.964 -3.54,0.582C0.152,-0.454 -0.866,-6.647 1.55,-8.91C2.582,-9.877 1.029,-11.424 0,-10.46" style="fill:rgb(186,74,74);fill-rule:nonzero;"/>
                    </g>
                    <g transform="matrix(1,0,0,1,279.311,156.517)">
                        <path d="M0,-6.583C-1.373,-6.036 -2.854,-5.515 -4.108,-4.723C-5.243,-4.006 -5.979,-2.912 -6.664,-1.788C-7.4,-0.58 -5.505,0.523 -4.771,-0.681C-4.2,-1.616 -3.652,-2.458 -2.681,-3.016C-1.656,-3.604 -0.512,-4.033 0.582,-4.469C1.877,-4.985 1.312,-7.106 0,-6.583" style="fill:rgb(186,74,74);fill-rule:nonzero;"/>
                    </g>
                    <g transform="matrix(-0.698642,-0.715471,-0.715471,0.698642,266.367,149.008)">
                        <path d="M-2.329,-5.673C-1.324,-3.932 -0.607,-2.054 -0.202,-0.084C0.08,1.293 -2.045,1.835 -2.329,0.447C-2.699,-1.355 -3.329,-3.02 -4.249,-4.613C-4.955,-5.834 -3.036,-6.898 -2.329,-5.673" style="fill:rgb(186,74,74);fill-rule:nonzero;"/>
                    </g>
                    <g transform="matrix(1,0,0,1,241.861,212.497)">
                        <path d="M0,-11.521C-1.244,-10.139 -2.505,-8.738 -3.506,-7.164C-4.719,-5.254 -5.067,-2.405 -7.412,-1.548C-8.727,-1.068 -8.159,1.052 -6.829,0.566C-4.847,-0.159 -3.779,-1.429 -2.961,-3.35C-1.872,-5.908 -0.301,-7.914 1.551,-9.971C2.492,-11.017 0.946,-12.573 0,-11.521" style="fill:rgb(186,74,74);fill-rule:nonzero;"/>
                    </g>
                    <g transform="matrix(1,0,0,1,218.322,191.243)">
                        <path d="M0,-10.383C-1.948,-9.886 -2.895,-8.361 -3.735,-6.653C-4.728,-4.641 -5.97,-3.169 -8.007,-2.165C-9.272,-1.541 -8.162,0.35 -6.9,-0.272C-5.433,-0.995 -4.153,-2.006 -3.158,-3.311C-1.99,-4.844 -1.48,-7.743 0.583,-8.269C1.949,-8.617 1.37,-10.733 0,-10.383" style="fill:rgb(186,74,74);fill-rule:nonzero;"/>
                    </g>
                    <g transform="matrix(-1,-0.000486618,-0.000486618,1,192.183,208.777)">
                        <path d="M-2.013,-9.711C0.194,-6.92 2.416,-3.11 -0.462,0.059C-1.414,1.106 -2.959,-0.449 -2.013,-1.491C-0.092,-3.607 -2.187,-6.42 -3.564,-8.162C-4.43,-9.257 -2.888,-10.818 -2.013,-9.711" style="fill:rgb(186,74,74);fill-rule:nonzero;"/>
                    </g>
                    <g transform="matrix(1,0,0,1,59.1094,201.716)">
                        <path d="M0,76.166C-4.176,69.723 -8.377,61.212 -4.002,54.902C-0.748,50.212 6.127,49.298 11.483,51.271C16.02,52.943 19.091,56.165 22.713,59.163C26.155,62.015 28.71,59.006 29.552,54.882C30.078,52.301 29.668,49.614 28.961,47.078C27.249,40.939 23.859,35.428 21.21,29.632C18.561,23.836 16.619,17.339 18.057,11.131C19.178,6.292 23.369,1.552 28.289,2.232C30.97,2.603 33.181,4.471 35.095,6.385C35.816,7.106 36.584,7.883 37.585,8.082C47.803,10.118 43.823,-31.616 43.471,-37.276C42.648,-50.519 42.823,-64.575 49.601,-75.981C53.294,-82.198 59.94,-87.647 67.085,-86.524C73.242,-85.557 77.794,-79.864 79.364,-73.833C80.935,-67.801 80.124,-61.437 79.304,-55.258C77.722,-43.339 76.139,-31.419 74.557,-19.499C74.11,-16.143 73.704,-12.542 75.257,-9.533C81.923,3.388 105.996,-25.276 107.933,-4.488C108.244,-1.137 107.247,2.192 106.078,5.348C103.295,12.869 99.49,19.969 96.489,27.406C93.806,34.06 90.152,43.72 91.946,51.025C93.377,56.851 100.321,58.24 105.463,57.942C110.63,57.644 116.564,56.896 120.285,60.494C123.866,63.957 123.209,69.336 121.672,73.593C119.791,78.802 116.079,81.427 112.043,85.103C102.603,93.699 93.404,102.562 84.463,111.676C82.24,113.94 79.922,116.438 79.454,119.577C78.173,128.18 87.095,124.105 91.421,125.651C95.291,127.034 98.503,131.187 97.348,135.13C96.765,137.121 95.228,138.669 93.705,140.077C85.657,147.519 76.188,154.017 66.047,158.257C52.755,163.813 51.284,155.304 44.311,144.544C29.54,121.752 14.771,98.958 0,76.166" style="fill:rgb(84,171,146);fill-rule:nonzero;"/>
                    </g>
                    <g transform="matrix(1,0,0,1,183.573,230.176)">
                        <path d="M0,43.905C1.429,37.551 0.76,30.742 -1.88,24.787C-5.587,16.424 -13.079,9.53 -14.045,0.433C-14.698,-5.71 -12.204,-11.686 -10.14,-17.508C-4.867,-32.375 -2.139,-48.14 -2.107,-63.915C-2.09,-73.18 -4.755,-84.642 -13.767,-86.797C-22.602,-88.91 -30.322,-79.973 -32.951,-71.278C-39.638,-49.163 -29.342,-23.479 -40.01,-2.987C-43.974,4.629 -50.595,10.851 -53.214,19.027C-57.314,31.83 -50.649,46.288 -54.982,59.012C-57.631,66.79 -64.154,73.035 -65.618,81.119C-66.573,86.396 -65.231,91.801 -63.659,96.927C-61.014,105.552 -56.523,124.143 -48.499,132.303C-45.282,132.404 -42.063,132.637 -38.82,132.724C-36.812,132.778 -34.808,132.793 -32.806,132.815C-30.248,132.658 -27.687,132.549 -25.125,132.469C-18.248,128.391 -12.182,122.094 -9.182,117.082C-1.995,105.076 -0.831,90.176 -3.452,76.431C-4.324,71.856 -5.597,67.273 -5.293,62.626C-4.868,56.136 -1.427,50.25 0,43.905" style="fill:rgb(51,140,143);fill-rule:nonzero;"/>
                    </g>
                    <g opacity="0.38">
                        <g transform="matrix(-0.999985,-0.00541435,-0.00541435,0.999985,115.928,361.884)">
                            <path d="M-1.706,-205.568C-1.721,-206.906 0.357,-206.894 0.372,-205.556C1.186,-137.032 0.492,-68.497 -1.706,-0.003C-1.75,1.331 -3.828,1.325 -3.785,-0.014C-1.586,-68.508 -0.891,-137.043 -1.706,-205.568" style="fill:white;fill-rule:nonzero;"/>
                        </g>
                    </g>
                    <g transform="matrix(1,0,0,1,116.741,293.409)">
                        <path d="M0,47.34C-2.286,46.519 -4.794,46.694 -7.216,46.882C-5.27,45.592 -3.263,44.24 -2.03,42.257C-0.798,40.274 -0.564,37.467 -2.126,35.731C-4.472,33.123 -8.731,34.475 -11.887,36.007C-8.885,29.262 -6.323,22.321 -4.225,15.242C-3.072,11.358 -2.272,6.574 -5.177,3.748C-7.878,1.119 -13.854,1.654 -16.105,4.674C-15.448,-0.554 -14.39,-5.747 -15.673,-10.986C-16.937,-16.148 -20.928,-21.032 -26.211,-21.612C-31.671,-22.212 -36.624,-18.163 -39.62,-13.558C-43.999,-6.832 -45.657,1.391 -45.561,9.417C-45.488,15.385 -44.497,21.296 -43.188,27.106C-42.647,29.509 -41.171,31.658 -43.685,32.614C-45.595,33.34 -49.74,31.71 -52.055,32.056C-55.292,32.54 -58.523,34.447 -59.641,37.524C-61.303,42.094 -57.879,46.832 -54.535,50.363C-48.509,56.73 -41.522,64.955 -33.234,68.957C-30.774,69.136 -28.315,69.324 -25.857,69.509C-21.654,69.496 -17.451,69.518 -13.247,69.552C-6.434,67.088 -0.403,62.245 3.065,55.992C3.635,54.967 4.154,53.868 4.201,52.696C4.299,50.27 2.286,48.161 0,47.34" style="fill:rgb(109,199,157);fill-rule:nonzero;"/>
                    </g>
                    <g transform="matrix(-0.996972,-0.0777595,-0.0777595,0.996972,139.929,362.106)">
                        <path d="M-6.808,-174.825C-6.117,-116.405 -5.426,-57.982 -4.737,0.439C-4.721,1.775 -6.792,1.594 -6.808,0.266C-7.498,-58.155 -8.189,-116.577 -8.878,-174.999C-8.894,-176.335 -6.823,-176.153 -6.808,-174.825" style="fill:rgb(40,122,125);fill-rule:nonzero;"/>
                    </g>
                    <g opacity="0.38">
                        <g transform="matrix(-0.999295,0.0375304,0.0375304,0.999295,94.808,362.935)">
                            <path d="M1.465,-78.043C1.5,-79.373 3.578,-79.461 3.543,-78.121C2.85,-52.071 2.157,-26.022 1.465,0.028C1.429,1.358 -0.648,1.446 -0.613,0.106C0.08,-25.944 0.772,-51.993 1.465,-78.043" style="fill:white;fill-rule:nonzero;"/>
                        </g>
                    </g>
                    <g opacity="0.38">
                        <g transform="matrix(0.397265,-0.917704,-0.917704,-0.397265,84.8494,305.086)">
                            <path d="M-2.895,-1.902C-2.271,-0.046 -1.647,1.809 -1.024,3.666C-0.611,4.891 -2.481,5.638 -2.895,4.407C-3.519,2.551 -4.142,0.696 -4.767,-1.16C-5.178,-2.386 -3.309,-3.132 -2.895,-1.902" style="fill:white;fill-rule:nonzero;"/>
                        </g>
                    </g>
                    <g opacity="0.38">
                        <g transform="matrix(-0.591072,0.806619,0.806619,0.591072,104.48,310.57)">
                            <path d="M-3.751,-3.905L2.188,-3.905C3.485,-3.903 3.263,-1.9 1.98,-1.901C0,-1.902 -1.979,-1.903 -3.958,-1.903C-5.255,-1.903 -5.034,-3.906 -3.751,-3.905" style="fill:white;fill-rule:nonzero;"/>
                        </g>
                    </g>
                    <g opacity="0.38">
                        <g transform="matrix(-0.907291,-0.420503,-0.420503,0.907291,100.943,340.9)">
                            <path d="M-1.206,-5.26C-0.376,-3.835 0.268,-2.331 0.683,-0.733C1.008,0.512 -0.879,1.216 -1.206,-0.04C-1.577,-1.466 -2.117,-2.835 -2.859,-4.11C-3.506,-5.221 -1.86,-6.383 -1.206,-5.26" style="fill:white;fill-rule:nonzero;"/>
                        </g>
                    </g>
                    <g transform="matrix(0.598874,-0.800844,-0.800844,-0.598874,137.75,322.124)">
                        <path d="M-2.955,-1.371C-2.815,1.06 -2.179,3.341 -1.04,5.495C-0.415,6.677 -2.332,7.482 -2.955,6.303C-4.166,4.013 -4.863,1.512 -5.012,-1.074C-5.088,-2.402 -3.031,-2.708 -2.955,-1.371" style="fill:rgb(40,122,125);fill-rule:nonzero;"/>
                    </g>
                    <g transform="matrix(0.66457,-0.747226,-0.747226,-0.66457,143.999,264.539)">
                        <path d="M-2.702,-1.213C-2.043,0.983 -1.385,3.18 -0.726,5.377C-0.342,6.656 -2.317,7.306 -2.702,6.021C-3.361,3.824 -4.02,1.627 -4.679,-0.571C-5.063,-1.849 -3.088,-2.5 -2.702,-1.213" style="fill:rgb(40,122,125);fill-rule:nonzero;"/>
                    </g>
                    <g transform="matrix(-0.926144,-0.377171,-0.377171,0.926144,165.975,266.025)">
                        <path d="M-1.147,-5.838C-0.734,-3.931 -0.086,-2.109 0.77,-0.358C1.358,0.847 -0.561,1.648 -1.147,0.449C-2.079,-1.461 -2.756,-3.465 -3.205,-5.542C-3.488,-6.853 -1.428,-7.139 -1.147,-5.838" style="fill:rgb(40,122,125);fill-rule:nonzero;"/>
                    </g>
                    <g transform="matrix(-0.870044,-0.492974,-0.492974,0.870044,158.946,326.06)">
                        <path d="M-2.185,-7.291C-1.76,-4.765 -1.092,-2.303 -0.182,0.093C0.293,1.344 -1.713,1.889 -2.185,0.647C-3.096,-1.749 -3.763,-4.21 -4.189,-6.737C-4.408,-8.045 -2.407,-8.611 -2.185,-7.291" style="fill:rgb(40,122,125);fill-rule:nonzero;"/>
                    </g>
                    <g transform="matrix(0.461442,-0.88717,-0.88717,-0.461442,150.156,232.777)">
                        <path d="M-2.025,-1.228C-1.438,-0.077 -0.852,1.076 -0.265,2.228C0.337,3.409 -1.415,4.531 -2.025,3.336C-2.611,2.184 -3.197,1.032 -3.784,-0.12C-4.385,-1.303 -2.633,-2.424 -2.025,-1.228" style="fill:rgb(40,122,125);fill-rule:nonzero;"/>
                    </g>
                    <g transform="matrix(-0.682249,0.73112,0.73112,0.682249,171.8,200.632)">
                        <path d="M-3.191,-3.464L1.434,-3.464C2.77,-3.465 2.847,-1.388 1.506,-1.387L-3.119,-1.387C-4.455,-1.386 -4.531,-3.464 -3.191,-3.464" style="fill:rgb(40,122,125);fill-rule:nonzero;"/>
                    </g>
                    <g transform="matrix(-0.98447,0.175552,0.175552,0.98447,164.456,177.738)">
                        <path d="M0.865,-9.772C1.547,-6.611 2.229,-3.45 2.911,-0.288C3.193,1.02 1.146,1.383 0.865,0.076C0.182,-3.085 -0.5,-6.246 -1.181,-9.408C-1.464,-10.716 0.583,-11.079 0.865,-9.772" style="fill:rgb(40,122,125);fill-rule:nonzero;"/>
                    </g>
                    <g transform="matrix(0.652202,-0.758045,-0.758045,-0.652202,141.551,296.396)">
                        <path d="M-3.295,-1.512C-2.64,1.16 -1.984,3.832 -1.328,6.504C-1.012,7.792 -2.975,8.483 -3.295,7.18C-3.95,4.509 -4.606,1.837 -5.261,-0.836C-5.576,-2.124 -3.616,-2.815 -3.295,-1.512" style="fill:rgb(40,122,125);fill-rule:nonzero;"/>
                    </g>
                    <g transform="matrix(-0.884512,-0.466517,-0.466517,0.884512,158.186,300.022)">
                        <path d="M-1.634,-6.603C-0.973,-4.472 -0.312,-2.341 0.35,-0.209C0.748,1.07 -1.238,1.685 -1.634,0.405L-3.621,-5.988C-4.017,-7.268 -2.031,-7.883 -1.634,-6.603" style="fill:rgb(40,122,125);fill-rule:nonzero;"/>
                    </g>
                    <g opacity="0.13">
                        <g transform="matrix(1,0,0,1,183.006,434.54)">
                            <path d="M0,-7.732C-3.09,-7.455 -7.146,-7.048 -9.468,-4.71C-12.389,-1.767 -6.611,-0.259 -4.562,-0.074C10.303,1.27 25.273,1.884 40.152,0.719C42.679,0.521 45.25,0.26 47.573,-0.752C53.441,-3.304 41.531,-8.02 39.521,-8.476C34.505,-9.616 29.286,-9.459 24.182,-9.244C16.168,-8.908 7.981,-8.448 0,-7.732" style="fill:rgb(53,58,77);fill-rule:nonzero;"/>
                        </g>
                    </g>
                    <g transform="matrix(1,0,0,1,187.477,366.024)">
                        <path d="M0,42.068C-3.881,40.501 -7.975,39.459 -12.133,38.981C-14.411,38.719 -17.164,38.846 -18.384,40.789C-19.697,42.88 -18.33,45.598 -16.806,47.542C-11.297,54.565 -3.621,59.457 4.062,64.059C10.069,64.066 16.079,64.011 22.088,63.941C32.047,56.387 33.805,37.364 34.163,25.807C34.247,23.126 34.187,20.346 33.064,17.91C31.941,15.473 29.499,13.459 26.821,13.63C24.823,13.756 23.084,15.033 21.666,16.447C19.273,18.836 17.43,21.772 16.319,24.964C18.3,9.77 14.032,-6.146 4.715,-18.311C3.698,-19.638 2.503,-21 0.871,-21.364C-1.985,-21.998 -4.506,-19.284 -5.613,-16.576C-7.713,-11.437 -7.224,-5.636 -6.364,-0.152C-5.343,6.377 -3.846,12.829 -1.889,19.14C-4.904,14.391 -10.709,11.57 -16.306,12.132C-17.427,12.245 -18.64,12.547 -19.305,13.456C-20.429,14.992 -19.346,17.121 -18.256,18.681C-12.591,26.794 -6.494,34.604 0,42.068" style="fill:rgb(84,171,146);fill-rule:nonzero;"/>
                    </g>
                    <g transform="matrix(1,0,0,1,236.871,396.483)">
                        <path d="M0,2.478C-0.903,1.512 -2.63,1.198 -4.133,1.416C-5.637,1.636 -6.97,2.293 -8.237,2.964C-7.039,1.047 -5.924,-0.902 -4.895,-2.879C-4.157,-4.295 -3.454,-5.764 -3.438,-7.294C-3.42,-8.839 -4.616,-10.66 -6.588,-10.628C-7.356,-10.616 -8.066,-10.316 -8.712,-9.99C-11.354,-8.651 -13.494,-6.712 -14.804,-4.471C-13.89,-8.036 -13.389,-11.636 -13.53,-15.251C-13.631,-17.803 -13.548,-20.832 -14.633,-23.268C-15.398,-24.988 -16.705,-26.601 -18.359,-27.834C-21.394,-30.097 -25.592,-31.083 -29.749,-29.107C-32.771,-27.67 -34.782,-25.221 -36.228,-22.695C-41.003,-14.343 -40.517,-4.657 -37.718,4.229C-39.244,2.596 -41.481,0.76 -43.953,1.349C-45.632,1.749 -46.568,3.139 -47.088,4.452C-49.611,10.826 -47.232,19.777 -43.293,25.569C-41.234,28.595 -38.374,31.24 -35.142,33.561C-28.657,33.504 -22.173,33.415 -15.688,33.363C-13.804,31.867 -12.132,30.119 -10.77,28.361C-7.912,24.67 -4.812,21.429 -2.796,17.34C-0.952,13.602 0.23,9.664 0.677,5.672C0.8,4.573 0.833,3.369 0,2.478" style="fill:rgb(51,140,143);fill-rule:nonzero;"/>
                    </g>
                    <g transform="matrix(-0.999952,0.00977786,0.00977786,0.999952,212.534,428.235)">
                        <path d="M-0.593,-44.295C0.154,-29.806 1.381,-15.168 1.392,-0.644C1.393,1.147 -0.641,1.111 -0.593,-0.625C-0.175,-15.527 -1.548,-29.778 -1.89,-44.282C-1.917,-45.443 -0.652,-45.441 -0.593,-44.295" style="fill:rgb(40,122,125);fill-rule:nonzero;"/>
                    </g>
                    <g opacity="0.13">
                        <g transform="matrix(1,0,0,1,23.9561,457.001)">
                            <path d="M0,9.409C18.24,11.226 36.742,10.379 54.739,6.901C56.027,6.653 57.526,6.211 57.944,4.97C59.276,1.016 50.622,1.621 48.815,1.457C30.632,-0.19 12.107,-1.817 -5.729,2.093C-17.219,4.613 -4.75,8.936 0,9.409" style="fill:rgb(53,58,77);fill-rule:nonzero;"/>
                        </g>
                    </g>
                    <g transform="matrix(1,0,0,1,7.5069,354.991)">
                        <path d="M0,86.169C5.143,90.67 10.284,95.172 15.427,99.674C19.18,102.96 21.65,105.561 25.231,106.919C25.595,107.057 26.02,107.132 26.407,107.243C30.071,107.188 33.736,107.146 37.4,107.11C49.726,95.952 59.173,76.148 64.35,62.2C66.725,55.799 68.613,48.88 67.204,42.2C66.964,41.06 66.573,39.857 65.635,39.167C64.785,38.543 63.657,38.469 62.604,38.511C59.448,38.637 55.518,39.636 52.759,41.239C51.923,41.726 51.224,42.426 50.546,43.147C50.866,42.338 51.185,41.548 51.506,40.785C53.755,35.455 57.774,28.964 56.345,23.072C55.758,20.65 53.052,19.939 51.032,20.911C47.528,22.598 44.375,26.384 42.025,30.438C43.603,22.885 45.615,15.404 46.333,7.727C47.131,-0.807 46.144,-9.85 41.447,-17.019C39.193,-20.46 35.603,-21.074 31.831,-20.045C23.337,-17.727 17.73,-9.582 14.547,-1.373C9.532,11.558 9.021,25.475 12.143,38.905C11.274,35.171 6.39,29.304 3.575,26.788C0.249,23.815 -5.255,21.061 -9.763,22.47C-13.941,23.774 -16.384,28.273 -16.919,32.618C-17.157,34.552 -17.105,36.521 -16.766,38.439C-15.564,45.221 -10.949,51.429 -7.701,57.379C-3.822,64.482 0.056,71.584 3.934,78.688C2.145,76.842 0.012,75.33 -2.321,74.252C-2.992,73.942 -3.718,73.663 -4.451,73.753C-6.928,74.056 -7.014,77.754 -5.758,79.91C-4.324,82.37 -2.143,84.292 0,86.169" style="fill:rgb(51,140,143);fill-rule:nonzero;"/>
                    </g>
                    <g transform="matrix(0.999282,-0.03789,-0.03789,-0.999282,41.6499,451.459)">
                        <path d="M-1.78,-0.046C-2.133,31.061 -2.468,61.872 -0.928,93.317C-0.877,94.347 -1.719,94.383 -1.78,93.356C-3.636,62.417 -4.717,30.422 -3.19,-0.489C-2.724,-0.303 -2.253,-0.157 -1.78,-0.046" style="fill:rgb(40,122,125);fill-rule:nonzero;"/>
                    </g>
                    <g transform="matrix(1,0,0,1,27.6973,433.875)">
                        <path d="M0,-8.072C4.555,-0.292 9.743,7.116 15.496,14.058L10.657,10.954C9.161,9.995 7.138,9.047 5.748,10.156C4.891,10.839 4.684,12.106 4.978,13.162C5.271,14.219 5.971,15.11 6.683,15.944C10.745,20.697 15.71,24.544 20.811,28.192C27.6,28.125 34.389,28.037 41.176,27.849C41.341,27.691 41.508,27.53 41.669,27.375C43.75,25.376 60.006,9.433 54.857,7.165C52.918,6.732 50.757,7.633 48.97,8.676C46.498,10.119 44.175,11.819 42.051,13.737C45.624,10.51 48.044,3.612 49.824,-0.757C51.807,-5.62 53.512,-10.709 53.523,-16.012C53.525,-16.836 53.479,-17.679 53.156,-18.436C52.623,-19.683 51.368,-20.535 50.036,-20.793C48.704,-21.05 47.312,-20.772 46.065,-20.238C43.842,-19.285 42.025,-17.548 40.613,-15.583C39.533,-14.079 38.751,-12.388 37.816,-10.822C37.943,-16.507 38.199,-22.025 37.424,-27.698C36.903,-31.513 34.874,-36.264 31.036,-35.933C28.989,-35.758 27.418,-34.082 26.202,-32.425C20.173,-24.202 17.734,-13.439 19.63,-3.422C18.716,-8.252 14.663,-13.155 12.271,-17.329C10.108,-21.099 7.658,-24.409 2.736,-24.27C1.791,-24.243 0.823,-24.063 0.025,-23.555C-0.95,-22.934 -1.576,-21.886 -2.007,-20.813C-2.197,-20.34 -2.355,-19.852 -2.481,-19.358C-2.987,-17.378 -2.977,-15.266 -2.437,-13.295C-1.928,-11.436 -0.974,-9.735 0,-8.072" style="fill:rgb(114,204,155);fill-rule:nonzero;"/>
                    </g>
                    <g transform="matrix(-0.999996,0.00297967,0.00297967,0.999996,57.5007,460.863)">
                        <path d="M-0.829,-40.094C-0.87,-41.085 0.766,-41.101 0.722,-40.098C0.131,-26.543 1.097,-12.554 -0.829,0.85C-0.85,1 -1.096,1.004 -1.105,0.852C-1.819,-11.666 -0.181,-24.56 -0.829,-40.094" style="fill:rgb(40,122,125);fill-rule:nonzero;"/>
                    </g>
                    <g opacity="0.13">
                        <g transform="matrix(1,0,0,1,371.919,463.986)">
                            <path d="M0,-1.182C-3.187,-3.083 -6.37,-1.886 -9.856,-1.807C-13.438,-1.725 -17.03,-2.009 -20.596,-1.55C-21.103,-1.485 -21.635,-1.393 -22.029,-1.069C-25.135,1.481 -10.838,1.839 -9.516,1.76C-7.933,1.667 1.84,1.901 1.105,-0.036C0.914,-0.542 0.465,-0.905 0,-1.182" style="fill:rgb(53,58,77);fill-rule:nonzero;"/>
                        </g>
                    </g>
                    <g transform="matrix(1,0,0,1,375.515,413.384)">
                        <path d="M0,39.089C0.209,38.698 0.414,38.306 0.615,37.911C2.951,33.347 4.825,28.557 6.396,23.68C7.125,21.414 7.594,18.013 4.881,16.819C3.217,16.088 0.958,17.353 -0.323,18.338C-2.351,19.813 -3.99,21.865 -5.392,23.92C-6.086,24.939 -8.04,27.278 -8.51,28.922C-7.862,20.477 -7.091,11.985 -7.244,3.512C-7.322,-0.807 -7.298,-9.604 -12.728,-10.982C-13.871,-11.272 -15.1,-10.999 -16.154,-10.47C-20.411,-8.334 -20.624,-3.573 -21.158,0.664C-21.789,5.669 -21.808,10.751 -21.201,15.759C-21.962,13.186 -23.261,10.773 -24.989,8.72C-25.999,7.521 -27.185,6.424 -28.625,5.807C-30.065,5.19 -31.797,5.11 -33.163,5.877C-37.293,8.197 -37.507,14.245 -36.673,18.243C-35.556,23.598 -32.576,28.392 -29.499,32.828C-26.74,36.805 -23.951,40.984 -20.738,44.61C-19.589,45.908 -18.19,46.27 -16.921,47.428C-15.924,48.339 -15.13,49.601 -13.992,50.361C-11.734,50.297 -9.476,50.255 -7.218,50.228C-6.553,50.219 -3.659,45.18 -3.234,44.536C-2.07,42.774 -0.995,40.952 0,39.089" style="fill:rgb(51,140,143);fill-rule:nonzero;"/>
                    </g>
                    <g transform="matrix(1,0,0,1,350.324,427.657)">
                        <path d="M0,29.862C1.333,31.123 4.659,34.22 7.698,36.188C10.075,36.121 12.452,36.049 14.83,35.996C17.39,33.701 19.59,30.97 21.457,28.112C22.425,26.631 23.104,24.862 22.857,23.108C22.406,19.914 18.945,18.562 16.421,20.541C15.729,21.082 15.187,21.788 14.651,22.485C14.441,22.039 14.446,21.526 14.451,21.033C14.508,15.162 14.381,8.882 13.34,3.091C12.792,0.046 11.234,-6.326 6.818,-4.68C5.556,-4.21 4.624,-3.118 3.935,-1.961C2.198,0.95 1.674,4.438 1.7,7.828C1.727,11.216 2.265,14.58 2.496,17.962C2.354,15.869 -1.633,12.466 -3.089,11.145C-4.605,9.769 -8.039,8.41 -9.442,10.833C-9.988,11.774 -9.778,12.957 -9.501,14.008C-7.911,20.049 -4.53,25.579 0,29.862" style="fill:rgb(109,199,157);fill-rule:nonzero;"/>
                    </g>
                    <g opacity="0.38">
                        <g transform="matrix(1,0,0,1,360.024,434.873)">
                            <path d="M0,28.375C0.437,28.398 0.873,28.424 1.309,28.45C1.103,24.039 0.628,19.63 0.242,15.254C-0.198,10.265 -0.389,5.104 -1.456,0.278C-1.534,-0.075 -1.908,0.008 -1.925,0.362C-2.201,6.098 -1.383,12.022 -0.925,17.735C-0.641,21.282 -0.407,24.849 0,28.375" style="fill:white;fill-rule:nonzero;"/>
                        </g>
                    </g>
                    <g opacity="0.38">
                        <g transform="matrix(1,0,0,1,353.327,451.678)">
                            <path d="M0,0.301C-0.964,-0.375 -1.927,-1.051 -2.89,-1.726C-3.332,-2.037 -4.001,-1.806 -4.258,-1.368C-4.55,-0.868 -4.343,-0.31 -3.899,0C-2.937,0.676 -1.973,1.352 -1.01,2.028C-0.567,2.338 0.102,2.108 0.358,1.669C0.65,1.169 0.443,0.612 0,0.301" style="fill:white;fill-rule:nonzero;"/>
                        </g>
                    </g>
                    <g opacity="0.38">
                        <g transform="matrix(1,0,0,1,369.589,456.283)">
                            <path d="M0,-3.598C-0.244,-4.028 -0.936,-4.279 -1.368,-3.957L-4.848,-1.368C-5.284,-1.042 -5.494,-0.505 -5.206,0.001C-4.962,0.43 -4.27,0.681 -3.838,0.36C-2.678,-0.503 -1.519,-1.367 -0.358,-2.23C0.078,-2.555 0.288,-3.092 0,-3.598" style="fill:white;fill-rule:nonzero;"/>
                        </g>
                    </g>
                </g>
            </g>
        </g>
    </g>
    <defs>
        <linearGradient id="_Linear2" x1="0" y1="0" x2="1" y2="0" gradientUnits="userSpaceOnUse" gradientTransform="matrix(1,0,0,-1,0,-0.138202)"><stop offset="0" style="stop-color:rgb(220,250,227);stop-opacity:1"/><stop offset="1" style="stop-color:rgb(133,199,154);stop-opacity:1"/><stop offset="1" style="stop-color:rgb(133,199,154);stop-opacity:1"/></linearGradient>
        <linearGradient id="_Linear3" x1="0" y1="0" x2="1" y2="0" gradientUnits="userSpaceOnUse" gradientTransform="matrix(1,0,0,-1,0,-0.00403335)"><stop offset="0" style="stop-color:rgb(220,250,227);stop-opacity:1"/><stop offset="1" style="stop-color:rgb(133,199,154);stop-opacity:1"/><stop offset="1" style="stop-color:rgb(133,199,154);stop-opacity:1"/></linearGradient>
        <linearGradient id="_Linear4" x1="0" y1="0" x2="1" y2="0" gradientUnits="userSpaceOnUse" gradientTransform="matrix(1,-2.77556e-17,-2.77556e-17,-1,0,0.0100592)"><stop offset="0" style="stop-color:rgb(220,250,227);stop-opacity:1"/><stop offset="1" style="stop-color:rgb(133,199,154);stop-opacity:1"/><stop offset="1" style="stop-color:rgb(133,199,154);stop-opacity:1"/></linearGradient>
        <linearGradient id="_Linear5" x1="0" y1="0" x2="1" y2="0" gradientUnits="userSpaceOnUse" gradientTransform="matrix(1,0,0,-1,0,0.00251425)"><stop offset="0" style="stop-color:rgb(220,250,227);stop-opacity:1"/><stop offset="1" style="stop-color:rgb(133,199,154);stop-opacity:1"/><stop offset="1" style="stop-color:rgb(133,199,154);stop-opacity:1"/></linearGradient>
    </defs>
</svg>
