<?xml version="1.0" encoding="UTF-8" standalone="no"?>
<!DOCTYPE svg PUBLIC "-//W3C//DTD SVG 1.1//EN" "http://www.w3.org/Graphics/SVG/1.1/DTD/svg11.dtd">
<svg width="100%" height="100%" viewBox="0 0 1220 1412" version="1.1" xmlns="http://www.w3.org/2000/svg" xmlns:xlink="http://www.w3.org/1999/xlink" xml:space="preserve" xmlns:serif="http://www.serif.com/" style="fill-rule:evenodd;clip-rule:evenodd;stroke-linecap:round;stroke-linejoin:round;stroke-miterlimit:10;">
    <g transform="matrix(1,0,0,1,-781,-245)">
        <g id="OBJECTS" transform="matrix(4.16667,0,0,4.16667,0,0)">
            <g>
                <clipPath id="_clip1">
                    <rect x="0" y="64.083" width="500" height="372" clip-rule="nonzero"/>
                </clipPath>
                <g clip-path="url(#_clip1)">
                    <g transform="matrix(1,0,0,1,239.276,223.675)">
                        <path d="M0,21.771C5.406,24.177 11.349,25.51 17.252,26.22C40.083,28.964 63.079,23.18 84.83,15.721C106.582,8.262 127.864,-0.955 150.414,-5.46C155.321,-6.44 160.388,-7.193 165.311,-6.292C166.257,-6.118 167.186,-5.885 168.096,-5.597" style="fill:none;fill-rule:nonzero;stroke:rgb(30,60,121);stroke-width:2px;stroke-dasharray:4,4;"/>
                    </g>
                    <g transform="matrix(1,0,0,1,455.676,305.853)">
                        <path d="M0,-246.795C-4.531,-252.418 -10.368,-256.682 -16.92,-259.662C-33.756,-266.64 -52.368,-265.744 -70.23,-265.225C-90.471,-264.636 -110.677,-263.222 -130.865,-261.686C-150.215,-260.213 -169.138,-259.17 -186.984,-250.837C-194.776,-247.198 -202.182,-242.821 -209.613,-238.51C-216.766,-234.361 -224.271,-230.715 -231.019,-225.911C-250.676,-211.916 -266.351,-188.013 -262.462,-162.983C-260.742,-151.916 -255.096,-142.452 -246.695,-135.14C-235.566,-125.452 -220.739,-118.78 -212.693,-105.948C-196.655,-80.367 -230.357,-49.343 -210.552,-24.625C-202.043,-14.007 -187.46,-10.842 -174.508,-10.47C-156.315,-9.949 -138.174,-13.537 -121.975,-2.996C-115.423,1.267 -109.622,6.58 -103.004,10.755C-95.863,15.259 -88.195,17.384 -79.83,18.203C-70.357,19.13 -60.789,19.445 -51.277,19.674C-46.372,19.791 -41.465,19.845 -36.559,19.831C-32.63,19.82 -30.845,19.84 -28.804,16.236C-25.233,9.93 -26.937,18.248 -30.201,12.202C-34.594,4.065 -23.451,-11.548 -34.951,-37.798C-43.022,-56.22 -66.451,-64.548 -50.618,-94.132C-44.125,-106.263 -27.618,-112.465 -33.385,-141.856C-35.171,-150.958 -40.634,-161.761 -36.502,-170.917C-32.946,-178.798 -23.598,-183.686 -17.008,-188.756C-10.7,-193.609 -4.563,-198.831 0.045,-205.385C9.094,-218.256 10.144,-234.209 0,-246.795" style="fill:rgb(255,191,0);fill-rule:nonzero;"/>
                    </g>
                    <g transform="matrix(1,0,0,1,457.017,276.196)">
                        <path d="M0,-2.056C0,-6.624 -4.157,-10.221 -8.894,-9.271C-11.669,-8.715 -13.924,-6.526 -14.545,-3.764C-15.144,-1.099 -14.297,1.39 -12.638,3.085C-11.354,4.397 -10.538,6.094 -10.538,7.93L-10.538,8.165L-4.199,8.165L-4.199,8.154C-4.199,6.287 -3.493,4.473 -2.169,3.156C-0.83,1.824 0,-0.017 0,-2.056" style="fill:rgb(255,191,0);fill-rule:nonzero;"/>
                    </g>
                    <g transform="matrix(1,0,0,1,453.098,288.962)">
                        <path d="M0,-6.085L-6.898,-6.085C-7.242,-6.085 -7.521,-5.806 -7.521,-5.462L-7.521,-1.479C-7.521,-1.135 -7.242,-0.856 -6.898,-0.856L-5.798,-0.856C-5.773,-0.38 -5.388,0 -4.906,0L-1.991,0C-1.51,0 -1.124,-0.38 -1.099,-0.856L0,-0.856C0.344,-0.856 0.623,-1.135 0.623,-1.479L0.623,-5.462C0.623,-5.806 0.344,-6.085 0,-6.085" style="fill:rgb(15,43,91);fill-rule:nonzero;"/>
                    </g>
                    <g transform="matrix(1,0,0,1,452.573,283.78)">
                        <path d="M0,0.875L-5.847,0.875C-6.089,0.875 -6.285,0.679 -6.285,0.438C-6.285,0.196 -6.089,0 -5.847,0L0,0C0.241,0 0.437,0.196 0.437,0.438C0.437,0.679 0.241,0.875 0,0.875" style="fill:rgb(33,66,133);fill-rule:nonzero;"/>
                    </g>
                    <g transform="matrix(1,0,0,1,452.573,285.054)">
                        <path d="M0,0.875L-5.847,0.875C-6.089,0.875 -6.285,0.679 -6.285,0.438C-6.285,0.196 -6.089,0 -5.847,0L0,0C0.241,0 0.437,0.196 0.437,0.438C0.437,0.679 0.241,0.875 0,0.875" style="fill:rgb(33,66,133);fill-rule:nonzero;"/>
                    </g>
                    <g transform="matrix(1,0,0,1,452.573,286.328)">
                        <path d="M0,0.875L-5.847,0.875C-6.089,0.875 -6.285,0.679 -6.285,0.438C-6.285,0.196 -6.089,0 -5.847,0L0,0C0.241,0 0.437,0.196 0.437,0.438C0.437,0.679 0.241,0.875 0,0.875" style="fill:rgb(33,66,133);fill-rule:nonzero;"/>
                    </g>
                    <g transform="matrix(-0.960987,-0.276594,-0.276594,0.960987,434.82,268.88)">
                        <path d="M-6.428,2.498L0.058,2.498L0.094,0.832L-6.32,1.555L-6.428,2.498Z" style="fill:rgb(255,191,0);fill-rule:nonzero;"/>
                    </g>
                    <g transform="matrix(0.934659,-0.355546,-0.355546,-0.934659,459.891,273.817)">
                        <path d="M-0.499,1.163L5.987,1.163L6.024,2.829L-0.39,2.106L-0.499,1.163Z" style="fill:rgb(255,191,0);fill-rule:nonzero;"/>
                    </g>
                    <g transform="matrix(-0.716753,-0.697327,-0.697327,0.716753,441.159,261.343)">
                        <path d="M-5.495,3.51L0.991,3.51L1.027,1.844L-5.386,2.567L-5.495,3.51Z" style="fill:rgb(255,191,0);fill-rule:nonzero;"/>
                    </g>
                    <g transform="matrix(0.573938,-0.818899,-0.818899,-0.573938,458.121,267.105)">
                        <path d="M-1.936,2.575L4.55,2.575L4.586,4.24L-1.828,3.518L-1.936,2.575Z" style="fill:rgb(255,191,0);fill-rule:nonzero;"/>
                    </g>
                    <g transform="matrix(-0.0763192,-0.997083,-0.997083,0.0763192,451.446,261.804)">
                        <path d="M-2.946,3.902L3.54,3.902L3.577,2.236L-2.838,2.959L-2.946,3.902Z" style="fill:rgb(255,191,0);fill-rule:nonzero;"/>
                    </g>
                    <g transform="matrix(1,0,0,1,424.564,344.928)">
                        <path d="M0,35.269C3.272,37.194 7.485,36.102 9.41,32.83L25.756,5.046L13.907,-1.925L-2.439,25.859C-4.364,29.131 -3.272,33.344 0,35.269" style="fill:rgb(15,43,91);fill-rule:nonzero;"/>
                    </g>
                    <g transform="matrix(1,0,0,1,422.565,358.982)">
                        <path d="M0,-4.78L10.032,5.123C11.446,6.519 13.725,6.504 15.121,5.09C16.517,3.675 16.502,1.397 15.088,0.001L5.056,-9.902C3.642,-11.299 1.363,-11.284 -0.033,-9.869C-1.429,-8.455 -1.414,-6.176 0,-4.78" style="fill:rgb(255,208,135);fill-rule:nonzero;"/>
                    </g>
                    <g opacity="0.4">
                        <g transform="matrix(0.711677,0.702507,0.702507,-0.711677,432.042,361.546)">
                            <path d="M2.03,-0.833C3.626,-0.833 4.919,0.461 4.92,2.057C4.92,3.652 3.626,4.946 2.03,4.946C0.434,4.946 -0.86,3.653 -0.86,2.057C-0.86,0.461 0.434,-0.833 2.03,-0.833" style="fill:white;fill-rule:nonzero;"/>
                        </g>
                    </g>
                    <g transform="matrix(1,0,0,1,425.776,352.974)">
                        <path d="M0,-5.354L10.614,5.123C12.028,6.519 14.306,6.504 15.703,5.09C17.099,3.676 17.084,1.397 15.67,0.001L5.056,-10.476C3.642,-11.873 1.363,-11.858 -0.033,-10.443C-1.429,-9.029 -1.414,-6.75 0,-5.354" style="fill:rgb(255,208,135);fill-rule:nonzero;"/>
                    </g>
                    <g transform="matrix(1,0,0,1,435.317,354.803)">
                        <path d="M0,1.395L2.754,4.114C3.13,4.484 3.734,4.48 4.105,4.105L6.823,1.351C7.194,0.976 7.19,0.371 6.815,0L4.06,-2.718C3.685,-3.089 3.081,-3.085 2.71,-2.71L-0.009,0.045C-0.379,0.42 -0.375,1.025 0,1.395" style="fill:rgb(255,223,176);fill-rule:nonzero;"/>
                    </g>
                    <g transform="matrix(1,0,0,1,417.996,373.066)">
                        <path d="M0,-5.684C0.301,-5.903 0.558,-6.165 0.774,-6.457L11.858,-0.944L23.763,-8.539L19.657,-14.083L13.158,-15.832C10.991,-16.415 9.689,-18.625 10.23,-20.803C10.729,-22.814 12.644,-24.142 14.703,-23.904L22.583,-22.993C23.82,-22.85 24.946,-22.208 25.701,-21.217L34.455,-9.708C35.675,-8.104 35.66,-5.879 34.418,-4.292L19.971,14.18L19.971,18.458L3.549,18.458L3.622,10.618L0,-5.684Z" style="fill:rgb(255,196,95);fill-rule:nonzero;"/>
                    </g>
                    <g transform="matrix(1,0,0,1,418.941,391.523)">
                        <path d="M0,-25.168L3.144,-24.579C5.235,-21.591 7.454,-18.649 9.957,-15.991C8.732,-14.323 7.739,-12.495 7.504,-10.728C6.928,-6.382 9.539,-4.617 9.539,-4.617L9.539,0L2.605,0L2.605,-7.84L-1.138,-23.144C-0.663,-23.443 -0.285,-24.709 0,-25.168" style="fill:rgb(254,186,90);fill-rule:nonzero;"/>
                    </g>
                    <g transform="matrix(1,0,0,1,419.257,366.213)">
                        <path d="M0,-5.471L10.459,4.854C11.539,5.92 13.279,5.908 14.345,4.829L15.541,3.617C16.607,2.537 16.595,0.797 15.516,-0.269L5.662,-9.995C4.248,-11.391 1.969,-11.377 0.573,-9.962L-0.025,-9.357C-1.091,-8.277 -1.08,-6.537 0,-5.471" style="fill:rgb(255,208,135);fill-rule:nonzero;"/>
                    </g>
                    <g opacity="0.4">
                        <g transform="matrix(0.711677,0.702507,0.702507,-0.711677,428.555,367.91)">
                            <path d="M2.03,-0.833C3.626,-0.833 4.92,0.461 4.92,2.056C4.92,3.652 3.626,4.946 2.03,4.946C0.434,4.946 -0.86,3.653 -0.86,2.057C-0.86,0.461 0.434,-0.833 2.03,-0.833" style="fill:white;fill-rule:nonzero;"/>
                        </g>
                    </g>
                    <g opacity="0.5">
                        <g transform="matrix(1,0,0,1,433.439,356.645)">
                            <path d="M0,-6.569L-0.96,-6.692C-2.543,-6.895 -3.991,-5.776 -4.194,-4.193L-4.317,-3.233C-4.52,-1.65 -3.401,-0.202 -1.818,0.001L-0.858,0.124C0.725,0.326 2.173,-0.792 2.376,-2.375L2.499,-3.335C2.702,-4.918 1.583,-6.366 0,-6.569" style="fill:white;fill-rule:nonzero;"/>
                        </g>
                    </g>
                    <g transform="matrix(1,0,0,1,437.541,382.363)">
                        <clipPath id="_clip2">
                            <path d="M-20.057,-15.288L-15.995,1.32L-15.995,9.16L-9.061,9.16L-9.061,4.543C-9.061,4.543 -11.673,2.778 -11.096,-1.568C-10.862,-3.335 -9.868,-5.164 -8.643,-6.831C-11.146,-9.49 -13.366,-12.431 -15.456,-15.419L-20.057,-15.288Z" clip-rule="nonzero"/>
                        </clipPath>
                        <g clip-path="url(#_clip2)">
                            <path d="M0,-10.666L-4.101,-3.695C-5.731,-0.925 -9.298,0 -12.067,-1.63L-13.886,-2.7C-16.656,-4.33 -17.58,-7.896 -15.95,-10.666L0,-10.666Z" style="fill:rgb(15,43,91);fill-rule:nonzero;"/>
                        </g>
                    </g>
                    <g transform="matrix(1,0,0,1,418.542,371.901)">
                        <path d="M0,-1.984L7.198,5.121C8.612,6.518 10.891,6.503 12.287,5.088C13.683,3.674 13.669,1.396 12.254,-0.001L5.056,-7.106C3.642,-8.502 1.363,-8.488 -0.033,-7.073C-1.429,-5.659 -1.414,-3.38 0,-1.984" style="fill:rgb(255,208,135);fill-rule:nonzero;"/>
                    </g>
                    <g opacity="0.4">
                        <g transform="matrix(0.711677,0.702507,0.702507,-0.711677,425.185,374.463)">
                            <path d="M2.03,-0.833C3.626,-0.833 4.921,0.461 4.92,2.056C4.92,3.652 3.626,4.946 2.03,4.946C0.435,4.947 -0.859,3.652 -0.86,2.057C-0.86,0.461 0.434,-0.833 2.03,-0.833" style="fill:white;fill-rule:nonzero;"/>
                        </g>
                    </g>
                    <g transform="matrix(-0.825981,-0.563698,-0.563698,0.825981,381.339,294.671)">
                        <path d="M-16.996,-20.938L-6.416,-20.938L-5.073,3.209L-19.106,3.839L-16.996,-20.938Z" style="fill:rgb(33,66,133);fill-rule:nonzero;"/>
                    </g>
                    <g transform="matrix(-0.730795,-0.682597,-0.682597,0.730795,436.54,324.347)">
                        <path d="M-29.62,-17.36L-5.614,-17.36L-9.804,14.848L-34.052,8.692L-29.62,-17.36Z" style="fill:rgb(33,66,133);fill-rule:nonzero;"/>
                    </g>
                    <g transform="matrix(-0.535084,-0.844799,-0.844799,0.535084,405.965,268.59)">
                        <path d="M-64.519,-14.209L-8.061,-14.209L-34.915,52.669L-76.695,15.902L-64.519,-14.209Z" style="fill:rgb(238,236,233);fill-rule:nonzero;"/>
                    </g>
                    <g transform="matrix(0.584571,-0.811342,-0.811342,-0.584571,416.236,330.009)">
                        <rect x="-18.059" y="27.655" width="72.069" height="7.615" style="fill:rgb(15,43,91);"/>
                    </g>
                    <g transform="matrix(0.810775,0.585358,0.585358,-0.810775,446.699,342.167)">
                        <rect x="7.732" y="-5.782" width="10.154" height="29.701" style="fill:rgb(15,43,91);"/>
                    </g>
                    <g transform="matrix(-0.610926,0.791687,0.791687,0.610926,350.248,272.216)">
                        <path d="M-16.674,28.393L-13.178,28.393L-10.72,-5.7L-20.343,-4.445L-16.674,28.393Z" style="fill:rgb(30,60,121);fill-rule:nonzero;"/>
                    </g>
                    <g transform="matrix(-0.260866,0.965375,0.965375,0.260866,347.595,304.977)">
                        <path d="M-17.514,22.14L-14.017,22.14L-11.559,-11.952L-21.18,-10.698L-17.514,22.14Z" style="fill:rgb(30,60,121);fill-rule:nonzero;"/>
                    </g>
                    <g transform="matrix(-0.877775,0.479073,0.479073,0.877775,372.532,245.358)">
                        <path d="M-12.768,34.453L-9.272,34.453L-6.816,0.36L-16.992,-0.689L-12.768,34.453Z" style="fill:rgb(30,60,121);fill-rule:nonzero;"/>
                    </g>
                    <g transform="matrix(-1,0,0,1,859.068,282.227)">
                        <rect x="419.148" y="106.29" width="20.772" height="5.193" style="fill:rgb(238,236,233);"/>
                    </g>
                    <g transform="matrix(-1,0,0,1,859.069,288.804)">
                        <rect x="417.986" y="102.334" width="23.097" height="6.528" style="fill:rgb(15,43,91);"/>
                    </g>
                    <g transform="matrix(0,-1,-1,0,435.809,130.046)">
                        <path d="M-12.206,-12.206C-18.947,-12.206 -24.412,-6.741 -24.412,0C-24.412,6.741 -18.947,12.206 -12.206,12.206C-5.465,12.206 0,6.741 0,0C0,-6.741 -5.465,-12.206 -12.206,-12.206" style="fill:rgb(30,60,121);fill-rule:nonzero;"/>
                    </g>
                    <g transform="matrix(0,-1,-1,0,431.468,135.309)">
                        <path d="M-2.538,-11.218C0.47,-8.901 -1.305,-4.341 -4.36,-4.341C-1.305,-4.341 0.47,0.219 -2.538,2.537C-5.648,4.933 -11.096,2.571 -14.226,-4.341C-11.096,-11.252 -5.648,-13.613 -2.538,-11.218" style="fill:white;fill-rule:nonzero;"/>
                    </g>
                    <g transform="matrix(0,-1,-1,0,326.039,235.784)">
                        <path d="M-15.782,-15.782C-24.498,-15.782 -31.564,-8.716 -31.564,0C-31.564,8.716 -24.498,15.782 -15.782,15.782C-7.066,15.782 0,8.716 0,0C0,-8.716 -7.066,-15.782 -15.782,-15.782" style="fill:rgb(30,60,121);fill-rule:nonzero;"/>
                    </g>
                    <g transform="matrix(-1,0,0,1,326.039,259.155)">
                        <path d="M0,-2.766C0.763,-2.766 1.383,-2.146 1.383,-1.383C1.383,-0.62 0.763,0 0,0C-0.763,0 -1.383,-0.62 -1.383,-1.383C-1.383,-2.146 -0.763,-2.766 0,-2.766" style="fill:white;fill-rule:nonzero;"/>
                    </g>
                    <g transform="matrix(1,0,0,1,326.039,255.934)">
                        <path d="M0,-3.017C-1.319,-3.017 -2.512,-2.484 -3.386,-1.625C-3.727,-1.29 -3.721,-0.734 -3.393,-0.386C-3.057,-0.029 -2.488,0 -2.14,-0.346C-1.589,-0.892 -0.836,-1.232 0,-1.232C0.836,-1.232 1.589,-0.892 2.14,-0.345C2.488,0 3.058,-0.029 3.394,-0.386C3.721,-0.734 3.727,-1.29 3.386,-1.625C2.512,-2.484 1.319,-3.017 0,-3.017" style="fill:white;fill-rule:nonzero;"/>
                    </g>
                    <g transform="matrix(1,0,0,1,326.039,249.518)">
                        <path d="M0,-5.541C-3.684,-5.541 -7.026,-4.081 -9.501,-1.718C-9.849,-1.386 -9.845,-0.827 -9.515,-0.477L-9.429,-0.385C-9.096,-0.031 -8.533,0 -8.182,-0.335C-6.05,-2.37 -3.172,-3.627 0,-3.627C3.173,-3.627 6.051,-2.37 8.182,-0.335C8.534,0 9.096,-0.031 9.429,-0.385L9.516,-0.477C9.845,-0.827 9.849,-1.386 9.502,-1.718C7.026,-4.081 3.684,-5.541 0,-5.541" style="fill:white;fill-rule:nonzero;"/>
                    </g>
                    <g transform="matrix(1,0,0,1,326.039,253.02)">
                        <path d="M0,-4.179C-2.356,-4.179 -4.497,-3.259 -6.094,-1.762C-6.484,-1.397 -6.51,-0.785 -6.144,-0.396C-5.781,-0.011 -5.181,0 -4.796,-0.363C-3.54,-1.541 -1.854,-2.265 0,-2.265C1.854,-2.265 3.541,-1.541 4.796,-0.363C5.182,0 5.782,-0.011 6.145,-0.396C6.511,-0.785 6.484,-1.397 6.095,-1.762C4.498,-3.259 2.356,-4.179 0,-4.179" style="fill:white;fill-rule:nonzero;"/>
                    </g>
                    <g transform="matrix(0,-1,-1,0,278.934,148.218)">
                        <path d="M-11.616,-11.616C-18.031,-11.616 -23.232,-6.415 -23.232,0C-23.232,6.416 -18.031,11.616 -11.616,11.616C-5.201,11.616 0,6.416 0,0C0,-6.415 -5.201,-11.616 -11.616,-11.616" style="fill:rgb(30,60,121);fill-rule:nonzero;"/>
                    </g>
                    <g transform="matrix(1,0,0,1,280.925,157.428)">
                        <path d="M0,4.811C0,4.275 -0.444,3.984 -1.103,3.754L-1.103,5.868C-0.337,5.7 0,5.301 0,4.811M-2.635,1.119L-2.635,-1.057C-3.447,-0.873 -3.769,-0.429 -3.769,0.077C-3.769,0.613 -3.309,0.904 -2.635,1.119M-1.103,7.89L-1.103,9.606L-2.635,9.606L-2.635,7.936C-4.151,7.844 -5.607,7.369 -6.45,6.71L-5.607,4.841C-4.841,5.408 -3.738,5.822 -2.635,5.929L-2.635,3.371C-4.335,2.957 -6.235,2.39 -6.235,0.2C-6.235,-1.425 -5.056,-2.819 -2.635,-3.095L-2.635,-4.795L-1.103,-4.795L-1.103,-3.125C0.046,-3.033 1.164,-2.727 2.007,-2.19L1.241,-0.306C0.46,-0.751 -0.337,-1.011 -1.103,-1.103L-1.103,1.501C0.597,1.9 2.467,2.467 2.467,4.627C2.467,6.22 1.302,7.599 -1.103,7.89" style="fill:white;fill-rule:nonzero;"/>
                    </g>
                    <g transform="matrix(1,0,0,1,466.898,333.054)">
                        <path d="M0,-2.549L-0.673,-2.549C-1.377,-2.549 -1.948,-3.12 -1.948,-3.824L-1.948,-4.497C-1.948,-5.201 -2.518,-5.771 -3.222,-5.771C-3.926,-5.771 -4.497,-5.201 -4.497,-4.497L-4.497,-3.824C-4.497,-3.12 -5.068,-2.549 -5.772,-2.549L-6.445,-2.549C-7.149,-2.549 -7.719,-1.978 -7.719,-1.274C-7.719,-0.57 -7.149,0 -6.445,0L-5.772,0C-5.068,0 -4.497,0.571 -4.497,1.275L-4.497,1.947C-4.497,2.651 -3.926,3.222 -3.222,3.222C-2.518,3.222 -1.948,2.651 -1.948,1.947L-1.948,1.275C-1.948,0.571 -1.377,0 -0.673,0L0,0C0.704,0 1.275,-0.57 1.275,-1.274C1.275,-1.978 0.704,-2.549 0,-2.549" style="fill:white;fill-rule:nonzero;"/>
                    </g>
                    <g transform="matrix(1,0,0,1,462.063,342.282)">
                        <path d="M0,-1.115L-0.294,-1.115C-0.603,-1.115 -0.852,-1.365 -0.852,-1.673L-0.852,-1.967C-0.852,-2.275 -1.102,-2.525 -1.41,-2.525C-1.718,-2.525 -1.967,-2.275 -1.967,-1.967L-1.967,-1.673C-1.967,-1.365 -2.217,-1.115 -2.525,-1.115L-2.82,-1.115C-3.128,-1.115 -3.377,-0.865 -3.377,-0.557C-3.377,-0.249 -3.128,0 -2.82,0L-2.525,0C-2.217,0 -1.967,0.25 -1.967,0.558L-1.967,0.852C-1.967,1.16 -1.718,1.41 -1.41,1.41C-1.102,1.41 -0.852,1.16 -0.852,0.852L-0.852,0.558C-0.852,0.25 -0.603,0 -0.294,0L0,0C0.308,0 0.558,-0.249 0.558,-0.557C0.558,-0.865 0.308,-1.115 0,-1.115" style="fill:white;fill-rule:nonzero;"/>
                    </g>
                    <g transform="matrix(1,0,0,1,239.659,160.339)">
                        <path d="M0,3.046C-2.758,3.194 -5.118,1.074 -5.266,-1.678C-5.414,-4.435 -3.294,-6.796 -0.537,-6.944C2.216,-7.092 4.581,-4.972 4.729,-2.215C4.877,0.537 2.752,2.898 0,3.046M6.472,-9.013C4.467,-11.046 1.883,-12.086 -0.805,-11.942C-3.497,-11.797 -5.955,-10.486 -7.731,-8.25C-11.336,-3.701 -10.957,3.358 -6.885,7.49L0.649,15.132L7.318,6.728C10.928,2.182 10.548,-4.876 6.472,-9.013" style="fill:rgb(255,218,127);fill-rule:nonzero;"/>
                    </g>
                    <g transform="matrix(1,0,0,1,407.372,369.721)">
                        <path d="M0,-151.643C6.188,-149.684 11.488,-145.2 15.336,-139.907C23.02,-129.338 25.472,-115.145 21.778,-102.61C14.769,-78.823 -35.646,-32 -19.979,0" style="fill:none;fill-rule:nonzero;stroke:rgb(30,60,121);stroke-width:2px;stroke-dasharray:4,4;"/>
                    </g>
                    <g transform="matrix(-0.867921,-0.496702,-0.496702,0.867921,204.916,235.938)">
                        <path d="M-4.074,-64.868C-6.898,-60.248 -5.869,-54.341 -4.705,-49.053C-2.906,-40.882 -1.04,-32.143 -4.074,-24.345C-7.375,-15.857 -16.126,-10.311 -25.135,-8.98C-28.263,-8.518 -31.414,-8.497 -34.544,-8.815" style="fill:none;fill-rule:nonzero;stroke:rgb(30,60,121);stroke-width:2px;stroke-dasharray:4,4;"/>
                    </g>
                    <g transform="matrix(0,-1,-1,0,317.862,302.529)">
                        <path d="M-8.399,-8.399C-13.038,-8.399 -16.798,-4.639 -16.798,0C-16.798,4.639 -13.038,8.399 -8.399,8.399C-3.76,8.399 0,4.639 0,0C0,-4.639 -3.76,-8.399 -8.399,-8.399" style="fill:rgb(30,60,121);fill-rule:nonzero;"/>
                    </g>
                    <g transform="matrix(1,0,0,1,322.302,309.643)">
                        <path d="M0,1.013C0.218,0.763 0.327,0.467 0.327,0.125C0.327,-0.185 0.214,-0.453 -0.012,-0.679C-0.238,-0.906 -0.506,-1.019 -0.816,-1.019L-2.467,-1.019C-2.451,-1.075 -2.435,-1.122 -2.419,-1.162C-2.403,-1.202 -2.381,-1.245 -2.353,-1.293C-2.326,-1.341 -2.306,-1.376 -2.294,-1.4C-2.222,-1.535 -2.168,-1.647 -2.13,-1.734C-2.092,-1.821 -2.055,-1.941 -2.017,-2.092C-1.979,-2.242 -1.96,-2.394 -1.96,-2.545C-1.96,-2.64 -1.961,-2.717 -1.963,-2.777C-1.965,-2.836 -1.975,-2.926 -1.993,-3.045C-2.011,-3.164 -2.035,-3.263 -2.064,-3.343C-2.095,-3.422 -2.142,-3.512 -2.208,-3.611C-2.273,-3.711 -2.353,-3.791 -2.446,-3.852C-2.539,-3.914 -2.658,-3.966 -2.804,-4.007C-2.949,-4.049 -3.112,-4.07 -3.295,-4.07C-3.399,-4.07 -3.488,-4.032 -3.563,-3.957C-3.643,-3.877 -3.711,-3.778 -3.766,-3.659C-3.822,-3.54 -3.86,-3.436 -3.882,-3.349C-3.904,-3.261 -3.929,-3.14 -3.957,-2.985C-3.993,-2.819 -4.019,-2.699 -4.037,-2.625C-4.055,-2.551 -4.09,-2.455 -4.142,-2.336C-4.193,-2.217 -4.255,-2.121 -4.327,-2.05C-4.458,-1.919 -4.658,-1.68 -4.928,-1.335C-5.123,-1.081 -5.324,-0.84 -5.53,-0.614C-5.737,-0.387 -5.887,-0.27 -5.983,-0.262C-6.082,-0.254 -6.167,-0.214 -6.239,-0.14C-6.311,-0.067 -6.346,0.02 -6.346,0.119L-6.346,3.939C-6.346,4.042 -6.309,4.13 -6.233,4.204C-6.158,4.277 -6.068,4.316 -5.965,4.32C-5.826,4.324 -5.512,4.411 -5.024,4.582C-4.718,4.686 -4.478,4.764 -4.305,4.818C-4.133,4.871 -3.892,4.929 -3.582,4.991C-3.272,5.052 -2.986,5.083 -2.724,5.083L-1.955,5.083C-1.426,5.075 -1.035,4.92 -0.781,4.618C-0.551,4.344 -0.454,3.985 -0.489,3.54C-0.334,3.393 -0.227,3.206 -0.168,2.98C-0.1,2.737 -0.1,2.505 -0.168,2.283C0.015,2.04 0.101,1.768 0.089,1.466C0.089,1.339 0.06,1.188 0,1.013" style="fill:white;fill-rule:nonzero;"/>
                    </g>
                    <g transform="matrix(1,0,0,1,314.507,310.26)">
                        <path d="M0,2.83C-0.075,2.904 -0.165,2.94 -0.268,2.94C-0.375,2.94 -0.466,2.904 -0.539,2.83C-0.612,2.757 -0.649,2.666 -0.649,2.559C-0.649,2.456 -0.612,2.367 -0.539,2.291C-0.466,2.216 -0.375,2.178 -0.268,2.178C-0.165,2.178 -0.075,2.216 0,2.291C0.076,2.367 0.114,2.456 0.114,2.559C0.114,2.666 0.076,2.757 0,2.83M0.685,-0.873L-1.031,-0.873C-1.134,-0.873 -1.224,-0.835 -1.299,-0.76C-1.374,-0.685 -1.412,-0.595 -1.412,-0.492L-1.412,3.322C-1.412,3.425 -1.374,3.514 -1.299,3.59C-1.223,3.665 -1.134,3.703 -1.031,3.703L0.685,3.703C0.789,3.703 0.878,3.665 0.954,3.59C1.029,3.514 1.067,3.425 1.067,3.322L1.067,-0.492C1.067,-0.595 1.029,-0.685 0.954,-0.76C0.878,-0.835 0.789,-0.873 0.685,-0.873" style="fill:white;fill-rule:nonzero;"/>
                    </g>
                    <g transform="matrix(1,0,0,1,269.091,179.444)">
                        <path d="M0,8.382C2.315,8.382 4.194,6.505 4.194,4.19C4.194,1.877 2.315,0 0,0C-2.313,0 -4.19,1.877 -4.19,4.19C-4.19,6.505 -2.313,8.382 0,8.382" style="fill:rgb(241,160,65);fill-rule:nonzero;"/>
                    </g>
                    <g transform="matrix(1,0,0,1,270.868,199.164)">
                        <path d="M0,-11.052L-3.556,-11.052C-6.515,-11.052 -8.921,-8.645 -8.921,-5.687L-8.921,-1.336L-8.912,-1.268L-8.611,-1.174C-5.788,-0.291 -3.334,0 -1.314,0C2.629,0 4.916,-1.121 5.057,-1.195L5.337,-1.336L5.367,-1.336L5.367,-5.687C5.367,-8.645 2.96,-11.052 0,-11.052" style="fill:rgb(241,160,65);fill-rule:nonzero;"/>
                    </g>
                    <g transform="matrix(1,0,0,1,293.352,179.444)">
                        <path d="M0,8.382C2.315,8.382 4.194,6.505 4.194,4.19C4.194,1.877 2.315,0 0,0C-2.313,0 -4.19,1.877 -4.19,4.19C-4.19,6.505 -2.313,8.382 0,8.382" style="fill:rgb(241,160,65);fill-rule:nonzero;"/>
                    </g>
                    <g transform="matrix(1,0,0,1,295.13,199.164)">
                        <path d="M0,-11.052L-3.556,-11.052C-6.515,-11.052 -8.921,-8.645 -8.921,-5.687L-8.921,-1.336L-8.912,-1.268L-8.611,-1.174C-5.788,-0.291 -3.334,0 -1.314,0C2.629,0 4.916,-1.121 5.057,-1.195L5.337,-1.336L5.367,-1.336L5.367,-5.687C5.367,-8.645 2.96,-11.052 0,-11.052" style="fill:rgb(241,160,65);fill-rule:nonzero;"/>
                    </g>
                    <g transform="matrix(1,0,0,1,320.525,179.444)">
                        <path d="M0,8.382C2.315,8.382 4.194,6.505 4.194,4.19C4.194,1.877 2.315,0 0,0C-2.313,0 -4.19,1.877 -4.19,4.19C-4.19,6.505 -2.313,8.382 0,8.382" style="fill:rgb(241,160,65);fill-rule:nonzero;"/>
                    </g>
                    <g transform="matrix(1,0,0,1,322.303,199.164)">
                        <path d="M0,-11.052L-3.556,-11.052C-6.515,-11.052 -8.921,-8.645 -8.921,-5.687L-8.921,-1.336L-8.912,-1.268L-8.611,-1.174C-5.788,-0.291 -3.334,0 -1.314,0C2.629,0 4.916,-1.121 5.057,-1.195L5.337,-1.336L5.367,-1.336L5.367,-5.687C5.367,-8.645 2.96,-11.052 0,-11.052" style="fill:rgb(241,160,65);fill-rule:nonzero;"/>
                    </g>
                    <g transform="matrix(1,0,0,1,282.03,199.5)">
                        <path d="M0,8.382C2.315,8.382 4.194,6.505 4.194,4.19C4.194,1.877 2.315,0 0,0C-2.313,0 -4.19,1.877 -4.19,4.19C-4.19,6.505 -2.313,8.382 0,8.382" style="fill:rgb(241,160,65);fill-rule:nonzero;"/>
                    </g>
                    <g transform="matrix(1,0,0,1,283.808,219.221)">
                        <path d="M0,-11.052L-3.556,-11.052C-6.515,-11.052 -8.921,-8.645 -8.921,-5.687L-8.921,-1.336L-8.912,-1.268L-8.611,-1.174C-5.788,-0.291 -3.334,0 -1.314,0C2.629,0 4.916,-1.121 5.057,-1.195L5.337,-1.336L5.367,-1.336L5.367,-5.687C5.367,-8.645 2.96,-11.052 0,-11.052" style="fill:rgb(241,160,65);fill-rule:nonzero;"/>
                    </g>
                    <g transform="matrix(1,0,0,1,307.586,199.5)">
                        <path d="M0,8.382C2.315,8.382 4.194,6.505 4.194,4.19C4.194,1.877 2.315,0 0,0C-2.313,0 -4.19,1.877 -4.19,4.19C-4.19,6.505 -2.313,8.382 0,8.382" style="fill:rgb(241,160,65);fill-rule:nonzero;"/>
                    </g>
                    <g transform="matrix(1,0,0,1,309.364,219.221)">
                        <path d="M0,-11.052L-3.556,-11.052C-6.515,-11.052 -8.921,-8.645 -8.921,-5.687L-8.921,-1.336L-8.912,-1.268L-8.611,-1.174C-5.788,-0.291 -3.334,0 -1.314,0C2.629,0 4.916,-1.121 5.057,-1.195L5.336,-1.336L5.367,-1.336L5.367,-5.687C5.367,-8.645 2.96,-11.052 0,-11.052" style="fill:rgb(241,160,65);fill-rule:nonzero;"/>
                    </g>
                    <g transform="matrix(1,0,0,1,312.089,176.706)">
                        <path d="M0,-39.584C-3.657,-39.584 -6.675,-36.624 -6.617,-32.91L-6.617,-12.943C-6.617,-9.228 -3.599,-6.268 0.058,-6.268L17.818,-6.268L22.636,0L27.454,-6.268L29.601,-6.268C33.316,-6.268 36.276,-9.287 36.276,-12.943L36.276,-32.91C36.276,-36.624 33.258,-39.584 29.601,-39.584L0,-39.584Z" style="fill:rgb(241,160,65);fill-rule:nonzero;"/>
                    </g>
                    <g transform="matrix(0,1,1,0,337.686,150.82)">
                        <path d="M3.947,-3.947C1.767,-3.947 0,-2.18 0,0C0,2.18 1.767,3.947 3.947,3.947C6.127,3.947 7.894,2.18 7.894,0C7.894,-2.18 6.127,-3.947 3.947,-3.947" style="fill:rgb(255,218,127);fill-rule:nonzero;"/>
                    </g>
                    <g transform="matrix(0,1,1,0,326.889,150.82)">
                        <path d="M3.947,-3.947C1.767,-3.947 0,-2.18 0,0C0,2.18 1.767,3.947 3.947,3.947C6.127,3.947 7.894,2.18 7.894,0C7.894,-2.18 6.127,-3.947 3.947,-3.947" style="fill:rgb(255,218,127);fill-rule:nonzero;"/>
                    </g>
                    <g transform="matrix(0,1,1,0,316.094,150.82)">
                        <path d="M3.947,-3.947C1.767,-3.947 0,-2.18 0,0C0,2.18 1.767,3.947 3.947,3.947C6.127,3.947 7.894,2.18 7.894,0C7.894,-2.18 6.127,-3.947 3.947,-3.947" style="fill:rgb(255,218,127);fill-rule:nonzero;"/>
                    </g>
                    <g transform="matrix(1,0,0,1,439.489,169.525)">
                        <path d="M0,-2.837L-0.749,-2.837C-1.533,-2.837 -2.169,-3.473 -2.169,-4.256L-2.169,-5.006C-2.169,-5.789 -2.804,-6.425 -3.588,-6.425C-4.372,-6.425 -5.007,-5.789 -5.007,-5.006L-5.007,-4.256C-5.007,-3.473 -5.642,-2.837 -6.426,-2.837L-7.176,-2.837C-7.959,-2.837 -8.595,-2.202 -8.595,-1.418C-8.595,-0.634 -7.959,0.001 -7.176,0.001L-6.426,0.001C-5.642,0.001 -5.007,0.637 -5.007,1.421L-5.007,2.169C-5.007,2.953 -4.372,3.588 -3.588,3.588C-2.804,3.588 -2.169,2.953 -2.169,2.169L-2.169,1.421C-2.169,0.637 -1.533,0.001 -0.749,0.001L0,0.001C0.784,0.001 1.419,-0.634 1.419,-1.418C1.419,-2.202 0.784,-2.837 0,-2.837" style="fill:rgb(255,218,127);fill-rule:nonzero;"/>
                    </g>
                    <g transform="matrix(1,0,0,1,443.713,178.399)">
                        <path d="M0,-1.9L-0.502,-1.9C-1.027,-1.9 -1.452,-2.326 -1.452,-2.85L-1.452,-3.352C-1.452,-3.877 -1.878,-4.302 -2.402,-4.302C-2.927,-4.302 -3.353,-3.877 -3.353,-3.352L-3.353,-2.85C-3.353,-2.326 -3.778,-1.9 -4.303,-1.9L-4.805,-1.9C-5.33,-1.9 -5.755,-1.475 -5.755,-0.95C-5.755,-0.425 -5.33,0.001 -4.805,0.001L-4.303,0.001C-3.778,0.001 -3.353,0.426 -3.353,0.951L-3.353,1.452C-3.353,1.977 -2.927,2.402 -2.402,2.402C-1.878,2.402 -1.452,1.977 -1.452,1.452L-1.452,0.951C-1.452,0.426 -1.027,0.001 -0.502,0.001L0,0.001C0.525,0.001 0.95,-0.425 0.95,-0.95C0.95,-1.475 0.525,-1.9 0,-1.9" style="fill:rgb(255,218,127);fill-rule:nonzero;"/>
                    </g>
                    <g transform="matrix(1,0,0,1,456.097,185.624)">
                        <path d="M0,5.873C-0.625,4.31 -1.572,2.9 -2.954,1.799C-10.324,-4.077 -19.618,-0.872 -19.618,-0.872C-19.618,-0.872 -18.763,-15.613 -33.611,-16.254C-37.801,-16.435 -40.861,-14.764 -43.075,-12.505C-45.048,-14.175 -47.595,-15.186 -50.382,-15.186C-56.636,-15.186 -61.705,-10.116 -61.705,-3.863C-61.705,-3.45 -61.68,-3.043 -61.637,-2.642C-65.732,-1.458 -69.341,1.662 -69.952,8.8C-70.571,16.039 -65.009,22.308 -57.743,22.308L-11.54,22.308C-3.038,22.308 3.159,13.767 0,5.873" style="fill:rgb(255,218,127);fill-rule:nonzero;"/>
                    </g>
                    <g transform="matrix(1,0,0,1,421.552,194.246)">
                        <path d="M0,-8.969L-4.08,-13.99L-8.161,-8.969L-6.296,-8.969L-6.296,5.021L-1.865,5.021L-1.865,-8.969L0,-8.969Z" style="fill:rgb(255,191,0);fill-rule:nonzero;"/>
                    </g>
                    <g transform="matrix(1,0,0,1,427.638,185.276)">
                        <path d="M0,8.969L0,-5.021L-4.431,-5.021L-4.431,8.969L-6.296,8.969L-2.215,13.99L1.865,8.969L0,8.969Z" style="fill:rgb(255,191,0);fill-rule:nonzero;"/>
                    </g>
                    <g transform="matrix(0,-1,-1,0,247.362,203.925)">
                        <path d="M-15.378,-15.378C-23.871,-15.378 -30.755,-8.493 -30.755,0C-30.755,8.493 -23.871,15.378 -15.378,15.378C-6.885,15.378 0,8.493 0,0C0,-8.493 -6.885,-15.378 -15.378,-15.378" style="fill:rgb(30,60,121);fill-rule:nonzero;"/>
                    </g>
                    <g transform="matrix(1,0,0,1,241.978,224.851)">
                        <path d="M0,-9.417L11.851,-9.417L10.098,-3.28L1.364,-3.28L0,-9.417ZM1.848,1.521C2.032,1.521 2.181,1.671 2.181,1.855C2.181,2.039 2.032,2.188 1.848,2.188C1.664,2.188 1.514,2.039 1.514,1.855C1.514,1.671 1.664,1.521 1.848,1.521M9.577,2.188C9.393,2.188 9.243,2.039 9.243,1.855C9.243,1.671 9.393,1.521 9.577,1.521C9.761,1.521 9.911,1.671 9.911,1.855C9.911,2.039 9.761,2.188 9.577,2.188M0.753,-1.76L0.753,-1.973L0.756,-1.76L10.671,-1.76C11.009,-1.76 11.309,-1.987 11.402,-2.312L13.59,-9.968C13.655,-10.196 13.608,-10.445 13.466,-10.634C13.323,-10.824 13.096,-10.937 12.859,-10.937L-0.338,-10.937L-0.691,-12.53C-0.77,-12.88 -1.075,-13.125 -1.434,-13.125L-4.715,-13.125C-5.134,-13.125 -5.475,-12.784 -5.475,-12.365C-5.475,-11.946 -5.134,-11.605 -4.715,-11.605L-2.044,-11.605L-0.142,-3.049C-0.73,-2.725 -1.1,-2.106 -1.1,-1.427C-1.1,-0.427 -0.304,0.385 0.687,0.421C0.268,0.761 -0.006,1.274 -0.006,1.855C-0.006,2.877 0.825,3.708 1.848,3.708C2.87,3.708 3.702,2.877 3.702,1.855C3.702,1.277 3.431,0.768 3.016,0.428L8.409,0.428C7.994,0.768 7.723,1.277 7.723,1.855C7.723,2.877 8.555,3.708 9.577,3.708C10.599,3.708 11.431,2.877 11.431,1.855C11.431,1.271 11.154,0.755 10.731,0.415C11.121,0.383 11.431,0.065 11.431,-0.333C11.431,-0.752 11.09,-1.093 10.671,-1.093L0.754,-1.093C0.57,-1.093 0.42,-1.243 0.42,-1.427C0.42,-1.61 0.57,-1.759 0.753,-1.76" style="fill:white;fill-rule:nonzero;"/>
                    </g>
                    <g transform="matrix(1,0,0,1,376.955,197.847)">
                        <path d="M0,31.083L-37.25,31.083C-38.911,31.083 -40.271,29.724 -40.271,28.062L-40.271,3.021C-40.271,1.359 -38.911,0 -37.25,0L0,0C1.661,0 3.021,1.359 3.021,3.021L3.021,28.062C3.021,29.724 1.661,31.083 0,31.083" style="fill:rgb(255,218,127);fill-rule:nonzero;"/>
                    </g>
                    <g transform="matrix(-1,0,0,1,716.146,-104.515)">
                        <clipPath id="_clip3">
                            <path d="M376.441,302.362C378.102,302.362 379.462,303.721 379.462,305.382L379.462,330.424C379.462,332.085 378.102,333.445 376.441,333.445L339.191,333.445C337.529,333.445 336.171,332.085 336.171,330.424L336.171,305.382C336.171,303.721 337.529,302.362 339.191,302.362L376.441,302.362Z" clip-rule="nonzero"/>
                        </clipPath>
                        <g clip-path="url(#_clip3)">
                            <rect x="331.742" y="290.695" width="52.662" height="23.125" style="fill:rgb(241,160,65);"/>
                        </g>
                    </g>
                    <g transform="matrix(1,0,0,1,341.83,194.055)">
                        <path d="M0,8.875C-0.587,8.875 -1.062,8.399 -1.062,7.813L-1.062,1.063C-1.062,0.476 -0.587,0 0,0C0.587,0 1.062,0.476 1.062,1.063L1.062,7.813C1.062,8.399 0.587,8.875 0,8.875" style="fill:rgb(255,218,127);fill-rule:nonzero;"/>
                    </g>
                    <g transform="matrix(1,0,0,1,347.33,194.055)">
                        <path d="M0,8.875C-0.587,8.875 -1.062,8.399 -1.062,7.813L-1.062,1.063C-1.062,0.476 -0.587,0 0,0C0.587,0 1.062,0.476 1.062,1.063L1.062,7.813C1.062,8.399 0.587,8.875 0,8.875" style="fill:rgb(255,218,127);fill-rule:nonzero;"/>
                    </g>
                    <g transform="matrix(1,0,0,1,352.83,194.055)">
                        <path d="M0,8.875C-0.587,8.875 -1.062,8.399 -1.062,7.813L-1.062,1.063C-1.062,0.476 -0.587,0 0,0C0.587,0 1.062,0.476 1.062,1.063L1.062,7.813C1.062,8.399 0.587,8.875 0,8.875" style="fill:rgb(255,218,127);fill-rule:nonzero;"/>
                    </g>
                    <g transform="matrix(1,0,0,1,358.33,194.055)">
                        <path d="M0,8.875C-0.587,8.875 -1.062,8.399 -1.062,7.813L-1.062,1.063C-1.062,0.476 -0.587,0 0,0C0.587,0 1.062,0.476 1.062,1.063L1.062,7.813C1.062,8.399 0.587,8.875 0,8.875" style="fill:rgb(255,218,127);fill-rule:nonzero;"/>
                    </g>
                    <g transform="matrix(1,0,0,1,363.83,194.055)">
                        <path d="M0,8.875C-0.587,8.875 -1.062,8.399 -1.062,7.813L-1.062,1.063C-1.062,0.476 -0.587,0 0,0C0.587,0 1.062,0.476 1.062,1.063L1.062,7.813C1.062,8.399 0.587,8.875 0,8.875" style="fill:rgb(255,218,127);fill-rule:nonzero;"/>
                    </g>
                    <g transform="matrix(1,0,0,1,369.33,194.055)">
                        <path d="M0,8.875C-0.587,8.875 -1.062,8.399 -1.062,7.813L-1.062,1.063C-1.062,0.476 -0.587,0 0,0C0.587,0 1.062,0.476 1.062,1.063L1.062,7.813C1.062,8.399 0.587,8.875 0,8.875" style="fill:rgb(255,218,127);fill-rule:nonzero;"/>
                    </g>
                    <g transform="matrix(1,0,0,1,374.83,194.055)">
                        <path d="M0,8.875C-0.587,8.875 -1.062,8.399 -1.062,7.813L-1.062,1.063C-1.062,0.476 -0.587,0 0,0C0.587,0 1.062,0.476 1.062,1.063L1.062,7.813C1.062,8.399 0.587,8.875 0,8.875" style="fill:rgb(255,218,127);fill-rule:nonzero;"/>
                    </g>
                    <g transform="matrix(1,0,0,1,386.567,143.586)">
                        <path d="M0,12.119C-4.983,12.119 -9.037,8.065 -9.037,3.082C-9.037,-1.901 -4.983,-5.954 0,-5.954C4.983,-5.954 9.037,-1.901 9.037,3.082C9.037,8.065 4.983,12.119 0,12.119M-12.975,21.133C-12.242,21.714 -11.178,21.592 -10.597,20.859L-5.067,13.887C-2.881,14.916 -0.348,15.326 2.325,14.802C7.265,13.834 11.136,9.772 11.829,4.785C12.908,-2.983 6.462,-9.595 -1.26,-8.8C-6.937,-8.216 -11.473,-3.545 -11.911,2.145C-12.214,6.075 -10.593,9.636 -7.904,12.018L-13.249,18.756C-13.829,19.488 -13.707,20.553 -12.975,21.133" style="fill:rgb(30,60,121);fill-rule:nonzero;"/>
                    </g>
                    <g transform="matrix(1,0,0,1,0,129.078)">
                        <rect x="251.035" y="171.003" width="9.131" height="28.916" style="fill:rgb(255,178,0);"/>
                    </g>
                    <g transform="matrix(1,0,0,1,0,101.683)">
                        <rect x="264.446" y="171.004" width="9.131" height="56.309" style="fill:rgb(255,218,127);"/>
                    </g>
                    <g transform="matrix(1,0,0,1,0,119.099)">
                        <rect x="277.858" y="171.004" width="9.131" height="38.893" style="fill:rgb(255,178,0);"/>
                    </g>
                    <g transform="matrix(1,0,0,1,0,93.314)">
                        <rect x="291.269" y="171.003" width="9.131" height="64.68" style="fill:rgb(255,218,127);"/>
                    </g>
                    <g transform="matrix(1,0,0,1,242.675,245.301)">
                        <path d="M0,39.793L28.662,13.914L35.063,21.705L56.49,0" style="fill:none;fill-rule:nonzero;stroke:rgb(30,60,121);stroke-width:1.3px;stroke-linecap:butt;stroke-linejoin:miter;"/>
                    </g>
                    <g transform="matrix(0,-1,-1,0,242.675,282.311)">
                        <path d="M-2.782,-2.782C-4.32,-2.782 -5.566,-1.536 -5.566,0.001C-5.566,1.537 -4.32,2.782 -2.782,2.782C-1.245,2.782 0.001,1.537 0.001,0.001C0.001,-1.536 -1.245,-2.782 -2.782,-2.782" style="fill:rgb(30,60,121);fill-rule:nonzero;"/>
                    </g>
                    <g transform="matrix(0,-1,-1,0,299.443,242.518)">
                        <path d="M-2.782,-2.782C-4.32,-2.782 -5.566,-1.536 -5.566,0.001C-5.566,1.537 -4.32,2.782 -2.782,2.782C-1.245,2.782 0.001,1.537 0.001,0.001C0.001,-1.536 -1.245,-2.782 -2.782,-2.782" style="fill:rgb(30,60,121);fill-rule:nonzero;"/>
                    </g>
                    <g transform="matrix(1,0,0,1,219.495,149.951)">
                        <path d="M0,-1.793L-0.473,-1.793C-0.969,-1.793 -1.37,-2.195 -1.37,-2.69L-1.37,-3.163C-1.37,-3.658 -1.772,-4.06 -2.267,-4.06C-2.762,-4.06 -3.163,-3.658 -3.163,-3.163L-3.163,-2.69C-3.163,-2.195 -3.565,-1.793 -4.06,-1.793L-4.533,-1.793C-5.029,-1.793 -5.43,-1.392 -5.43,-0.896C-5.43,-0.401 -5.029,0 -4.533,0L-4.06,0C-3.565,0 -3.163,0.402 -3.163,0.897L-3.163,1.37C-3.163,1.865 -2.762,2.267 -2.267,2.267C-1.772,2.267 -1.37,1.865 -1.37,1.37L-1.37,0.897C-1.37,0.402 -0.969,0 -0.473,0L0,0C0.495,0 0.897,-0.401 0.897,-0.896C0.897,-1.392 0.495,-1.793 0,-1.793" style="fill:white;fill-rule:nonzero;"/>
                    </g>
                    <g transform="matrix(1,0,0,1,371.664,180.138)">
                        <path d="M0,-2.549L-0.673,-2.549C-1.377,-2.549 -1.948,-3.12 -1.948,-3.824L-1.948,-4.497C-1.948,-5.201 -2.518,-5.771 -3.222,-5.771C-3.926,-5.771 -4.497,-5.201 -4.497,-4.497L-4.497,-3.824C-4.497,-3.12 -5.068,-2.549 -5.772,-2.549L-6.445,-2.549C-7.149,-2.549 -7.719,-1.978 -7.719,-1.274C-7.719,-0.57 -7.149,0 -6.445,0L-5.772,0C-5.068,0 -4.497,0.571 -4.497,1.275L-4.497,1.947C-4.497,2.651 -3.926,3.222 -3.222,3.222C-2.518,3.222 -1.948,2.651 -1.948,1.947L-1.948,1.275C-1.948,0.571 -1.377,0 -0.673,0L0,0C0.704,0 1.275,-0.57 1.275,-1.274C1.275,-1.978 0.704,-2.549 0,-2.549" style="fill:white;fill-rule:nonzero;"/>
                    </g>
                    <g transform="matrix(1,0,0,1,363.918,176.695)">
                        <path d="M0,-1.415L-0.374,-1.415C-0.765,-1.415 -1.081,-1.732 -1.081,-2.123L-1.081,-2.496C-1.081,-2.887 -1.398,-3.204 -1.789,-3.204C-2.18,-3.204 -2.497,-2.887 -2.497,-2.496L-2.497,-2.123C-2.497,-1.732 -2.814,-1.415 -3.205,-1.415L-3.578,-1.415C-3.969,-1.415 -4.286,-1.098 -4.286,-0.707C-4.286,-0.316 -3.969,0 -3.578,0L-3.205,0C-2.814,0 -2.497,0.317 -2.497,0.708L-2.497,1.082C-2.497,1.472 -2.18,1.789 -1.789,1.789C-1.398,1.789 -1.081,1.472 -1.081,1.082L-1.081,0.708C-1.081,0.317 -0.765,0 -0.374,0L0,0C0.391,0 0.708,-0.316 0.708,-0.707C0.708,-1.098 0.391,-1.415 0,-1.415" style="fill:white;fill-rule:nonzero;"/>
                    </g>
                    <g transform="matrix(1,0,0,1,273.173,242.524)">
                        <path d="M0,-2.549L-0.673,-2.549C-1.377,-2.549 -1.948,-3.12 -1.948,-3.824L-1.948,-4.497C-1.948,-5.201 -2.518,-5.771 -3.222,-5.771C-3.926,-5.771 -4.497,-5.201 -4.497,-4.497L-4.497,-3.824C-4.497,-3.12 -5.068,-2.549 -5.772,-2.549L-6.445,-2.549C-7.149,-2.549 -7.719,-1.978 -7.719,-1.274C-7.719,-0.57 -7.149,0 -6.445,0L-5.772,0C-5.068,0 -4.497,0.571 -4.497,1.275L-4.497,1.947C-4.497,2.651 -3.926,3.222 -3.222,3.222C-2.518,3.222 -1.948,2.651 -1.948,1.947L-1.948,1.275C-1.948,0.571 -1.377,0 -0.673,0L0,0C0.704,0 1.275,-0.57 1.275,-1.274C1.275,-1.978 0.704,-2.549 0,-2.549" style="fill:white;fill-rule:nonzero;"/>
                    </g>
                    <g transform="matrix(1,0,0,1,280.807,234.846)">
                        <path d="M0,-1.415L-0.374,-1.415C-0.765,-1.415 -1.081,-1.732 -1.081,-2.123L-1.081,-2.496C-1.081,-2.887 -1.398,-3.204 -1.789,-3.204C-2.18,-3.204 -2.497,-2.887 -2.497,-2.496L-2.497,-2.123C-2.497,-1.732 -2.814,-1.415 -3.205,-1.415L-3.578,-1.415C-3.969,-1.415 -4.286,-1.098 -4.286,-0.707C-4.286,-0.316 -3.969,0.001 -3.578,0.001L-3.205,0.001C-2.814,0.001 -2.497,0.317 -2.497,0.708L-2.497,1.082C-2.497,1.472 -2.18,1.789 -1.789,1.789C-1.398,1.789 -1.081,1.472 -1.081,1.082L-1.081,0.708C-1.081,0.317 -0.765,0.001 -0.374,0.001L0,0.001C0.391,0.001 0.708,-0.316 0.708,-0.707C0.708,-1.098 0.391,-1.415 0,-1.415" style="fill:white;fill-rule:nonzero;"/>
                    </g>
                    <g transform="matrix(1,0,0,1,412.14,266.346)">
                        <path d="M0,-1.415L-0.374,-1.415C-0.765,-1.415 -1.081,-1.732 -1.081,-2.123L-1.081,-2.496C-1.081,-2.887 -1.398,-3.204 -1.789,-3.204C-2.18,-3.204 -2.497,-2.887 -2.497,-2.496L-2.497,-2.123C-2.497,-1.732 -2.814,-1.415 -3.205,-1.415L-3.578,-1.415C-3.969,-1.415 -4.286,-1.098 -4.286,-0.707C-4.286,-0.316 -3.969,0.001 -3.578,0.001L-3.205,0.001C-2.814,0.001 -2.497,0.317 -2.497,0.708L-2.497,1.082C-2.497,1.472 -2.18,1.789 -1.789,1.789C-1.398,1.789 -1.081,1.472 -1.081,1.082L-1.081,0.708C-1.081,0.317 -0.765,0.001 -0.374,0.001L0,0.001C0.391,0.001 0.708,-0.316 0.708,-0.707C0.708,-1.098 0.391,-1.415 0,-1.415" style="fill:white;fill-rule:nonzero;"/>
                    </g>
                    <g transform="matrix(1,0,0,1,322.86,280.769)">
                        <path d="M0,-1.805L-0.477,-1.805C-0.975,-1.805 -1.379,-2.209 -1.379,-2.708L-1.379,-3.184C-1.379,-3.683 -1.783,-4.087 -2.282,-4.087C-2.78,-4.087 -3.184,-3.683 -3.184,-3.184L-3.184,-2.708C-3.184,-2.209 -3.589,-1.805 -4.087,-1.805L-4.564,-1.805C-5.062,-1.805 -5.466,-1.401 -5.466,-0.902C-5.466,-0.404 -5.062,0 -4.564,0L-4.087,0C-3.589,0 -3.184,0.404 -3.184,0.903L-3.184,1.379C-3.184,1.877 -2.78,2.282 -2.282,2.282C-1.783,2.282 -1.379,1.877 -1.379,1.379L-1.379,0.903C-1.379,0.404 -0.975,0 -0.477,0L0,0C0.499,0 0.903,-0.404 0.903,-0.902C0.903,-1.401 0.499,-1.805 0,-1.805" style="fill:white;fill-rule:nonzero;"/>
                    </g>
                    <g transform="matrix(0,-1,-1,0,364.206,114.705)">
                        <path d="M-7.115,-7.115C-11.045,-7.115 -14.231,-3.929 -14.231,0.001C-14.231,3.93 -11.045,7.115 -7.115,7.115C-3.185,7.115 0.001,3.93 0.001,0.001C0.001,-3.929 -3.185,-7.115 -7.115,-7.115" style="fill:rgb(30,60,121);fill-rule:nonzero;"/>
                    </g>
                    <g transform="matrix(1,0,0,1,364.801,121.055)">
                        <path d="M0,1.531L0.198,-0.001L-1.191,-0.001L-1.39,1.531L0,1.531ZM1.069,1.531L2.297,1.531L2.297,2.562L0.946,2.562L0.756,4.075L-0.312,4.075L-0.123,2.562L-1.513,2.562L-1.702,4.075L-2.761,4.075L-2.572,2.562L-3.81,2.562L-3.81,1.531L-2.449,1.531L-2.25,-0.001L-3.489,-0.001L-3.489,-1.031L-2.127,-1.031L-1.938,-2.544L-0.879,-2.544L-1.068,-1.031L0.322,-1.031L0.511,-2.544L1.57,-2.544L1.38,-1.031L2.61,-1.031L2.619,-0.001L1.257,-0.001L1.069,1.531Z" style="fill:white;fill-rule:nonzero;"/>
                    </g>
                </g>
            </g>
        </g>
    </g>
</svg>
