<?xml version="1.0" encoding="UTF-8"?>
<svg width="552px" height="720px" viewBox="0 0 552 720" version="1.1" xmlns="http://www.w3.org/2000/svg" xmlns:xlink="http://www.w3.org/1999/xlink">
    <!-- Generator: Sketch 54.1 (76490) - https://sketchapp.com -->
    <title>left</title>
    <desc>Created with Sketch.</desc>
    <defs>
        <polygon id="path-1" points="0 0 248.005 0 248.005 488.421 0 488.421"></polygon>
    </defs>
    <g id="Page-1" stroke="none" stroke-width="1" fill="none" fill-rule="evenodd">
        <g id="320">
            <polyline id="Fill-10" fill="#000000" points="63.706 111.203 61.362 108.86 98.222 72 100.566 74.343 63.706 111.203"></polyline>
            <polyline id="Fill-11" fill="#000000" points="100.566 111.203 98.222 108.86 135.083 72 137.426 74.343 100.566 111.203"></polyline>
            <polyline id="Fill-12" fill="#000000" points="137.426 111.203 135.083 108.86 171.942 72 174.286 74.343 137.426 111.203"></polyline>
            <polyline id="Fill-13" fill="#000000" points="174.286 111.203 171.942 108.86 208.802 72 211.146 74.343 174.286 111.203"></polyline>
            <g id="Group-17" transform="translate(0.000000, 72.000000)">
                <mask id="mask-2" fill="white">
                    <use xlink:href="#path-1"></use>
                </mask>
                <g id="Clip-15"></g>
                <polyline id="Fill-14" fill="#000000" mask="url(#mask-2)" points="211.146 39.203 208.802 36.86 245.662 0 248.005 2.343 211.146 39.203"></polyline>
                <polyline id="Fill-16" fill="#84D1DC" mask="url(#mask-2)" points="-38 488.421 -38 351 99.421 351 -38 488.421"></polyline>
            </g>
            <path d="M435.432,563.892 C435.432,580.141 422.259,593.314 406.009,593.314 C389.76,593.314 376.587,580.141 376.587,563.892 C376.587,547.642 389.76,534.469 406.009,534.469 C422.259,534.469 435.432,547.642 435.432,563.892" id="Fill-18" fill="#7264CC"></path>
            <path d="M425.243,523.834 C409.755,523.834 397.154,536.435 397.154,551.923 C397.154,567.41 409.755,580.011 425.243,580.011 C440.731,580.011 453.332,567.41 453.332,551.923 C453.332,536.435 440.731,523.834 425.243,523.834 Z M425.243,582.679 C408.284,582.679 394.487,568.882 394.487,551.923 C394.487,534.963 408.284,521.166 425.243,521.166 C442.203,521.166 456,534.963 456,551.923 C456,568.882 442.203,582.679 425.243,582.679 L425.243,582.679 Z" id="Fill-19" fill="#000000"></path>
            <path d="M70.961,620.368 C70.961,618.89 72.151,617.7 73.63,617.7 C75.102,617.7 76.299,618.89 76.299,620.368 C76.299,621.84 75.102,623.037 73.63,623.037 C72.151,623.037 70.961,621.84 70.961,620.368 Z M98.411,620.368 C98.411,618.89 99.6,617.7 101.079,617.7 C102.551,617.7 103.748,618.89 103.748,620.368 C103.748,621.84 102.551,623.037 101.079,623.037 C99.6,623.037 98.411,621.84 98.411,620.368 Z M125.859,620.368 C125.859,618.89 127.048,617.7 128.528,617.7 C130,617.7 131.197,618.89 131.197,620.368 C131.197,621.84 130,623.037 128.528,623.037 C127.048,623.037 125.859,621.84 125.859,620.368 Z M153.3,620.368 C153.3,618.89 154.498,617.7 155.977,617.7 C157.448,617.7 158.646,618.89 158.646,620.368 C158.646,621.84 157.448,623.037 155.977,623.037 C154.498,623.037 153.3,621.84 153.3,620.368 Z M180.757,620.368 C180.757,618.89 181.946,617.7 183.426,617.7 C184.897,617.7 186.094,618.89 186.094,620.368 C186.094,621.84 184.897,623.037 183.426,623.037 C181.946,623.037 180.757,621.84 180.757,620.368 Z M208.206,620.368 C208.206,618.89 209.395,617.7 210.875,617.7 C212.346,617.7 213.543,618.89 213.543,620.368 C213.543,621.84 212.346,623.037 210.875,623.037 C209.395,623.037 208.206,621.84 208.206,620.368 Z M235.655,620.368 C235.655,618.89 236.844,617.7 238.323,617.7 C239.794,617.7 240.984,618.89 240.984,620.368 C240.984,621.84 239.794,623.037 238.323,623.037 C236.844,623.037 235.655,621.84 235.655,620.368 Z M263.104,620.368 C263.104,618.89 264.292,617.7 265.772,617.7 C267.244,617.7 268.441,618.89 268.441,620.368 C268.441,621.84 267.244,623.037 265.772,623.037 C264.292,623.037 263.104,621.84 263.104,620.368 Z M290.552,620.368 C290.552,618.89 291.742,617.7 293.221,617.7 C294.692,617.7 295.89,618.89 295.89,620.368 C295.89,621.84 294.692,623.037 293.221,623.037 C291.742,623.037 290.552,621.84 290.552,620.368 Z M318.001,620.368 C318.001,618.89 319.19,617.7 320.67,617.7 C322.141,617.7 323.338,618.89 323.338,620.368 C323.338,621.84 322.141,623.037 320.67,623.037 C319.19,623.037 318.001,621.84 318.001,620.368 Z M345.45,620.368 C345.45,618.89 346.639,617.7 348.11,617.7 C349.59,617.7 350.787,618.89 350.787,620.368 C350.787,621.84 349.59,623.037 348.11,623.037 C346.639,623.037 345.45,621.84 345.45,620.368 L345.45,620.368 Z" id="Fill-22" fill="#1E3F7D"></path>
            <path d="M70.961,652.087 C70.961,650.615 72.151,649.419 73.63,649.419 C75.102,649.419 76.299,650.615 76.299,652.087 C76.299,653.559 75.102,654.756 73.63,654.756 C72.151,654.756 70.961,653.559 70.961,652.087 Z M98.411,652.087 C98.411,650.615 99.6,649.419 101.079,649.419 C102.551,649.419 103.748,650.615 103.748,652.087 C103.748,653.559 102.551,654.756 101.079,654.756 C99.6,654.756 98.411,653.559 98.411,652.087 Z M125.859,652.087 C125.859,650.615 127.048,649.419 128.528,649.419 C130,649.419 131.197,650.615 131.197,652.087 C131.197,653.559 130,654.756 128.528,654.756 C127.048,654.756 125.859,653.559 125.859,652.087 Z M153.3,652.087 C153.3,650.615 154.498,649.419 155.977,649.419 C157.448,649.419 158.646,650.615 158.646,652.087 C158.646,653.559 157.448,654.756 155.977,654.756 C154.498,654.756 153.3,653.559 153.3,652.087 Z M180.757,652.087 C180.757,650.615 181.946,649.419 183.426,649.419 C184.897,649.419 186.094,650.615 186.094,652.087 C186.094,653.559 184.897,654.756 183.426,654.756 C181.946,654.756 180.757,653.559 180.757,652.087 Z M208.206,652.087 C208.206,650.615 209.395,649.419 210.875,649.419 C212.346,649.419 213.543,650.615 213.543,652.087 C213.543,653.559 212.346,654.756 210.875,654.756 C209.395,654.756 208.206,653.559 208.206,652.087 Z M235.655,652.087 C235.655,650.615 236.844,649.419 238.323,649.419 C239.794,649.419 240.984,650.615 240.984,652.087 C240.984,653.559 239.794,654.756 238.323,654.756 C236.844,654.756 235.655,653.559 235.655,652.087 Z M263.104,652.087 C263.104,650.615 264.292,649.419 265.772,649.419 C267.244,649.419 268.441,650.615 268.441,652.087 C268.441,653.559 267.244,654.756 265.772,654.756 C264.292,654.756 263.104,653.559 263.104,652.087 Z M290.552,652.087 C290.552,650.615 291.742,649.419 293.221,649.419 C294.692,649.419 295.89,650.615 295.89,652.087 C295.89,653.559 294.692,654.756 293.221,654.756 C291.742,654.756 290.552,653.559 290.552,652.087 Z M318.001,652.087 C318.001,650.615 319.19,649.419 320.67,649.419 C322.141,649.419 323.338,650.615 323.338,652.087 C323.338,653.559 322.141,654.756 320.67,654.756 C319.19,654.756 318.001,653.559 318.001,652.087 Z M345.45,652.087 C345.45,650.615 346.639,649.419 348.11,649.419 C349.59,649.419 350.787,650.615 350.787,652.087 C350.787,653.559 349.59,654.756 348.11,654.756 C346.639,654.756 345.45,653.559 345.45,652.087 L345.45,652.087 Z" id="Fill-23" fill="#1E3F7D"></path>
            <path d="M70.961,683.813 C70.961,682.334 72.151,681.145 73.63,681.145 C75.102,681.145 76.299,682.334 76.299,683.813 C76.299,685.285 75.102,686.475 73.63,686.475 C72.151,686.475 70.961,685.285 70.961,683.813 Z M98.411,683.813 C98.411,682.334 99.6,681.145 101.079,681.145 C102.551,681.145 103.748,682.334 103.748,683.813 C103.748,685.285 102.551,686.475 101.079,686.475 C99.6,686.475 98.411,685.285 98.411,683.813 Z M125.859,683.813 C125.859,682.334 127.048,681.145 128.528,681.145 C130,681.145 131.197,682.334 131.197,683.813 C131.197,685.285 130,686.475 128.528,686.475 C127.048,686.475 125.859,685.285 125.859,683.813 Z M153.3,683.813 C153.3,682.334 154.498,681.145 155.977,681.145 C157.448,681.145 158.646,682.334 158.646,683.813 C158.646,685.285 157.448,686.475 155.977,686.475 C154.498,686.475 153.3,685.285 153.3,683.813 Z M180.757,683.813 C180.757,682.334 181.946,681.145 183.426,681.145 C184.897,681.145 186.094,682.334 186.094,683.813 C186.094,685.285 184.897,686.475 183.426,686.475 C181.946,686.475 180.757,685.285 180.757,683.813 Z M208.206,683.813 C208.206,682.334 209.395,681.145 210.875,681.145 C212.346,681.145 213.543,682.334 213.543,683.813 C213.543,685.285 212.346,686.475 210.875,686.475 C209.395,686.475 208.206,685.285 208.206,683.813 Z M235.655,683.813 C235.655,682.334 236.844,681.145 238.323,681.145 C239.794,681.145 240.984,682.334 240.984,683.813 C240.984,685.285 239.794,686.475 238.323,686.475 C236.844,686.475 235.655,685.285 235.655,683.813 Z M263.104,683.813 C263.104,682.334 264.292,681.145 265.772,681.145 C267.244,681.145 268.441,682.334 268.441,683.813 C268.441,685.285 267.244,686.475 265.772,686.475 C264.292,686.475 263.104,685.285 263.104,683.813 Z M290.552,683.813 C290.552,682.334 291.742,681.145 293.221,681.145 C294.692,681.145 295.89,682.334 295.89,683.813 C295.89,685.285 294.692,686.475 293.221,686.475 C291.742,686.475 290.552,685.285 290.552,683.813 Z M318.001,683.813 C318.001,682.334 319.19,681.145 320.67,681.145 C322.141,681.145 323.338,682.334 323.338,683.813 C323.338,685.285 322.141,686.475 320.67,686.475 C319.19,686.475 318.001,685.285 318.001,683.813 Z M345.45,683.813 C345.45,682.334 346.639,681.145 348.11,681.145 C349.59,681.145 350.787,682.334 350.787,683.813 C350.787,685.285 349.59,686.475 348.11,686.475 C346.639,686.475 345.45,685.285 345.45,683.813 L345.45,683.813 Z" id="Fill-24" fill="#1E3F7D"></path>
            <g id="Group-30" transform="translate(201.000000, 0.000000)" fill="#FFBABB">
                <polygon id="Fill-29" points="0.25 34.25 351 34.25 351 0 0.25 0"></polygon>
            </g>
            <path d="M217.832,556.589 L217.832,418.25 C179.631,418.25 148.663,449.218 148.663,487.42 C148.663,525.621 179.631,556.589 217.832,556.589" id="Fill-31" fill="#FFB321"></path>
            <path d="M119.673,216.142 C113.813,209.913 109.363,202.334 106.847,193.927 L119.673,216.142" id="Fill-33" fill="#F9725D"></path>
            <path d="M132.683,226.405 C131.425,225.684 130.198,224.917 129.001,224.119 L104.653,181.944 C104.546,180.61 104.5,179.245 104.5,177.879 L104.5,177.587 L132.683,226.405" id="Fill-34" fill="#F9725D"></path>
            <path d="M142.271,230.747 C141.259,230.394 140.247,230.026 139.265,229.611 L105.006,170.285 C105.16,169.21 105.329,168.152 105.543,167.109 L142.271,230.747" id="Fill-35" fill="#F9725D"></path>
            <path d="M150.587,232.879 C149.697,232.726 148.807,232.542 147.933,232.342 L106.97,161.417 C107.231,160.543 107.522,159.668 107.829,158.824 L123.677,186.255 C125.365,193.742 129.308,200.385 134.739,205.433 L150.587,232.879" id="Fill-36" fill="#F9725D"></path>
            <path d="M110.913,151.875 L123.063,172.908 C122.895,174.09 122.788,175.286 122.757,176.499 L109.808,154.068 C110.162,153.332 110.529,152.596 110.913,151.875" id="Fill-37" fill="#F9725D"></path>
            <path d="M158.15,233.692 C157.322,233.662 156.509,233.616 155.695,233.539 L142.778,211.155 C143.821,211.723 144.91,212.229 146.03,212.689 L158.15,233.692" id="Fill-38" fill="#F9725D"></path>
            <path d="M114.549,145.907 L125.227,164.394 C124.889,165.222 124.598,166.081 124.337,166.94 L113.291,147.793 C113.69,147.149 114.119,146.536 114.549,145.907" id="Fill-39" fill="#F9725D"></path>
            <path d="M165.131,233.524 C164.395,233.6 163.643,233.646 162.875,233.677 L151.829,214.546 C152.704,214.761 153.594,214.93 154.483,215.067 L165.131,233.524" id="Fill-40" fill="#F9725D"></path>
            <path d="M118.645,140.721 L128.51,157.812 C128.096,158.472 127.697,159.146 127.313,159.837 L117.234,142.363 C117.694,141.81 118.169,141.258 118.645,140.721" id="Fill-41" fill="#F9725D"></path>
            <path d="M171.682,232.588 C170.976,232.741 170.271,232.879 169.549,232.987 L159.455,215.512 C159.761,215.528 160.068,215.528 160.375,215.528 C160.866,215.528 161.341,215.512 161.817,215.497 L171.682,232.588" id="Fill-42" fill="#F9725D"></path>
            <path d="M123.14,136.226 L132.545,152.519 C132.054,153.056 131.578,153.593 131.133,154.161 L121.606,137.653 C122.112,137.146 122.619,136.671 123.14,136.226" id="Fill-43" fill="#F9725D"></path>
            <path d="M177.834,230.961 C177.174,231.176 176.499,231.391 175.824,231.575 L166.297,215.067 C167.002,214.945 167.708,214.822 168.414,214.653 L177.834,230.961" id="Fill-44" fill="#F9725D"></path>
            <path d="M127.973,132.36 L137.163,148.254 C136.61,148.653 136.089,149.098 135.567,149.573 L126.332,133.572 C126.869,133.157 127.42,132.743 127.973,132.36" id="Fill-45" fill="#F9725D"></path>
            <path d="M183.602,228.707 C182.989,228.982 182.359,229.259 181.73,229.52 L172.495,213.533 C173.155,213.303 173.799,213.073 174.428,212.797 L183.602,228.707" id="Fill-46" fill="#F9725D"></path>
            <path d="M133.174,129.062 L142.287,144.848 C141.688,145.17 141.09,145.523 140.522,145.891 L131.41,130.089 C131.993,129.736 132.576,129.399 133.174,129.062" id="Fill-47" fill="#F9725D"></path>
            <path d="M189.049,225.837 C188.466,226.19 187.868,226.528 187.269,226.85 L178.156,211.079 C178.754,210.741 179.353,210.404 179.936,210.051 L189.049,225.837" id="Fill-48" fill="#F9725D"></path>
            <path d="M138.697,126.361 L147.933,142.347 C147.273,142.562 146.628,142.808 145.984,143.068 L136.825,127.205 C137.439,126.914 138.068,126.637 138.697,126.361" id="Fill-49" fill="#F9725D"></path>
            <path d="M194.142,222.401 C193.605,222.815 193.038,223.214 192.485,223.613 L183.311,207.719 C183.863,207.305 184.385,206.875 184.906,206.415 L194.142,222.401" id="Fill-50" fill="#F9725D"></path>
            <path d="M144.588,124.274 L154.1,140.767 C153.379,140.875 152.673,141.013 151.983,141.182 L142.579,124.904 C143.253,124.673 143.913,124.459 144.588,124.274" id="Fill-51" fill="#F9725D"></path>
            <path d="M198.898,218.351 C198.392,218.826 197.87,219.302 197.349,219.762 L187.959,203.485 C188.45,202.963 188.926,202.426 189.386,201.874 L198.898,218.351" id="Fill-52" fill="#F9725D"></path>
            <path d="M150.832,122.817 L160.881,140.246 C160.712,140.23 160.543,140.23 160.375,140.23 C159.761,140.23 159.147,140.246 158.549,140.276 L148.7,123.231 C149.405,123.078 150.111,122.94 150.832,122.817" id="Fill-53" fill="#F9725D"></path>
            <path d="M203.271,213.671 C202.81,214.224 202.335,214.776 201.859,215.313 L192.025,198.269 C192.439,197.624 192.854,196.949 193.222,196.273 L203.271,213.671" id="Fill-54" fill="#F9725D"></path>
            <path d="M157.491,122.081 L168.476,141.12 C167.601,140.905 166.727,140.752 165.836,140.629 L155.22,122.25 C155.972,122.173 156.724,122.111 157.491,122.081" id="Fill-55" fill="#F9725D"></path>
            <path d="M207.259,208.286 C206.845,208.916 206.416,209.544 205.986,210.158 L195.37,191.779 C195.707,190.966 195.999,190.122 196.275,189.263 L207.259,208.286" id="Fill-56" fill="#F9725D"></path>
            <path d="M164.625,122.173 L177.404,144.296 C176.361,143.759 175.303,143.283 174.198,142.854 L162.17,122.035 C162.999,122.066 163.812,122.096 164.625,122.173" id="Fill-57" fill="#F9725D"></path>
            <path d="M210.758,202.073 C210.404,202.81 210.036,203.53 209.653,204.251 L197.625,183.417 C197.793,182.267 197.901,181.101 197.962,179.919 L210.758,202.073" id="Fill-58" fill="#F9725D"></path>
            <path d="M172.357,123.293 L192.946,158.962 C190.875,155.403 188.235,152.228 185.152,149.542 L169.703,122.786 C170.592,122.925 171.482,123.093 172.357,123.293" id="Fill-59" fill="#F9725D"></path>
            <path d="M213.642,194.801 C213.365,195.66 213.074,196.519 212.767,197.348 L197.318,170.607 C196.504,166.434 195.001,162.506 192.946,158.962 L213.642,194.801" id="Fill-60" fill="#F9725D"></path>
            <path d="M215.667,186.01 C215.513,187.069 215.329,188.112 215.115,189.155 L177.972,124.827 C178.984,125.165 179.982,125.533 180.963,125.932 L215.667,186.01" id="Fill-61" fill="#F9725D"></path>
            <path d="M216.25,177.879 C216.25,178.202 216.25,178.523 216.234,178.846 L187.469,129 C188.711,129.69 189.908,130.411 191.089,131.209 L216.142,174.596 C216.219,175.67 216.25,176.774 216.25,177.879" id="Fill-62" fill="#F9725D"></path>
            <path d="M214.301,163.197 L200.064,138.542 C206.753,145.293 211.739,153.746 214.301,163.197" id="Fill-63" fill="#F9725D"></path>
        </g>
    </g>
</svg>