<?xml version="1.0" encoding="UTF-8"?>
<svg width="220px" height="220px" viewBox="0 0 220 220" version="1.1" xmlns="http://www.w3.org/2000/svg" xmlns:xlink="http://www.w3.org/1999/xlink">
    <!-- Generator: Sketch 54.1 (76490) - https://sketchapp.com -->
    <title>mbahmu</title>
    <desc>Created with Sketch.</desc>
    <g id="Page-1" stroke="none" stroke-width="1" fill="none" fill-rule="evenodd">
        <g id="color-copy" transform="translate(-487.000000, -20.000000)" fill="#000000">
            <g id="nama" transform="translate(119.000000, 174.000000)" font-family="OstrichSans-Bold, Ostrich Sans" font-size="40" font-weight="bold">
                <text id="Mbahmu">
                    <tspan x="423" y="42">Mbahmu</tspan>
                </text>
            </g>
            <path d="M662.078,145.638 L525.3,145.638 C524.624,145.638 524.075,145.089 524.075,144.413 C524.075,143.735 524.624,143.187 525.3,143.187 L660.945,143.187 L667.092,64.749 L595.297,106.399 C594.711,106.741 593.961,106.54 593.622,105.956 C593.282,105.37 593.481,104.62 594.066,104.28 L667.881,61.458 C668.275,61.229 668.762,61.237 669.148,61.479 C669.534,61.724 669.753,62.159 669.717,62.612 L663.299,144.509 C663.25,145.146 662.718,145.638 662.078,145.638" id="Fill-127"></path>
            <path d="M662.078,145.638 L525.3,145.638 C524.661,145.638 524.128,145.146 524.079,144.509 L517.661,62.612 C517.625,62.161 517.843,61.726 518.227,61.481 C518.61,61.239 519.097,61.229 519.491,61.454 L629.977,124.642 C630.563,124.978 630.768,125.726 630.431,126.313 C630.096,126.901 629.347,127.104 628.759,126.769 L520.285,64.731 L526.433,143.187 L662.078,143.187 C662.754,143.187 663.303,143.735 663.303,144.413 C663.303,145.089 662.754,145.638 662.078,145.638" id="Fill-128"></path>
            <path d="M621.204,90.79 C620.891,90.79 620.578,90.671 620.339,90.431 L593.689,63.829 L567.041,90.431 C566.561,90.911 565.786,90.909 565.308,90.431 C564.83,89.952 564.83,89.175 565.309,88.696 L592.824,61.231 C593.302,60.753 594.076,60.753 594.555,61.231 L622.07,88.696 C622.549,89.175 622.549,89.952 622.071,90.431 C621.832,90.669 621.519,90.79 621.204,90.79" id="Fill-129"></path>
            <path d="M636.658,127.206 C635.272,127.206 634.145,128.331 634.145,129.712 C634.145,131.095 635.272,132.22 636.658,132.22 C638.042,132.22 639.169,131.095 639.169,129.712 C639.169,128.331 638.042,127.206 636.658,127.206 Z M636.658,134.669 C633.92,134.669 631.694,132.446 631.694,129.712 C631.694,126.979 633.92,124.757 636.658,124.757 C639.394,124.757 641.62,126.979 641.62,129.712 C641.62,132.446 639.394,134.669 636.658,134.669 L636.658,134.669 Z" id="Fill-130"></path>
        </g>
    </g>
</svg>