<?xml version="1.0" encoding="UTF-8"?>
<svg width="220px" height="220px" viewBox="0 0 220 220" version="1.1" xmlns="http://www.w3.org/2000/svg" xmlns:xlink="http://www.w3.org/1999/xlink">
    <!-- Generator: Sketch 54.1 (76490) - https://sketchapp.com -->
    <title>morangan</title>
    <desc>Created with Sketch.</desc>
    <g id="Page-1" stroke="none" stroke-width="1" fill="none" fill-rule="evenodd">
        <g id="color-copy" transform="translate(-897.000000, -560.000000)" fill="#000000">
            <g id="nama" transform="translate(119.000000, 174.000000)" font-family="Choplin-Medium-DEMO, Choplin" font-size="30" font-weight="500">
                <text id="Morangan">
                    <tspan x="810.135" y="586">Morangan</tspan>
                </text>
            </g>
            <path d="M952.791,703.665 C952.15,703.665 951.63,703.14 951.63,702.489 L951.63,591.933 C951.63,591.474 951.893,591.058 952.304,590.864 C952.714,590.671 953.199,590.737 953.543,591.036 L1008.86,638.722 L1064.17,591.036 C1064.66,590.614 1065.39,590.675 1065.81,591.171 C1066.22,591.665 1066.17,592.409 1065.68,592.829 L1009.61,641.163 C1009.18,641.538 1008.54,641.538 1008.11,641.163 L953.952,594.479 L953.952,702.489 C953.952,703.14 953.432,703.665 952.791,703.665" id="Fill-115"></path>
            <path d="M1064.92,703.384 C1064.28,703.384 1063.76,702.856 1063.76,702.206 L1063.76,616.61 L1009.61,663.296 C1009.18,663.669 1008.54,663.669 1008.11,663.296 L963.793,625.095 C963.305,624.673 963.245,623.931 963.661,623.435 C964.077,622.94 964.809,622.878 965.297,623.3 L1008.86,660.853 L1064.17,613.167 C1064.52,612.87 1065,612.804 1065.41,612.995 C1065.82,613.188 1066.09,613.604 1066.09,614.063 L1066.09,702.206 C1066.09,702.856 1065.57,703.384 1064.92,703.384" id="Fill-116"></path>
            <path d="M1064.92,703.384 L1008.86,703.384 C1008.22,703.384 1007.7,702.856 1007.7,702.206 C1007.7,701.556 1008.22,701.028 1008.86,701.028 L1064.92,701.028 C1065.57,701.028 1066.09,701.556 1066.09,702.206 C1066.09,702.856 1065.57,703.384 1064.92,703.384" id="Fill-117"></path>
            <path d="M994.57,698.622 C993.258,698.622 992.19,699.702 992.19,701.03 C992.19,702.356 993.258,703.437 994.57,703.437 C995.883,703.437 996.952,702.356 996.952,701.03 C996.952,699.702 995.883,698.622 994.57,698.622 Z M994.57,705.792 C991.978,705.792 989.867,703.655 989.867,701.03 C989.867,698.403 991.978,696.267 994.57,696.267 C997.164,696.267 999.274,698.403 999.274,701.03 C999.274,703.655 997.164,705.792 994.57,705.792 L994.57,705.792 Z" id="Fill-118"></path>
        </g>
    </g>
</svg>