<?xml version="1.0" encoding="UTF-8"?>
<svg width="220px" height="220px" viewBox="0 0 220 220" version="1.1" xmlns="http://www.w3.org/2000/svg" xmlns:xlink="http://www.w3.org/1999/xlink">
    <!-- Generator: Sketch 54.1 (76490) - https://sketchapp.com -->
    <title>okonomi</title>
    <desc>Created with Sketch.</desc>
    <g id="Page-1" stroke="none" stroke-width="1" fill="none" fill-rule="evenodd">
        <g id="color-copy" transform="translate(-80.000000, -560.000000)" fill="#000000">
            <g id="nama" transform="translate(119.000000, 174.000000)" font-family="Daniel-Regular, Daniel" font-size="30" font-weight="normal">
                <text id="Okonomi">
                    <tspan x="0.32" y="586">Okonomi</tspan>
                </text>
            </g>
            <path d="M128.591,682.06 L187.216,715.849 L245.842,682.06 L245.842,614.487 L187.216,580.698 L128.591,614.487 L128.591,682.06 Z M187.216,718.265 C187.023,718.265 186.829,718.216 186.656,718.116 L126.909,683.681 C126.562,683.479 126.348,683.108 126.348,682.708 L126.348,613.839 C126.348,613.438 126.562,613.067 126.909,612.866 L186.656,578.431 C187.002,578.231 187.43,578.231 187.776,578.431 L247.524,612.866 C247.872,613.067 248.086,613.438 248.086,613.839 L248.086,682.708 C248.086,683.108 247.872,683.479 247.524,683.681 L187.776,718.116 C187.604,718.216 187.41,718.265 187.216,718.265 L187.216,718.265 Z" id="Fill-135"></path>
            <path d="M127.47,683.829 C127.083,683.829 126.706,683.628 126.498,683.269 C126.188,682.731 126.373,682.046 126.909,681.735 L225.193,625.091 C225.729,624.782 226.415,624.966 226.726,625.503 C227.034,626.04 226.851,626.726 226.313,627.036 L128.03,683.681 C127.853,683.782 127.661,683.829 127.47,683.829" id="Fill-136"></path>
            <path d="M246.963,683.829 C246.773,683.829 246.581,683.782 246.404,683.681 L187.658,649.899 C187.121,649.591 186.936,648.905 187.244,648.368 C187.555,647.829 188.238,647.647 188.776,647.954 L247.523,681.735 C248.06,682.044 248.245,682.729 247.937,683.269 C247.729,683.628 247.351,683.829 246.963,683.829" id="Fill-137"></path>
            <path d="M228.847,693.28 C228.657,693.28 228.465,693.231 228.289,693.132 L169.542,659.351 C169.005,659.042 168.821,658.354 169.129,657.817 C169.439,657.28 170.123,657.099 170.661,657.405 L229.407,691.187 C229.944,691.495 230.129,692.181 229.821,692.718 C229.613,693.079 229.235,693.28 228.847,693.28" id="Fill-138"></path>
            <path d="M231.813,619.747 C230.545,619.747 229.513,620.776 229.513,622.042 C229.513,623.308 230.545,624.337 231.813,624.337 C233.082,624.337 234.113,623.308 234.113,622.042 C234.113,620.776 233.082,619.747 231.813,619.747 Z M231.813,626.581 C229.308,626.581 227.269,624.544 227.269,622.042 C227.269,619.54 229.308,617.503 231.813,617.503 C234.319,617.503 236.357,619.54 236.357,622.042 C236.357,624.544 234.319,626.581 231.813,626.581 L231.813,626.581 Z" id="Fill-139"></path>
        </g>
    </g>
</svg>