<?xml version="1.0" encoding="UTF-8"?>
<svg width="220px" height="220px" viewBox="0 0 220 220" version="1.1" xmlns="http://www.w3.org/2000/svg" xmlns:xlink="http://www.w3.org/1999/xlink">
    <!-- Generator: Sketch 54.1 (76490) - https://sketchapp.com -->
    <title>olodis</title>
    <desc>Created with Sketch.</desc>
    <g id="Page-1" stroke="none" stroke-width="1" fill="none" fill-rule="evenodd">
        <g id="color-copy" transform="translate(-895.000000, -20.000000)" fill="#000000">
            <g id="nama" transform="translate(119.000000, 174.000000)" font-family="Phosphate-Inline, Phosphate" font-size="30" font-weight="normal">
                <text id="Olodis">
                    <tspan x="835" y="38">Olodis</tspan>
                </text>
            </g>
            <path d="M983.007,76.194 C959.55,76.194 940.468,95.321 940.468,118.833 C940.468,142.343 959.55,161.47 983.007,161.47 C1006.46,161.47 1025.54,142.343 1025.54,118.833 C1025.54,95.321 1006.46,76.194 983.007,76.194 Z M983.007,163.638 C958.354,163.638 938.299,143.538 938.299,118.833 C938.299,94.126 958.354,74.026 983.007,74.026 C1007.66,74.026 1027.71,94.126 1027.71,118.833 C1027.71,143.538 1007.66,163.638 983.007,163.638 L983.007,163.638 Z" id="Fill-119"></path>
            <path d="M1024.08,136.536 C1023.56,136.536 1023.11,136.169 1023.01,135.646 C1022.9,135.058 1023.29,134.491 1023.88,134.384 C1044.07,130.685 1058.72,113.046 1058.72,92.444 C1058.72,68.935 1039.63,49.808 1016.18,49.808 C992.722,49.808 973.639,68.935 973.639,92.444 C973.639,102.595 977.258,112.429 983.83,120.134 C984.218,120.591 984.164,121.274 983.708,121.663 C983.252,122.052 982.568,121.997 982.179,121.542 C975.274,113.444 971.471,103.11 971.471,92.444 C971.471,67.737 991.526,47.638 1016.18,47.638 C1040.83,47.638 1060.88,67.737 1060.88,92.444 C1060.88,114.093 1045.49,132.628 1024.27,136.517 L1024.08,136.536" id="Fill-120"></path>
            <path d="M989.91,124.28 C988.615,124.28 987.561,125.339 987.561,126.64 C987.561,127.938 988.615,128.997 989.91,128.997 C991.206,128.997 992.26,127.938 992.26,126.64 C992.26,125.339 991.206,124.28 989.91,124.28 Z M989.91,131.165 C987.418,131.165 985.392,129.136 985.392,126.64 C985.392,124.144 987.418,122.112 989.91,122.112 C992.402,122.112 994.429,124.144 994.429,126.64 C994.429,129.136 992.402,131.165 989.91,131.165 L989.91,131.165 Z" id="Fill-121"></path>
        </g>
    </g>
</svg>