<?xml version="1.0" encoding="iso-8859-1"?>
<!-- Generator: Adobe Illustrator 19.0.0, SVG Export Plug-In . SVG Version: 6.00 Build 0)  -->
<svg version="1.1" id="Capa_1" xmlns="http://www.w3.org/2000/svg" xmlns:xlink="http://www.w3.org/1999/xlink" x="0px" y="0px"
	 viewBox="0 0 512 512" style="enable-background:new 0 0 512 512;" xml:space="preserve">
<g>
	<g>
		<path d="M419,246.01c-5.53,0-9.99,4.452-9.99,9.99c0,5.535,4.454,9.987,9.99,9.987c5.535,0,9.99-4.452,9.99-9.987
			C428.99,250.47,424.538,246.01,419,246.01z"/>
	</g>
</g>
<g>
	<g>
		<path d="M256,0C118.098,0,0,117.693,0,256c0,137.913,117.702,256,256,256c137.902,0,256-117.693,256-256
			C512,118.087,394.298,0,256,0z M246,491.764C125.814,486.458,25.542,386.186,20.238,266h63.054
			c1.858,32.821,12.771,65.112,30.739,90.877c-6.789,11.506-5.25,26.605,4.618,36.475c9.809,9.808,24.893,11.451,36.474,4.619
			c25.765,17.968,58.056,28.88,90.877,30.739V491.764z M133.253,364.632c3.969-3.51,9.981-3.27,13.681,0.425
			c3.729,3.734,3.92,9.747,0.39,13.74c-3.62,4.162-10.378,4.567-14.532,0.412C128.801,375.218,128.839,368.527,133.253,364.632z
			 M246,408.68c-28.176-1.784-55.783-11.027-78.009-26.127c3.939-10.684,1.581-23.132-6.915-31.638
			c-8.499-8.489-20.947-10.844-31.629-6.906c-15.1-22.226-24.343-49.833-26.127-78.009h63.239v0
			c4.626,41.652,37.789,74.815,79.441,79.441V408.68z M246,325.274c-30.609-4.399-54.875-28.666-59.274-59.274H246V325.274z
			 M246,246h-59.274c4.399-30.608,28.666-54.875,59.274-59.274V246z M246,166.558c-41.652,4.626-74.815,37.789-79.441,79.441H103.32
			c1.784-28.173,11.026-55.778,26.123-78.003c10.659,3.93,23.118,1.593,31.642-6.92c8.497-8.507,10.849-20.968,6.915-31.636
			c22.224-15.096,49.828-24.337,78-26.121V166.558z M132.791,132.792c3.887-3.889,10.238-3.907,14.153,0.005
			c3.865,3.851,3.916,10.216-0.001,14.138c-3.903,3.898-10.25,3.907-14.148,0.009C128.895,143.039,128.893,136.69,132.791,132.792z
			 M246,83.292c-32.821,1.858-65.112,12.771-90.877,30.739c-11.507-6.788-26.605-5.248-36.474,4.618
			c-9.868,9.868-11.408,24.966-4.618,36.474C96.062,180.887,85.149,213.179,83.291,246H20.238
			C25.542,125.814,125.814,25.542,246,20.238V83.292z M266,186.726c30.609,4.399,54.875,28.666,59.274,59.274H266V186.726z
			 M266,265.9h59.274c-4.399,30.608-28.666,54.975-59.274,59.374V265.9z M266,491.762v-63.078
			c74.579-4.619,139.605-59.491,157.729-130.521c1.366-5.352-1.866-10.797-7.217-12.162c-5.354-1.367-10.797,1.865-12.162,7.217
			C388.34,355.965,329.915,404.039,266,408.635v-63.194c41.652-4.626,74.815-37.789,79.441-79.441H376c5.523,0,10-4.478,10-10
			c0-5.522-4.477-10-10-10h-30.559c-4.626-41.652-37.789-74.815-79.441-79.441v-63.194c63.915,4.596,122.34,52.67,138.351,115.417
			c1.371,5.374,6.835,8.578,12.162,7.217c5.351-1.365,8.583-6.811,7.217-12.162C405.622,142.874,340.651,87.939,266,83.316V20.238
			C386.186,25.542,486.458,125.814,491.762,246H459c-5.523,0-10,4.478-10,10c0,5.522,4.477,9.9,10,9.9h32.762
			C486.458,386.086,386.186,486.458,266,491.762z"/>
	</g>
</g>
<g>
</g>
<g>
</g>
<g>
</g>
<g>
</g>
<g>
</g>
<g>
</g>
<g>
</g>
<g>
</g>
<g>
</g>
<g>
</g>
<g>
</g>
<g>
</g>
<g>
</g>
<g>
</g>
<g>
</g>
</svg>
