<?xml version="1.0" encoding="UTF-8"?>
<svg width="632px" height="720px" viewBox="0 0 632 720" version="1.1" xmlns="http://www.w3.org/2000/svg" xmlns:xlink="http://www.w3.org/1999/xlink">
    <!-- Generator: Sketch 54.1 (76490) - https://sketchapp.com -->
    <title>320</title>
    <desc>Created with Sketch.</desc>
    <g id="Page-1" stroke="none" stroke-width="1" fill="none" fill-rule="evenodd">
        <g id="320" transform="translate(-568.000000, 0.000000)">
            <polyline id="Fill-5" fill="#000000" points="611.206 668.953 608.862 666.61 645.723 629.75 648.065 632.094 611.206 668.953"></polyline>
            <polyline id="Fill-6" fill="#000000" points="648.065 668.953 645.723 666.61 682.582 629.75 684.926 632.094 648.065 668.953"></polyline>
            <polyline id="Fill-7" fill="#000000" points="684.926 668.953 682.582 666.61 719.442 629.75 721.785 632.094 684.926 668.953"></polyline>
            <polyline id="Fill-8" fill="#000000" points="721.785 668.953 719.442 666.61 756.303 629.75 758.646 632.094 721.785 668.953"></polyline>
            <polyline id="Fill-9" fill="#000000" points="758.646 668.953 756.303 666.61 793.162 629.75 795.506 632.094 758.646 668.953"></polyline>
            <path d="M785.682,159.142 C785.682,175.391 772.509,188.564 756.26,188.564 C740.01,188.564 726.837,175.391 726.837,159.142 C726.837,142.892 740.01,129.719 756.26,129.719 C772.509,129.719 785.682,142.892 785.682,159.142" id="Fill-20" fill="#FEB600"></path>
            <path d="M775.493,119.084 C760.005,119.084 747.404,131.685 747.404,147.172 C747.404,162.661 760.005,175.261 775.493,175.261 C790.981,175.261 803.582,162.661 803.582,147.172 C803.582,131.685 790.981,119.084 775.493,119.084 Z M775.493,177.929 C758.534,177.929 744.736,164.131 744.736,147.172 C744.736,130.213 758.534,116.416 775.493,116.416 C792.452,116.416 806.25,130.213 806.25,147.172 C806.25,164.131 792.452,177.929 775.493,177.929 L775.493,177.929 Z" id="Fill-21" fill="#000000"></path>
            <path d="M1085.91,318.25 C1084.43,318.25 1083.24,317.061 1083.24,315.581 C1083.24,314.11 1084.43,312.913 1085.91,312.913 C1087.38,312.913 1088.57,314.11 1088.57,315.581 C1088.57,317.061 1087.38,318.25 1085.91,318.25 Z M1085.91,290.801 C1084.43,290.801 1083.24,289.612 1083.24,288.132 C1083.24,286.661 1084.43,285.463 1085.91,285.463 C1087.38,285.463 1088.57,286.661 1088.57,288.132 C1088.57,289.612 1087.38,290.801 1085.91,290.801 Z M1085.91,263.352 C1084.43,263.352 1083.24,262.163 1083.24,260.684 C1083.24,259.212 1084.43,258.015 1085.91,258.015 C1087.38,258.015 1088.57,259.212 1088.57,260.684 C1088.57,262.163 1087.38,263.352 1085.91,263.352 Z M1085.91,235.911 C1084.43,235.911 1083.24,234.714 1083.24,233.234 C1083.24,231.763 1084.43,230.566 1085.91,230.566 C1087.38,230.566 1088.57,231.763 1088.57,233.234 C1088.57,234.714 1087.38,235.911 1085.91,235.911 Z M1085.91,208.455 C1084.43,208.455 1083.24,207.265 1083.24,205.786 C1083.24,204.314 1084.43,203.117 1085.91,203.117 C1087.38,203.117 1088.57,204.314 1088.57,205.786 C1088.57,207.265 1087.38,208.455 1085.91,208.455 Z M1085.91,181.005 C1084.43,181.005 1083.24,179.816 1083.24,178.337 C1083.24,176.866 1084.43,175.668 1085.91,175.668 C1087.38,175.668 1088.57,176.866 1088.57,178.337 C1088.57,179.816 1087.38,181.005 1085.91,181.005 Z M1085.91,153.557 C1084.43,153.557 1083.24,152.368 1083.24,150.888 C1083.24,149.417 1084.43,148.228 1085.91,148.228 C1087.38,148.228 1088.57,149.417 1088.57,150.888 C1088.57,152.368 1087.38,153.557 1085.91,153.557 Z M1085.91,126.108 C1084.43,126.108 1083.24,124.919 1083.24,123.439 C1083.24,121.968 1084.43,120.771 1085.91,120.771 C1087.38,120.771 1088.57,121.968 1088.57,123.439 C1088.57,124.919 1087.38,126.108 1085.91,126.108 Z M1085.91,98.659 C1084.43,98.659 1083.24,97.47 1083.24,95.99 C1083.24,94.519 1084.43,93.322 1085.91,93.322 C1087.38,93.322 1088.57,94.519 1088.57,95.99 C1088.57,97.47 1087.38,98.659 1085.91,98.659 Z M1085.91,71.21 C1084.43,71.21 1083.24,70.021 1083.24,68.542 C1083.24,67.07 1084.43,65.873 1085.91,65.873 C1087.38,65.873 1088.57,67.07 1088.57,68.542 C1088.57,70.021 1087.38,71.21 1085.91,71.21 Z M1085.91,43.761 C1084.43,43.761 1083.24,42.572 1083.24,41.101 C1083.24,39.622 1084.43,38.424 1085.91,38.424 C1087.38,38.424 1088.57,39.622 1088.57,41.101 C1088.57,42.572 1087.38,43.761 1085.91,43.761 L1085.91,43.761 Z" id="Fill-25" fill="#1E3F7D"></path>
            <path d="M1117.62,318.25 C1116.15,318.25 1114.96,317.061 1114.96,315.581 C1114.96,314.11 1116.15,312.913 1117.62,312.913 C1119.1,312.913 1120.29,314.11 1120.29,315.581 C1120.29,317.061 1119.1,318.25 1117.62,318.25 Z M1117.62,290.801 C1116.15,290.801 1114.96,289.612 1114.96,288.132 C1114.96,286.661 1116.15,285.463 1117.62,285.463 C1119.1,285.463 1120.29,286.661 1120.29,288.132 C1120.29,289.612 1119.1,290.801 1117.62,290.801 Z M1117.62,263.352 C1116.15,263.352 1114.96,262.163 1114.96,260.684 C1114.96,259.212 1116.15,258.015 1117.62,258.015 C1119.1,258.015 1120.29,259.212 1120.29,260.684 C1120.29,262.163 1119.1,263.352 1117.62,263.352 Z M1117.62,235.911 C1116.15,235.911 1114.96,234.714 1114.96,233.234 C1114.96,231.763 1116.15,230.566 1117.62,230.566 C1119.1,230.566 1120.29,231.763 1120.29,233.234 C1120.29,234.714 1119.1,235.911 1117.62,235.911 Z M1117.62,208.455 C1116.15,208.455 1114.96,207.265 1114.96,205.786 C1114.96,204.314 1116.15,203.117 1117.62,203.117 C1119.1,203.117 1120.29,204.314 1120.29,205.786 C1120.29,207.265 1119.1,208.455 1117.62,208.455 Z M1117.62,181.005 C1116.15,181.005 1114.96,179.816 1114.96,178.337 C1114.96,176.866 1116.15,175.668 1117.62,175.668 C1119.1,175.668 1120.29,176.866 1120.29,178.337 C1120.29,179.816 1119.1,181.005 1117.62,181.005 Z M1117.62,153.557 C1116.15,153.557 1114.96,152.368 1114.96,150.888 C1114.96,149.417 1116.15,148.228 1117.62,148.228 C1119.1,148.228 1120.29,149.417 1120.29,150.888 C1120.29,152.368 1119.1,153.557 1117.62,153.557 Z M1117.62,126.108 C1116.15,126.108 1114.96,124.919 1114.96,123.439 C1114.96,121.968 1116.15,120.771 1117.62,120.771 C1119.1,120.771 1120.29,121.968 1120.29,123.439 C1120.29,124.919 1119.1,126.108 1117.62,126.108 Z M1117.62,98.659 C1116.15,98.659 1114.96,97.47 1114.96,95.99 C1114.96,94.519 1116.15,93.322 1117.62,93.322 C1119.1,93.322 1120.29,94.519 1120.29,95.99 C1120.29,97.47 1119.1,98.659 1117.62,98.659 Z M1117.62,71.21 C1116.15,71.21 1114.96,70.021 1114.96,68.542 C1114.96,67.07 1116.15,65.873 1117.62,65.873 C1119.1,65.873 1120.29,67.07 1120.29,68.542 C1120.29,70.021 1119.1,71.21 1117.62,71.21 Z M1117.62,43.761 C1116.15,43.761 1114.96,42.572 1114.96,41.101 C1114.96,39.622 1116.15,38.424 1117.62,38.424 C1119.1,38.424 1120.29,39.622 1120.29,41.101 C1120.29,42.572 1119.1,43.761 1117.62,43.761 L1117.62,43.761 Z" id="Fill-26" fill="#1E3F7D"></path>
            <g id="Group-30" transform="translate(201.000000, 0.000000)" fill="#1E3F7D">
                <path d="M948.35,318.25 C946.87,318.25 945.68,317.061 945.68,315.581 C945.68,314.11 946.87,312.913 948.35,312.913 C949.82,312.913 951.01,314.11 951.01,315.581 C951.01,317.061 949.82,318.25 948.35,318.25 Z M948.35,290.801 C946.87,290.801 945.68,289.612 945.68,288.132 C945.68,286.661 946.87,285.463 948.35,285.463 C949.82,285.463 951.01,286.661 951.01,288.132 C951.01,289.612 949.82,290.801 948.35,290.801 Z M948.35,263.352 C946.87,263.352 945.68,262.163 945.68,260.684 C945.68,259.212 946.87,258.015 948.35,258.015 C949.82,258.015 951.01,259.212 951.01,260.684 C951.01,262.163 949.82,263.352 948.35,263.352 Z M948.35,235.911 C946.87,235.911 945.68,234.714 945.68,233.234 C945.68,231.763 946.87,230.566 948.35,230.566 C949.82,230.566 951.01,231.763 951.01,233.234 C951.01,234.714 949.82,235.911 948.35,235.911 Z M948.35,208.455 C946.87,208.455 945.68,207.265 945.68,205.786 C945.68,204.314 946.87,203.117 948.35,203.117 C949.82,203.117 951.01,204.314 951.01,205.786 C951.01,207.265 949.82,208.455 948.35,208.455 Z M948.35,181.005 C946.87,181.005 945.68,179.816 945.68,178.337 C945.68,176.866 946.87,175.668 948.35,175.668 C949.82,175.668 951.01,176.866 951.01,178.337 C951.01,179.816 949.82,181.005 948.35,181.005 Z M948.35,153.557 C946.87,153.557 945.68,152.368 945.68,150.888 C945.68,149.417 946.87,148.228 948.35,148.228 C949.82,148.228 951.01,149.417 951.01,150.888 C951.01,152.368 949.82,153.557 948.35,153.557 Z M948.35,126.108 C946.87,126.108 945.68,124.919 945.68,123.439 C945.68,121.968 946.87,120.771 948.35,120.771 C949.82,120.771 951.01,121.968 951.01,123.439 C951.01,124.919 949.82,126.108 948.35,126.108 Z M948.35,98.659 C946.87,98.659 945.68,97.47 945.68,95.99 C945.68,94.519 946.87,93.322 948.35,93.322 C949.82,93.322 951.01,94.519 951.01,95.99 C951.01,97.47 949.82,98.659 948.35,98.659 Z M948.35,71.21 C946.87,71.21 945.68,70.021 945.68,68.542 C945.68,67.07 946.87,65.873 948.35,65.873 C949.82,65.873 951.01,67.07 951.01,68.542 C951.01,70.021 949.82,71.21 948.35,71.21 Z M948.35,43.761 C946.87,43.761 945.68,42.572 945.68,41.101 C945.68,39.622 946.87,38.424 948.35,38.424 C949.82,38.424 951.01,39.622 951.01,41.101 C951.01,42.572 949.82,43.761 948.35,43.761 L948.35,43.761 Z" id="Fill-27"></path>
            </g>
            <path d="M896,603.589 L896,465.25 C857.799,465.25 826.83,496.218 826.83,534.42 C826.83,572.621 857.799,603.589 896,603.589" id="Fill-32" fill="#2E73AC"></path>
            <polyline id="Fill-64" fill="#FFB321" points="876.778 182.25 984.25 182.25 984.25 74.779 876.778 182.25"></polyline>
        </g>
    </g>
</svg>