<?xml version="1.0" encoding="UTF-8"?>
<svg width="229px" height="210px" viewBox="0 0 229 210" version="1.1" xmlns="http://www.w3.org/2000/svg" xmlns:xlink="http://www.w3.org/1999/xlink">
    <!-- Generator: Sketch 54.1 (76490) - https://sketchapp.com -->
    <title>satu</title>
    <desc>Created with Sketch.</desc>
    <g id="Page-1" stroke="none" stroke-width="1" fill="none" fill-rule="evenodd">
        <g id="838" transform="translate(-192.000000, -312.000000)">
            <path d="M283.509,311.508 C234.038,311.508 193.936,351.61 193.936,401.079 C193.936,450.55 234.038,490.652 283.509,490.652 L283.509,486.286 C236.451,486.286 198.302,448.137 198.302,401.079 C198.302,354.021 236.451,315.874 283.509,315.874 C330.567,315.874 368.716,354.021 368.716,401.079 L373.08,401.079 C373.08,351.61 332.978,311.508 283.509,311.508" id="Fill-7" fill="#0A0D0E"></path>
            <path d="M331.068,439.624 C331.068,441.908 329.216,443.76 326.932,443.76 C324.647,443.76 322.795,441.908 322.795,439.624 C322.795,437.339 324.647,435.487 326.932,435.487 C329.216,435.487 331.068,437.339 331.068,439.624" id="Fill-274" fill="#3DB5A7"></path>
            <path d="M358.077,439.624 C358.077,441.908 356.225,443.76 353.94,443.76 C351.656,443.76 349.804,441.908 349.804,439.624 C349.804,437.339 351.656,435.487 353.94,435.487 C356.225,435.487 358.077,437.339 358.077,439.624" id="Fill-275" fill="#3DB5A7"></path>
            <path d="M385.085,439.624 C385.085,441.908 383.233,443.76 380.949,443.76 C378.664,443.76 376.812,441.908 376.812,439.624 C376.812,437.339 378.664,435.487 380.949,435.487 C383.233,435.487 385.085,437.339 385.085,439.624" id="Fill-276" fill="#3DB5A7"></path>
            <path d="M412.094,439.624 C412.094,441.908 410.242,443.76 407.958,443.76 C405.673,443.76 403.821,441.908 403.821,439.624 C403.821,437.339 405.673,435.487 407.958,435.487 C410.242,435.487 412.094,437.339 412.094,439.624" id="Fill-277" fill="#3DB5A7"></path>
            <path d="M331.068,463.069 C331.068,465.354 329.216,467.206 326.932,467.206 C324.647,467.206 322.795,465.354 322.795,463.069 C322.795,460.785 324.647,458.933 326.932,458.933 C329.216,458.933 331.068,460.785 331.068,463.069" id="Fill-278" fill="#3DB5A7"></path>
            <path d="M358.077,463.069 C358.077,465.354 356.225,467.206 353.94,467.206 C351.656,467.206 349.804,465.354 349.804,463.069 C349.804,460.785 351.656,458.933 353.94,458.933 C356.225,458.933 358.077,460.785 358.077,463.069" id="Fill-279" fill="#3DB5A7"></path>
            <path d="M385.085,463.069 C385.085,465.354 383.233,467.206 380.949,467.206 C378.664,467.206 376.812,465.354 376.812,463.069 C376.812,460.785 378.664,458.933 380.949,458.933 C383.233,458.933 385.085,460.785 385.085,463.069" id="Fill-280" fill="#3DB5A7"></path>
            <path d="M412.094,463.069 C412.094,465.354 410.242,467.206 407.958,467.206 C405.673,467.206 403.821,465.354 403.821,463.069 C403.821,460.785 405.673,458.933 407.958,458.933 C410.242,458.933 412.094,460.785 412.094,463.069" id="Fill-281" fill="#3DB5A7"></path>
            <path d="M331.068,486.516 C331.068,488.8 329.216,490.652 326.932,490.652 C324.647,490.652 322.795,488.8 322.795,486.516 C322.795,484.231 324.647,482.379 326.932,482.379 C329.216,482.379 331.068,484.231 331.068,486.516" id="Fill-282" fill="#3DB5A7"></path>
            <path d="M358.077,486.516 C358.077,488.8 356.225,490.652 353.94,490.652 C351.656,490.652 349.804,488.8 349.804,486.516 C349.804,484.231 351.656,482.379 353.94,482.379 C356.225,482.379 358.077,484.231 358.077,486.516" id="Fill-283" fill="#3DB5A7"></path>
            <path d="M385.085,486.516 C385.085,488.8 383.233,490.652 380.949,490.652 C378.664,490.652 376.812,488.8 376.812,486.516 C376.812,484.231 378.664,482.379 380.949,482.379 C383.233,482.379 385.085,484.231 385.085,486.516" id="Fill-284" fill="#3DB5A7"></path>
            <path d="M412.094,486.516 C412.094,488.8 410.242,490.652 407.958,490.652 C405.673,490.652 403.821,488.8 403.821,486.516 C403.821,484.231 405.673,482.379 407.958,482.379 C410.242,482.379 412.094,484.231 412.094,486.516" id="Fill-285" fill="#3DB5A7"></path>
            <path d="M331.068,509.961 C331.068,512.246 329.216,514.098 326.932,514.098 C324.647,514.098 322.795,512.246 322.795,509.961 C322.795,507.677 324.647,505.825 326.932,505.825 C329.216,505.825 331.068,507.677 331.068,509.961" id="Fill-286" fill="#3DB5A7"></path>
            <path d="M358.077,509.961 C358.077,512.246 356.225,514.098 353.94,514.098 C351.656,514.098 349.804,512.246 349.804,509.961 C349.804,507.677 351.656,505.825 353.94,505.825 C356.225,505.825 358.077,507.677 358.077,509.961" id="Fill-287" fill="#3DB5A7"></path>
            <path d="M385.085,509.961 C385.085,512.246 383.233,514.098 380.949,514.098 C378.664,514.098 376.812,512.246 376.812,509.961 C376.812,507.677 378.664,505.825 380.949,505.825 C383.233,505.825 385.085,507.677 385.085,509.961" id="Fill-288" fill="#3DB5A7"></path>
            <path d="M412.094,509.961 C412.094,512.246 410.242,514.098 407.958,514.098 C405.673,514.098 403.821,512.246 403.821,509.961 C403.821,507.677 405.673,505.825 407.958,505.825 C410.242,505.825 412.094,507.677 412.094,509.961" id="Fill-289" fill="#3DB5A7"></path>
        </g>
    </g>
</svg>