<?xml version="1.0" encoding="UTF-8" standalone="no"?>
<!DOCTYPE svg PUBLIC "-//W3C//DTD SVG 1.1//EN" "http://www.w3.org/Graphics/SVG/1.1/DTD/svg11.dtd">
<svg width="100%" height="100%" viewBox="0 0 607 664" version="1.1" xmlns="http://www.w3.org/2000/svg" xmlns:xlink="http://www.w3.org/1999/xlink" xml:space="preserve" xmlns:serif="http://www.serif.com/" style="fill-rule:evenodd;clip-rule:evenodd;stroke-linejoin:round;stroke-miterlimit:2;">
    <g transform="matrix(1,0,0,1,-198,-194)">
        <g transform="matrix(4.16667,0,0,4.16667,0,0)">
            <path d="M92.019,202.59L93.926,202.59L174.765,121.751L174.765,119.844L92.019,202.59Z" style="fill:url(#_Linear1);"/>
            <path d="M98.378,202.59L100.286,202.59L174.765,128.111L174.765,126.203L98.378,202.59Z" style="fill:url(#_Linear2);"/>
            <path d="M104.737,202.59L106.645,202.59L174.765,134.47L174.765,132.562L104.737,202.59Z" style="fill:url(#_Linear3);"/>
            <path d="M53.864,202.59L55.772,202.59L174.765,83.598L174.765,81.69L53.864,202.59Z" style="fill:url(#_Linear4);"/>
            <path d="M111.096,202.59L113.004,202.59L174.765,140.829L174.765,138.921L111.096,202.59Z" style="fill:url(#_Linear5);"/>
            <path d="M79.3,202.59L81.208,202.59L174.765,109.033L174.765,107.125L79.3,202.59Z" style="fill:url(#_Linear6);"/>
            <path d="M60.223,202.59L62.131,202.59L174.765,89.957L174.765,88.049L60.223,202.59Z" style="fill:url(#_Linear7);"/>
            <path d="M66.583,202.59L68.49,202.59L174.765,96.315L174.765,94.408L66.583,202.59Z" style="fill:url(#_Linear8);"/>
            <path d="M72.941,202.59L74.849,202.59L174.765,102.674L174.765,100.767L72.941,202.59Z" style="fill:url(#_Linear9);"/>
            <path d="M85.66,202.59L87.567,202.59L174.765,115.393L174.765,113.485L85.66,202.59Z" style="fill:url(#_Linear10);"/>
            <path d="M149.251,202.59L151.159,202.59L174.765,178.983L174.765,177.075L149.251,202.59Z" style="fill:url(#_Linear11);"/>
            <path d="M174.765,198.061L174.765,196.152L168.328,202.59L170.236,202.59L174.765,198.061Z" style="fill:url(#_Linear12);"/>
            <path d="M155.61,202.59L157.518,202.59L174.765,185.343L174.765,183.435L155.61,202.59Z" style="fill:url(#_Linear13);"/>
            <path d="M161.969,202.59L163.876,202.59L174.765,191.701L174.765,189.794L161.969,202.59Z" style="fill:url(#_Linear14);"/>
            <path d="M117.456,202.59L119.363,202.59L174.765,147.188L174.765,145.28L117.456,202.59Z" style="fill:url(#_Linear15);"/>
            <path d="M123.814,202.59L125.722,202.59L174.765,153.547L174.765,151.64L123.814,202.59Z" style="fill:url(#_Linear16);"/>
            <path d="M130.173,202.59L132.081,202.59L174.765,159.906L174.765,157.998L130.173,202.59Z" style="fill:url(#_Linear17);"/>
            <path d="M136.533,202.59L138.44,202.59L174.765,166.265L174.765,164.357L136.533,202.59Z" style="fill:url(#_Linear18);"/>
            <path d="M142.892,202.59L144.799,202.59L174.765,172.624L174.765,170.717L142.892,202.59Z" style="fill:url(#_Linear19);"/>
            <path d="M52,153.582L52,155.489L127.665,79.825L125.757,79.825L52,153.582Z" style="fill:url(#_Linear20);"/>
            <path d="M52,115.427L52,117.335L89.51,79.825L87.602,79.825L52,115.427Z" style="fill:url(#_Linear21);"/>
            <path d="M52,109.068L52,110.976L83.15,79.825L81.243,79.825L52,109.068Z" style="fill:url(#_Linear22);"/>
            <path d="M52,121.786L52,123.694L95.869,79.825L93.961,79.825L52,121.786Z" style="fill:url(#_Linear23);"/>
            <path d="M52,128.146L52,130.053L102.229,79.825L100.321,79.825L52,128.146Z" style="fill:url(#_Linear24);"/>
            <path d="M52,134.504L52,136.412L108.587,79.825L106.68,79.825L52,134.504Z" style="fill:url(#_Linear25);"/>
            <path d="M52,83.632L52,85.54L57.714,79.825L55.807,79.825L52,83.632Z" style="fill:url(#_Linear26);"/>
            <path d="M52,89.991L52,91.899L64.073,79.825L62.166,79.825L52,89.991Z" style="fill:url(#_Linear27);"/>
            <path d="M52,102.709L52,104.617L76.792,79.825L74.884,79.825L52,102.709Z" style="fill:url(#_Linear28);"/>
            <path d="M52,96.351L52,98.258L70.433,79.825L68.525,79.825L52,96.351Z" style="fill:url(#_Linear29);"/>
            <path d="M52,166.3L52,168.207L140.383,79.825L138.475,79.825L52,166.3Z" style="fill:url(#_Linear30);"/>
            <path d="M52,185.377L52,187.285L159.46,79.825L157.552,79.825L52,185.377Z" style="fill:url(#_Linear31);"/>
            <path d="M52,172.659L52,174.566L146.742,79.825L144.834,79.825L52,172.659Z" style="fill:url(#_Linear32);"/>
            <path d="M52,179.018L52,180.926L153.101,79.825L151.193,79.825L52,179.018Z" style="fill:url(#_Linear33);"/>
            <path d="M52,191.736L52,193.644L165.819,79.825L163.912,79.825L52,191.736Z" style="fill:url(#_Linear34);"/>
            <path d="M52,147.223L52,149.13L121.306,79.825L119.398,79.825L52,147.223Z" style="fill:url(#_Linear35);"/>
            <path d="M174.687,202.59L174.765,202.59L174.765,202.512L174.687,202.59Z" style="fill:url(#_Linear36);"/>
            <path d="M52,198.095L52,200.003L172.178,79.825L170.271,79.825L52,198.095Z" style="fill:url(#_Linear37);"/>
            <path d="M52,140.863L52,142.771L114.946,79.825L113.039,79.825L52,140.863Z" style="fill:url(#_Linear38);"/>
            <path d="M52,159.94L52,161.849L134.024,79.825L132.116,79.825L52,159.94Z" style="fill:url(#_Linear39);"/>
            <rect x="62.458" y="79.591" width="112.596" height="112.595" style="fill:url(#_Linear40);"/>
            <path d="M66.835,187.536L183.015,187.536L183.015,71.357L66.835,71.357L66.835,187.536ZM184.314,188.835L65.536,188.835L65.536,70.058L184.314,70.058L184.314,188.835Z" style="fill:url(#_Linear41);"/>
            <path d="M180.676,87.971C180.317,87.971 180.026,87.68 180.026,87.322L180.026,85.329C180.026,84.971 180.317,84.68 180.676,84.68C181.035,84.68 181.326,84.971 181.326,85.329L181.326,87.322C181.326,87.68 181.035,87.971 180.676,87.971Z" style="fill:rgb(3,4,4);fill-rule:nonzero;"/>
            <path d="M180.676,95.13C180.317,95.13 180.026,94.839 180.026,94.481L180.026,92.208C180.026,91.849 180.317,91.558 180.676,91.558C181.035,91.558 181.326,91.849 181.326,92.208L181.326,94.481C181.326,94.839 181.035,95.13 180.676,95.13Z" style="fill:rgb(3,4,4);fill-rule:nonzero;"/>
            <path d="M182.975,89.268C182.747,89.268 182.526,89.148 182.407,88.936C182.232,88.623 182.344,88.227 182.657,88.051L184.351,87.103C184.665,86.927 185.06,87.039 185.235,87.352C185.411,87.665 185.299,88.061 184.986,88.236L183.292,89.185C183.191,89.241 183.082,89.268 182.975,89.268Z" style="fill:rgb(3,4,4);fill-rule:nonzero;"/>
            <path d="M176.685,92.79C176.457,92.79 176.236,92.671 176.117,92.458C175.942,92.145 176.054,91.749 176.367,91.574L178.35,90.463C178.663,90.288 179.059,90.4 179.234,90.713C179.409,91.026 179.297,91.422 178.984,91.597L177.001,92.707C176.901,92.764 176.792,92.79 176.685,92.79Z" style="fill:rgb(3,4,4);fill-rule:nonzero;"/>
            <path d="M178.567,89.35C178.45,89.35 178.331,89.317 178.224,89.251L176.45,88.144C176.146,87.955 176.053,87.554 176.243,87.249C176.433,86.945 176.834,86.853 177.138,87.042L178.911,88.149C179.216,88.338 179.309,88.739 179.119,89.043C178.996,89.241 178.784,89.35 178.567,89.35Z" style="fill:rgb(3,4,4);fill-rule:nonzero;"/>
            <path d="M184.558,93.087C184.44,93.087 184.321,93.055 184.214,92.988L182.401,91.856C182.097,91.667 182.003,91.266 182.193,90.962C182.383,90.658 182.784,90.565 183.088,90.754L184.902,91.886C185.207,92.076 185.299,92.477 185.109,92.781C184.986,92.978 184.774,93.087 184.558,93.087Z" style="fill:rgb(3,4,4);fill-rule:nonzero;"/>
            <path d="M81.476,93.123C80.15,93.123 79.072,94.202 79.072,95.527C79.072,96.852 80.15,97.93 81.476,97.93C82.801,97.93 83.878,96.852 83.878,95.527C83.878,94.202 82.801,93.123 81.476,93.123ZM81.476,99.229C79.434,99.229 77.773,97.568 77.773,95.527C77.773,93.485 79.434,91.825 81.476,91.825C83.517,91.825 85.178,93.485 85.178,95.527C85.178,97.568 83.517,99.229 81.476,99.229Z" style="fill:rgb(3,4,4);fill-rule:nonzero;"/>
            <path d="M149.46,176.033C149.293,176.033 149.127,175.969 149,175.842L144.176,171.001C143.922,170.747 143.923,170.336 144.177,170.082C144.432,169.829 144.843,169.83 145.096,170.084L149.92,174.925C150.173,175.179 150.173,175.59 149.918,175.843C149.792,175.97 149.626,176.033 149.46,176.033Z" style="fill:rgb(3,4,4);fill-rule:nonzero;"/>
            <path d="M144.533,176.033C144.367,176.033 144.201,175.97 144.075,175.843C143.82,175.59 143.82,175.179 144.073,174.925L148.897,170.084C149.15,169.83 149.562,169.829 149.816,170.082C150.07,170.336 150.071,170.747 149.817,171.001L144.993,175.842C144.866,175.969 144.7,176.033 144.533,176.033Z" style="fill:rgb(3,4,4);fill-rule:nonzero;"/>
        </g>
        <g transform="matrix(0.520833,0,0,0.520833,499.522,573.293)">
            <g transform="matrix(1,0,0,1,-256,-256)">
                <path d="M256,368C261.843,368.001 267.49,370.135 271.872,374L282.456,362C275.151,355.558 265.739,352 255.998,352C234.055,352 215.998,370.057 215.998,392C215.998,413.943 234.055,432 255.998,432C265.739,432 275.151,428.442 282.456,422L271.872,410C267.489,413.865 261.842,416 255.997,416C242.831,416 231.997,405.166 231.997,392C231.997,378.834 242.831,368 255.997,368C255.998,368 255.999,368 256,368Z" style="fill-rule:nonzero;"/>
                <path d="M307.928,371L322.76,365C311.781,337.858 285.292,320 256.014,320C216.516,320 184.014,352.502 184.014,392C184.014,431.498 216.516,464 256.014,464C285.292,464 311.781,446.142 322.76,419L307.928,413C299.389,434.11 278.786,448 256.015,448C225.294,448 200.015,422.721 200.015,392C200.015,361.279 225.294,336 256.015,336C278.786,336 299.389,349.89 307.928,371Z" style="fill-rule:nonzero;"/>
                <path d="M488,360L424,360C421.879,360 419.843,360.844 418.344,362.344L396.688,384L256,384L256,400L396.688,400L418.344,421.656C419.843,423.156 421.879,424 424,424L488,424C492.389,424 496,420.389 496,416L496,368C496,363.611 492.389,360 488,360ZM480,408L427.312,408L411.312,392L427.312,376L480,376L480,408Z" style="fill-rule:nonzero;"/>
                <rect x="80" y="296" width="16" height="48" style="fill-rule:nonzero;"/>
                <path d="M464,344L464,280.96C463.997,262.666 451.444,246.594 433.696,242.16L400,233.752L400,228.568C410.057,221.7 416.061,210.258 416,198.08L416,152C416,125.668 394.332,104 368,104C341.668,104 320,125.668 320,152L320,161.752L288,153.752L288,148.552C298.028,141.698 304.028,130.298 304,118.152L304,72C304,45.668 282.332,24 256,24C229.668,24 208,45.668 208,72L208,118.112C207.959,130.272 213.961,141.69 224,148.552L224,153.752L192,161.752L192,152C192,125.668 170.332,104 144,104C117.668,104 96,125.668 96,152L96,198.08C95.939,210.258 101.943,221.7 112,228.568L112,233.752L78.28,242.168C60.544,246.611 48.004,262.676 48,280.96L48,344L64,344L64,280.96C64.005,269.989 71.532,260.35 82.176,257.688L121.936,247.768C125.49,246.882 128.003,243.663 128,240L128,224C128.012,220.953 126.282,218.153 123.552,216.8C116.458,213.279 111.966,206 112,198.08L112,152C112,134.445 126.445,120 144,120C161.555,120 176,134.445 176,152L176,198.08C176.034,206 171.542,213.279 164.448,216.8C161.718,218.153 159.988,220.953 160,224L160,240C159.997,243.663 162.51,246.882 166.064,247.768L205.8,257.68C216.179,260.301 223.63,269.533 224,280.232L240,279.768C239.392,261.945 226.996,246.557 209.712,242.168L176,233.752L176,228.568C186.057,221.7 192.061,210.258 192,198.08L192,178.568C192.744,178.304 193.408,177.888 194.176,177.696L233.936,167.76C237.487,166.874 239.999,163.66 240,160L240,144C240.001,140.973 238.284,138.193 235.576,136.84C228.47,133.324 223.968,126.04 224,118.112L224,72C224,54.445 238.445,40 256,40C273.555,40 288,54.445 288,72L288,118.112C288.032,126.04 283.53,133.324 276.424,136.84C273.716,138.193 271.999,140.973 272,144L272,160C272.001,163.66 274.513,166.874 278.064,167.76L317.816,177.696C318.56,177.88 319.28,178.152 320,178.408L320,198.08C319.939,210.258 325.943,221.7 336,228.568L336,233.752L302.28,242.168C284.997,246.558 272.604,261.947 272,279.768L288,280.232C288.366,269.547 295.798,260.321 306.16,257.688L345.92,247.768C349.48,246.888 352.001,243.667 352,240L352,224C352.012,220.953 350.282,218.153 347.552,216.8C340.458,213.279 335.966,206 336,198.08L336,152C336,134.445 350.445,120 368,120C385.555,120 400,134.445 400,152L400,198.08C400.034,206 395.542,213.279 388.448,216.8C385.718,218.153 383.988,220.953 384,224L384,240C383.997,243.663 386.51,246.882 390.064,247.768L429.8,257.68C440.456,260.334 447.996,269.979 448,280.96L448,344L464,344Z" style="fill-rule:nonzero;"/>
                <rect x="416" y="296" width="16" height="48" style="fill-rule:nonzero;"/>
                <path d="M19.384,398.528L51.384,421.16C54.144,423.11 57.856,423.11 60.616,421.16L90.544,400L152.408,400C156.55,453.87 202.033,495.99 256.062,495.99C303.326,495.99 344.925,463.758 356.728,417.992L341.224,413.992C331.224,452.721 296.017,479.992 256.018,479.992C207.743,479.992 168.018,440.267 168.018,391.992C168.018,343.717 207.743,303.992 256.018,303.992C296.017,303.992 331.224,331.263 341.224,369.992L356.728,365.992C344.923,320.228 303.325,287.998 256.063,287.998C202.029,287.998 156.544,330.125 152.408,384L90.544,384L60.616,362.84C57.856,360.89 54.144,360.89 51.384,362.84L19.384,385.472C17.269,386.971 16.008,389.408 16.008,392C16.008,394.592 17.269,397.029 19.384,398.528ZM56,379.2L74.144,392L56,404.8L37.856,392L56,379.2Z" style="fill-rule:nonzero;"/>
            </g>
        </g>
    </g>
    <defs>
        <linearGradient id="_Linear1" x1="0" y1="0" x2="1" y2="0" gradientUnits="userSpaceOnUse" gradientTransform="matrix(-115.333,118.667,-118.667,-115.333,187.482,106.517)"><stop offset="0" style="stop-color:rgb(243,130,157);stop-opacity:1"/><stop offset="1" style="stop-color:rgb(237,37,145);stop-opacity:1"/></linearGradient>
        <linearGradient id="_Linear2" x1="0" y1="0" x2="1" y2="0" gradientUnits="userSpaceOnUse" gradientTransform="matrix(-115.333,118.667,-118.667,-115.333,190.706,109.651)"><stop offset="0" style="stop-color:rgb(243,130,157);stop-opacity:1"/><stop offset="1" style="stop-color:rgb(237,37,145);stop-opacity:1"/></linearGradient>
        <linearGradient id="_Linear3" x1="0" y1="0" x2="1" y2="0" gradientUnits="userSpaceOnUse" gradientTransform="matrix(-115.333,118.667,-118.667,-115.333,193.93,112.784)"><stop offset="0" style="stop-color:rgb(243,130,157);stop-opacity:1"/><stop offset="1" style="stop-color:rgb(237,37,145);stop-opacity:1"/></linearGradient>
        <linearGradient id="_Linear4" x1="0" y1="0" x2="1" y2="0" gradientUnits="userSpaceOnUse" gradientTransform="matrix(-115.333,118.667,-118.667,-115.333,168.137,87.7156)"><stop offset="0" style="stop-color:rgb(243,130,157);stop-opacity:1"/><stop offset="1" style="stop-color:rgb(237,37,145);stop-opacity:1"/></linearGradient>
        <linearGradient id="_Linear5" x1="0" y1="0" x2="1" y2="0" gradientUnits="userSpaceOnUse" gradientTransform="matrix(-115.333,118.667,-118.667,-115.333,197.155,115.918)"><stop offset="0" style="stop-color:rgb(243,130,157);stop-opacity:1"/><stop offset="1" style="stop-color:rgb(237,37,145);stop-opacity:1"/></linearGradient>
        <linearGradient id="_Linear6" x1="0" y1="0" x2="1" y2="0" gradientUnits="userSpaceOnUse" gradientTransform="matrix(-115.333,118.667,-118.667,-115.333,181.034,100.25)"><stop offset="0" style="stop-color:rgb(243,130,157);stop-opacity:1"/><stop offset="1" style="stop-color:rgb(237,37,145);stop-opacity:1"/></linearGradient>
        <linearGradient id="_Linear7" x1="0" y1="0" x2="1" y2="0" gradientUnits="userSpaceOnUse" gradientTransform="matrix(-115.333,118.667,-118.667,-115.333,171.361,90.8492)"><stop offset="0" style="stop-color:rgb(243,130,157);stop-opacity:1"/><stop offset="1" style="stop-color:rgb(237,37,145);stop-opacity:1"/></linearGradient>
        <linearGradient id="_Linear8" x1="0" y1="0" x2="1" y2="0" gradientUnits="userSpaceOnUse" gradientTransform="matrix(-115.333,118.667,-118.667,-115.333,174.585,93.9828)"><stop offset="0" style="stop-color:rgb(243,130,157);stop-opacity:1"/><stop offset="1" style="stop-color:rgb(237,37,145);stop-opacity:1"/></linearGradient>
        <linearGradient id="_Linear9" x1="0" y1="0" x2="1" y2="0" gradientUnits="userSpaceOnUse" gradientTransform="matrix(-115.333,118.667,-118.667,-115.333,177.81,97.1164)"><stop offset="0" style="stop-color:rgb(243,130,157);stop-opacity:1"/><stop offset="1" style="stop-color:rgb(237,37,145);stop-opacity:1"/></linearGradient>
        <linearGradient id="_Linear10" x1="0" y1="0" x2="1" y2="0" gradientUnits="userSpaceOnUse" gradientTransform="matrix(-115.333,118.667,-118.667,-115.333,184.258,103.384)"><stop offset="0" style="stop-color:rgb(243,130,157);stop-opacity:1"/><stop offset="1" style="stop-color:rgb(237,37,145);stop-opacity:1"/></linearGradient>
        <linearGradient id="_Linear11" x1="0" y1="0" x2="1" y2="0" gradientUnits="userSpaceOnUse" gradientTransform="matrix(-115.333,118.667,-118.667,-115.333,216.5,134.72)"><stop offset="0" style="stop-color:rgb(243,130,157);stop-opacity:1"/><stop offset="1" style="stop-color:rgb(237,37,145);stop-opacity:1"/></linearGradient>
        <linearGradient id="_Linear12" x1="0" y1="0" x2="1" y2="0" gradientUnits="userSpaceOnUse" gradientTransform="matrix(-115.333,118.667,-118.667,-115.333,226.172,144.121)"><stop offset="0" style="stop-color:rgb(243,130,157);stop-opacity:1"/><stop offset="1" style="stop-color:rgb(237,37,145);stop-opacity:1"/></linearGradient>
        <linearGradient id="_Linear13" x1="0" y1="0" x2="1" y2="0" gradientUnits="userSpaceOnUse" gradientTransform="matrix(-115.333,118.667,-118.667,-115.333,219.724,137.853)"><stop offset="0" style="stop-color:rgb(243,130,157);stop-opacity:1"/><stop offset="1" style="stop-color:rgb(237,37,145);stop-opacity:1"/></linearGradient>
        <linearGradient id="_Linear14" x1="0" y1="0" x2="1" y2="0" gradientUnits="userSpaceOnUse" gradientTransform="matrix(-115.333,118.667,-118.667,-115.333,222.948,140.987)"><stop offset="0" style="stop-color:rgb(243,130,157);stop-opacity:1"/><stop offset="1" style="stop-color:rgb(237,37,145);stop-opacity:1"/></linearGradient>
        <linearGradient id="_Linear15" x1="0" y1="0" x2="1" y2="0" gradientUnits="userSpaceOnUse" gradientTransform="matrix(-115.333,118.667,-118.667,-115.333,200.379,119.052)"><stop offset="0" style="stop-color:rgb(243,130,157);stop-opacity:1"/><stop offset="1" style="stop-color:rgb(237,37,145);stop-opacity:1"/></linearGradient>
        <linearGradient id="_Linear16" x1="0" y1="0" x2="1" y2="0" gradientUnits="userSpaceOnUse" gradientTransform="matrix(-115.333,118.667,-118.667,-115.333,203.603,122.185)"><stop offset="0" style="stop-color:rgb(243,130,157);stop-opacity:1"/><stop offset="1" style="stop-color:rgb(237,37,145);stop-opacity:1"/></linearGradient>
        <linearGradient id="_Linear17" x1="0" y1="0" x2="1" y2="0" gradientUnits="userSpaceOnUse" gradientTransform="matrix(-115.333,118.667,-118.667,-115.333,206.827,125.319)"><stop offset="0" style="stop-color:rgb(243,130,157);stop-opacity:1"/><stop offset="1" style="stop-color:rgb(237,37,145);stop-opacity:1"/></linearGradient>
        <linearGradient id="_Linear18" x1="0" y1="0" x2="1" y2="0" gradientUnits="userSpaceOnUse" gradientTransform="matrix(-115.333,118.667,-118.667,-115.333,210.051,128.453)"><stop offset="0" style="stop-color:rgb(243,130,157);stop-opacity:1"/><stop offset="1" style="stop-color:rgb(237,37,145);stop-opacity:1"/></linearGradient>
        <linearGradient id="_Linear19" x1="0" y1="0" x2="1" y2="0" gradientUnits="userSpaceOnUse" gradientTransform="matrix(-115.333,118.667,-118.667,-115.333,213.276,131.586)"><stop offset="0" style="stop-color:rgb(243,130,157);stop-opacity:1"/><stop offset="1" style="stop-color:rgb(237,37,145);stop-opacity:1"/></linearGradient>
        <linearGradient id="_Linear20" x1="0" y1="0" x2="1" y2="0" gradientUnits="userSpaceOnUse" gradientTransform="matrix(-115.333,118.667,-118.667,-115.333,142.357,62.6601)"><stop offset="0" style="stop-color:rgb(243,130,157);stop-opacity:1"/><stop offset="1" style="stop-color:rgb(237,37,145);stop-opacity:1"/></linearGradient>
        <linearGradient id="_Linear21" x1="0" y1="0" x2="1" y2="0" gradientUnits="userSpaceOnUse" gradientTransform="matrix(-115.333,118.667,-118.667,-115.333,123.012,43.8584)"><stop offset="0" style="stop-color:rgb(243,130,157);stop-opacity:1"/><stop offset="1" style="stop-color:rgb(237,37,145);stop-opacity:1"/></linearGradient>
        <linearGradient id="_Linear22" x1="0" y1="0" x2="1" y2="0" gradientUnits="userSpaceOnUse" gradientTransform="matrix(-115.333,118.667,-118.667,-115.333,119.788,40.7248)"><stop offset="0" style="stop-color:rgb(243,130,157);stop-opacity:1"/><stop offset="1" style="stop-color:rgb(237,37,145);stop-opacity:1"/></linearGradient>
        <linearGradient id="_Linear23" x1="0" y1="0" x2="1" y2="0" gradientUnits="userSpaceOnUse" gradientTransform="matrix(-115.333,118.667,-118.667,-115.333,126.236,46.992)"><stop offset="0" style="stop-color:rgb(243,130,157);stop-opacity:1"/><stop offset="1" style="stop-color:rgb(237,37,145);stop-opacity:1"/></linearGradient>
        <linearGradient id="_Linear24" x1="0" y1="0" x2="1" y2="0" gradientUnits="userSpaceOnUse" gradientTransform="matrix(-115.333,118.667,-118.667,-115.333,129.461,50.1256)"><stop offset="0" style="stop-color:rgb(243,130,157);stop-opacity:1"/><stop offset="1" style="stop-color:rgb(237,37,145);stop-opacity:1"/></linearGradient>
        <linearGradient id="_Linear25" x1="0" y1="0" x2="1" y2="0" gradientUnits="userSpaceOnUse" gradientTransform="matrix(-115.333,118.667,-118.667,-115.333,132.685,53.2592)"><stop offset="0" style="stop-color:rgb(243,130,157);stop-opacity:1"/><stop offset="1" style="stop-color:rgb(237,37,145);stop-opacity:1"/></linearGradient>
        <linearGradient id="_Linear26" x1="0" y1="0" x2="1" y2="0" gradientUnits="userSpaceOnUse" gradientTransform="matrix(-115.333,118.667,-118.667,-115.333,106.891,28.1903)"><stop offset="0" style="stop-color:rgb(243,130,157);stop-opacity:1"/><stop offset="1" style="stop-color:rgb(237,37,145);stop-opacity:1"/></linearGradient>
        <linearGradient id="_Linear27" x1="0" y1="0" x2="1" y2="0" gradientUnits="userSpaceOnUse" gradientTransform="matrix(-115.333,118.667,-118.667,-115.333,110.116,31.3239)"><stop offset="0" style="stop-color:rgb(243,130,157);stop-opacity:1"/><stop offset="1" style="stop-color:rgb(237,37,145);stop-opacity:1"/></linearGradient>
        <linearGradient id="_Linear28" x1="0" y1="0" x2="1" y2="0" gradientUnits="userSpaceOnUse" gradientTransform="matrix(-115.333,118.667,-118.667,-115.333,116.564,37.5912)"><stop offset="0" style="stop-color:rgb(243,130,157);stop-opacity:1"/><stop offset="1" style="stop-color:rgb(237,37,145);stop-opacity:1"/></linearGradient>
        <linearGradient id="_Linear29" x1="0" y1="0" x2="1" y2="0" gradientUnits="userSpaceOnUse" gradientTransform="matrix(-115.333,118.667,-118.667,-115.333,113.34,34.4576)"><stop offset="0" style="stop-color:rgb(243,130,157);stop-opacity:1"/><stop offset="1" style="stop-color:rgb(237,37,145);stop-opacity:1"/></linearGradient>
        <linearGradient id="_Linear30" x1="0" y1="0" x2="1" y2="0" gradientUnits="userSpaceOnUse" gradientTransform="matrix(-115.333,118.667,-118.667,-115.333,148.806,68.9273)"><stop offset="0" style="stop-color:rgb(243,130,157);stop-opacity:1"/><stop offset="1" style="stop-color:rgb(237,37,145);stop-opacity:1"/></linearGradient>
        <linearGradient id="_Linear31" x1="0" y1="0" x2="1" y2="0" gradientUnits="userSpaceOnUse" gradientTransform="matrix(-115.333,118.667,-118.667,-115.333,158.478,78.3281)"><stop offset="0" style="stop-color:rgb(243,130,157);stop-opacity:1"/><stop offset="1" style="stop-color:rgb(237,37,145);stop-opacity:1"/></linearGradient>
        <linearGradient id="_Linear32" x1="0" y1="0" x2="1" y2="0" gradientUnits="userSpaceOnUse" gradientTransform="matrix(-115.333,118.667,-118.667,-115.333,152.03,72.0609)"><stop offset="0" style="stop-color:rgb(243,130,157);stop-opacity:1"/><stop offset="1" style="stop-color:rgb(237,37,145);stop-opacity:1"/></linearGradient>
        <linearGradient id="_Linear33" x1="0" y1="0" x2="1" y2="0" gradientUnits="userSpaceOnUse" gradientTransform="matrix(-115.333,118.667,-118.667,-115.333,155.254,75.1945)"><stop offset="0" style="stop-color:rgb(243,130,157);stop-opacity:1"/><stop offset="1" style="stop-color:rgb(237,37,145);stop-opacity:1"/></linearGradient>
        <linearGradient id="_Linear34" x1="0" y1="0" x2="1" y2="0" gradientUnits="userSpaceOnUse" gradientTransform="matrix(-115.333,118.667,-118.667,-115.333,161.702,81.4617)"><stop offset="0" style="stop-color:rgb(243,130,157);stop-opacity:1"/><stop offset="1" style="stop-color:rgb(237,37,145);stop-opacity:1"/></linearGradient>
        <linearGradient id="_Linear35" x1="0" y1="0" x2="1" y2="0" gradientUnits="userSpaceOnUse" gradientTransform="matrix(-115.333,118.667,-118.667,-115.333,139.133,59.5264)"><stop offset="0" style="stop-color:rgb(243,130,157);stop-opacity:1"/><stop offset="1" style="stop-color:rgb(237,37,145);stop-opacity:1"/></linearGradient>
        <linearGradient id="_Linear36" x1="0" y1="0" x2="1" y2="0" gradientUnits="userSpaceOnUse" gradientTransform="matrix(-115.333,118.667,-118.667,-115.333,228.939,146.81)"><stop offset="0" style="stop-color:rgb(243,130,157);stop-opacity:1"/><stop offset="1" style="stop-color:rgb(237,37,145);stop-opacity:1"/></linearGradient>
        <linearGradient id="_Linear37" x1="0" y1="0" x2="1" y2="0" gradientUnits="userSpaceOnUse" gradientTransform="matrix(-115.333,118.667,-118.667,-115.333,164.927,84.5954)"><stop offset="0" style="stop-color:rgb(243,130,157);stop-opacity:1"/><stop offset="1" style="stop-color:rgb(237,37,145);stop-opacity:1"/></linearGradient>
        <linearGradient id="_Linear38" x1="0" y1="0" x2="1" y2="0" gradientUnits="userSpaceOnUse" gradientTransform="matrix(-115.333,118.667,-118.667,-115.333,135.909,56.3928)"><stop offset="0" style="stop-color:rgb(243,130,157);stop-opacity:1"/><stop offset="1" style="stop-color:rgb(237,37,145);stop-opacity:1"/></linearGradient>
        <linearGradient id="_Linear39" x1="0" y1="0" x2="1" y2="0" gradientUnits="userSpaceOnUse" gradientTransform="matrix(-115.333,118.667,-118.667,-115.333,145.582,65.7937)"><stop offset="0" style="stop-color:rgb(243,130,157);stop-opacity:1"/><stop offset="1" style="stop-color:rgb(237,37,145);stop-opacity:1"/></linearGradient>
        <linearGradient id="_Linear40" x1="0" y1="0" x2="1" y2="0" gradientUnits="userSpaceOnUse" gradientTransform="matrix(-122,122,-122,-122,178.489,76.1554)"><stop offset="0" style="stop-color:rgb(243,130,157);stop-opacity:1"/><stop offset="1" style="stop-color:rgb(237,37,145);stop-opacity:1"/></linearGradient>
        <linearGradient id="_Linear41" x1="0" y1="0" x2="1" y2="0" gradientUnits="userSpaceOnUse" gradientTransform="matrix(118.778,0,0,118.778,65.5367,129.447)"><stop offset="0" style="stop-color:rgb(243,130,157);stop-opacity:1"/><stop offset="1" style="stop-color:rgb(237,37,145);stop-opacity:1"/></linearGradient>
    </defs>
</svg>
