<?xml version="1.0" encoding="UTF-8" standalone="no"?>
<!DOCTYPE svg PUBLIC "-//W3C//DTD SVG 1.1//EN" "http://www.w3.org/Graphics/SVG/1.1/DTD/svg11.dtd">
<svg width="100%" height="100%" viewBox="0 0 609 664" version="1.1" xmlns="http://www.w3.org/2000/svg" xmlns:xlink="http://www.w3.org/1999/xlink" xml:space="preserve" xmlns:serif="http://www.serif.com/" style="fill-rule:evenodd;clip-rule:evenodd;stroke-linejoin:round;stroke-miterlimit:2;">
    <g transform="matrix(1,0,0,1,-1640,-194)">
        <g transform="matrix(4.16667,0,0,4.16667,0,0)">
            <path d="M397.032,162.62C397.197,163.09 397.366,163.557 397.541,164.021L518.674,164.021C518.849,163.557 519.018,163.09 519.182,162.62L397.032,162.62Z" style="fill:url(#_Linear1);"/>
            <path d="M398.876,167.293C399.083,167.763 399.295,168.229 399.514,168.694L516.701,168.694C516.919,168.229 517.132,167.763 517.339,167.293L398.876,167.293Z" style="fill:url(#_Linear2);"/>
            <path d="M395.595,157.947C395.72,158.417 395.85,158.884 395.984,159.349L520.229,159.349C520.365,158.884 520.495,158.417 520.62,157.947L395.595,157.947Z" style="fill:url(#_Linear3);"/>
            <path d="M393.832,148.602C393.886,149.07 393.943,149.538 394.006,150.004L522.209,150.004C522.271,149.538 522.328,149.07 522.382,148.602L393.832,148.602Z" style="fill:url(#_Linear4);"/>
            <path d="M394.534,153.274C394.623,153.743 394.715,154.211 394.813,154.677L521.401,154.677C521.5,154.211 521.591,153.743 521.68,153.274L394.534,153.274Z" style="fill:url(#_Linear5);"/>
            <path d="M401.159,171.965C401.414,172.436 401.674,172.903 401.939,173.367L514.275,173.367C514.541,172.903 514.801,172.436 515.056,171.965L401.159,171.965Z" style="fill:url(#_Linear6);"/>
            <path d="M411.377,185.982C411.832,186.458 412.295,186.924 412.765,187.385L503.45,187.385C503.919,186.924 504.383,186.458 504.838,185.982L411.377,185.982Z" style="fill:url(#_Linear7);"/>
            <path d="M470.897,204.674L445.317,204.674C449.452,205.503 453.729,205.94 458.107,205.94C462.486,205.94 466.763,205.503 470.897,204.674Z" style="fill:url(#_Linear8);"/>
            <path d="M422.6,195.328C423.331,195.81 424.072,196.277 424.824,196.729L491.39,196.729C492.142,196.277 492.883,195.81 493.615,195.328L422.6,195.328Z" style="fill:url(#_Linear9);"/>
            <path d="M393.474,143.929C393.492,144.398 393.517,144.865 393.546,145.331L522.669,145.331C522.698,144.865 522.723,144.398 522.741,143.929L393.474,143.929Z" style="fill:url(#_Linear10);"/>
            <path d="M403.949,176.638C404.258,177.109 404.573,177.576 404.894,178.039L511.321,178.039C511.642,177.576 511.957,177.109 512.266,176.638L403.949,176.638Z" style="fill:url(#_Linear11);"/>
            <path d="M416.351,190.655C416.914,191.132 417.482,191.601 418.062,192.058L498.153,192.058C498.732,191.601 499.301,191.132 499.864,190.655L416.351,190.655Z" style="fill:url(#_Linear12);"/>
            <path d="M407.311,181.311C407.685,181.783 408.066,182.25 408.452,182.712L507.763,182.712C508.148,182.25 508.53,181.783 508.904,181.311L407.311,181.311Z" style="fill:url(#_Linear13);"/>
            <path d="M431.003,200.001C432.074,200.496 433.16,200.965 434.263,201.402L481.952,201.402C483.055,200.965 484.141,200.496 485.212,200.001L431.003,200.001Z" style="fill:url(#_Linear14);"/>
            <path d="M415.543,92.531C415.019,92.99 414.503,93.458 413.993,93.933L502.222,93.933C501.712,93.458 501.196,92.99 500.672,92.531L415.543,92.531Z" style="fill:url(#_Linear15);"/>
            <path d="M410.728,97.204C410.298,97.665 409.875,98.132 409.46,98.605L506.755,98.605C506.34,98.132 505.916,97.665 505.487,97.204L410.728,97.204Z" style="fill:url(#_Linear16);"/>
            <path d="M393.447,139.257C393.433,139.723 393.426,140.19 393.421,140.659L522.794,140.659C522.789,140.19 522.781,139.723 522.768,139.257L393.447,139.257Z" style="fill:url(#_Linear17);"/>
            <path d="M403.499,106.548C403.204,107.012 402.915,107.479 402.632,107.95L513.581,107.95C513.299,107.479 513.011,107.012 512.716,106.548L403.499,106.548Z" style="fill:url(#_Linear18);"/>
            <path d="M442.255,78.513C440.637,78.921 439.042,79.388 437.475,79.915L478.74,79.915C477.173,79.388 475.578,78.921 473.96,78.513L442.255,78.513Z" style="fill:url(#_Linear19);"/>
            <path d="M421.566,87.858C420.902,88.314 420.246,88.781 419.6,89.26L496.615,89.26C495.969,88.781 495.313,88.314 494.647,87.858L421.566,87.858Z" style="fill:url(#_Linear20);"/>
            <path d="M429.552,83.186C428.645,83.633 427.749,84.1 426.866,84.588L489.349,84.588C488.466,84.1 487.57,83.633 486.663,83.186L429.552,83.186Z" style="fill:url(#_Linear21);"/>
            <path d="M406.774,101.876C406.42,102.338 406.07,102.806 405.728,103.278L510.487,103.278C510.145,102.806 509.795,102.338 509.439,101.876L406.774,101.876Z" style="fill:url(#_Linear22);"/>
            <path d="M394.405,129.912C394.322,130.377 394.245,130.844 394.173,131.313L522.042,131.313C521.969,130.844 521.892,130.377 521.81,129.912L394.405,129.912Z" style="fill:url(#_Linear23);"/>
            <path d="M393.753,134.584C393.706,135.05 393.665,135.518 393.628,135.986L522.586,135.986C522.55,135.518 522.508,135.05 522.461,134.584L393.753,134.584Z" style="fill:url(#_Linear24);"/>
            <path d="M395.411,125.239C395.293,125.705 395.178,126.171 395.069,126.641L521.146,126.641C521.037,126.171 520.922,125.705 520.804,125.239L395.411,125.239Z" style="fill:url(#_Linear25);"/>
            <path d="M396.791,120.566C396.634,121.031 396.481,121.499 396.336,121.968L519.879,121.968C519.732,121.499 519.581,121.031 519.424,120.566L396.791,120.566Z" style="fill:url(#_Linear26);"/>
            <path d="M398.572,115.894C398.375,116.358 398.183,116.826 397.995,117.295L518.219,117.295C518.031,116.826 517.84,116.358 517.642,115.894L398.572,115.894Z" style="fill:url(#_Linear27);"/>
            <path d="M400.794,111.221C400.551,111.685 400.313,112.152 400.08,112.623L516.135,112.623C515.901,112.152 515.664,111.685 515.421,111.221L400.794,111.221Z" style="fill:url(#_Linear28);"/>
            <path d="M531.635,134.751C531.635,170.48 502.67,199.445 466.941,199.445C431.212,199.445 402.247,170.48 402.247,134.751C402.247,99.022 431.212,70.058 466.941,70.058C502.67,70.058 531.635,99.022 531.635,134.751Z" style="fill:url(#_Linear29);"/>
            <path d="M472.657,66.031C437.343,66.031 408.613,94.761 408.613,130.075C408.613,165.389 437.343,194.119 472.657,194.119C507.971,194.119 536.701,165.389 536.701,130.075C536.701,94.761 507.971,66.031 472.657,66.031ZM472.657,195.418C455.203,195.418 438.794,188.621 426.452,176.279C414.11,163.938 407.313,147.528 407.313,130.075C407.313,112.621 414.11,96.212 426.452,83.871C438.794,71.529 455.203,64.732 472.657,64.732C490.11,64.732 506.52,71.529 518.861,83.871C531.203,96.212 538,112.621 538,130.075C538,147.528 531.203,163.938 518.861,176.279C506.52,188.621 490.11,195.418 472.657,195.418Z" style="fill:url(#_Linear30);"/>
            <path d="M520.252,85.459C519.893,85.459 519.603,85.75 519.603,86.109L519.603,88.101C519.603,88.46 519.893,88.75 520.252,88.75C520.611,88.75 520.901,88.46 520.901,88.101L520.901,86.109C520.901,85.75 520.611,85.459 520.252,85.459Z" style="fill:rgb(25,25,25);fill-rule:nonzero;"/>
            <path d="M520.252,92.338C519.893,92.338 519.603,92.628 519.603,92.987L519.603,95.26C519.603,95.619 519.893,95.91 520.252,95.91C520.611,95.91 520.901,95.619 520.901,95.26L520.901,92.987C520.901,92.628 520.611,92.338 520.252,92.338Z" style="fill:rgb(25,25,25);fill-rule:nonzero;"/>
            <path d="M522.551,90.047C522.658,90.047 522.768,90.02 522.867,89.964L524.563,89.016C524.875,88.84 524.986,88.444 524.812,88.131C524.636,87.818 524.241,87.707 523.927,87.882L522.232,88.831C521.919,89.006 521.809,89.402 521.982,89.715C522.103,89.927 522.323,90.047 522.551,90.047Z" style="fill:rgb(25,25,25);fill-rule:nonzero;"/>
            <path d="M517.926,91.243L515.942,92.353C515.63,92.529 515.518,92.925 515.693,93.238C515.813,93.45 516.033,93.57 516.261,93.57C516.367,93.57 516.478,93.543 516.577,93.487L518.56,92.376C518.874,92.201 518.985,91.805 518.81,91.492C518.635,91.18 518.239,91.067 517.926,91.243Z" style="fill:rgb(25,25,25);fill-rule:nonzero;"/>
            <path d="M516.026,88.924L517.8,90.03C517.906,90.097 518.025,90.129 518.143,90.129C518.359,90.129 518.57,90.02 518.693,89.823C518.885,89.519 518.792,89.118 518.487,88.928L516.714,87.822C516.409,87.632 516.008,87.725 515.818,88.029C515.629,88.333 515.722,88.734 516.026,88.924Z" style="fill:rgb(25,25,25);fill-rule:nonzero;"/>
            <path d="M524.479,92.665L522.664,91.534C522.36,91.344 521.96,91.437 521.77,91.741C521.58,92.045 521.672,92.446 521.978,92.636L523.791,93.768C523.896,93.834 524.017,93.866 524.133,93.866C524.351,93.866 524.563,93.758 524.686,93.561C524.876,93.256 524.783,92.855 524.479,92.665Z" style="fill:rgb(25,25,25);fill-rule:nonzero;"/>
            <path d="M420.792,109.362C419.467,109.362 418.389,108.284 418.389,106.958C418.389,105.633 419.467,104.555 420.792,104.555C422.117,104.555 423.195,105.633 423.195,106.958C423.195,108.284 422.117,109.362 420.792,109.362ZM420.792,103.256C418.751,103.256 417.09,104.917 417.09,106.958C417.09,109 418.751,110.661 420.792,110.661C422.834,110.661 424.494,109 424.494,106.958C424.494,104.917 422.834,103.256 420.792,103.256Z" style="fill:rgb(25,25,25);fill-rule:nonzero;"/>
            <path d="M485.887,174.369L487.791,172.459C488.044,172.205 488.043,171.794 487.789,171.54C487.535,171.287 487.124,171.288 486.87,171.542L484.97,173.449L483.069,171.542C482.816,171.288 482.405,171.287 482.15,171.54C481.896,171.794 481.896,172.205 482.149,172.459L484.053,174.369L482.046,176.383C481.793,176.637 481.794,177.048 482.048,177.301C482.175,177.428 482.341,177.49 482.507,177.49C482.673,177.49 482.84,177.427 482.967,177.3L484.97,175.289L486.974,177.3C487.101,177.427 487.267,177.49 487.434,177.49C487.6,177.49 487.766,177.428 487.892,177.301C488.146,177.048 488.146,176.637 487.894,176.383L485.887,174.369Z" style="fill:rgb(25,25,25);fill-rule:nonzero;"/>
        </g>
        <g transform="matrix(0.520833,0,0,0.520833,1957.12,568.008)">
            <g transform="matrix(1,0,0,1,-256,-256)">
                <path d="M328,288C332.389,288 336,284.389 336,280C336,275.611 332.389,272 328,272L320,272L320,240C320,231.223 312.777,224 304,224L264,224C259.611,224 256,227.611 256,232C256,236.389 259.611,240 264,240L304,240L304,272C304,280.777 311.223,288 320,288L328,288Z" style="fill-rule:nonzero;"/>
                <path d="M376,224L344,224C339.611,224 336,227.611 336,232C336,236.389 339.611,240 344,240L376,240C380.389,240 384,236.389 384,232C384,227.611 380.389,224 376,224Z" style="fill-rule:nonzero;"/>
                <path d="M488,161.28C488.003,155.008 487.446,148.749 486.336,142.576L470.584,145.424C471.527,150.657 472.001,155.963 472,161.28L488,161.28Z" style="fill-rule:nonzero;"/>
                <path d="M382.72,56L328,56L328,72L382.72,72C420.137,72.093 453.731,95.615 466.616,130.744L481.648,125.256C466.441,83.845 426.835,56.118 382.72,56Z" style="fill-rule:nonzero;"/>
                <path d="M344,328L328,328C323.611,328 320,331.611 320,336C320,340.389 323.611,344 328,344L344,344C348.389,344 352,340.389 352,336C352,331.611 348.389,328 344,328Z" style="fill-rule:nonzero;"/>
                <circle cx="360" cy="256" r="8"/>
                <circle cx="280" cy="256" r="8"/>
                <path d="M208,208C212.389,208 216,204.389 216,200L216,176L224,176C241.555,176 256,161.555 256,144L256,48C256,30.445 241.555,16 224,16L56,16C38.445,16 24,30.445 24,48L24,144C24,161.555 38.445,176 56,176L157.6,176L203.584,206.656C204.892,207.528 206.428,207.996 208,208ZM200,168L200,185.056L164.44,161.344C163.124,160.47 161.58,160.002 160,160L56,160C47.223,160 40,152.777 40,144L40,48C40,39.223 47.223,32 56,32L224,32C232.777,32 240,39.223 240,48L240,144C240,152.777 232.777,160 224,160L208,160C203.611,160 200,163.611 200,168Z" style="fill-rule:nonzero;"/>
                <rect x="64" y="56" width="16" height="16" style="fill-rule:nonzero;"/>
                <rect x="96" y="56" width="120" height="16" style="fill-rule:nonzero;"/>
                <rect x="64" y="88" width="152" height="16" style="fill-rule:nonzero;"/>
                <rect x="64" y="120" width="152" height="16" style="fill-rule:nonzero;"/>
                <path d="M443.104,327.368C451.39,312.946 455.831,296.632 456,280C473.555,280 488,265.555 488,248C488,230.445 473.555,216 456,216L456,161.28C455.956,121.096 422.904,88.044 382.72,88L305.28,88C292.144,88.014 279.248,91.545 267.936,98.224L276.064,112C284.913,106.772 295.002,104.01 305.28,104L382.72,104C414.13,104.035 439.965,129.87 440,161.28L440,216C431.223,216 424,208.777 424,200C424,195.611 420.389,192 416,192C415.984,192 415.968,192 415.952,192C402.812,192 392,181.188 392,168.048C392,168.032 392,168.016 392,168C392,163.611 388.389,160 384,160C379.611,160 376,163.611 376,168L376,192C354.072,191.961 336.039,173.928 336,152C336,147.611 332.389,144 328,144C323.611,144 320,147.611 320,152C320.004,161.843 316.367,171.347 309.792,178.672C302.252,187.199 291.382,192.062 280,192L248,192L248,184L232,184L232,216C214.445,216 200,230.445 200,248C200,265.555 214.445,280 232,280C232.134,296.62 236.542,312.928 244.8,327.352C242.066,328.547 239.396,329.882 236.8,331.352C236.272,331.648 235.784,331.992 235.264,332.304C233.152,333.552 231.064,334.84 229.056,336.304C210.602,297.147 171.031,272.05 127.743,272.05C66.302,272.05 15.743,322.609 15.743,384.05C15.743,445.492 66.302,496.05 127.743,496.05C150.731,496.05 173.172,488.973 192,475.784L192,496L208,496L208,472L248,472L248,496L264,496L264,432L248,432L248,456L213.664,456C238.036,427.193 246.18,387.896 235.264,351.776C235.648,351.464 236.064,351.136 236.416,350.84C236.984,350.4 237.536,349.944 238.12,349.52C240.016,348.168 241.976,346.912 243.976,345.744C244.208,345.608 244.424,345.456 244.656,345.328C247.742,343.604 250.951,342.109 254.256,340.856C254.616,341.288 254.928,341.752 255.296,342.176C266.203,354.886 280.233,364.543 296,370.192L296,376C296,402.332 317.668,424 344,424C370.332,424 392,402.332 392,376L392,370.176C394.552,369.256 397.088,368.256 399.576,367.12C412.294,361.291 423.602,352.778 432.72,342.168C433.104,341.72 433.424,341.232 433.8,340.784C461.472,351.566 479.848,378.302 480,408L480,456L440,456L440,432L424,432L424,496L440,496L440,472L480,472L480,496L496,496L496,408C495.804,373.109 475.03,341.443 443.104,327.368ZM220.704,259.304C217.71,256.305 216.027,252.237 216.027,248C216.027,239.233 223.233,232.015 232,232L232,264C227.758,264.007 223.684,262.315 220.696,259.304L220.704,259.304ZM128,288C132.135,288.028 136.264,288.325 140.36,288.888L136.904,313.072L94.688,320.112C92.506,320.468 90.568,321.718 89.344,323.56L75.416,344.464L38.88,348.52C53.389,312.101 88.797,288.056 128,288ZM35.84,410.656L70.64,400.712L89.28,413.136L103.624,456.176L98.192,475.2C68.071,465.281 44.713,441.102 35.84,410.656ZM113.8,478.832L119.696,458.192C120.139,456.644 120.1,454.997 119.584,453.472L103.584,405.472C103.024,403.785 101.917,402.332 100.44,401.344L76.44,385.344C74.487,384.051 72.064,383.671 69.808,384.304L32.664,394.92C31.474,385.004 31.885,374.962 33.88,365.176L80.88,359.952C83.228,359.692 85.345,358.405 86.656,356.44L100.736,335.32L145.312,327.888C148.741,327.319 151.425,324.577 151.92,321.136L156.056,292.208C174.956,298.042 191.604,309.565 203.72,325.2L190.264,328.184C187.308,328.843 184.97,331.125 184.24,334.064L177.136,362.496L132.424,384.84C129.194,386.453 127.437,390.063 128.16,393.6L136.16,433.6C136.555,435.594 137.701,437.362 139.36,438.536L177.76,465.976C162.784,475.145 145.56,479.999 128,480C123.244,479.961 118.498,479.57 113.8,478.832ZM191.32,456L151.2,427.328L145.024,396.424L187.576,375.2C189.666,374.154 191.196,372.244 191.76,369.976L198.56,342.776L212.96,339.576C233.504,378.58 224.507,426.983 191.32,456ZM344,408C326.445,408 312,393.555 312,376L312,374.448C317.57,375.465 323.218,375.984 328.88,376L359.12,376C364.781,375.984 370.43,375.467 376,374.456L376,376C376,393.555 361.555,408 344,408ZM420.584,331.736C410.324,343.662 396.813,352.35 381.704,356.736C374.374,358.914 366.766,360.013 359.12,360L328.88,360C321.203,360.011 313.566,358.903 306.208,356.712C291.122,352.353 277.637,343.672 267.424,331.744C261.178,324.487 256.298,316.158 253.024,307.16C249.704,298.184 248.003,288.69 248,279.12L248,208L280,208C299.624,207.987 317.866,197.677 328,180.872C338.201,197.609 356.4,207.895 376,208L384,208C388.389,208 392,204.389 392,200C396.967,203.73 402.736,206.25 408.848,207.36C412.279,221.737 425.22,231.973 440,232L456,232C464.777,232 472,239.223 472,248C472,256.777 464.777,264 456,264L448,264C443.611,264 440,267.611 440,272L440,279.12C439.999,298.406 433.111,317.072 420.584,331.736Z" style="fill-rule:nonzero;"/>
                <path d="M26.008,282.352L37.336,293.648C72.837,258.067 126.125,246.512 173.176,264.192L178.824,249.224C125.9,229.331 65.957,242.327 26.024,282.352L26.008,282.352Z" style="fill-rule:nonzero;"/>
            </g>
        </g>
    </g>
    <defs>
        <linearGradient id="_Linear1" x1="0" y1="0" x2="1" y2="0" gradientUnits="userSpaceOnUse" gradientTransform="matrix(-79.3333,102,-102,-79.3333,507.136,99.9574)"><stop offset="0" style="stop-color:rgb(134,212,235);stop-opacity:1"/><stop offset="0.3" style="stop-color:rgb(106,204,224);stop-opacity:1"/><stop offset="0.5" style="stop-color:rgb(108,170,220);stop-opacity:1"/><stop offset="0.9" style="stop-color:rgb(100,105,176);stop-opacity:1"/><stop offset="1" style="stop-color:rgb(98,97,171);stop-opacity:1"/></linearGradient>
        <linearGradient id="_Linear2" x1="0" y1="0" x2="1" y2="0" gradientUnits="userSpaceOnUse" gradientTransform="matrix(-79.3333,102,-102,-79.3333,509.36,101.687)"><stop offset="0" style="stop-color:rgb(134,212,235);stop-opacity:1"/><stop offset="0.3" style="stop-color:rgb(106,204,224);stop-opacity:1"/><stop offset="0.5" style="stop-color:rgb(108,170,220);stop-opacity:1"/><stop offset="0.9" style="stop-color:rgb(100,105,176);stop-opacity:1"/><stop offset="1" style="stop-color:rgb(98,97,171);stop-opacity:1"/></linearGradient>
        <linearGradient id="_Linear3" x1="0" y1="0" x2="1" y2="0" gradientUnits="userSpaceOnUse" gradientTransform="matrix(-79.3333,102,-102,-79.3333,504.908,98.2249)"><stop offset="0" style="stop-color:rgb(134,212,235);stop-opacity:1"/><stop offset="0.3" style="stop-color:rgb(106,204,224);stop-opacity:1"/><stop offset="0.5" style="stop-color:rgb(108,170,220);stop-opacity:1"/><stop offset="0.9" style="stop-color:rgb(100,105,176);stop-opacity:1"/><stop offset="1" style="stop-color:rgb(98,97,171);stop-opacity:1"/></linearGradient>
        <linearGradient id="_Linear4" x1="0" y1="0" x2="1" y2="0" gradientUnits="userSpaceOnUse" gradientTransform="matrix(-79.3333,102,-102,-79.3333,500.447,94.7549)"><stop offset="0" style="stop-color:rgb(134,212,235);stop-opacity:1"/><stop offset="0.3" style="stop-color:rgb(106,204,224);stop-opacity:1"/><stop offset="0.5" style="stop-color:rgb(108,170,220);stop-opacity:1"/><stop offset="0.9" style="stop-color:rgb(100,105,176);stop-opacity:1"/><stop offset="1" style="stop-color:rgb(98,97,171);stop-opacity:1"/></linearGradient>
        <linearGradient id="_Linear5" x1="0" y1="0" x2="1" y2="0" gradientUnits="userSpaceOnUse" gradientTransform="matrix(-79.3333,102,-102,-79.3333,502.678,96.4906)"><stop offset="0" style="stop-color:rgb(134,212,235);stop-opacity:1"/><stop offset="0.3" style="stop-color:rgb(106,204,224);stop-opacity:1"/><stop offset="0.5" style="stop-color:rgb(108,170,220);stop-opacity:1"/><stop offset="0.9" style="stop-color:rgb(100,105,176);stop-opacity:1"/><stop offset="1" style="stop-color:rgb(98,97,171);stop-opacity:1"/></linearGradient>
        <linearGradient id="_Linear6" x1="0" y1="0" x2="1" y2="0" gradientUnits="userSpaceOnUse" gradientTransform="matrix(-79.3333,102,-102,-79.3333,511.58,103.414)"><stop offset="0" style="stop-color:rgb(134,212,235);stop-opacity:1"/><stop offset="0.3" style="stop-color:rgb(106,204,224);stop-opacity:1"/><stop offset="0.5" style="stop-color:rgb(108,170,220);stop-opacity:1"/><stop offset="0.9" style="stop-color:rgb(100,105,176);stop-opacity:1"/><stop offset="1" style="stop-color:rgb(98,97,171);stop-opacity:1"/></linearGradient>
        <linearGradient id="_Linear7" x1="0" y1="0" x2="1" y2="0" gradientUnits="userSpaceOnUse" gradientTransform="matrix(-79.3333,102,-102,-79.3333,518.277,108.622)"><stop offset="0" style="stop-color:rgb(134,212,235);stop-opacity:1"/><stop offset="0.3" style="stop-color:rgb(106,204,224);stop-opacity:1"/><stop offset="0.5" style="stop-color:rgb(108,170,220);stop-opacity:1"/><stop offset="0.9" style="stop-color:rgb(100,105,176);stop-opacity:1"/><stop offset="1" style="stop-color:rgb(98,97,171);stop-opacity:1"/></linearGradient>
        <linearGradient id="_Linear8" x1="0" y1="0" x2="1" y2="0" gradientUnits="userSpaceOnUse" gradientTransform="matrix(-79.3333,102,-102,-79.3333,527.334,115.667)"><stop offset="0" style="stop-color:rgb(134,212,235);stop-opacity:1"/><stop offset="0.3" style="stop-color:rgb(106,204,224);stop-opacity:1"/><stop offset="0.5" style="stop-color:rgb(108,170,220);stop-opacity:1"/><stop offset="0.9" style="stop-color:rgb(100,105,176);stop-opacity:1"/><stop offset="1" style="stop-color:rgb(98,97,171);stop-opacity:1"/></linearGradient>
        <linearGradient id="_Linear9" x1="0" y1="0" x2="1" y2="0" gradientUnits="userSpaceOnUse" gradientTransform="matrix(-79.3333,102,-102,-79.3333,522.805,112.145)"><stop offset="0" style="stop-color:rgb(134,212,235);stop-opacity:1"/><stop offset="0.3" style="stop-color:rgb(106,204,224);stop-opacity:1"/><stop offset="0.5" style="stop-color:rgb(108,170,220);stop-opacity:1"/><stop offset="0.9" style="stop-color:rgb(100,105,176);stop-opacity:1"/><stop offset="1" style="stop-color:rgb(98,97,171);stop-opacity:1"/></linearGradient>
        <linearGradient id="_Linear10" x1="0" y1="0" x2="1" y2="0" gradientUnits="userSpaceOnUse" gradientTransform="matrix(-79.3333,102,-102,-79.3333,498.214,93.0182)"><stop offset="0" style="stop-color:rgb(134,212,235);stop-opacity:1"/><stop offset="0.3" style="stop-color:rgb(106,204,224);stop-opacity:1"/><stop offset="0.5" style="stop-color:rgb(108,170,220);stop-opacity:1"/><stop offset="0.9" style="stop-color:rgb(100,105,176);stop-opacity:1"/><stop offset="1" style="stop-color:rgb(98,97,171);stop-opacity:1"/></linearGradient>
        <linearGradient id="_Linear11" x1="0" y1="0" x2="1" y2="0" gradientUnits="userSpaceOnUse" gradientTransform="matrix(-79.3333,102,-102,-79.3333,513.793,105.135)"><stop offset="0" style="stop-color:rgb(134,212,235);stop-opacity:1"/><stop offset="0.3" style="stop-color:rgb(106,204,224);stop-opacity:1"/><stop offset="0.5" style="stop-color:rgb(108,170,220);stop-opacity:1"/><stop offset="0.9" style="stop-color:rgb(100,105,176);stop-opacity:1"/><stop offset="1" style="stop-color:rgb(98,97,171);stop-opacity:1"/></linearGradient>
        <linearGradient id="_Linear12" x1="0" y1="0" x2="1" y2="0" gradientUnits="userSpaceOnUse" gradientTransform="matrix(-79.3333,102,-102,-79.3333,520.541,110.384)"><stop offset="0" style="stop-color:rgb(134,212,235);stop-opacity:1"/><stop offset="0.3" style="stop-color:rgb(106,204,224);stop-opacity:1"/><stop offset="0.5" style="stop-color:rgb(108,170,220);stop-opacity:1"/><stop offset="0.9" style="stop-color:rgb(100,105,176);stop-opacity:1"/><stop offset="1" style="stop-color:rgb(98,97,171);stop-opacity:1"/></linearGradient>
        <linearGradient id="_Linear13" x1="0" y1="0" x2="1" y2="0" gradientUnits="userSpaceOnUse" gradientTransform="matrix(-79.3333,102,-102,-79.3333,516.012,106.861)"><stop offset="0" style="stop-color:rgb(134,212,235);stop-opacity:1"/><stop offset="0.3" style="stop-color:rgb(106,204,224);stop-opacity:1"/><stop offset="0.5" style="stop-color:rgb(108,170,220);stop-opacity:1"/><stop offset="0.9" style="stop-color:rgb(100,105,176);stop-opacity:1"/><stop offset="1" style="stop-color:rgb(98,97,171);stop-opacity:1"/></linearGradient>
        <linearGradient id="_Linear14" x1="0" y1="0" x2="1" y2="0" gradientUnits="userSpaceOnUse" gradientTransform="matrix(-79.3333,102,-102,-79.3333,525.07,113.906)"><stop offset="0" style="stop-color:rgb(134,212,235);stop-opacity:1"/><stop offset="0.3" style="stop-color:rgb(106,204,224);stop-opacity:1"/><stop offset="0.5" style="stop-color:rgb(108,170,220);stop-opacity:1"/><stop offset="0.9" style="stop-color:rgb(100,105,176);stop-opacity:1"/><stop offset="1" style="stop-color:rgb(98,97,171);stop-opacity:1"/></linearGradient>
        <linearGradient id="_Linear15" x1="0" y1="0" x2="1" y2="0" gradientUnits="userSpaceOnUse" gradientTransform="matrix(-79.3333,102,-102,-79.3333,473.667,73.9265)"><stop offset="0" style="stop-color:rgb(134,212,235);stop-opacity:1"/><stop offset="0.3" style="stop-color:rgb(106,204,224);stop-opacity:1"/><stop offset="0.5" style="stop-color:rgb(108,170,220);stop-opacity:1"/><stop offset="0.9" style="stop-color:rgb(100,105,176);stop-opacity:1"/><stop offset="1" style="stop-color:rgb(98,97,171);stop-opacity:1"/></linearGradient>
        <linearGradient id="_Linear16" x1="0" y1="0" x2="1" y2="0" gradientUnits="userSpaceOnUse" gradientTransform="matrix(-79.3333,102,-102,-79.3333,475.932,75.6878)"><stop offset="0" style="stop-color:rgb(134,212,235);stop-opacity:1"/><stop offset="0.3" style="stop-color:rgb(106,204,224);stop-opacity:1"/><stop offset="0.5" style="stop-color:rgb(108,170,220);stop-opacity:1"/><stop offset="0.9" style="stop-color:rgb(100,105,176);stop-opacity:1"/><stop offset="1" style="stop-color:rgb(98,97,171);stop-opacity:1"/></linearGradient>
        <linearGradient id="_Linear17" x1="0" y1="0" x2="1" y2="0" gradientUnits="userSpaceOnUse" gradientTransform="matrix(-79.3333,102,-102,-79.3333,495.98,91.2808)"><stop offset="0" style="stop-color:rgb(134,212,235);stop-opacity:1"/><stop offset="0.3" style="stop-color:rgb(106,204,224);stop-opacity:1"/><stop offset="0.5" style="stop-color:rgb(108,170,220);stop-opacity:1"/><stop offset="0.9" style="stop-color:rgb(100,105,176);stop-opacity:1"/><stop offset="1" style="stop-color:rgb(98,97,171);stop-opacity:1"/></linearGradient>
        <linearGradient id="_Linear18" x1="0" y1="0" x2="1" y2="0" gradientUnits="userSpaceOnUse" gradientTransform="matrix(-79.3333,102,-102,-79.3333,480.391,79.1561)"><stop offset="0" style="stop-color:rgb(134,212,235);stop-opacity:1"/><stop offset="0.3" style="stop-color:rgb(106,204,224);stop-opacity:1"/><stop offset="0.5" style="stop-color:rgb(108,170,220);stop-opacity:1"/><stop offset="0.9" style="stop-color:rgb(100,105,176);stop-opacity:1"/><stop offset="1" style="stop-color:rgb(98,97,171);stop-opacity:1"/></linearGradient>
        <linearGradient id="_Linear19" x1="0" y1="0" x2="1" y2="0" gradientUnits="userSpaceOnUse" gradientTransform="matrix(-79.3333,102,-102,-79.3333,466.874,68.6429)"><stop offset="0" style="stop-color:rgb(134,212,235);stop-opacity:1"/><stop offset="0.3" style="stop-color:rgb(106,204,224);stop-opacity:1"/><stop offset="0.5" style="stop-color:rgb(108,170,220);stop-opacity:1"/><stop offset="0.9" style="stop-color:rgb(100,105,176);stop-opacity:1"/><stop offset="1" style="stop-color:rgb(98,97,171);stop-opacity:1"/></linearGradient>
        <linearGradient id="_Linear20" x1="0" y1="0" x2="1" y2="0" gradientUnits="userSpaceOnUse" gradientTransform="matrix(-79.3333,102,-102,-79.3333,471.403,72.1653)"><stop offset="0" style="stop-color:rgb(134,212,235);stop-opacity:1"/><stop offset="0.3" style="stop-color:rgb(106,204,224);stop-opacity:1"/><stop offset="0.5" style="stop-color:rgb(108,170,220);stop-opacity:1"/><stop offset="0.9" style="stop-color:rgb(100,105,176);stop-opacity:1"/><stop offset="1" style="stop-color:rgb(98,97,171);stop-opacity:1"/></linearGradient>
        <linearGradient id="_Linear21" x1="0" y1="0" x2="1" y2="0" gradientUnits="userSpaceOnUse" gradientTransform="matrix(-79.3333,102,-102,-79.3333,469.139,70.4041)"><stop offset="0" style="stop-color:rgb(134,212,235);stop-opacity:1"/><stop offset="0.3" style="stop-color:rgb(106,204,224);stop-opacity:1"/><stop offset="0.5" style="stop-color:rgb(108,170,220);stop-opacity:1"/><stop offset="0.9" style="stop-color:rgb(100,105,176);stop-opacity:1"/><stop offset="1" style="stop-color:rgb(98,97,171);stop-opacity:1"/></linearGradient>
        <linearGradient id="_Linear22" x1="0" y1="0" x2="1" y2="0" gradientUnits="userSpaceOnUse" gradientTransform="matrix(-79.3333,102,-102,-79.3333,478.183,77.4386)"><stop offset="0" style="stop-color:rgb(134,212,235);stop-opacity:1"/><stop offset="0.3" style="stop-color:rgb(106,204,224);stop-opacity:1"/><stop offset="0.5" style="stop-color:rgb(108,170,220);stop-opacity:1"/><stop offset="0.9" style="stop-color:rgb(100,105,176);stop-opacity:1"/><stop offset="1" style="stop-color:rgb(98,97,171);stop-opacity:1"/></linearGradient>
        <linearGradient id="_Linear23" x1="0" y1="0" x2="1" y2="0" gradientUnits="userSpaceOnUse" gradientTransform="matrix(-79.3333,102,-102,-79.3333,491.516,87.8084)"><stop offset="0" style="stop-color:rgb(134,212,235);stop-opacity:1"/><stop offset="0.3" style="stop-color:rgb(106,204,224);stop-opacity:1"/><stop offset="0.5" style="stop-color:rgb(108,170,220);stop-opacity:1"/><stop offset="0.9" style="stop-color:rgb(100,105,176);stop-opacity:1"/><stop offset="1" style="stop-color:rgb(98,97,171);stop-opacity:1"/></linearGradient>
        <linearGradient id="_Linear24" x1="0" y1="0" x2="1" y2="0" gradientUnits="userSpaceOnUse" gradientTransform="matrix(-79.3333,102,-102,-79.3333,493.747,89.5438)"><stop offset="0" style="stop-color:rgb(134,212,235);stop-opacity:1"/><stop offset="0.3" style="stop-color:rgb(106,204,224);stop-opacity:1"/><stop offset="0.5" style="stop-color:rgb(108,170,220);stop-opacity:1"/><stop offset="0.9" style="stop-color:rgb(100,105,176);stop-opacity:1"/><stop offset="1" style="stop-color:rgb(98,97,171);stop-opacity:1"/></linearGradient>
        <linearGradient id="_Linear25" x1="0" y1="0" x2="1" y2="0" gradientUnits="userSpaceOnUse" gradientTransform="matrix(-79.3333,102,-102,-79.3333,489.285,86.0737)"><stop offset="0" style="stop-color:rgb(134,212,235);stop-opacity:1"/><stop offset="0.3" style="stop-color:rgb(106,204,224);stop-opacity:1"/><stop offset="0.5" style="stop-color:rgb(108,170,220);stop-opacity:1"/><stop offset="0.9" style="stop-color:rgb(100,105,176);stop-opacity:1"/><stop offset="1" style="stop-color:rgb(98,97,171);stop-opacity:1"/></linearGradient>
        <linearGradient id="_Linear26" x1="0" y1="0" x2="1" y2="0" gradientUnits="userSpaceOnUse" gradientTransform="matrix(-79.3333,102,-102,-79.3333,487.056,84.3399)"><stop offset="0" style="stop-color:rgb(134,212,235);stop-opacity:1"/><stop offset="0.3" style="stop-color:rgb(106,204,224);stop-opacity:1"/><stop offset="0.5" style="stop-color:rgb(108,170,220);stop-opacity:1"/><stop offset="0.9" style="stop-color:rgb(100,105,176);stop-opacity:1"/><stop offset="1" style="stop-color:rgb(98,97,171);stop-opacity:1"/></linearGradient>
        <linearGradient id="_Linear27" x1="0" y1="0" x2="1" y2="0" gradientUnits="userSpaceOnUse" gradientTransform="matrix(-79.3333,102,-102,-79.3333,484.83,82.6084)"><stop offset="0" style="stop-color:rgb(134,212,235);stop-opacity:1"/><stop offset="0.3" style="stop-color:rgb(106,204,224);stop-opacity:1"/><stop offset="0.5" style="stop-color:rgb(108,170,220);stop-opacity:1"/><stop offset="0.9" style="stop-color:rgb(100,105,176);stop-opacity:1"/><stop offset="1" style="stop-color:rgb(98,97,171);stop-opacity:1"/></linearGradient>
        <linearGradient id="_Linear28" x1="0" y1="0" x2="1" y2="0" gradientUnits="userSpaceOnUse" gradientTransform="matrix(-79.3333,102,-102,-79.3333,482.608,80.8803)"><stop offset="0" style="stop-color:rgb(134,212,235);stop-opacity:1"/><stop offset="0.3" style="stop-color:rgb(106,204,224);stop-opacity:1"/><stop offset="0.5" style="stop-color:rgb(108,170,220);stop-opacity:1"/><stop offset="0.9" style="stop-color:rgb(100,105,176);stop-opacity:1"/><stop offset="1" style="stop-color:rgb(98,97,171);stop-opacity:1"/></linearGradient>
        <linearGradient id="_Linear29" x1="0" y1="0" x2="1" y2="0" gradientUnits="userSpaceOnUse" gradientTransform="matrix(-74,124,-124,-74,500.741,78.1141)"><stop offset="0" style="stop-color:rgb(134,212,235);stop-opacity:1"/><stop offset="0.3" style="stop-color:rgb(106,204,224);stop-opacity:1"/><stop offset="0.5" style="stop-color:rgb(108,170,220);stop-opacity:1"/><stop offset="0.9" style="stop-color:rgb(100,105,176);stop-opacity:1"/><stop offset="1" style="stop-color:rgb(98,97,171);stop-opacity:1"/></linearGradient>
        <linearGradient id="_Linear30" x1="0" y1="0" x2="1" y2="0" gradientUnits="userSpaceOnUse" gradientTransform="matrix(130.686,0,0,130.686,407.314,130.075)"><stop offset="0" style="stop-color:rgb(134,212,235);stop-opacity:1"/><stop offset="0.3" style="stop-color:rgb(106,204,224);stop-opacity:1"/><stop offset="0.5" style="stop-color:rgb(108,170,220);stop-opacity:1"/><stop offset="0.9" style="stop-color:rgb(100,105,176);stop-opacity:1"/><stop offset="1" style="stop-color:rgb(98,97,171);stop-opacity:1"/></linearGradient>
    </defs>
</svg>
