<?xml version="1.0" encoding="UTF-8" standalone="no"?>
<!DOCTYPE svg PUBLIC "-//W3C//DTD SVG 1.1//EN" "http://www.w3.org/Graphics/SVG/1.1/DTD/svg11.dtd">
<svg width="100%" height="100%" viewBox="0 0 619 664" version="1.1" xmlns="http://www.w3.org/2000/svg" xmlns:xlink="http://www.w3.org/1999/xlink" xml:space="preserve" xmlns:serif="http://www.serif.com/" style="fill-rule:evenodd;clip-rule:evenodd;stroke-linejoin:round;stroke-miterlimit:2;">
    <g transform="matrix(1,0,0,1,-928,-194)">
        <g transform="matrix(4.16667,0,0,4.16667,0,0)">
            <rect x="223.039" y="159.269" width="119.832" height="1.222" style="fill:url(#_Linear1);"/>
            <rect x="223.039" y="163.345" width="119.832" height="1.222" style="fill:url(#_Linear2);"/>
            <rect x="223.039" y="167.42" width="119.832" height="1.224" style="fill:url(#_Linear3);"/>
            <rect x="223.039" y="171.496" width="119.832" height="1.223" style="fill:url(#_Linear4);"/>
            <rect x="223.039" y="142.966" width="119.832" height="1.222" style="fill:url(#_Linear5);"/>
            <rect x="223.039" y="155.193" width="119.832" height="1.223" style="fill:url(#_Linear6);"/>
            <rect x="223.039" y="147.041" width="119.832" height="1.223" style="fill:url(#_Linear7);"/>
            <rect x="223.039" y="151.117" width="119.832" height="1.223" style="fill:url(#_Linear8);"/>
            <path d="M245.911,187.8L248.028,189.022L317.882,189.022L319.999,187.8L245.911,187.8Z" style="fill:url(#_Linear9);"/>
            <path d="M267.089,200.027L269.207,201.25L296.703,201.25L298.82,200.027L267.089,200.027Z" style="fill:url(#_Linear10);"/>
            <path d="M274.149,204.103L276.267,205.325L289.644,205.325L291.761,204.103L274.149,204.103Z" style="fill:url(#_Linear11);"/>
            <path d="M260.03,195.951L262.147,197.174L303.763,197.174L305.88,195.951L260.03,195.951Z" style="fill:url(#_Linear12);"/>
            <path d="M238.851,183.724L240.969,184.946L324.941,184.946L327.059,183.724L238.851,183.724Z" style="fill:url(#_Linear13);"/>
            <path d="M252.97,191.875L255.088,193.098L310.822,193.098L312.939,191.875L252.97,191.875Z" style="fill:url(#_Linear14);"/>
            <path d="M231.792,179.647L233.91,180.87L332.001,180.87L334.118,179.647L231.792,179.647Z" style="fill:url(#_Linear15);"/>
            <path d="M224.732,175.572L226.85,176.795L339.06,176.795L341.178,175.572L224.732,175.572Z" style="fill:url(#_Linear16);"/>
            <rect x="223.039" y="138.89" width="119.832" height="1.222" style="fill:url(#_Linear17);"/>
            <path d="M249.764,89.98L247.646,91.204L318.264,91.204L316.146,89.98L249.764,89.98Z" style="fill:url(#_Linear18);"/>
            <path d="M256.824,85.905L254.706,87.127L311.204,87.127L309.087,85.905L256.824,85.905Z" style="fill:url(#_Linear19);"/>
            <path d="M235.645,98.132L233.527,99.355L332.383,99.355L330.265,98.132L235.645,98.132Z" style="fill:url(#_Linear20);"/>
            <path d="M242.705,94.056L240.587,95.279L325.323,95.279L323.205,94.056L242.705,94.056Z" style="fill:url(#_Linear21);"/>
            <path d="M263.883,81.829L261.765,83.052L304.145,83.052L302.027,81.829L263.883,81.829Z" style="fill:url(#_Linear22);"/>
            <path d="M270.942,77.753L268.825,78.976L297.085,78.976L294.967,77.753L270.942,77.753Z" style="fill:url(#_Linear23);"/>
            <path d="M282.944,70.824L282.966,70.824L282.955,70.818L282.944,70.824Z" style="fill:url(#_Linear24);"/>
            <path d="M278.002,73.677L275.884,74.9L290.026,74.9L287.908,73.677L278.002,73.677Z" style="fill:url(#_Linear25);"/>
            <path d="M228.585,102.208L226.468,103.43L339.442,103.43L337.324,102.208L228.585,102.208Z" style="fill:url(#_Linear26);"/>
            <rect x="223.039" y="126.663" width="119.832" height="1.222" style="fill:url(#_Linear27);"/>
            <rect x="223.039" y="122.586" width="119.832" height="1.223" style="fill:url(#_Linear28);"/>
            <rect x="223.039" y="130.738" width="119.832" height="1.223" style="fill:url(#_Linear29);"/>
            <rect x="223.039" y="118.511" width="119.832" height="1.222" style="fill:url(#_Linear30);"/>
            <rect x="223.039" y="134.814" width="119.832" height="1.223" style="fill:url(#_Linear31);"/>
            <rect x="223.039" y="106.283" width="119.832" height="1.223" style="fill:url(#_Linear32);"/>
            <rect x="223.039" y="114.435" width="119.832" height="1.223" style="fill:url(#_Linear33);"/>
            <rect x="223.039" y="110.359" width="119.832" height="1.223" style="fill:url(#_Linear34);"/>
            <path d="M233.567,99.195L233.567,168.379L293.483,202.972L353.398,168.379L353.398,99.195L293.483,64.602L233.567,99.195Z" style="fill:url(#_Linear35);"/>
            <path d="M239.704,159.23L298.97,193.448L358.236,159.23L358.236,90.796L298.97,56.579L239.704,90.796L239.704,159.23ZM298.97,194.948L238.404,159.98L238.404,90.046L298.97,55.079L359.535,90.046L359.535,159.98L298.97,194.948Z" style="fill:url(#_Linear36);"/>
            <path d="M347.217,85.459C346.857,85.459 346.567,85.75 346.567,86.109L346.567,88.101C346.567,88.46 346.857,88.75 347.217,88.75C347.575,88.75 347.866,88.46 347.866,88.101L347.866,86.109C347.866,85.75 347.575,85.459 347.217,85.459Z" style="fill:rgb(3,4,4);fill-rule:nonzero;"/>
            <path d="M347.217,92.338C346.857,92.338 346.567,92.628 346.567,92.987L346.567,95.26C346.567,95.619 346.857,95.91 347.217,95.91C347.575,95.91 347.866,95.619 347.866,95.26L347.866,92.987C347.866,92.628 347.575,92.338 347.217,92.338Z" style="fill:rgb(3,4,4);fill-rule:nonzero;"/>
            <path d="M349.516,90.047C349.622,90.047 349.731,90.02 349.832,89.964L351.526,89.016C351.839,88.84 351.951,88.444 351.775,88.131C351.601,87.818 351.205,87.707 350.892,87.882L349.197,88.831C348.884,89.006 348.772,89.402 348.948,89.715C349.066,89.927 349.287,90.047 349.516,90.047Z" style="fill:rgb(3,4,4);fill-rule:nonzero;"/>
            <path d="M344.89,91.243L342.907,92.353C342.594,92.529 342.482,92.925 342.657,93.238C342.776,93.45 342.998,93.57 343.225,93.57C343.332,93.57 343.441,93.543 343.542,93.487L345.524,92.376C345.838,92.201 345.949,91.805 345.774,91.492C345.599,91.18 345.204,91.067 344.89,91.243Z" style="fill:rgb(3,4,4);fill-rule:nonzero;"/>
            <path d="M342.99,88.924L344.764,90.03C344.871,90.097 344.99,90.129 345.107,90.129C345.324,90.129 345.536,90.02 345.659,89.823C345.849,89.519 345.756,89.118 345.452,88.928L343.679,87.822C343.374,87.632 342.974,87.725 342.783,88.029C342.594,88.333 342.687,88.734 342.99,88.924Z" style="fill:rgb(3,4,4);fill-rule:nonzero;"/>
            <path d="M351.442,92.665L349.629,91.534C349.324,91.344 348.924,91.437 348.734,91.741C348.544,92.045 348.637,92.446 348.941,92.636L350.755,93.768C350.862,93.834 350.98,93.866 351.099,93.866C351.314,93.866 351.526,93.758 351.649,93.561C351.84,93.256 351.747,92.855 351.442,92.665Z" style="fill:rgb(3,4,4);fill-rule:nonzero;"/>
            <path d="M247.756,109.362C246.431,109.362 245.353,108.284 245.353,106.958C245.353,105.633 246.431,104.555 247.756,104.555C249.082,104.555 250.16,105.633 250.16,106.958C250.16,108.284 249.082,109.362 247.756,109.362ZM247.756,103.256C245.715,103.256 244.054,104.917 244.054,106.958C244.054,109 245.715,110.661 247.756,110.661C249.798,110.661 251.459,109 251.459,106.958C251.459,104.917 249.798,103.256 247.756,103.256Z" style="fill:rgb(3,4,4);fill-rule:nonzero;"/>
            <path d="M312.852,174.369L314.755,172.459C315.008,172.205 315.008,171.794 314.753,171.54C314.499,171.287 314.088,171.288 313.835,171.542L311.935,173.449L310.033,171.542C309.78,171.288 309.369,171.287 309.115,171.54C308.86,171.794 308.86,172.205 309.113,172.459L311.018,174.369L309.011,176.383C308.757,176.637 308.758,177.048 309.012,177.301C309.139,177.428 309.305,177.49 309.471,177.49C309.637,177.49 309.804,177.427 309.931,177.3L311.935,175.289L313.938,177.3C314.064,177.427 314.231,177.49 314.397,177.49C314.563,177.49 314.729,177.428 314.856,177.301C315.11,177.048 315.111,176.637 314.857,176.383L312.852,174.369Z" style="fill:rgb(3,4,4);fill-rule:nonzero;"/>
        </g>
        <g transform="matrix(0.520833,0,0,0.520833,1234.51,554.674)">
            <g transform="matrix(1,0,0,1,-256,-256)">
                <rect x="392" y="296" width="16" height="16" style="fill-rule:nonzero;"/>
                <path d="M440,172.224L440,96C440,82.834 429.166,72 416,72C413.269,72.027 410.562,72.525 408,73.472L408,72C408,58.834 397.166,48 384,48C381.269,48.027 378.562,48.525 376,49.472L376,40C376,26.834 365.166,16 352,16C338.834,16 328,26.834 328,40L328,41.472C325.438,40.525 322.731,40.027 320,40C306.834,40 296,50.834 296,64L296,147.056L287.592,151.256C273.156,158.477 264,173.293 264,189.434C264,203.693 271.144,217.042 283.008,224.952L304.872,239.528C309.32,242.492 311.999,247.495 312,252.84L312,264L304,264C299.611,264 296,267.611 296,272L296,496L312,496L312,280L424,280L424,496L440,496L440,272C440,267.611 436.389,264 432,264L424,264L424,241.864C434.501,220.15 439.971,196.344 440,172.224ZM328,264L328,252.84C328.011,242.149 322.653,232.137 313.752,226.216L291.88,211.64C284.465,206.695 280.001,198.35 280.001,189.438C280.001,179.345 285.726,170.082 294.752,165.568L296,164.944L296,184L312,184L312,64C312,59.611 315.611,56 320,56C324.389,56 328,59.611 328,64L328,144L344,144L344,40C344,35.611 347.611,32 352,32C356.389,32 360,35.611 360,40L360,152L376,152L376,72C376,67.611 379.611,64 384,64C388.389,64 392,67.611 392,72L392,160L408,160L408,96C408,91.611 411.611,88 416,88C420.389,88 424,91.611 424,96L424,172.224C423.963,194.51 418.76,216.487 408.8,236.424C408.26,237.538 407.986,238.762 408,240L408,264L328,264Z" style="fill-rule:nonzero;"/>
                <rect x="200" y="456" width="16" height="16" style="fill-rule:nonzero;"/>
                <path d="M248,332.224L248,280C248,266.834 237.166,256 224,256C221.269,256.027 218.562,256.525 216,257.472L216,256C216,242.834 205.166,232 192,232C189.269,232.027 186.562,232.525 184,233.472L184,224C184,210.834 173.166,200 160,200C146.834,200 136,210.834 136,224L136,225.472C133.438,224.525 130.731,224.027 128,224C114.834,224 104,234.834 104,248L104,307.056L95.592,311.256C81.156,318.477 72,333.293 72,349.434C72,363.693 79.144,377.042 91.008,384.952L112.872,399.528C117.32,402.492 119.999,407.495 120,412.84L120,424L112,424C107.611,424 104,427.611 104,432L104,496L120,496L120,440L232,440L232,496L248,496L248,432C248,427.611 244.389,424 240,424L232,424L232,401.864C242.501,380.15 247.971,356.344 248,332.224ZM136,424L136,412.8C136.011,402.109 130.653,392.097 121.752,386.176L99.88,371.6C92.465,366.655 88.001,358.31 88.001,349.398C88.001,339.305 93.726,330.042 102.752,325.528L104,324.944L104,344L120,344L120,248C120,243.611 123.611,240 128,240C132.389,240 136,243.611 136,248L136,304L152,304L152,224C152,219.611 155.611,216 160,216C164.389,216 168,219.611 168,224L168,312L184,312L184,256C184,251.611 187.611,248 192,248C196.389,248 200,251.611 200,256L200,320L216,320L216,280C216,275.611 219.611,272 224,272C228.389,272 232,275.611 232,280L232,332.224C231.976,354.507 226.786,376.484 216.84,396.424C216.286,397.535 215.999,398.759 216,400L216,424L136,424Z" style="fill-rule:nonzero;"/>
                <path d="M256,160L208,160C203.611,160 200,163.611 200,168L200,185.048L164.44,161.344C163.124,160.47 161.58,160.002 160,160L104,160C95.223,160 88,152.777 88,144L88,80C88,71.223 95.223,64 104,64L280,64L280,48L104,48C86.445,48 72,62.445 72,80L72,144C72,161.555 86.445,176 104,176L157.6,176L203.584,206.656C204.893,207.523 206.43,207.985 208,207.985C212.383,207.985 215.992,204.383 216,200L216,176L256,176L256,160Z" style="fill-rule:nonzero;"/>
                <rect x="112" y="88" width="16" height="16" style="fill-rule:nonzero;"/>
                <rect x="144" y="88" width="136" height="16" style="fill-rule:nonzero;"/>
                <rect x="112" y="120" width="168" height="16" style="fill-rule:nonzero;"/>
                <rect x="456" y="304" width="16" height="136" style="fill-rule:nonzero;"/>
                <rect x="456" y="456" width="16" height="16" style="fill-rule:nonzero;"/>
                <path d="M48.952,384.928L63.032,377.328C58.42,368.756 56.003,359.174 56,349.44C55.89,328.962 66.608,309.881 84.152,299.32C86.539,297.871 88.001,295.273 88,292.48L88,248L72,248L72,288.136C51.869,302.008 39.871,324.993 40,349.44C40.005,361.827 43.081,374.021 48.952,384.928Z" style="fill-rule:nonzero;"/>
                <path d="M59.28,399.528C63.423,404.106 68.117,408.153 73.256,411.576L82.136,398.264C78.096,395.574 74.404,392.395 71.144,388.8L59.28,399.528Z" style="fill-rule:nonzero;"/>
            </g>
        </g>
    </g>
    <defs>
        <linearGradient id="_Linear1" x1="0" y1="0" x2="1" y2="0" gradientUnits="userSpaceOnUse" gradientTransform="matrix(-77.3333,94.6667,-94.6667,-77.3333,329.098,103.395)"><stop offset="0" style="stop-color:rgb(253,193,128);stop-opacity:1"/><stop offset="1" style="stop-color:rgb(244,125,106);stop-opacity:1"/></linearGradient>
        <linearGradient id="_Linear2" x1="0" y1="0" x2="1" y2="0" gradientUnits="userSpaceOnUse" gradientTransform="matrix(-77.3333,94.6667,-94.6667,-77.3333,331.095,105.026)"><stop offset="0" style="stop-color:rgb(253,193,128);stop-opacity:1"/><stop offset="1" style="stop-color:rgb(244,125,106);stop-opacity:1"/></linearGradient>
        <linearGradient id="_Linear3" x1="0" y1="0" x2="1" y2="0" gradientUnits="userSpaceOnUse" gradientTransform="matrix(-77.3333,94.6667,-94.6667,-77.3333,333.092,106.657)"><stop offset="0" style="stop-color:rgb(253,193,128);stop-opacity:1"/><stop offset="1" style="stop-color:rgb(244,125,106);stop-opacity:1"/></linearGradient>
        <linearGradient id="_Linear4" x1="0" y1="0" x2="1" y2="0" gradientUnits="userSpaceOnUse" gradientTransform="matrix(-77.3333,94.6667,-94.6667,-77.3333,335.089,108.289)"><stop offset="0" style="stop-color:rgb(253,193,128);stop-opacity:1"/><stop offset="1" style="stop-color:rgb(244,125,106);stop-opacity:1"/></linearGradient>
        <linearGradient id="_Linear5" x1="0" y1="0" x2="1" y2="0" gradientUnits="userSpaceOnUse" gradientTransform="matrix(-77.3333,94.6667,-94.6667,-77.3333,321.11,96.8695)"><stop offset="0" style="stop-color:rgb(253,193,128);stop-opacity:1"/><stop offset="1" style="stop-color:rgb(244,125,106);stop-opacity:1"/></linearGradient>
        <linearGradient id="_Linear6" x1="0" y1="0" x2="1" y2="0" gradientUnits="userSpaceOnUse" gradientTransform="matrix(-77.3333,94.6667,-94.6667,-77.3333,327.101,101.763)"><stop offset="0" style="stop-color:rgb(253,193,128);stop-opacity:1"/><stop offset="1" style="stop-color:rgb(244,125,106);stop-opacity:1"/></linearGradient>
        <linearGradient id="_Linear7" x1="0" y1="0" x2="1" y2="0" gradientUnits="userSpaceOnUse" gradientTransform="matrix(-77.3333,94.6667,-94.6667,-77.3333,323.107,98.5008)"><stop offset="0" style="stop-color:rgb(253,193,128);stop-opacity:1"/><stop offset="1" style="stop-color:rgb(244,125,106);stop-opacity:1"/></linearGradient>
        <linearGradient id="_Linear8" x1="0" y1="0" x2="1" y2="0" gradientUnits="userSpaceOnUse" gradientTransform="matrix(-77.3333,94.6667,-94.6667,-77.3333,325.104,100.132)"><stop offset="0" style="stop-color:rgb(253,193,128);stop-opacity:1"/><stop offset="1" style="stop-color:rgb(244,125,106);stop-opacity:1"/></linearGradient>
        <linearGradient id="_Linear9" x1="0" y1="0" x2="1" y2="0" gradientUnits="userSpaceOnUse" gradientTransform="matrix(-77.3333,94.6667,-94.6667,-77.3333,342.777,114.569)"><stop offset="0" style="stop-color:rgb(253,193,128);stop-opacity:1"/><stop offset="1" style="stop-color:rgb(244,125,106);stop-opacity:1"/></linearGradient>
        <linearGradient id="_Linear10" x1="0" y1="0" x2="1" y2="0" gradientUnits="userSpaceOnUse" gradientTransform="matrix(-77.3333,94.6667,-94.6667,-77.3333,348.768,119.463)"><stop offset="0" style="stop-color:rgb(253,193,128);stop-opacity:1"/><stop offset="1" style="stop-color:rgb(244,125,106);stop-opacity:1"/></linearGradient>
        <linearGradient id="_Linear11" x1="0" y1="0" x2="1" y2="0" gradientUnits="userSpaceOnUse" gradientTransform="matrix(-77.3333,94.6667,-94.6667,-77.3333,350.765,121.094)"><stop offset="0" style="stop-color:rgb(253,193,128);stop-opacity:1"/><stop offset="1" style="stop-color:rgb(244,125,106);stop-opacity:1"/></linearGradient>
        <linearGradient id="_Linear12" x1="0" y1="0" x2="1" y2="0" gradientUnits="userSpaceOnUse" gradientTransform="matrix(-77.3333,94.6667,-94.6667,-77.3333,346.771,117.832)"><stop offset="0" style="stop-color:rgb(253,193,128);stop-opacity:1"/><stop offset="1" style="stop-color:rgb(244,125,106);stop-opacity:1"/></linearGradient>
        <linearGradient id="_Linear13" x1="0" y1="0" x2="1" y2="0" gradientUnits="userSpaceOnUse" gradientTransform="matrix(-77.3333,94.6667,-94.6667,-77.3333,340.78,112.938)"><stop offset="0" style="stop-color:rgb(253,193,128);stop-opacity:1"/><stop offset="1" style="stop-color:rgb(244,125,106);stop-opacity:1"/></linearGradient>
        <linearGradient id="_Linear14" x1="0" y1="0" x2="1" y2="0" gradientUnits="userSpaceOnUse" gradientTransform="matrix(-77.3333,94.6667,-94.6667,-77.3333,344.774,116.2)"><stop offset="0" style="stop-color:rgb(253,193,128);stop-opacity:1"/><stop offset="1" style="stop-color:rgb(244,125,106);stop-opacity:1"/></linearGradient>
        <linearGradient id="_Linear15" x1="0" y1="0" x2="1" y2="0" gradientUnits="userSpaceOnUse" gradientTransform="matrix(-77.3333,94.6667,-94.6667,-77.3333,338.783,111.306)"><stop offset="0" style="stop-color:rgb(253,193,128);stop-opacity:1"/><stop offset="1" style="stop-color:rgb(244,125,106);stop-opacity:1"/></linearGradient>
        <linearGradient id="_Linear16" x1="0" y1="0" x2="1" y2="0" gradientUnits="userSpaceOnUse" gradientTransform="matrix(-77.3333,94.6667,-94.6667,-77.3333,336.786,109.675)"><stop offset="0" style="stop-color:rgb(253,193,128);stop-opacity:1"/><stop offset="1" style="stop-color:rgb(244,125,106);stop-opacity:1"/></linearGradient>
        <linearGradient id="_Linear17" x1="0" y1="0" x2="1" y2="0" gradientUnits="userSpaceOnUse" gradientTransform="matrix(-77.3333,94.6667,-94.6667,-77.3333,319.113,95.2382)"><stop offset="0" style="stop-color:rgb(253,193,128);stop-opacity:1"/><stop offset="1" style="stop-color:rgb(244,125,106);stop-opacity:1"/></linearGradient>
        <linearGradient id="_Linear18" x1="0" y1="0" x2="1" y2="0" gradientUnits="userSpaceOnUse" gradientTransform="matrix(-77.3333,94.6667,-94.6667,-77.3333,295.45,75.9074)"><stop offset="0" style="stop-color:rgb(253,193,128);stop-opacity:1"/><stop offset="1" style="stop-color:rgb(244,125,106);stop-opacity:1"/></linearGradient>
        <linearGradient id="_Linear19" x1="0" y1="0" x2="1" y2="0" gradientUnits="userSpaceOnUse" gradientTransform="matrix(-77.3333,94.6667,-94.6667,-77.3333,293.453,74.2761)"><stop offset="0" style="stop-color:rgb(253,193,128);stop-opacity:1"/><stop offset="1" style="stop-color:rgb(244,125,106);stop-opacity:1"/></linearGradient>
        <linearGradient id="_Linear20" x1="0" y1="0" x2="1" y2="0" gradientUnits="userSpaceOnUse" gradientTransform="matrix(-77.3333,94.6667,-94.6667,-77.3333,299.444,79.17)"><stop offset="0" style="stop-color:rgb(253,193,128);stop-opacity:1"/><stop offset="1" style="stop-color:rgb(244,125,106);stop-opacity:1"/></linearGradient>
        <linearGradient id="_Linear21" x1="0" y1="0" x2="1" y2="0" gradientUnits="userSpaceOnUse" gradientTransform="matrix(-77.3333,94.6667,-94.6667,-77.3333,297.447,77.5387)"><stop offset="0" style="stop-color:rgb(253,193,128);stop-opacity:1"/><stop offset="1" style="stop-color:rgb(244,125,106);stop-opacity:1"/></linearGradient>
        <linearGradient id="_Linear22" x1="0" y1="0" x2="1" y2="0" gradientUnits="userSpaceOnUse" gradientTransform="matrix(-77.3333,94.6667,-94.6667,-77.3333,291.456,72.6448)"><stop offset="0" style="stop-color:rgb(253,193,128);stop-opacity:1"/><stop offset="1" style="stop-color:rgb(244,125,106);stop-opacity:1"/></linearGradient>
        <linearGradient id="_Linear23" x1="0" y1="0" x2="1" y2="0" gradientUnits="userSpaceOnUse" gradientTransform="matrix(-77.3333,94.6667,-94.6667,-77.3333,289.459,71.0135)"><stop offset="0" style="stop-color:rgb(253,193,128);stop-opacity:1"/><stop offset="1" style="stop-color:rgb(244,125,106);stop-opacity:1"/></linearGradient>
        <linearGradient id="_Linear24" x1="0" y1="0" x2="1" y2="0" gradientUnits="userSpaceOnUse" gradientTransform="matrix(-72.363,88.5823,-88.5823,-72.363,285.465,67.7509)"><stop offset="0" style="stop-color:rgb(253,193,128);stop-opacity:1"/><stop offset="1" style="stop-color:rgb(244,125,106);stop-opacity:1"/></linearGradient>
        <linearGradient id="_Linear25" x1="0" y1="0" x2="1" y2="0" gradientUnits="userSpaceOnUse" gradientTransform="matrix(-77.3333,94.6667,-94.6667,-77.3333,287.462,69.3822)"><stop offset="0" style="stop-color:rgb(253,193,128);stop-opacity:1"/><stop offset="1" style="stop-color:rgb(244,125,106);stop-opacity:1"/></linearGradient>
        <linearGradient id="_Linear26" x1="0" y1="0" x2="1" y2="0" gradientUnits="userSpaceOnUse" gradientTransform="matrix(-77.3333,94.6667,-94.6667,-77.3333,301.441,80.8013)"><stop offset="0" style="stop-color:rgb(253,193,128);stop-opacity:1"/><stop offset="1" style="stop-color:rgb(244,125,106);stop-opacity:1"/></linearGradient>
        <linearGradient id="_Linear27" x1="0" y1="0" x2="1" y2="0" gradientUnits="userSpaceOnUse" gradientTransform="matrix(-77.3333,94.6667,-94.6667,-77.3333,313.123,90.3443)"><stop offset="0" style="stop-color:rgb(253,193,128);stop-opacity:1"/><stop offset="1" style="stop-color:rgb(244,125,106);stop-opacity:1"/></linearGradient>
        <linearGradient id="_Linear28" x1="0" y1="0" x2="1" y2="0" gradientUnits="userSpaceOnUse" gradientTransform="matrix(-77.3333,94.6667,-94.6667,-77.3333,311.126,88.713)"><stop offset="0" style="stop-color:rgb(253,193,128);stop-opacity:1"/><stop offset="1" style="stop-color:rgb(244,125,106);stop-opacity:1"/></linearGradient>
        <linearGradient id="_Linear29" x1="0" y1="0" x2="1" y2="0" gradientUnits="userSpaceOnUse" gradientTransform="matrix(-77.3333,94.6667,-94.6667,-77.3333,315.12,91.9756)"><stop offset="0" style="stop-color:rgb(253,193,128);stop-opacity:1"/><stop offset="1" style="stop-color:rgb(244,125,106);stop-opacity:1"/></linearGradient>
        <linearGradient id="_Linear30" x1="0" y1="0" x2="1" y2="0" gradientUnits="userSpaceOnUse" gradientTransform="matrix(-77.3333,94.6667,-94.6667,-77.3333,309.129,87.0817)"><stop offset="0" style="stop-color:rgb(253,193,128);stop-opacity:1"/><stop offset="1" style="stop-color:rgb(244,125,106);stop-opacity:1"/></linearGradient>
        <linearGradient id="_Linear31" x1="0" y1="0" x2="1" y2="0" gradientUnits="userSpaceOnUse" gradientTransform="matrix(-77.3333,94.6667,-94.6667,-77.3333,317.116,93.6069)"><stop offset="0" style="stop-color:rgb(253,193,128);stop-opacity:1"/><stop offset="1" style="stop-color:rgb(244,125,106);stop-opacity:1"/></linearGradient>
        <linearGradient id="_Linear32" x1="0" y1="0" x2="1" y2="0" gradientUnits="userSpaceOnUse" gradientTransform="matrix(-77.3333,94.6667,-94.6667,-77.3333,303.138,82.1879)"><stop offset="0" style="stop-color:rgb(253,193,128);stop-opacity:1"/><stop offset="1" style="stop-color:rgb(244,125,106);stop-opacity:1"/></linearGradient>
        <linearGradient id="_Linear33" x1="0" y1="0" x2="1" y2="0" gradientUnits="userSpaceOnUse" gradientTransform="matrix(-77.3333,94.6667,-94.6667,-77.3333,307.132,85.4505)"><stop offset="0" style="stop-color:rgb(253,193,128);stop-opacity:1"/><stop offset="1" style="stop-color:rgb(244,125,106);stop-opacity:1"/></linearGradient>
        <linearGradient id="_Linear34" x1="0" y1="0" x2="1" y2="0" gradientUnits="userSpaceOnUse" gradientTransform="matrix(-77.3333,94.6667,-94.6667,-77.3333,305.135,83.8191)"><stop offset="0" style="stop-color:rgb(253,193,128);stop-opacity:1"/><stop offset="1" style="stop-color:rgb(244,125,106);stop-opacity:1"/></linearGradient>
        <linearGradient id="_Linear35" x1="0" y1="0" x2="1" y2="0" gradientUnits="userSpaceOnUse" gradientTransform="matrix(94,-96,96,94,245.734,182.552)"><stop offset="0" style="stop-color:rgb(244,125,106);stop-opacity:1"/><stop offset="1" style="stop-color:rgb(253,193,128);stop-opacity:1"/></linearGradient>
        <linearGradient id="_Linear36" x1="0" y1="0" x2="1" y2="0" gradientUnits="userSpaceOnUse" gradientTransform="matrix(121.131,0,0,121.131,238.404,125.013)"><stop offset="0" style="stop-color:rgb(253,193,128);stop-opacity:1"/><stop offset="1" style="stop-color:rgb(244,125,106);stop-opacity:1"/></linearGradient>
    </defs>
</svg>
