<?xml version="1.0" encoding="UTF-8"?>
<svg width="220px" height="220px" viewBox="0 0 220 220" version="1.1" xmlns="http://www.w3.org/2000/svg" xmlns:xlink="http://www.w3.org/1999/xlink">
    <!-- Generator: Sketch 54.1 (76490) - https://sketchapp.com -->
    <title>sijirolu</title>
    <desc>Created with Sketch.</desc>
    <g id="Page-1" stroke="none" stroke-width="1" fill="none" fill-rule="evenodd">
        <g id="color-copy" transform="translate(-494.000000, -560.000000)" fill="#000000">
            <g id="nama" transform="translate(119.000000, 174.000000)" font-family="Futura-Medium, Futura" font-size="30" font-weight="400" letter-spacing="-1.94999993">
                <text id="Sijirolu">
                    <tspan x="447" y="586">Sijirolu</tspan>
                </text>
            </g>
            <path d="M604.005,668.63 C603.893,668.63 603.779,668.612 603.67,668.577 L546.035,649.708 C545.593,649.563 545.294,649.151 545.294,648.687 L545.294,610.948 C545.294,610.483 545.593,610.071 546.035,609.927 L603.67,591.058 C603.888,590.985 604.123,590.985 604.34,591.058 L661.976,609.927 C662.417,610.071 662.717,610.483 662.717,610.948 L662.717,622.421 C662.717,623.015 662.235,623.497 661.641,623.497 C661.046,623.497 660.564,623.015 660.564,622.421 L660.564,611.729 L604.005,593.212 L547.446,611.729 L547.446,647.905 L604.005,666.421 L661.306,647.663 C661.873,647.476 662.479,647.786 662.664,648.351 C662.849,648.915 662.54,649.524 661.976,649.708 L604.34,668.577 C604.231,668.612 604.118,668.63 604.005,668.63" id="Fill-131"></path>
            <path d="M604.005,705.542 C603.893,705.542 603.779,705.524 603.67,705.489 L546.035,686.62 C545.575,686.47 545.272,686.03 545.295,685.548 C545.318,685.063 545.661,684.655 546.133,684.548 L573.243,678.427 C573.823,678.294 574.398,678.659 574.529,679.239 C574.661,679.819 574.297,680.396 573.717,680.526 L550.412,685.788 L604.005,703.335 L660.564,684.817 L660.564,648.687 C660.564,648.091 661.046,647.61 661.641,647.61 C662.235,647.61 662.717,648.091 662.717,648.687 L662.717,685.599 C662.717,686.063 662.417,686.476 661.976,686.62 L604.34,705.489 C604.231,705.524 604.118,705.542 604.005,705.542" id="Fill-132"></path>
            <path d="M604.005,705.542 C603.411,705.542 602.929,705.06 602.929,704.466 L602.929,612.005 C602.929,611.411 603.411,610.929 604.005,610.929 C604.6,610.929 605.082,611.411 605.082,612.005 L605.082,704.466 C605.082,705.06 604.6,705.542 604.005,705.542" id="Fill-133"></path>
            <path d="M661.641,630.894 C660.318,630.894 659.243,631.966 659.243,633.286 C659.243,634.604 660.318,635.677 661.641,635.677 C662.963,635.677 664.038,634.604 664.038,633.286 C664.038,631.966 662.963,630.894 661.641,630.894 Z M661.641,637.829 C659.131,637.829 657.09,635.79 657.09,633.286 C657.09,630.78 659.131,628.741 661.641,628.741 C664.149,628.741 666.19,630.78 666.19,633.286 C666.19,635.79 664.149,637.829 661.641,637.829 L661.641,637.829 Z" id="Fill-134"></path>
        </g>
    </g>
</svg>