<svg width="83" height="30" viewBox="0 0 83 30" fill="none" xmlns="http://www.w3.org/2000/svg">
<path d="M23.68 8.76C23.68 8.97333 23.5867 9.08 23.4 9.08C23.1067 9.08 22.84 8.56 22.6 7.52C22.12 5.46667 21.4533 4.06667 20.6 3.32C19.7467 2.57333 18.3867 2.2 16.52 2.2C15.8 2.2 15.1733 2.22667 14.64 2.28L14.68 26.6C14.7067 27.2667 14.8933 27.6933 15.24 27.88C15.5867 28.0667 16.52 28.2267 18.04 28.36C18.3333 28.3867 18.48 28.5067 18.48 28.72C18.48 28.9867 18.2667 29.12 17.84 29.12C17.76 29.12 17.56 29.1067 17.24 29.08C16.84 29.0533 16.5067 29.04 16.24 29.04L12.12 28.92L5.32 29.04C4.94667 29.04 4.76 28.9333 4.76 28.72C4.76 28.56 4.81333 28.4667 4.92 28.44C5.02667 28.4133 5.46667 28.3867 6.24 28.36C7.70667 28.3067 8.49333 27.96 8.6 27.32C8.65333 26.9733 8.68 24.2667 8.68 19.2V2.28C8.38667 2.25333 8.04 2.24 7.64 2.24C5.50667 2.24 3.94667 2.64 2.96 3.44C2 4.21333 1.37333 5.6 1.08 7.6C0.893333 8.77333 0.653333 9.36 0.36 9.36C0.12 9.36 0 9.2 0 8.88C0 8.66667 0.0533333 7.93333 0.16 6.68C0.373333 4.06667 0.506667 2.28 0.56 1.32H1.16L4.08 1.28C4.16 1.28 5.08 1.30667 6.84 1.36C8.62667 1.41333 10.8933 1.44 13.64 1.44C15.16 1.44 16.52 1.42667 17.72 1.4C18.92 1.37333 20.0133 1.36 21 1.36C21.88 1.36 22.5467 1.33333 23 1.28C23.08 3.01333 23.28 5.22667 23.6 7.92C23.6533 8.37333 23.68 8.65333 23.68 8.76ZM39.7175 24.12C39.7175 24.7067 39.3708 25.48 38.6775 26.44C37.1842 28.4933 35.2375 29.52 32.8375 29.52C30.1442 29.52 27.9308 28.6667 26.1975 26.96C24.4642 25.2533 23.5975 23.0667 23.5975 20.4C23.5975 17.7867 24.4375 15.6133 26.1175 13.88C27.7975 12.12 29.8908 11.24 32.3975 11.24C34.1042 11.24 35.5575 11.6133 36.7575 12.36C38.0908 13.1867 38.9575 14.3733 39.3575 15.92C39.4642 16.4 39.5442 16.9733 39.5975 17.64C38.9842 17.6933 36.5175 17.7333 32.1975 17.76C31.5308 17.76 30.6908 17.7867 29.6775 17.84C29.5975 18.8 29.5575 19.6133 29.5575 20.28C29.5575 23.4 30.2108 25.6133 31.5175 26.92C32.2908 27.6933 33.2375 28.08 34.3575 28.08C35.2908 28.08 36.1842 27.76 37.0375 27.12C37.9175 26.48 38.5842 25.6533 39.0375 24.64C39.2508 24.1333 39.4242 23.88 39.5575 23.88C39.6642 23.88 39.7175 23.96 39.7175 24.12ZM34.6775 17.16C34.7042 15.1067 34.5575 13.68 34.2375 12.88C33.9175 12.08 33.3575 11.68 32.5575 11.68C30.9308 11.68 29.9975 13.5067 29.7575 17.16C30.3175 17.1333 31.4908 17.12 33.2775 17.12C33.8108 17.12 34.2775 17.1333 34.6775 17.16ZM50.8147 28.72C50.8147 28.9333 50.308 29.04 49.2947 29.04C49.0547 29.04 48.308 29.0133 47.0547 28.96C46.4147 28.9333 45.788 28.92 45.1747 28.92C44.588 28.92 43.4947 28.9467 41.8947 29L40.6947 29.04C40.108 29.0667 39.8147 28.9733 39.8147 28.76C39.8147 28.5467 40.1214 28.4533 40.7347 28.48C41.668 28.5067 42.2014 28.4133 42.3347 28.2C42.4947 27.9867 42.5747 27.1867 42.5747 25.8V4.72C42.5747 3.81333 42.4814 3.28 42.2947 3.12C42.108 2.93333 41.5614 2.84 40.6547 2.84C39.988 2.84 39.6547 2.74667 39.6547 2.56C39.6547 2.34667 40.0014 2.22667 40.6947 2.2C43.6814 2.09333 46.1214 1.64 48.0147 0.839998C47.988 1.64 47.9747 6.32 47.9747 14.88V24.84C47.9747 26.6533 48.0147 27.72 48.0947 28.04C48.2014 28.3333 48.5347 28.4667 49.0947 28.44L50.2947 28.4C50.6414 28.4 50.8147 28.5067 50.8147 28.72ZM61.3037 28.72C61.3037 28.9333 60.7971 29.04 59.7837 29.04C59.5437 29.04 58.7971 29.0133 57.5437 28.96C56.9037 28.9333 56.2771 28.92 55.6637 28.92C55.0771 28.92 53.9837 28.9467 52.3837 29L51.1837 29.04C50.5971 29.0667 50.3037 28.9733 50.3037 28.76C50.3037 28.5467 50.6104 28.4533 51.2237 28.48C52.1571 28.5067 52.6904 28.4133 52.8237 28.2C52.9837 27.9867 53.0637 27.1867 53.0637 25.8V4.72C53.0637 3.81333 52.9704 3.28 52.7837 3.12C52.5971 2.93333 52.0504 2.84 51.1437 2.84C50.4771 2.84 50.1437 2.74667 50.1437 2.56C50.1437 2.34667 50.4904 2.22667 51.1837 2.2C54.1704 2.09333 56.6104 1.64 58.5037 0.839998C58.4771 1.64 58.4637 6.32 58.4637 14.88V24.84C58.4637 26.6533 58.5037 27.72 58.5837 28.04C58.6904 28.3333 59.0237 28.4667 59.5837 28.44L60.7837 28.4C61.1304 28.4 61.3037 28.5067 61.3037 28.72ZM82.6728 27.72C82.6728 27.9333 82.4461 28.0533 81.9928 28.08C79.5661 28.16 77.8861 28.2933 76.9528 28.48C76.0195 28.64 75.2195 28.9467 74.5528 29.4C74.3928 29.5067 74.2461 29.56 74.1128 29.56C74.0061 29.56 73.9528 29.4533 73.9528 29.24C73.9528 28.8667 73.9661 28.5733 73.9928 28.36C74.0195 28.12 74.0328 27.84 74.0328 27.52C74.0328 27.28 74.0195 27.0667 73.9928 26.88C72.3128 28.64 70.4861 29.52 68.5128 29.52C66.7528 29.52 65.3661 28.96 64.3528 27.84C63.7128 27.1467 63.3928 25.8667 63.3928 24V21.16C63.3928 20.84 63.4061 20.0533 63.4328 18.8C63.4328 17.5467 63.4328 15.8133 63.4328 13.6C63.4328 13.0133 63.3395 12.6533 63.1528 12.52C62.9928 12.3867 62.5128 12.3067 61.7128 12.28C61.0195 12.2533 60.6728 12.1467 60.6728 11.96C60.6728 11.7467 60.8595 11.64 61.2328 11.64H61.6728C62.0728 11.64 62.6728 11.6667 63.4728 11.72C64.2995 11.7467 64.8595 11.76 65.1528 11.76C65.2061 11.76 65.4728 11.7467 65.9528 11.72C66.4595 11.6933 67.1928 11.68 68.1528 11.68H68.9128V16C68.9128 18.0533 68.8861 19.56 68.8328 20.52C68.8061 21.48 68.7928 21.8933 68.7928 21.76C68.7928 24.56 68.9661 26.3067 69.3128 27C69.6861 27.6933 70.2595 28.04 71.0328 28.04C71.9128 28.04 72.7395 27.5467 73.5128 26.56C73.7528 26.2667 73.8861 25.9733 73.9128 25.68C73.9661 25.36 73.9928 24.6 73.9928 23.4V16.52C73.9928 14.5733 73.9661 13.4 73.9128 13C73.8595 12.4933 73.5261 12.24 72.9128 12.24H71.7928C71.4195 12.24 71.2328 12.1333 71.2328 11.92C71.2328 11.76 71.9528 11.68 73.3928 11.68C74.6461 11.68 76.6328 11.6667 79.3528 11.64C79.3261 12.6533 79.3128 14.28 79.3128 16.52V24.64C79.3128 25.8933 79.3395 26.64 79.3928 26.88C79.4461 27.0933 79.6461 27.24 79.9928 27.32C80.2328 27.3733 80.9528 27.4 82.1528 27.4C82.4995 27.4 82.6728 27.5067 82.6728 27.72Z" fill="#252525"/>
</svg>
