<?xml version="1.0" encoding="UTF-8"?>
<svg width="241px" height="120px" viewBox="0 0 241 120" version="1.1" xmlns="http://www.w3.org/2000/svg" xmlns:xlink="http://www.w3.org/1999/xlink">
    <!-- Generator: Sketch 54.1 (76490) - https://sketchapp.com -->
    <title>tiga</title>
    <desc>Created with Sketch.</desc>
    <g id="Page-1" stroke="none" stroke-width="1" fill="none" fill-rule="evenodd">
        <g id="838" transform="translate(-793.000000, -1118.000000)">
            <path d="M822.002,1142.05 C822.002,1143.58 820.764,1144.81 819.235,1144.81 C817.707,1144.81 816.468,1143.58 816.468,1142.05 C816.468,1140.52 817.707,1139.28 819.235,1139.28 C820.764,1139.28 822.002,1140.52 822.002,1142.05" id="Fill-142" fill="#0A0D0E"></path>
            <path d="M850.002,1142.05 C850.002,1143.58 848.764,1144.81 847.235,1144.81 C845.707,1144.81 844.468,1143.58 844.468,1142.05 C844.468,1140.52 845.707,1139.28 847.235,1139.28 C848.764,1139.28 850.002,1140.52 850.002,1142.05" id="Fill-143" fill="#0A0D0E"></path>
            <path d="M878.002,1142.05 C878.002,1143.58 876.764,1144.81 875.235,1144.81 C873.707,1144.81 872.468,1143.58 872.468,1142.05 C872.468,1140.52 873.707,1139.28 875.235,1139.28 C876.764,1139.28 878.002,1140.52 878.002,1142.05" id="Fill-144" fill="#0A0D0E"></path>
            <path d="M870.177,1209.08 L846.743,1222.6 L846.743,1195.54 L870.177,1209.08 Z M874.728,1209.08 L844.468,1191.6 L844.468,1226.55 L874.728,1209.08 L874.728,1209.08 Z" id="Fill-168" fill="#E0547B"></path>
            <path d="M921.93,1209.08 L898.495,1222.6 L898.495,1195.54 L921.93,1209.08 Z M926.481,1209.08 L896.22,1191.6 L896.22,1226.55 L926.481,1209.08 L926.481,1209.08 Z" id="Fill-169" fill="#0A0D0E"></path>
            <path d="M973.683,1209.08 L950.248,1222.6 L950.248,1195.54 L973.683,1209.08 Z M978.234,1209.08 L947.974,1191.6 L947.974,1226.55 L978.234,1209.08 L978.234,1209.08 Z" id="Fill-170" fill="#0A0D0E"></path>
            <path d="M1025.44,1209.08 L1002,1222.6 L1002,1195.54 L1025.44,1209.08 Z M1029.99,1209.08 L999.727,1191.6 L999.727,1226.55 L1029.99,1209.08 L1029.99,1209.08 Z" id="Fill-171" fill="#0A0D0E"></path>
        </g>
    </g>
</svg>