<?xml version="1.0" encoding="UTF-8"?>
<svg width="220px" height="220px" viewBox="0 0 220 220" version="1.1" xmlns="http://www.w3.org/2000/svg" xmlns:xlink="http://www.w3.org/1999/xlink">
    <!-- Generator: Sketch 54.1 (76490) - https://sketchapp.com -->
    <title>triatop</title>
    <desc>Created with Sketch.</desc>
    <g id="Page-1" stroke="none" stroke-width="1" fill="none" fill-rule="evenodd">
        <g id="color-copy" transform="translate(-80.000000, -290.000000)" fill="#000000">
            <g id="nama" transform="translate(119.000000, 174.000000)" font-family="Copperplate-Light, Copperplate" font-size="40" font-weight="300">
                <text id="Triatop">
                    <tspan x="5" y="322">Triatop</tspan>
                </text>
            </g>
            <path d="M154.722,440.04 L197.344,440.634 L175.045,400.806 L154.722,440.04 Z M282.922,444.153 L282.906,444.153 L226.035,443.362 C225.392,443.353 224.877,442.825 224.887,442.181 C224.896,441.544 225.415,441.034 226.051,441.034 L226.067,441.034 L281.008,441.8 L217.917,318.044 L176.328,398.331 L200.36,441.257 C200.563,441.62 200.559,442.063 200.345,442.421 C200.132,442.778 199.741,442.993 199.329,442.989 L152.807,442.341 C152.402,442.335 152.031,442.122 151.824,441.776 C151.617,441.429 151.603,441.001 151.789,440.642 L173.684,398.374 L152.83,361.126 L105.077,441.095 C104.746,441.647 104.03,441.825 103.48,441.497 C102.928,441.169 102.748,440.454 103.078,439.901 L151.863,358.204 C152.076,357.849 152.473,357.62 152.878,357.638 C153.294,357.644 153.675,357.87 153.878,358.233 L174.966,395.899 L216.892,314.962 C217.091,314.575 217.49,314.333 217.925,314.333 L217.929,314.333 C218.365,314.335 218.764,314.581 218.962,314.97 L283.958,442.462 C284.144,442.825 284.126,443.259 283.91,443.604 C283.698,443.946 283.323,444.153 282.922,444.153 L282.922,444.153 Z" id="Fill-125"></path>
            <path d="M215.814,438.577 C214.499,438.577 213.428,439.646 213.428,440.958 C213.428,442.271 214.499,443.339 215.814,443.339 C217.13,443.339 218.201,442.271 218.201,440.958 C218.201,439.646 217.13,438.577 215.814,438.577 Z M215.814,445.667 C213.215,445.667 211.1,443.556 211.1,440.958 C211.1,438.362 213.215,436.251 215.814,436.251 C218.414,436.251 220.529,438.362 220.529,440.958 C220.529,443.556 218.414,445.667 215.814,445.667 L215.814,445.667 Z" id="Fill-126"></path>
        </g>
    </g>
</svg>