<svg width="3" height="17" viewBox="0 0 3 17" fill="none" xmlns="http://www.w3.org/2000/svg">
<g clip-path="url(#clip0)">
<rect width="1920" height="2627" transform="translate(-328 -1306)" fill="white"/>
<rect x="-328" y="-514" width="1908" height="569" fill="#F5D250"/>
<path fill-rule="evenodd" clip-rule="evenodd" d="M-820.101 -402.643C-708.447 -464.818 -604.3 -537.02 -482.301 -589.455C8.31396 -800.308 272.83 -271.973 683.008 -193.961C827.583 -166.464 949.568 -248.725 1088.35 -250.577C1186.91 -251.891 1272.89 -184.277 1351.83 -193.316C1422.55 -201.412 1478.21 -267.963 1555.83 -259.69C1665.53 -247.991 1746.62 -104.517 1724.18 -27.8904C1692.78 79.3116 1324.66 90.4697 1205.06 108.964C892.273 157.337 560.099 215.172 236.945 191.297C84.6451 180.048 -61.1144 145.39 -207.835 116.836C-283.646 102.081 -373.732 103.535 -445.757 81.131C-635.405 22.1417 -777.216 -112.101 -844.312 -247.111C-851.034 -260.633 -912.579 -467.293 -826.995 -434.102C-811.861 -428.233 -820.101 -402.643 -820.101 -402.643Z" fill="white"/>
<rect width="181" height="17" fill="#223D77" fill-opacity="0.11"/>
</g>
<defs>
<clipPath id="clip0">
<rect width="1920" height="2627" fill="white" transform="translate(-328 -1306)"/>
</clipPath>
</defs>
</svg>
