<?xml version="1.0" encoding="UTF-8"?>
<svg width="220px" height="220px" viewBox="0 0 220 220" version="1.1" xmlns="http://www.w3.org/2000/svg" xmlns:xlink="http://www.w3.org/1999/xlink">
    <!-- Generator: Sketch 54.1 (76490) - https://sketchapp.com -->
    <title>wulenda</title>
    <desc>Created with Sketch.</desc>
    <g id="Page-1" stroke="none" stroke-width="1" fill="none" fill-rule="evenodd">
        <g id="color-copy" transform="translate(-490.000000, -290.000000)" fill="#000000">
            <g id="nama" transform="translate(119.000000, 174.000000)" font-family="Georgia-Bold, Georgia" font-size="26" font-weight="bold">
                <text id="Wulenda">
                    <tspan x="423" y="324">Wulenda</tspan>
                </text>
            </g>
            <path d="M601.702,312.7 C600.639,312.7 599.589,312.774 598.564,312.915 C590.298,314.052 581.842,319.835 581.585,330.192 L581.578,330.563 L580.605,416.737 C580.515,424.767 583.9,432.372 590.14,438.151 C593.075,440.87 596.466,443.022 600.158,444.552 C611.893,439.968 620.184,429.425 620.324,417.106 L621.296,330.937 C621.317,328.96 620.926,326.864 620.131,324.708 C617.008,316.222 609.096,312.7 601.702,312.7 Z M619.9,449.974 C619.773,449.974 619.651,449.974 619.523,449.972 L613.512,449.915 C608.847,449.872 604.321,449.026 600.122,447.452 C595.951,448.923 591.398,449.7 586.675,449.667 L580.663,449.61 C571.028,449.521 561.982,446.009 555.193,439.72 C548.402,433.431 544.717,425.149 544.816,416.405 C544.825,415.671 545.481,415.081 546.286,415.081 L546.302,415.081 C547.113,415.089 547.765,415.694 547.757,416.433 C547.666,424.462 551.052,432.067 557.291,437.847 C563.532,443.626 571.843,446.854 580.693,446.937 L586.705,446.993 C590.059,447.017 593.289,446.604 596.347,445.794 C593.33,444.267 590.533,442.333 588.042,440.024 C581.25,433.735 577.566,425.454 577.665,416.71 L578.644,330.136 C578.941,318.224 588.641,311.575 598.124,310.271 C607.507,308.985 618.806,312.683 622.921,323.86 C623.818,326.298 624.261,328.687 624.237,330.964 L623.265,417.134 C623.124,429.604 615.307,440.403 603.94,445.866 C607.013,446.743 610.24,447.212 613.542,447.241 L619.554,447.298 C637.914,447.437 652.985,434.062 653.172,417.411 L654.145,331.241 C654.154,330.509 654.811,329.919 655.616,329.919 L655.631,329.919 C656.442,329.927 657.094,330.53 657.086,331.269 L656.113,417.438 C655.909,435.448 639.699,449.972 619.9,449.974 L619.9,449.974 Z" id="Fill-113"></path>
            <path d="M543.793,400.7 C544.974,401.466 546.62,401.218 547.462,400.146 C547.87,399.626 548.029,398.997 547.915,398.37 C547.799,397.741 547.42,397.192 546.849,396.821 C545.668,396.058 544.022,396.308 543.181,397.378 C542.773,397.897 542.613,398.526 542.728,399.153 C542.844,399.782 543.222,400.331 543.793,400.7 Z M545.313,403.817 C544.195,403.817 543.066,403.513 542.088,402.88 L542.088,402.878 C540.876,402.095 540.073,400.929 539.828,399.595 C539.583,398.263 539.924,396.923 540.788,395.823 C542.571,393.556 546.055,393.026 548.555,394.644 C549.767,395.429 550.57,396.595 550.815,397.929 C551.06,399.261 550.718,400.601 549.855,401.7 C548.77,403.079 547.054,403.817 545.313,403.817 L545.313,403.817 Z" id="Fill-114"></path>
        </g>
    </g>
</svg>